<svg xmlns="http://www.w3.org/2000/svg" height="512pt" viewBox="0 0 512 512" width="512pt"><path d="M0 0h512v185.7c-6.16-2.85-11.47-7.21-17.69-9.9-1.27 8.54.52 17.35-1.85 25.73-.13-10.51.25-21.04-.23-31.54.1-3.74-2.98-6.8-6.58-7.29-.11-.22-.34-.67-.46-.9-6.74.34-13.49-.15-20.21.56-6.99-7.11-15.08-13.57-19.74-22.56-5.53-10.58-.96-23-5.2-33.92-4.69-14.69-20.13-23.79-35.08-23.95-7.72.13-15.29 2.05-22.62 4.37-.01-2.64 0-5.27-.23-7.9.02-2.63-2.3-4.59-4.64-5.3-4.71-1.22-9.61-.33-14.41-.52-72.38-.45-144.76.21-217.14-.17-2.5-.07-5.22-.35-7.29 1.37.36-.51 1.08-1.51 1.44-2.02 63.04-.28 126.1.37 189.14-.35-1.58-1.71-4.06-1.66-6.18-2.12-9.62-1.57-19.23-3.46-28.36-6.97-13.98-5.2-27.85-10.69-41.57-16.54-8.95-4.09-18.48-6.75-28.13-8.61-9.93-1.23-20.08-2.37-29.99-.3-11.92 1.23-23.43 5.79-32.96 13.05-8.9 6.9-18.74 12.48-27.42 19.68-8.47 5.33-15.18 12.81-21.73 20.26-5.53 8.01-12.15 15.17-18.6 22.43-10.72 11.4-23.5 20.51-35.33 30.65-12.49 11.4-24.18 24.21-31.31 39.72-7 13.41-9.16 28.57-11.49 43.32-.59 4.65-1.21 9.31-1.27 14 .14 9.41 2.11 18.65 4.16 27.79-3.49.79-7.05 2.81-8.46 6.26-.47 2.29-.1 4.63.12 6.93 1.45 12.05 3.63 24 4.99 36.06 2.3 16.96 3.43 34.04 5.52 51.02.7 4.8.48 9.86 2.32 14.42 1.94 4.24 7.24 5.44 11.46 4.5 1.4 2.42 2.67 4.93 3.64 7.56-8.28 6-3.38 22.45 7.32 21.9 5.36.1 10.73.54 16.08.03 3.14 4.75 6.51 10.27 12.44 11.75.99 4.87-.02 9.88.34 14.81.5 9.87.34 19.75.36 29.63-9.4.17-18.81.06-28.22.1-2.79 0-5.96 1.4-6.71 4.34-1.7 4.13.75 9.94 5.66 9.97 21.03.51 42.08-.14 63.12.11 3.23-.01 7.12.04 9.32-2.77 3.03-4.34 0-11.2-5.34-11.69-9.56-.17-19.14-.1-28.7-.24-.92-14.92-.23-29.9-.64-44.84 6.02-1.11 10.45-5.92 12.54-11.46 6.66-.09 13.54.86 20.02-1.03 4.49-1.38 5.75-6.29 7.15-10.2 6.44 21.84 10.75 44.29 17.76 65.95l.24 3.59c.07 4.52 1.26 8.9 2.81 13.12 5.78-.15 11.56.06 17.35-.14 2.05-4.1.61-8.73-1.44-12.5 1.13-.45 2.26-.89 3.4-1.31.96 4.56 1.63 9.17 2.24 13.79 13.36.53 26.74-.08 40.11.01.61-5.54-4.02-9.97-8.88-11.61-5.1-1.13-10.36-1.07-15.56-1.15l-.28-2.29c-.42-1.82-1-3.6-1.88-5.24 1.46.32 2.93.59 4.42.81.94-10.61-.11-21.29.25-31.93 6.32 1.16 12.76 1.11 19.15.76 20.45.32 40.58-3.93 60.72-6.84.33-3.04.77-6.06 1.17-9.08-.69 15.62-1.38 31.26-2.03 46.88.29 2.33.44 4.68.38 7.04-3.45.14-7.24-.77-10.34 1.22-3.44 1.96-3.97 6.89-1.95 10.04.96 1.82 3.22 1.47 4.94 1.63 7.84-.04 15.68.11 23.52-.19.36-3.99.31-8 .49-11.99.55-2.26 1.26-4.46 1.84-6.69 2.5-15.42 3.98-31 6.7-46.38 7.65-1.27 15.64-3.31 21.76-8.34 2.92 18.19 4.35 36.6 7.63 54.73.31 1.61.55 3.24.76 4.87-.91.32-1.82.65-2.72 1-5.92 1.29-7.1 10.4-1.55 12.79 7.65.41 15.36.31 23.02.01-.13-4.33.52-8.83-1.05-12.97-.77-1.85-.36-3.87-.18-5.79-.02-20.12-1.55-40.25-2.09-60.38 29.64 2.96 59.43 11.58 89.31 6.08 7.08-1.04 15.04-3.83 18.05-10.96 15.33-.16 30.66.17 45.99-.1 1.73-1.2 3.72-2.49 4.42-4.59.48-2.22.29-4.5.31-6.75-.2-13.43-.01-26.85.04-40.28.55 3.28 1.36 6.5 2.05 9.75 2.39-2.04 5.45-1.67 8.34-1.88 2.47-1.7 4.99-3.36 7.79-4.48.49 2.47 1.07 4.92 1.63 7.38V512H0V0Z" fill="#fedd98" stroke="#fedd98" stroke-width=".094"/><path d="M194.98 36.87c9.91-2.07 20.06-.93 29.99.3 9.65 1.86 19.18 4.52 28.13 8.61 13.72 5.85 27.59 11.34 41.57 16.54 9.13 3.51 18.74 5.4 28.36 6.97 2.12.46 4.6.41 6.18 2.12-63.04.72-126.1.07-189.14.35-.36.51-1.08 1.51-1.44 2.02-1.09 1.5-1.91 3.27-1.88 5.17-.04 61.36-.14 122.71-.17 184.06.01 4.23-.14 8.46-.26 12.69-4.06.92-8.18 1.61-12.33 1.96-5.57-4.99-10.09-10.99-15.5-16.12-5.41-5.12-9.9-11.19-15.94-15.61-.03-3.23-.31-6.46-1.3-9.54l-.56-2.05c4.81-.3 10.91-.24 13.42-5.25 4.8-8.59-1.48-18.02-.37-27 3.73-4.32 6.67-12.39 1.4-16.63-2.09 1.15-4.23 2.39-6.66 2.63-8.17.97-16.45.13-24.6 1.3-5.99.72-10.26 6.82-9.93 12.66.29 4.42 1.59 8.7 2.28 13.08.8 3.8 1.26 7.92 3.65 11.13-.42 3.32-1.03 6.62-1.36 9.96-.2 3.06-.11 6.12-.07 9.19-4.08 1.23-8.14 3.23-10.54 6.91-3.64 7.45-4.27 15.97-5.37 24.09-2.14 20.15-4.2 40.31-5.6 60.52-.92 4-2 8-2.05 12.14-.82-9.81-2.11-19.57-3.74-29.28-1.8-14.47-3.82-28.91-5.76-43.36-.51-3.6-2.49-7.45-6.11-8.71-3.35-.82-6.86-.35-10.25.05-2.05-9.14-4.02-18.38-4.16-27.79.06-4.69.68-9.35 1.27-14 2.33-14.75 4.49-29.91 11.49-43.32 7.13-15.51 18.82-28.32 31.31-39.72 11.83-10.14 24.61-19.25 35.33-30.65 6.45-7.26 13.07-14.42 18.6-22.43 6.55-7.45 13.26-14.93 21.73-20.26 8.68-7.2 18.52-12.78 27.42-19.68 9.53-7.26 21.04-11.82 32.96-13.05Z" fill="#f8bf68" stroke="#f8bf68" stroke-width=".094"/><path d="M138.63 73.78c2.07-1.72 4.79-1.44 7.29-1.37 72.38.38 144.76-.28 217.14.17 4.8.19 9.7-.7 14.41.52-6.13.93-12.32.5-18.49.64-14.99.16-29.97-.13-44.96.05-23.66.67-47.33-.41-71 .05-28.34.06-56.68.02-85.02.29-5.92.12-11.9-.56-17.74.66 1.62 3.99 2.88 8.2 2.37 12.55 3.73 1.3 6.41-1.9 9.41-3.44 6 .27 11.97 1.31 18.01.97 37.31.02 74.62.08 111.94.16 22.99-.39 45.98-.02 68.97.02 1.93-.01 3.76.68 5.58 1.26-51.19.46-102.38.07-153.56.12-17.53.11-35.05-.36-52.57.03.37 62.28.22 124.57.25 186.84-4.79.72-9.59 1.45-14.34 2.4.12-4.23.27-8.46.26-12.69.03-61.35.13-122.7.17-184.06-.03-1.9.79-3.67 1.88-5.17Z" fill="#00032b" stroke="#00032b" stroke-width=".094"/><path d="M377.47 73.1c2.34.71 4.66 2.67 4.64 5.3-.49 1.83-1.08 3.67-1.07 5.58.04 23.33.26 46.67.23 70-.42 29.57-.25 59.15-.38 88.73-4.07-2.15-8.25-4.06-12.24-6.35-.03-49.93.17-99.86.67-149.77-4.25-.53-8.53-.14-12.78-.28-1.82-.58-3.65-1.27-5.58-1.26-22.99-.04-45.98-.41-68.97-.02-37.32-.08-74.63-.14-111.94-.16-6.04.34-12.01-.7-18.01-.97-3 1.54-5.68 4.74-9.41 3.44.51-4.35-.75-8.56-2.37-12.55 5.84-1.22 11.82-.54 17.74-.66 28.34-.27 56.68-.23 85.02-.29 23.67-.46 47.34.62 71-.05 14.99-.18 29.97.11 44.96-.05 6.17-.14 12.36.29 18.49-.64Z" fill="#03133d" stroke="#03133d" stroke-width=".094"/><path d="M381.04 83.98c-.01-1.91.58-3.75 1.07-5.58.23 2.63.22 5.26.23 7.9.23 23.66-.29 47.34.19 71.01.17 28.57.07 57.16.38 85.72l1.32.72c1.84.95 3.72 1.81 5.6 2.7.83-12.3-.33-24.61.01-36.92 1.66 3.61 1.07 7.6 1.44 11.42.15 2.42 2.81 3.45 4.78 4.07 2.07-.78 3.65-2.41 5.35-3.76-.07-3.09-.71-6.11-1.44-9.1-.58-1.39.66-2.47 1.28-3.58.36.19 1.08.58 1.43.77.53-1.24 1.07-2.48 1.57-3.73.11 6.5-.01 12.99 0 19.49 11.26-.11 22.53.38 33.77-.41 4.16-.17 8.32.1 12.48.09-3.47 2.13-7.53 2.19-11.43 1.67 2.34 1.66 4.94 3.33 5.92 6.2 3.6.82 7.27 1.28 10.93 1.82-.28.34-.84 1-1.12 1.33-15.62-.05-31.26.8-46.87-.06-2.04.57-4.15 2.13-4.48 4.35 1.29 2.27 4 3.4 6.54 3.22 14.71-.03 29.41.18 44.12.08 1.9.29 3.01-1.47 4.09-2.71 1.9 4.24.12 8.89 1.93 13.15-.47.35-1.4 1.04-1.86 1.39.8-2.6-.69-5.3-3.41-5.74-15.3.04-30.62.2-45.92-.01-2.17-.36-3.64 1.39-5.1 2.64 2.98 2.16 6.38 3.78 10.01 4.52-1.44 3.44-4.24 6.36-4.36 10.25-1.26.9-1.95 2.31-1.32 3.84 2.47 2.78 8.44 1.31 8.63 6.01.76-1.26 1.5-2.53 2.4-3.69 1.29.46.98 2.28 1.47 3.37.49.08 1.46.25 1.94.33-.8 1.77-1.51 3.57-2.21 5.38 4 2.43 7.82 5.15 11.85 7.54 2.3 1.41 5.04.35 7.38-.37.01 2.53-2.08 3.16-4.18 3.45-.31 1.27-.6 2.54-.89 3.82-1.82.7-3.63 1.41-5.43 2.14 8.21 1.75 16.71 1.39 25.02.62 2.19-.23 4.36.26 6.51.69-.1.43-.3 1.29-.4 1.71-17.43-.15-34.88-.18-52.32-.09-1.83-.08-3.84 1.04-4.45 2.79-.62 2.23 2.16 3.12 3.47 4.34 1.28 1.37 2.11 3.07 2.87 4.78-.93.46-1.86.93-2.77 1.4-1.51.89-3.99 1.7-3.79 3.87.05 1.76 1.86 2.47 3.09 3.36-.48 2.87-.74 5.78-1.11 8.67-.15.25-.45.75-.6.99-.51 3.54-.24 7.11-.04 10.66 24.58.31 49.15-.15 73.72.23l-.04 1.21c-5.27.29-10.55.07-15.83.11.21.38.62 1.14.83 1.52-1.44 2.33-3.57 4.5-3.94 7.3.9 2.58 3.59 5.1 1.4 7.78 1.85.65 4.13.94 5.27 2.75 2.33 3.51 3.49 7.92 7.16 10.41 2.32 2.53 7.54.14 8.21 4.5-1.57 6.02-2.48 12.6-.14 18.55.85 3.06 3.91 4.58 6.17 6.51-15.33.27-30.66-.06-45.99.1-.72.02-2.15.05-2.87.07-14.95-.23-29.91.37-44.85-.12-2.02-1.51-3.78-3.68-3.93-6.3-.29-25.7.2-51.4.05-77.11.03-15.91-.33-31.83-.13-47.74-2.36-1.77-4.85-3.37-7.4-4.84-.24 10.96.41 21.95-.41 32.89-3.74-3.21-8.73-2.3-13.24-2.69.18-11.99-.07-23.98.08-35.96-11.54-5.84-23.04-11.74-34.5-17.71.47-7.54 3.08-14.66 4.14-22.09-.73-.48-1.42-1-2.08-1.55 2.39.42 4.8.97 6.88 2.27 8.39 4.79 16.9 9.35 25.48 13.77 3.99 2.29 8.17 4.2 12.24 6.35.13-29.58-.04-59.16.38-88.73.03-23.33-.19-46.67-.23-70Z" fill="#000531" stroke="#000531" stroke-width=".094"/><path d="M382.34 86.3c7.33-2.32 14.9-4.24 22.62-4.37 14.95.16 30.39 9.26 35.08 23.95 4.24 10.92-.33 23.34 5.2 33.92 4.66 8.99 12.75 15.45 19.74 22.56 6.72-.71 13.47-.22 20.21-.56.12.23.35.68.46.9-25.88-.12-51.76.15-77.65.11-4.85.36-9.76-.03-14.58.69-1.37.27-2.75.53-4.11.81-.26-1.04-.51-2.07-.76-3.11-.75.38-1.5.75-2.24 1.13l-.76-1.84c-.54.49-1.07.97-1.6 1.46-.37-1.58-.87-3.12-1.42-4.64-.48-23.67.04-47.35-.19-71.01Z" fill="#f9c16a" stroke="#f9c16a" stroke-width=".094"/><path d="M150.41 86.46c17.52-.39 35.04.08 52.57-.03 51.18-.05 102.37.34 153.56-.12 4.25.14 8.53-.25 12.78.28-.5 49.91-.7 99.84-.67 149.77-8.58-4.42-17.09-8.98-25.48-13.77-2.08-1.3-4.49-1.85-6.88-2.27-5.99-3.17-12.74-4.91-18.27-8.9l1.12-.01c9.08 0 18.16.13 27.24.06.85-3.92 1.38-8.05.13-11.95-10.5-.34-21.01.21-31.52-.14.37-1.66 1.35-3.05 2.45-4.31.37-.33 1.11-1.01 1.48-1.34.1-.02.29-.07.39-.09l1.62-.28c1.78-2.32 2.94-5.02 4.13-7.66 6.98-.05 13.95.07 20.93.08 1.79-3.87 1.22-8.18.45-12.22-7.34-.02-14.7-.21-22.03.38-.45.03-1.34.08-1.79.1l.32-1.73c1.16-4.18 1.32-8.53 1.32-12.84.69.12 2.05.36 2.73.49 6.51.87 13.23.92 19.71-.25.68-3.98.91-8.12-.35-12.02-12.36-.54-24.74.38-37.08-.51-4.76-1.75-9.86-.42-14.62.65-21.88-.59-43.78-.05-65.67-.32-5.44.03-10.89-.33-16.31.2-.26 4.19-.3 8.4.05 12.59 5.43.54 10.87-.12 16.3.03 17.82-.17 35.65.39 53.45-.38.39-1.01.8-2.02 1.21-3.03-2.1 5.12-1.3 10.84-.2 16.1-1.78 3.47-2.13 7.4-2.05 11.25-.27-3.53-.15-7.06.08-10.58-23.03-.01-46.06-.46-69.08-.1-.17 3.61-.11 7.23.03 10.84.88.6 1.76 1.21 2.64 1.82 7.23-1.18 14.6-.38 21.89-.66 14.86.28 29.72-.06 44.58.21 1.68 3.99 3.48 8.42 7.24 10.88l2.36 1.24c.19.41.57 1.24.76 1.65-26.44.28-52.89-.5-79.32.01-.61 3.91-1.01 8.18 1.23 11.67 20.06.22 40.12.46 60.19.44 5.09-.1 10.23-.05 15.28-.88-4.3 3.72-10.2 4.21-15.34 6.18-4.16 1.03-9.24 2.57-10.41 7.3-7.76 1.13-15.96-1.2-23.44 1.51.11.47.33 1.43.43 1.91-3.14-2.39-6.74-4.11-9.78-6.65-4.1-3.37-9.19-5.4-12.96-9.2-1.25-.11-2.51-.21-3.77-.29-.28.31-.84.94-1.12 1.25-1.42-3.13-2.41-6.52-4.41-9.35-3.18-3.37-7.91-5.53-12.59-4.81-2.77.3-4.83 2.49-6.19 4.75-2.35.09-4.7.11-7.05.08-2.75.04-5.65-.31-8.25.71-.5 5.31-.03 10.65-.29 15.97 7.86 1.65 16.01-.33 23.92 1.13 1.41 1.23 2.94 2.29 4.44 3.42-.32 1.61-.74 3.36-.07 4.95 3.28 2.44 6.97 4.35 9.97 7.18-.85 4.14-.71 8.38-.62 12.58 4.79-.01 9.6.21 14.35-.5 6.64 3.9 12.63 8.74 18.41 13.8-10.65.9-21.37.33-32.05.76-1.18 3.96-.79 8.13-.02 12.12 18.87.14 37.76-.45 56.63.21.46 4.53.8 9.08 1.16 13.63-4.63-1.61-9.56-.31-14.32-.33-14.54-.6-29.1-.19-43.65-.27-.13 3.94-.16 7.89-.1 11.84 1.9.39 3.83.74 5.78.69 17.83-.19 35.65.04 53.47-.14.2 4.47.93 8.96.45 13.43-.78 5.5-1.14 11.06-1.51 16.59-16.46-.05-32.92-.14-49.37-.15-23.01-.85-46.07.97-69.05-.42-5.31-.7-10.73-.64-16.03.1-3.68-2.52-2.69-7.85-3.74-11.68 4.15-2.52 9.22-2.33 13.79-3.56 10.3-2.55 20.86-3.9 31.04-6.93 7.71-1.05 15.53-.77 23.25-1.51 3.07-.22 4.71-3.15 4.95-5.92-3.08.43-6.2.61-9.3.45 1.37-3.12 5.83-2.32 8.59-3.5-.04-1.32-.07-2.65-.09-3.97-2.7.3-5.41.51-8.12.66-.01-.54-.04-1.62-.06-2.16 2.72-.71 5.58-1.24 7.98-2.8.87-1.31.11-2.83-.21-4.16-2.91-1.56-6.15-.96-9.13-.04-7.01 1.58-14.16 2.79-20.64 6.09-.06-.28-.2-.82-.26-1.09-11.53 1.3-22.73 4.49-34.19 6.25-7.61 1.13-15.05 3.28-22.72 4.02-3.69-5.48-9.2-9.38-12.89-14.87-.03 5.83 0 11.66.03 17.5-3.17.72-6.36 1.37-9.54 2.05-.4-2.17-.78-4.36-.86-6.57-.45-17.04-.25-34.11-1.54-51.11.36-1.96-1.87-2.34-3.26-2.28-6.85-.22-13.71-.53-20.56-.25-.04-3.07-.13-6.13.07-9.19 1.34.01 2.69.02 4.03.04 6.23.11 12.47.2 18.7.13.99 3.08 1.27 6.31 1.3 9.54 6.04 4.42 10.53 10.49 15.94 15.61 5.41 5.13 9.93 11.13 15.5 16.12 4.15-.35 8.27-1.04 12.33-1.96 4.75-.95 9.55-1.68 14.34-2.4-.03-62.27.12-124.56-.25-186.84Z" fill="#fefefe" stroke="#fefefe" stroke-width=".094"/><path d="M173.97 128.03c.6-2.73-.88-6.6 1.95-8.35 7.1-.37 14.23.08 21.34-.1.57.32 1.69.97 2.26 1.29.23.95.68 1.9.48 2.9-.5 3.83.05 7.71-.64 11.53-7.37.98-14.85.06-22.27.2-3.96.36-3.24-4.88-3.12-7.47Z" fill="#010835" stroke="#010835" stroke-width=".094"/><path d="M212.59 121.7c2.11-.31 4.25-.44 6.38-.42 37.02-.19 74.03-.04 111.04.06 5.43.09 10.89-.37 16.3.28 1.34 3.71.9 7.69.9 11.55-4.83 2.07-10.16.49-15.22.66-35.67-.15-71.36 0-107.04 0-4.12-.38-8.4 1.14-12.34-.57-.56-3.83-.63-7.74-.02-11.56Z" fill="#d22022" stroke="#d22022" stroke-width=".094"/><path d="M174.4 147.98c.69-1.3 2.22-1.6 3.58-1.58 6.03-.18 12.08.13 18.11.28 1.36-.1 2.56.54 3.75 1.08-.02 4.78.14 9.57-.16 14.34-.28 1.71-2.41 1.46-3.66 1.55-6.01-.11-12.03-.12-18.04-.2-1.4.13-2.57-.65-3.75-1.25.14-4.73-.23-9.49.17-14.22Z" fill="#041446" stroke="#041446" stroke-width=".094"/><path d="M294.65 147.83c4.76-1.07 9.86-2.4 14.62-.65 3.38.94 6.93 1.62 9.81 3.78 2.15 2.29 4.71 4.81 4.72 8.19.1 4.4-.48 8.78-.86 13.16l-.32 1.73c-1.31 6.5-.9 13.34-3.31 19.6-.1.02-.29.07-.39.09-.37.33-1.11 1.01-1.48 1.34-1.86 1.23-3.94 2.71-6.29 2.23-5.36-1.02-10.84-.76-16.25-.39-1.29-.13-2.58-.31-3.86-.48-.53-.33-1.58-.98-2.11-1.3-4.16-6.7-3.69-14.72-5.45-22.11-1.1-5.26-1.9-10.98.2-16.1.79-1.83 1.46-3.85 2.98-5.22 2.43-1.71 5.28-2.7 7.99-3.87Z" fill="#00021c" stroke="#00021c" stroke-width=".094"/><path d="M309.27 147.18c12.34.89 24.72-.03 37.08.51 1.26 3.9 1.03 8.04.35 12.02-6.48 1.17-13.2 1.12-19.71.25-.52-.15-1.58-.43-2.11-.57-1.2-3.23-2.57-6.72-5.8-8.43-2.88-2.16-6.43-2.84-9.81-3.78Z" fill="#d32522" stroke="#d32522" stroke-width=".094"/><path d="M212.67 147.71c5.42-.53 10.87-.17 16.31-.2 21.89.27 43.79-.27 65.67.32-2.71 1.17-5.56 2.16-7.99 3.87-1.52 1.37-2.19 3.39-2.98 5.22-.41 1.01-.82 2.02-1.21 3.03-17.8.77-35.63.21-53.45.38-5.43-.15-10.87.51-16.3-.03-.35-4.19-.31-8.4-.05-12.59Z" fill="#cd1d1d" stroke="#cd1d1d" stroke-width=".094"/><path d="M319.08 150.96c3.23 1.71 4.6 5.2 5.8 8.43.53.14 1.59.42 2.11.57-.68-.13-2.04-.37-2.73-.49 0 4.31-.16 8.66-1.32 12.84.38-4.38.96-8.76.86-13.16-.01-3.38-2.57-5.9-4.72-8.19Z" fill="#6a5c6c" stroke="#6a5c6c" stroke-width=".094"/><path d="M382.53 157.31c.55 1.52 1.05 3.06 1.42 4.64.08 12.01.32 24.03-.02 36.04.14 15.25.23 30.51.3 45.76l-1.32-.72c-.31-28.56-.21-57.15-.38-85.72Z" fill="#fad787" stroke="#fad787" stroke-width=".094"/><path d="M383.95 161.95c.53-.49 1.06-.97 1.6-1.46l.76 1.84c.74-.38 1.49-.75 2.24-1.13.25 1.04.5 2.07.76 3.11 1.36-.28 2.74-.54 4.11-.81-2.12 1.96-4.26 4.42-3.97 7.52.14 12.83.18 25.68.39 38.51-.34 12.31.82 24.62-.01 36.92-1.88-.89-3.76-1.75-5.6-2.7-.07-15.25-.16-30.51-.3-45.76.34-12.01.1-24.03.02-36.04Z" fill="#fbc66c" stroke="#fbc66c" stroke-width=".094"/><path d="M393.42 163.5c4.82-.72 9.73-.33 14.58-.69 25.89.04 51.77-.23 77.65-.11 3.6.49 6.68 3.55 6.58 7.29.48 10.5.1 21.03.23 31.54-.55 46.28-.04 92.55-.12 138.83-.11 3.79-.16 7.59-.15 11.39-.05 13.43-.24 26.85-.04 40.28-.02 2.25.17 4.53-.31 6.75-.7 2.1-2.69 3.39-4.42 4.59-2.26-1.93-5.32-3.45-6.17-6.51-2.34-5.95-1.43-12.53.14-18.55-.67-4.36-5.89-1.97-8.21-4.5-3.67-2.49-4.83-6.9-7.16-10.41-1.14-1.81-3.42-2.1-5.27-2.75 2.19-2.68-.5-5.2-1.4-7.78.37-2.8 2.5-4.97 3.94-7.3-.21-.38-.62-1.14-.83-1.52 5.28-.04 10.56.18 15.83-.11l.04-1.21c-.02-1.39-.07-2.77-.14-4.14.01-14.11-.23-28.21-.01-42.32l-.83-.04c-2.54-.27-5.08-.42-7.63-.45.01 6.74.79 13.5.1 20.23-1.88-.2-3.75-.39-5.59-.76-.78-.46-1.55-.92-2.31-1.38.11-1.72.29-3.44.46-5.15.42-2.59 1.03-5.92-2.12-6.99.1-.42.3-1.28.4-1.71-2.15-.43-4.32-.92-6.51-.69-8.31.77-16.81 1.13-25.02-.62 1.8-.73 3.61-1.44 5.43-2.14.29-1.28.58-2.55.89-3.82 2.1-.29 4.19-.92 4.18-3.45 2.23-1.53 4.15-3.46 5.88-5.53 6.12.91 12.33.2 18.49.38 4.57-.14 9.22.39 13.74-.56 1.35-2.4.23-5.43-.51-7.92-10.61-.08-21.23.21-31.83-.44-5.25-4.04-11.35-6.74-17.4-9.32-1.85 3.59-3.66 7.19-5.39 10.84-.48-.08-1.45-.25-1.94-.33-.49-1.09-.18-2.91-1.47-3.37-.9 1.16-1.64 2.43-2.4 3.69-.19-4.7-6.16-3.23-8.63-6.01-.63-1.53.06-2.94 1.32-3.84.12-3.89 2.92-6.81 4.36-10.25 13.05.33 26.12-.03 39.18.51 1.96.21 3.77-.7 5.24-1.92.46-.35 1.39-1.04 1.86-1.39-1.81-4.26-.03-8.91-1.93-13.15-.3-2.14-1.35-4-3.4-4.88.28-.33.84-.99 1.12-1.33-3.66-.54-7.33-1-10.93-1.82-.98-2.87-3.58-4.54-5.92-6.2 3.9.52 7.96.46 11.43-1.67.69-.04 2.07-.13 2.76-.17 8.4-.18 16.8-.04 25.19-.02-.17-15.81.04-31.63.02-47.45-13.48.12-26.96-.04-40.43.07-11.25.03-22.49.13-33.74-.06-.04 9.49.01 18.98-.05 28.46-.5 1.25-1.04 2.49-1.57 3.73-.35-.19-1.07-.58-1.43-.77-.62 1.11-1.86 2.19-1.28 3.58.73 2.99 1.37 6.01 1.44 9.1-1.7 1.35-3.28 2.98-5.35 3.76-1.97-.62-4.63-1.65-4.78-4.07-.37-3.82.22-7.81-1.44-11.42-.21-12.83-.25-25.68-.39-38.51-.29-3.1 1.85-5.56 3.97-7.52Z" fill="#000c36" stroke="#000c36" stroke-width=".094"/><path d="M212.43 173.59c23.02-.36 46.05.09 69.08.1-.23 3.52-.35 7.05-.08 10.58.04.38.1 1.15.14 1.53-14.86-.27-29.72.07-44.58-.21-7.29.28-14.66-.52-21.89.66-.88-.61-1.76-1.22-2.64-1.82-.14-3.61-.2-7.23-.03-10.84Z" fill="#cf241f" stroke="#cf241f" stroke-width=".094"/><path d="M324.41 173.94c7.33-.59 14.69-.4 22.03-.38.77 4.04 1.34 8.35-.45 12.22-6.98-.01-13.95-.13-20.93-.08.76-3.8 1.79-8.39-.65-11.76Z" fill="#d11f24" stroke="#d11f24" stroke-width=".094"/><path d="M174.67 174.68c5.77-.59 11.58.04 17.37-.27 2.44-.17 4.87.04 7.29.37 1.04 5.11.46 10.4.43 15.57-3.05 1.44-6.47.8-9.71.88-4.65-.13-9.32.24-13.95-.15-1.38-.44-1.87-1.73-1.73-3.06 0-4.45-.49-8.93.3-13.34Z" fill="#051544" stroke="#051544" stroke-width=".094"/><path d="M281.43 184.27c-.08-3.85.27-7.78 2.05-11.25 1.76 7.39 1.29 15.41 5.45 22.11.53.32 1.58.97 2.11 1.3-.56.06-1.68.18-2.23.25-3.76-2.46-5.56-6.89-7.24-10.88-.04-.38-.1-1.15-.14-1.53Z" fill="#f7d3ce" stroke="#f7d3ce" stroke-width=".094"/><path d="M322.62 174.04c.45-.02 1.34-.07 1.79-.1 2.44 3.37 1.41 7.96.65 11.76-1.19 2.64-2.35 5.34-4.13 7.66l-1.62.28c2.41-6.26 2-13.1 3.31-19.6Z" fill="#fbdcc8" stroke="#fbdcc8" stroke-width=".094"/><path d="M494.31 175.8c6.22 2.69 11.53 7.05 17.69 9.9v152.14c-1.98-1.56-4.54-2.69-7.06-1.86-2.6.98-5.29.34-7.83-.45-1.44 3.04-2.18 6.32-2.77 9.62-.41-5.04-.44-10.09-.8-15.12-.2 3.46-.63 6.9-1.2 10.33.08-46.28-.43-92.55.12-138.83 2.37-8.38.58-17.19 1.85-25.73Z" fill="#fbc671" stroke="#fbc671" stroke-width=".094"/><path d="M404.3 177.16c11.25.19 22.49.09 33.74.06-.18 1.5-.36 3-.52 4.5-7.36 3.31-11.41 11.5-11.53 19.31-1.19 9.45 5.18 19.08 14.03 22.25 3.8 1.48 7.95.86 11.83.1.35.31 1.06.93 1.41 1.24-.69.04-2.07.13-2.76.17-4.16.01-8.32-.26-12.48-.09-11.24.79-22.51.3-33.77.41-.01-6.5.11-12.99 0-19.49.06-9.48.01-18.97.05-28.46Z" fill="#f8bf6b" stroke="#f8bf6b" stroke-width=".094"/><path d="M438.04 177.22c13.47-.11 26.95.05 40.43-.07.02 15.82-.19 31.64-.02 47.45-8.39-.02-16.79-.16-25.19.02-.35-.31-1.06-.93-1.41-1.24 8.53-2.62 15.46-10.4 16.26-19.41.32-4.16.03-8.51-1.4-12.46-2.83-5.4-7.92-9.45-13.54-11.67-5.21-1.2-10.89-.64-15.65 1.88.16-1.5.34-3 .52-4.5Z" fill="#f8c369" stroke="#f8c369" stroke-width=".094"/><path d="M437.52 181.72c4.76-2.52 10.44-3.08 15.65-1.88 5.62 2.22 10.71 6.27 13.54 11.67 1.43 3.95 1.72 8.3 1.4 12.46-.8 9.01-7.73 16.79-16.26 19.41-3.88.76-8.03 1.38-11.83-.1-8.85-3.17-15.22-12.8-14.03-22.25.12-7.81 4.17-16 11.53-19.31Z" fill="#fefefd" stroke="#fefefd" stroke-width=".094"/><path d="M98.48 188.09c2.43-.24 4.57-1.48 6.66-2.63 5.27 4.24 2.33 12.31-1.4 16.63-4.57 3.49-10.15 5.06-15.59 6.58.03 5.54.6 11.06.87 16.6-3.94.74-7.91 1.3-11.89 1.84-1.71.19-3.43.36-5.14.55-.53-.35-1.58-1.05-2.11-1.4-2.39-3.21-2.85-7.33-3.65-11.13-.69-4.38-1.99-8.66-2.28-13.08-.33-5.84 3.94-11.94 9.93-12.66 8.15-1.17 16.43-.33 24.6-1.3Z" fill="#000225" stroke="#000225" stroke-width=".094"/><path d="M436.5 192.58c2.67-1.48 5.62-3.97 8.81-2.3.09.76.25 2.29.34 3.05l-2.04 1.44a39.53 39.53 0 0 0-3.26-1.76c-.02 2.38-.4 4.72-.95 7.03 4.36 1.01 8.57 3.11 11.17 6.88-2.12 1.98-2.94 4.65-3.25 7.45-1.72 1.05-3.89.2-5.76.05 1.06-2.42 2-4.92 2.11-7.58-2.69-1.62-5.97-1.49-8.78-2.73-1.32-3.72-.5-8.25 1.61-11.53Z" fill="#02093d" stroke="#02093d" stroke-width=".094"/><path d="M445.31 190.28c.6 1.67.71 3.93 2.71 4.56 4.29 2.04 9 4.04 11.71 8.18-1.01.73-2.03 3.28-3.6 2.15-3.43-4.39-8.27-7.21-12.9-10.13l.38-.27 2.04-1.44c-.09-.76-.25-2.29-.34-3.05Z" fill="#e6321e" stroke="#e6321e" stroke-width=".094"/><path d="M454.51 191.24c3.1.63 4.93 3.47 5.45 6.42-1.76-.71-3.67-1.23-5.14-2.47-1.18-1-.31-2.67-.31-3.95Z" fill="#cc5727" stroke="#cc5727" stroke-width=".094"/><path d="M311.15 197.3c2.35.48 4.43-1 6.29-2.23-1.1 1.26-2.08 2.65-2.45 4.31 10.51.35 21.02-.2 31.52.14 1.25 3.9.72 8.03-.13 11.95-9.08.07-18.16-.06-27.24-.06-.68-.24-2.04-.7-2.72-.94-.5-1.9-.95-3.81-1.32-5.74-.22-2.93-1.5-5.72-3.95-7.43Z" fill="#cf2324" stroke="#cf2324" stroke-width=".094"/><path d="M291.04 196.43c1.28.17 2.57.35 3.86.48-.35.16-1.07.49-1.42.66-.55 2-1.01 4.02-1.58 6.01-.74 2.31-1.35 4.66-1.6 7.08-.24.04-.74.12-.99.15-5.05.83-10.19.78-15.28.88-20.07.02-40.13-.22-60.19-.44-2.24-3.49-1.84-7.76-1.23-11.67 26.43-.51 52.88.27 79.32-.01-.19-.41-.57-1.24-.76-1.65l-2.36-1.24c.55-.07 1.67-.19 2.23-.25Z" fill="#d22220" stroke="#d22220" stroke-width=".094"/><path d="M294.9 196.91c5.41-.37 10.89-.63 16.25.39 2.45 1.71 3.73 4.5 3.95 7.43-.02.62-.08 1.88-.1 2.5l-.36-2.77c-7.59-.21-15.17-.38-22.74-.88.57-1.99 1.03-4.01 1.58-6.01.35-.17 1.07-.5 1.42-.66Z" fill="#ea937b" stroke="#ea937b" stroke-width=".094"/><path d="M189.73 203.41c1.36-2.26 3.42-4.45 6.19-4.75 4.68-.72 9.41 1.44 12.59 4.81 2 2.83 2.99 6.22 4.41 9.35-3.42 4.02-7.25 7.67-10.42 11.9-1.5-1.13-3.03-2.19-4.44-3.42-1.73-3.13-5.87-3.82-7.48-7.06-1.71-3.34-1.1-7.24-.85-10.83Z" fill="#fbb396" stroke="#fbb396" stroke-width=".094"/><path d="M88.15 208.67c5.44-1.52 11.02-3.09 15.59-6.58-1.11 8.98 5.17 18.41.37 27-2.51 5.01-8.61 4.95-13.42 5.25-.76-2.98-1.31-6.02-1.67-9.07-.27-5.54-.84-11.06-.87-16.6Z" fill="#ffc7ab" stroke="#ffc7ab" stroke-width=".094"/><path d="M174.43 204.2c2.6-1.02 5.5-.67 8.25-.71 1.61.55 3.21 1.16 4.81 1.79-.04 2.46-.16 4.94.09 7.4.19 2.72 2.53 4.48 4.2 6.38-5.86.69-11.86-.26-17.64 1.11.26-5.32-.21-10.66.29-15.97Z" fill="#081f4a" stroke="#081f4a" stroke-width=".094"/><path d="M182.68 203.49c2.35.03 4.7.01 7.05-.08-.25 3.59-.86 7.49.85 10.83 1.61 3.24 5.75 3.93 7.48 7.06-7.91-1.46-16.06.52-23.92-1.13 5.78-1.37 11.78-.42 17.64-1.11-1.67-1.9-4.01-3.66-4.2-6.38-.25-2.46-.13-4.94-.09-7.4-1.6-.63-3.2-1.24-4.81-1.79Z" fill="#020929" stroke="#020929" stroke-width=".094"/><path d="M291.9 203.58c7.57.5 15.15.67 22.74.88l.36 2.77c-.07 1.43-.18 2.88-.64 4.25-7.98.81-16.15.59-24.06-.82.25-2.42.86-4.77 1.6-7.08Z" fill="#01dffd" stroke="#01dffd" stroke-width=".094"/><path d="M315.1 204.73c.37 1.93.82 3.84 1.32 5.74.68.24 2.04.7 2.72.94l-1.12.01c5.53 3.99 12.28 5.73 18.27 8.9.66.55 1.35 1.07 2.08 1.55-1.06 7.43-3.67 14.55-4.14 22.09-.59 6.28-.36 12.64-1.56 18.86-.57 4.25-.88 8.54-1.02 12.83-.16 4.33-.89 8.61-.96 12.95-.14 4.29-.43 8.58-.62 12.88-.26 4.59-.48 9.18-.4 13.78-19.24-1.22-38.52-.09-57.78-.59.48-4.47-.25-8.96-.45-13.43-.41-3.93-1.03-7.84-1.18-11.79-.36-4.55-.7-9.1-1.16-13.63-.47-4.86-.59-9.78-1.78-14.54-.54.39-1.63 1.17-2.17 1.55.87-.79 1.69-1.65 2.52-2.48-.69-4.6 1.02-9.95-1.72-13.99-.19-3.08-.52-6.15-1.01-9.2-.47-4.29-.94-8.58-1.38-12.87 1.17-4.73 6.25-6.27 10.41-7.3 5.14-1.97 11.04-2.46 15.34-6.18.25-.03.75-.11.99-.15 7.91 1.41 16.08 1.63 24.06.82.46-1.37.57-2.82.64-4.25.02-.62.08-1.88.1-2.5Z" fill="#00bcea" stroke="#00bcea" stroke-width=".094"/><path d="M214.04 211.57c1.26.08 2.52.18 3.77.29 3.77 3.8 8.86 5.83 12.96 9.2 3.04 2.54 6.64 4.26 9.78 6.65 3.42 3.33 7.41 6 11.42 8.56 4.7 3.29 9.32 6.72 13.98 10.09 2.74 4.04 1.03 9.39 1.72 13.99-.83.83-1.65 1.69-2.52 2.48-3.6 2.36-6.99 5.37-11.08 6.75-3.51-1.79-6.26-4.71-9.53-6.85-5.78-5.06-11.77-9.9-18.41-13.8-4.35-4.29-8.64-8.65-13.73-12.08-3-2.83-6.69-4.74-9.97-7.18-.67-1.59-.25-3.34.07-4.95 3.17-4.23 7-7.88 10.42-11.9.28-.31.84-.94 1.12-1.25Z" fill="#000530" stroke="#000530" stroke-width=".094"/><path d="M240.12 225.8c7.48-2.71 15.68-.38 23.44-1.51.44 4.29.91 8.58 1.38 12.87-4.31-.15-8.87.81-12.97-.89-4.01-2.56-8-5.23-11.42-8.56-.1-.48-.32-1.44-.43-1.91Z" fill="#cc211e" stroke="#cc211e" stroke-width=".094"/><path d="M69.88 226.26c.53.35 1.58 1.05 2.11 1.4 1.71-.19 3.43-.36 5.14-.55-1.48.25-2.94.55-4.41.84-.1 2.77-.16 5.54-.17 8.31-1.34-.02-2.69-.03-4.03-.04.33-3.34.94-6.64 1.36-9.96Z" fill="#e9aa66" stroke="#e9aa66" stroke-width=".094"/><path d="M77.13 227.11c3.98-.54 7.95-1.1 11.89-1.84.36 3.05.91 6.09 1.67 9.07l.56 2.05c-6.23.07-12.47-.02-18.7-.13.01-2.77.07-5.54.17-8.31 1.47-.29 2.93-.59 4.41-.84Z" fill="#f9a68d" stroke="#f9a68d" stroke-width=".094"/><path d="M174.13 237.99c.1-1.85-.56-4.63 1.93-5.13 7.8-.2 15.63-.18 23.43.32-.11 5.24 1.34 10.91-.42 15.88-8.1.79-16.37.47-24.52.34-.77-3.76-.23-7.61-.42-11.41Z" fill="#051946" stroke="#051946" stroke-width=".094"/><path d="M251.97 236.27c4.1 1.7 8.66.74 12.97.89.49 3.05.82 6.12 1.01 9.2-4.66-3.37-9.28-6.8-13.98-10.09Z" fill="#fbfbf6" stroke="#fbfbf6" stroke-width=".094"/><path d="M403.45 240.1c.33-2.22 2.44-3.78 4.48-4.35 15.61.86 31.25.01 46.87.06 2.05.88 3.1 2.74 3.4 4.88-1.08 1.24-2.19 3-4.09 2.71-14.71.1-29.41-.11-44.12-.08-2.54.18-5.25-.95-6.54-3.22Z" fill="#fefefd" stroke="#fefefd" stroke-width=".094"/><path d="M212.4 236.85c5.09 3.43 9.38 7.79 13.73 12.08-4.75.71-9.56.49-14.35.5-.09-4.2-.23-8.44.62-12.58Z" fill="#d81e1b" stroke="#d81e1b" stroke-width=".094"/><path d="M68.45 245.41c6.85-.28 13.71.03 20.56.25 1.39-.06 3.62.32 3.26 2.28 1.29 17 1.09 34.07 1.54 51.11.08 2.21.46 4.4.86 6.57 3.18-.68 6.37-1.33 9.54-2.05 4.26-1.01 8.52-1.99 12.86-2.63 7.67-.74 15.11-2.89 22.72-4.02 11.46-1.76 22.66-4.95 34.19-6.25.06.27.2.81.26 1.09.51 5.68 1.86 11.24 2.78 16.86-10.18 3.03-20.74 4.38-31.04 6.93-4.57 1.23-9.64 1.04-13.79 3.56-7.51 1.69-15.14 2.79-22.66 4.42-4.99.78-9.96 2.48-15.06 1.86-4.2-1.1-8.9-1.56-12.2-4.68-6.78-5.89-10.21-14.49-13.3-22.68-2.14-5.95-5.29-11.48-7.16-17.53-1.41-4.51-3.38-8.83-4.54-13.42-1.66-4.93.6-9.8.64-14.76 2.4-3.68 6.46-5.68 10.54-6.91Z" fill="#00c4f4" stroke="#00c4f4" stroke-width=".094"/><path d="M334.23 243.96c11.46 5.97 22.96 11.87 34.5 17.71-.15 11.98.1 23.97-.08 35.96 4.51.39 9.5-.52 13.24 2.69.25 9.47 1.1 19.03-.3 28.46-2.76 1.07-5.5 2.62-8.56 2.44-7.87.01-15.76-.08-23.63.2-.54 7.71.04 15.46-.08 23.18-4.84 2.57-10.6.22-15.82.7-.25 2.3-.53 4.6-.79 6.91-.04-2.68-.13-5.35-.2-8.02 2.36.17 4.73.39 7.1.51l.3-1.04c-.07-7.62.17-15.3-.57-22.89-2.9.22-5.81.44-8.71.6-.41-5.36.08-10.8-.96-16.11-.08-4.6.14-9.19.4-13.78 5.46.04 10.92-.08 16.38-.11.55-4.25.26-8.54.22-12.8-5.33-.14-10.66-.24-15.98.03.07-4.34.8-8.62.96-12.95 5.02-.02 10.04.04 15.06-.05.95-3.97.93-8.11.09-12.1-4.71-.2-9.45.02-14.13-.68 1.2-6.22.97-12.58 1.56-18.86Z" fill="#fefefe" stroke="#fefefe" stroke-width=".094"/><path d="M408.94 249.48c15.3.21 30.62.05 45.92.01 2.72.44 4.21 3.14 3.41 5.74-1.47 1.22-3.28 2.13-5.24 1.92-13.06-.54-26.13-.18-39.18-.51-3.63-.74-7.03-2.36-10.01-4.52 1.46-1.25 2.93-3 5.1-2.64Z" fill="#fefefd" stroke="#fefefd" stroke-width=".094"/><path d="M52.54 276.41c1.1-8.12 1.73-16.64 5.37-24.09-.04 4.96-2.3 9.83-.64 14.76-2.27 2.71-3.52 6.05-4.73 9.33Z" fill="#1aa5bd" stroke="#1aa5bd" stroke-width=".094"/><path d="M174 261.46c4.29-.27 8.56-.71 12.86-.68-.56.43-1.13.84-1.7 1.25-4.04 1.5-9.79 1.57-11.82 5.96.49-2.14.5-4.35.66-6.53Z" fill="#4d4f83" stroke="#4d4f83" stroke-width=".094"/><path d="M185.42 264.81c3.4-1.85 7.09-3.19 10.97-3.54.22 1.37.44 2.75.67 4.14-4.41-.07-8.31 2.12-12.34 3.57l-.44 1.8c4.11-1.88 8.35-3.79 12.86-4.38-.49 1.35.04 3.68-1.93 3.97-3.35 1.29-7.13 1.76-9.91 4.23l2.12 1.76c2.73 0 5.47.02 8.2.18-1.44 3.41-5.5 3.64-8.61 4.47-6.59 1.21-13.18 2.49-19.45 4.9-.86-5.2-2.13-10.36-2.39-15.64 2.75-.65 5.48-1.39 8.17-2.28 2.03-4.39 7.78-4.46 11.82-5.96.06.7.19 2.09.26 2.78Z" fill="#f7a98f" stroke="#f7a98f" stroke-width=".094"/><path d="M265.15 262.83c.54-.38 1.63-1.16 2.17-1.55 1.19 4.76 1.31 9.68 1.78 14.54-18.87-.66-37.76-.07-56.63-.21-.77-3.99-1.16-8.16.02-12.12 10.68-.43 21.4.14 32.05-.76 3.27 2.14 6.02 5.06 9.53 6.85 4.09-1.38 7.48-4.39 11.08-6.75Z" fill="#ce2621" stroke="#ce2621" stroke-width=".094"/><path d="M331.65 275.65c.14-4.29.45-8.58 1.02-12.83 4.68.7 9.42.48 14.13.68.84 3.99.86 8.13-.09 12.1-5.02.09-10.04.03-15.06.05Z" fill="#dc262a" stroke="#dc262a" stroke-width=".094"/><path d="M422.61 276.75c1.73-3.65 3.54-7.25 5.39-10.84 6.05 2.58 12.15 5.28 17.4 9.32-.03 2.84.01 5.69.11 8.54-1.73 2.07-3.65 4-5.88 5.53-2.34.72-5.08 1.78-7.38.37-4.03-2.39-7.85-5.11-11.85-7.54.7-1.81 1.41-3.61 2.21-5.38Z" fill="#fbb59c" stroke="#fbb59c" stroke-width=".094"/><path d="M19.03 267.77c3.39-.4 6.9-.87 10.25-.05 3.62 1.26 5.6 5.11 6.11 8.71 1.94 14.45 3.96 28.89 5.76 43.36 1.63 9.71 2.92 19.47 3.74 29.28.26 2.87.51 5.73.75 8.6.6 5.37.43 10.84 1.67 16.14.22 3.31.56 7.09-1.49 9.95-1.89 2.33-5.17 2.27-7.86 2.8-1 .12-1.99.26-2.98.4-4.22.94-9.52-.26-11.46-4.5-1.84-4.56-1.62-9.62-2.32-14.42-2.09-16.98-3.22-34.06-5.52-51.02-1.36-12.06-3.54-24.01-4.99-36.06-.22-2.3-.59-4.64-.12-6.93 1.41-3.45 4.97-5.47 8.46-6.26Z" fill="#d12020" stroke="#d12020" stroke-width=".094"/><path d="M52.54 276.41c1.21-3.28 2.46-6.62 4.73-9.33 1.16 4.59 3.13 8.91 4.54 13.42-.88 2.64-1.28 5.48-.21 8.14 2.55 7.41 5.43 14.72 8.56 21.91-.45-.02-1.35-.07-1.8-.09.17 2.2.61 4.51-.35 6.61-2.09 5.19-3.45 10.62-5.17 15.94-1.23 3.89-3.05 7.66-3.36 11.8-.32 3.99.04 7.99.12 11.99 2.65.35 5.27.87 7.87 1.51-6.16-.06-12.34.22-18.49-.14-.7-.13-2.12-.38-2.82-.5-.21-6.92.16-13.85.78-20.74 1.4-20.21 3.46-40.37 5.6-60.52Z" fill="#00afd7" stroke="#00afd7" stroke-width=".094"/><path d="M382.3 267.43c2.55 1.47 5.04 3.07 7.4 4.84-.2 15.91.16 31.83.13 47.74.15 25.71-.34 51.41-.05 77.11.15 2.62 1.91 4.79 3.93 6.3 2.16 2.31 5.43 1.65 8.25 1.69 10.67-.34 21.36.18 32.04-.2 1.62-.01 3.09-.78 4.56-1.37.72-.02 2.15-.05 2.87-.07-3.01 7.13-10.97 9.92-18.05 10.96-29.88 5.5-59.67-3.12-89.31-6.08-.49-8.44-.29-16.9-.68-25.34-.2-6.93-.81-13.86-.68-20.8.26-2.31.54-4.61.79-6.91 5.22-.48 10.98 1.87 15.82-.7 8.23-.62 16.51-.03 24.75-.34 3.61-.19 5.36-4.03 5.16-7.24-.12-5.2 1.11-11.31-3-15.37-1.07-.17-2.14-.31-3.2-.43 3.06.18 5.8-1.37 8.56-2.44 1.4-9.43.55-18.99.3-28.46.82-10.94.17-21.93.41-32.89Z" fill="#fac46d" stroke="#fac46d" stroke-width=".094"/><path d="M185.92 274.69c3.04-2.61 7.16-2.17 10.86-2.39-.12.76-.35 2.28-.47 3.03-3.39.27-7.39 1.47-10.39-.64Z" fill="#f2ad95" stroke="#f2ad95" stroke-width=".094"/><path d="M445.4 275.23c10.6.65 21.22.36 31.83.44.74 2.49 1.86 5.52.51 7.92-4.52.95-9.17.42-13.74.56-6.16-.18-12.37.53-18.49-.38-.1-2.85-.14-5.7-.11-8.54Z" fill="#f6b961" stroke="#f6b961" stroke-width=".094"/><path d="M61.6 288.64c-1.07-2.66-.67-5.5.21-8.14 1.87 6.05 5.02 11.58 7.16 17.53 3.09 8.19 6.52 16.79 13.3 22.68 3.3 3.12 8 3.58 12.2 4.68l-.12 2.44c-4.16-.67-8.72-.51-12.36-2.94-5.24-3.5-9.1-8.72-11.83-14.34-3.13-7.19-6.01-14.5-8.56-21.91Z" fill="#0294c8" stroke="#0294c8" stroke-width=".094"/><path d="M194.88 285.67c2.98-.92 6.22-1.52 9.13.04-2.17 2.33-5.28 2.26-8.2 2.07-.32-.7-.62-1.41-.93-2.11Z" fill="#fbcfbb" stroke="#fbcfbb" stroke-width=".094"/><path d="M174.24 291.76c6.48-3.3 13.63-4.51 20.64-6.09.31.7.61 1.41.93 2.11 2.92.19 6.03.26 8.2-2.07.32 1.33 1.08 2.85.21 4.16-2.4 1.56-5.26 2.09-7.98 2.8.02.54.05 1.62.06 2.16 2.71-.15 5.42-.36 8.12-.66.02 1.32.05 2.65.09 3.97-2.76 1.18-7.22.38-8.59 3.5 3.1.16 6.22-.02 9.3-.45-.24 2.77-1.88 5.7-4.95 5.92-7.72.74-15.54.46-23.25 1.51-.92-5.62-2.27-11.18-2.78-16.86Z" fill="#fab197" stroke="#fab197" stroke-width=".094"/><path d="M104.18 286.07c3.69 5.49 9.2 9.39 12.89 14.87-4.34.64-8.6 1.62-12.86 2.63-.03-5.84-.06-11.67-.03-17.5Z" fill="#eebb53" stroke="#eebb53" stroke-width=".094"/><path d="M330.69 288.6c5.32-.27 10.65-.17 15.98-.03.04 4.26.33 8.55-.22 12.8-5.46.03-10.92.15-16.38.11.19-4.3.48-8.59.62-12.88Z" fill="#d42d2e" stroke="#d42d2e" stroke-width=".094"/><path d="M212.29 288.85c14.55.08 29.11-.33 43.65.27 4.76.02 9.69-1.28 14.32.33.15 3.95.77 7.86 1.18 11.79-17.82.18-35.64-.05-53.47.14-1.95.05-3.88-.3-5.78-.69-.06-3.95-.03-7.9.1-11.84Z" fill="#d12b26" stroke="#d12b26" stroke-width=".094"/><path d="M469.72 295.78c2.55.03 5.09.18 7.63.45-2.38-.02-4.76.04-7.13.05-.07 9.72-.31 19.49 1.45 29.08l-.06.44c-.35-1.01-.7-2.01-1.05-3-2.51-.36-5.04-.57-7.57-.52-14 .16-27.99-.8-41.99-.34-4.87.25-9.76.34-14.64.24-1.23-.89-3.04-1.6-3.09-3.36-.2-2.17 2.28-2.98 3.79-3.87 19.04.57 38.13-.13 57.17.3 1.84.37 3.71.56 5.59.76.69-6.73-.09-13.49-.1-20.23Z" fill="#fefefe" stroke="#fefefe" stroke-width=".094"/><path d="m477.35 296.23.83.04c-.22 14.11.02 28.21.01 42.32-2.91-4.84-1.05-10.7-1.78-16.02-.49-.04-1.48-.11-1.98-.15-.93.97-1.87 1.93-2.76 2.94-1.76-9.59-1.52-19.36-1.45-29.08 2.37-.01 4.75-.07 7.13-.05Z" fill="#fdc76e" stroke="#fdc76e" stroke-width=".094"/><path d="M403.49 304.43c.61-1.75 2.62-2.87 4.45-2.79 17.44-.09 34.89-.06 52.32.09 3.15 1.07 2.54 4.4 2.12 6.99-18.47.12-36.95-.16-55.42.05-1.31-1.22-4.09-2.11-3.47-4.34Z" fill="#fefefd" stroke="#fefefd" stroke-width=".094"/><path d="M406.96 308.77c18.47-.21 36.95.07 55.42-.05-.17 1.71-.35 3.43-.46 5.15.76.46 1.53.92 2.31 1.38-19.04-.43-38.13.27-57.17-.3.91-.47 1.84-.94 2.77-1.4-.76-1.71-1.59-3.41-2.87-4.78Z" fill="#001248" stroke="#001248" stroke-width=".094"/><path d="M68.36 310.46c.45.02 1.35.07 1.8.09 2.73 5.62 6.59 10.84 11.83 14.34 3.64 2.43 8.2 2.27 12.36 2.94-.13 10.19.24 20.39.03 30.58-8.97.16-17.94.18-26.91-.1-2.6-.64-5.22-1.16-7.87-1.51-.08-4-.44-8-.12-11.99.31-4.14 2.13-7.91 3.36-11.8 1.72-5.32 3.08-10.75 5.17-15.94.96-2.1.52-4.41.35-6.61Z" fill="#00bced" stroke="#00bced" stroke-width=".094"/><path d="M270.38 331.26c.37-5.53.73-11.09 1.51-16.59 19.26.5 38.54-.63 57.78.59 1.04 5.31.55 10.75.96 16.11.09 7.55 1.09 15.04 1.65 22.56-.14.37-.4 1.1-.54 1.47-6.13-1.53-12.55-.73-18.61.73-2.84.75-5.79.54-8.68.29-.55 1.64-1.09 3.3-1.56 4.97-.47-4.01-1.03-8.01-1.71-11.99-3.06 13.86-4.4 28.04-7.16 41.96-1.82 10.36-3.44 20.76-5.53 31.07-2.72 15.38-4.2 30.96-6.7 46.38-6.3-.12-12.64-.05-18.88-1.06.65-15.62 1.34-31.26 2.03-46.88 1.03-13.29 1.28-26.63 1.96-39.94.72-8.82.12-17.75 1.52-26.51 1.22-7.65 2-15.41 1.96-23.16Z" fill="#00011b" stroke="#00011b" stroke-width=".094"/><path d="M109.53 323.53c7.52-1.63 15.15-2.73 22.66-4.42 1.05 3.83.06 9.16 3.74 11.68.14 1.41.22 2.83.24 4.26-.56 4.8-.72 9.66-.26 14.47.22 2.52 2.51 4.84 5.1 4.77 9.23.32 18.48-.11 27.73-.13 1.31 22.24-.71 44.63 1.68 66.83-3.78-12.49-6.34-25.28-8.87-38.06-1.13-6.83-5.95-13.04-12.79-14.83-12.49-3.6-25.41-5.42-38.21-7.59.13-12.34-.74-24.65-1.02-36.98Z" fill="#f8bf67" stroke="#f8bf67" stroke-width=".094"/><path d="M406.36 322.18c4.88.1 9.77.01 14.64-.24 14-.46 27.99.5 41.99.34 2.53-.05 5.06.16 7.57.52-.82 2.94-1.93 5.8-3.33 8.52-18.55-.42-37.12-.64-55.68-.4-2.1-.08-4.2-.1-6.3-.07.37-2.89.63-5.8 1.11-8.67Z" fill="#c7201e" stroke="#c7201e" stroke-width=".094"/><path d="M474.43 322.42c.5.04 1.49.11 1.98.15.73 5.32-1.13 11.18 1.78 16.02.07 1.37.12 2.75.14 4.14-24.57-.38-49.14.08-73.72-.23 2.11-.23 4.22-.45 6.33-.66.83-2.83 1.44-5.72 1.77-8.65 2.42-.26 4.85-.51 7.28-.68-2.86-.25-5.68-.83-8.44-1.59 18.56-.24 37.13-.02 55.68.4 1.4-2.72 2.51-5.58 3.33-8.52.35.99.7 1.99 1.05 3l.06-.44c.89-1.01 1.83-1.97 2.76-2.94Z" fill="#f1b25d" stroke="#f1b25d" stroke-width=".094"/><path d="M94.47 325.39c5.1.62 10.07-1.08 15.06-1.86.28 12.33 1.15 24.64 1.02 36.98-5.36-.96-10.89-.72-16.17-2.1.21-10.19-.16-20.39-.03-30.58l.12-2.44Z" fill="#fefefe" stroke="#fefefe" stroke-width=".094"/><path d="M135.93 330.79c5.3-.74 10.72-.8 16.03-.1-3.76 3.67-9.36.66-13.71 2.46-.95 1.78-1.4 3.76-1.96 5.69-.05-1.27-.09-2.53-.12-3.79-.02-1.43-.1-2.85-.24-4.26Z" fill="#040419" stroke="#040419" stroke-width=".094"/><path d="M330.63 331.37c2.9-.16 5.81-.38 8.71-.6.74 7.59.5 15.27.57 22.89-2.55.04-5.1.06-7.63.27-.56-7.52-1.56-15.01-1.65-22.56Z" fill="#112352" stroke="#112352" stroke-width=".094"/><path d="M492.34 340.36c.57-3.43 1-6.87 1.2-10.33.36 5.03.39 10.08.8 15.12.59-3.3 1.33-6.58 2.77-9.62 2.54.79 5.23 1.43 7.83.45 2.52-.83 5.08.3 7.06 1.86v24.68c-.56-2.46-1.14-4.91-1.63-7.38-2.8 1.12-5.32 2.78-7.79 4.48-2.89.21-5.95-.16-8.34 1.88-.69-3.25-1.5-6.47-2.05-9.75-.01-3.8.04-7.6.15-11.39Z" fill="#fbce81" stroke="#fbce81" stroke-width=".094"/><path d="M151.96 330.69c22.98 1.39 46.04-.43 69.05.42 16.45.01 32.91.1 49.37.15.04 7.75-.74 15.51-1.96 23.16-28.3.04-56.6-.16-84.9-.2 1.03 27.25.64 54.54.38 81.81-.36 10.64.69 21.32-.25 31.93-.23-2.03-.47-4.04-.72-6.05-.56.9-1.13 1.8-1.7 2.7-4.65-9.86-8.11-20.59-7.87-31.6.2-4.24-1.86-8.04-2.94-12.02-2.39-22.2-.37-44.59-1.68-66.83-9.25.02-18.5.45-27.73.13-2.59.07-4.88-2.25-5.1-4.77-.46-4.81-.3-9.67.26-14.47.03 1.26.07 2.52.12 3.79.56-1.93 1.01-3.91 1.96-5.69 4.35-1.8 9.95 1.21 13.71-2.46Z" fill="#071742" stroke="#071742" stroke-width=".094"/><path d="M349.4 331.42c7.87-.28 15.76-.19 23.63-.2 1.06.12 2.13.26 3.2.43 4.11 4.06 2.88 10.17 3 15.37.2 3.21-1.55 7.05-5.16 7.24-8.24.31-16.52-.28-24.75.34.12-7.72-.46-15.47.08-23.18Z" fill="#071541" stroke="#071541" stroke-width=".094"/><path d="M404.65 331.84c.15-.24.45-.74.6-.99 2.1-.03 4.2-.01 6.3.07 2.76.76 5.58 1.34 8.44 1.59-2.43.17-4.86.42-7.28.68-.33 2.93-.94 5.82-1.77 8.65-2.11.21-4.22.43-6.33.66-.2-3.55-.47-7.12.04-10.66Z" fill="#f8bf67" stroke="#f8bf67" stroke-width=".094"/><path d="M44.89 349.07c.05-4.14 1.13-8.14 2.05-12.14-.62 6.89-.99 13.82-.78 20.74.7.12 2.12.37 2.82.5-.83-.13-2.51-.38-3.34-.5-.24-2.87-.49-5.73-.75-8.6Z" fill="#f7d3ce" stroke="#f7d3ce" stroke-width=".094"/><path d="M294.02 391.36c2.76-13.92 4.1-28.1 7.16-41.96.68 3.98 1.24 7.98 1.71 11.99 1.04 9.99 2.51 19.93 3.84 29.89-.73-1.25-1.48-2.46-2.22-3.68-.57.88-1.09 1.78-1.71 2.62-1.7-.19-3.34-1.05-5.05-.83-1.26.63-2.43 1.42-3.73 1.97Z" fill="#fece85" stroke="#fece85" stroke-width=".094"/><path d="M183.52 354.22c28.3.04 56.6.24 84.9.2-1.4 8.76-.8 17.69-1.52 26.51-.68 13.31-.93 26.65-1.96 39.94-.4 3.02-.84 6.04-1.17 9.08-20.14 2.91-40.27 7.16-60.72 6.84-6.39.35-12.83.4-19.15-.76.26-27.27.65-54.56-.38-81.81Z" fill="#f8c169" stroke="#f8c169" stroke-width=".094"/><path d="M313.13 356.13c6.06-1.46 12.48-2.26 18.61-.73.14-.37.4-1.1.54-1.47 2.53-.21 5.08-.23 7.63-.27l-.3 1.04c-2.37-.12-4.74-.34-7.1-.51.07 2.67.16 5.34.2 8.02-.13 6.94.48 13.87.68 20.8.39 8.44.19 16.9.68 25.34.54 20.13 2.07 40.26 2.09 60.38-6.09.15-12.19.04-18.28.09-3.28-18.13-4.71-36.54-7.63-54.73-1.14-7.61-2.29-15.22-3.52-22.81-1.33-9.96-2.8-19.9-3.84-29.89.47-1.67 1.01-3.33 1.56-4.97 2.89.25 5.84.46 8.68-.29Z" fill="#000631" stroke="#000631" stroke-width=".094"/><path d="M404.07 358.86c-.17-2.61 2.08-5.71 4.93-5.18 14.48 1.57 29.07-.73 43.55.69.73 2.2 1.19 4.72-.09 6.82-14.86-.52-29.71.54-44.57-.03-1.43-.36-3.12-.88-3.82-2.3Z" fill="#fefffe" stroke="#fefffe" stroke-width=".094"/><path d="M45.64 357.67c.83.12 2.51.37 3.34.5 6.15.36 12.33.08 18.49.14 8.97.28 17.94.26 26.91.1 5.28 1.38 10.81 1.14 16.17 2.1 12.8 2.17 25.72 3.99 38.21 7.59 6.84 1.79 11.66 8 12.79 14.83 2.53 12.78 5.09 25.57 8.87 38.06 1.08 3.98 3.14 7.78 2.94 12.02-.24 11.01 3.22 21.74 7.87 31.6.57-.9 1.14-1.8 1.7-2.7.25 2.01.49 4.02.72 6.05-1.49-.22-2.96-.49-4.42-.81l-.79-.46c-5.11 1.79-10.51 2.32-15.88 2.63-.62-1.91-2.44-2.4-4.19-1.81-5.65 1.6-11.4 2.83-17.25 3.37-7.01-21.66-11.32-44.11-17.76-65.95-1.21-5.16-4.76-10.25-10.21-11.4-6.97-1.27-14.11-.48-21.15-.74-7.14-.26-14.31.28-21.43-.45-3.3-1.98-7.31-2.12-10.72-3.88-6.15-2.65-11.02-8.08-12.54-14.65-1.24-5.3-1.07-10.77-1.67-16.14Z" fill="#00042e" stroke="#00042e" stroke-width=".094"/><path d="M404.36 369.11c2.66-3.06 7.09-1.71 10.62-1.82 14.34 0 28.7-.38 43.04-.05 4.26.3 3 8.1-1 7.4-14.34-.22-28.68.01-43.02-.14-3.18.45-6.32.1-9.26-1.21-.39-1.31-1.71-2.98-.38-4.18Z" fill="#fefefe" stroke="#fefefe" stroke-width=".094"/><path d="M47.31 373.81c1.52 6.57 6.39 12 12.54 14.65 3.41 1.76 7.42 1.9 10.72 3.88-9.14.61-18.49-.89-27.49.91-.54.15-1.63.46-2.17.62-1.05-2.41-2.05-4.84-2.95-7.31 2.69-.53 5.97-.47 7.86-2.8 2.05-2.86 1.71-6.64 1.49-9.95Z" fill="#fec66c" stroke="#fec66c" stroke-width=".094"/><path d="M404.3 382.16c1.86-1.64 4.41-1.4 6.72-1.42 4.52.09 9.04-.15 13.56.12-6.55 2.11-13.52 1.55-20.28 1.3Z" fill="#dfb981" stroke="#dfb981" stroke-width=".094"/><path d="M424.58 380.86c11.07-.32 22.25-.37 33.31.24 2.73.52 5.52.93 8.15 1.87 2.22.93 2.56 3.69 1.75 5.71 3.25-.14 6.52.12 9.66 1.05-24.34.03-48.69.24-73.03-.17-.81-2.4-.9-4.93-.55-7.42l.43.02c6.76.25 13.73.81 20.28-1.3Z" fill="#e1a860" stroke="#e1a860" stroke-width=".094"/><path d="M457.89 381.1c6.83.3 13.72-.32 20.52.34.58 2.82.41 5.72.33 8.58-.32-.07-.97-.22-1.29-.29-3.14-.93-6.41-1.19-9.66-1.05.81-2.02.47-4.78-1.75-5.71-2.63-.94-5.42-1.35-8.15-1.87Z" fill="#f2af5c" stroke="#f2af5c" stroke-width=".094"/><path d="M34.98 386.96c.99-.14 1.98-.28 2.98-.4.9 2.47 1.9 4.9 2.95 7.31.54-.16 1.63-.47 2.17-.62-1.44.58-2.91 1.09-4.46 1.27-.97-2.63-2.24-5.14-3.64-7.56Z" fill="#040419" stroke="#040419" stroke-width=".094"/><path d="M302.8 390.22c.62-.84 1.14-1.74 1.71-2.62.74 1.22 1.49 2.43 2.22 3.68 1.23 7.59 2.38 15.2 3.52 22.81-6.12 5.03-14.11 7.07-21.76 8.34 2.09-10.31 3.71-20.71 5.53-31.07 1.3-.55 2.47-1.34 3.73-1.97 1.71-.22 3.35.64 5.05.83Z" fill="#fbc374" stroke="#fbc374" stroke-width=".094"/><path d="M43.08 393.25c9-1.8 18.35-.3 27.49-.91 7.12.73 14.29.19 21.43.45 7.04.26 14.18-.53 21.15.74 5.45 1.15 9 6.24 10.21 11.4-1.4 3.91-2.66 8.82-7.15 10.2-6.48 1.89-13.36.94-20.02 1.03-8.02-.7-16.08-.14-24.11-.35-3.37-.12-6.74.11-10.06.64-5.35.51-10.72.07-16.08-.03-10.7.55-15.6-15.9-7.32-21.9 1.55-.18 3.02-.69 4.46-1.27Z" fill="#d1221f" stroke="#d1221f" stroke-width=".094"/><path d="M393.71 403.42c14.94.49 29.9-.11 44.85.12-1.47.59-2.94 1.36-4.56 1.37-10.68.38-21.37-.14-32.04.2-2.82-.04-6.09.62-8.25-1.69Z" fill="#fbd581" stroke="#fbd581" stroke-width=".094"/><path d="M62.02 416.45c3.32-.53 6.69-.76 10.06-.64 8.03.21 16.09-.35 24.11.35-2.09 5.54-6.52 10.35-12.54 11.46-2.24.24-4.42.84-6.62 1.29-.25-.2-.74-.6-.98-.81-.4.03-1.19.07-1.59.1-5.93-1.48-9.3-7-12.44-11.75Z" fill="#000019" stroke="#000019" stroke-width=".094"/><path d="M77.03 428.91c2.2-.45 4.38-1.05 6.62-1.29.41 14.94-.28 29.92.64 44.84 9.56.14 19.14.07 28.7.24 5.34.49 8.37 7.35 5.34 11.69-2.2 2.81-6.09 2.76-9.32 2.77-21.04-.25-42.09.4-63.12-.11-4.91-.03-7.36-5.84-5.66-9.97.75-2.94 3.92-4.34 6.71-4.34 9.41-.04 18.82.07 28.22-.1-.02-9.88.14-19.76-.36-29.63-.36-4.93.65-9.94-.34-14.81.4-.03 1.19-.07 1.59-.1.24.21.73.61.98.81Z" fill="#000834" stroke="#000834" stroke-width=".094"/><path d="M158.37 467.51c1.75-.59 3.57-.1 4.19 1.81.32 1.43.63 2.87.92 4.32-1.14.42-2.27.86-3.4 1.31l-.8-1.72c-.47-1.88-.69-3.81-.91-5.72Z" fill="#fdcc64" stroke="#fdcc64" stroke-width=".094"/><path d="M162.56 469.32c5.37-.31 10.77-.84 15.88-2.63l.79.46c.88 1.64 1.46 3.42 1.88 5.24-5.92-.18-11.71 1.49-17.63 1.25-.29-1.45-.6-2.89-.92-4.32Z" fill="#bb171e" stroke="#bb171e" stroke-width=".094"/><path d="M141.12 470.88c5.85-.54 11.6-1.77 17.25-3.37.22 1.91.44 3.84.91 5.72-6.01-.35-11.98.44-17.92 1.24l-.24-3.59Z" fill="#a20d09" stroke="#a20d09" stroke-width=".094"/><path d="M262.91 467.75c6.24 1.01 12.58.94 18.88 1.06-.58 2.23-1.29 4.43-1.84 6.69-5.51-.93-11.1-.85-16.66-.71.06-2.36-.09-4.71-.38-7.04Z" fill="#bf8184" stroke="#bf8184" stroke-width=".094"/><path d="M317.88 468.82c6.09-.05 12.19.06 18.28-.09-.18 1.92-.59 3.94.18 5.79-6.79.91-13.62-.25-20.42.17.9-.35 1.81-.68 2.72-1a79.5 79.5 0 0 0-.76-4.87Z" fill="#feb6a1" stroke="#feb6a1" stroke-width=".094"/><path d="M163.48 473.64c5.92.24 11.71-1.43 17.63-1.25l.28 2.29c5.2.08 10.46.02 15.56 1.15 4.86 1.64 9.49 6.07 8.88 11.61-13.37-.09-26.75.52-40.11-.01-.61-4.62-1.28-9.23-2.24-13.79Z" fill="#00001d" stroke="#00001d" stroke-width=".094"/><path d="M141.36 474.47c5.94-.8 11.91-1.59 17.92-1.24l.8 1.72c2.05 3.77 3.49 8.4 1.44 12.5-5.79.2-11.57-.01-17.35.14-1.55-4.22-2.74-8.6-2.81-13.12Z" fill="#00001e" stroke="#00001e" stroke-width=".094"/><path d="M252.95 476.01c3.1-1.99 6.89-1.08 10.34-1.22 5.56-.14 11.15-.22 16.66.71-.18 3.99-.13 8-.49 11.99-7.84.3-15.68.15-23.52.19-1.72-.16-3.98.19-4.94-1.63-2.02-3.15-1.49-8.08 1.95-10.04Z" fill="#000129" stroke="#000129" stroke-width=".094"/><path d="M314.37 487.48c-5.55-2.39-4.37-11.5 1.55-12.79 6.8-.42 13.63.74 20.42-.17 1.57 4.14.92 8.64 1.05 12.97-7.66.3-15.37.4-23.02-.01Z" fill="#00002b" stroke="#00002b" stroke-width=".094"/></svg>