<?xml version="1.0" encoding="utf-8"?>
<svg xmlns="http://www.w3.org/2000/svg" height="512pt" version="1.1" viewBox="0 0 512 512" width="512pt">
<path d="M 0.00 0.00 L 512.00 0.00 L 512.00 185.70 C 505.84 182.85 500.53 178.49 494.31 175.80 C 493.04 184.34 494.83 193.15 492.46 201.53 C 492.33 191.02 492.71 180.49 492.23 169.99 C 492.33 166.25 489.25 163.19 485.65 162.70 C 485.54 162.48 485.31 162.03 485.19 161.80 C 478.45 162.14 471.70 161.65 464.98 162.36 C 457.99 155.25 449.90 148.79 445.24 139.80 C 439.71 129.22 444.28 116.80 440.04 105.88 C 435.35 91.19 419.91 82.09 404.96 81.93 C 397.24 82.06 389.67 83.98 382.34 86.30 C 382.33 83.66 382.34 81.03 382.11 78.40 C 382.13 75.77 379.81 73.81 377.47 73.10 C 372.76 71.88 367.86 72.77 363.06 72.58 C 290.68 72.13 218.30 72.79 145.92 72.41 C 143.42 72.34 140.70 72.06 138.63 73.78 C 138.99 73.27 139.71 72.27 140.07 71.76 C 203.11 71.48 266.17 72.13 329.21 71.41 C 327.63 69.70 325.15 69.75 323.03 69.29 C 313.41 67.72 303.80 65.83 294.67 62.32 C 280.69 57.12 266.82 51.63 253.10 45.78 C 244.15 41.69 234.62 39.03 224.97 37.17 C 215.04 35.94 204.89 34.80 194.98 36.87 C 183.06 38.10 171.55 42.66 162.02 49.92 C 153.12 56.82 143.28 62.40 134.60 69.60 C 126.13 74.93 119.42 82.41 112.87 89.86 C 107.34 97.87 100.72 105.03 94.27 112.29 C 83.55 123.69 70.77 132.80 58.94 142.94 C 46.45 154.34 34.76 167.15 27.63 182.66 C 20.63 196.07 18.47 211.23 16.14 225.98 C 15.55 230.63 14.93 235.29 14.87 239.98 C 15.01 249.39 16.98 258.63 19.03 267.77 C 15.54 268.56 11.98 270.58 10.57 274.03 C 10.10 276.32 10.47 278.66 10.69 280.96 C 12.14 293.01 14.32 304.96 15.68 317.02 C 17.98 333.98 19.11 351.06 21.20 368.04 C 21.90 372.84 21.68 377.90 23.52 382.46 C 25.46 386.70 30.76 387.90 34.98 386.96 C 36.38 389.38 37.65 391.89 38.62 394.52 C 30.34 400.52 35.24 416.97 45.94 416.42 C 51.30 416.52 56.67 416.96 62.02 416.45 C 65.16 421.20 68.53 426.72 74.46 428.20 C 75.45 433.07 74.44 438.08 74.80 443.01 C 75.30 452.88 75.14 462.76 75.16 472.64 C 65.76 472.81 56.35 472.70 46.94 472.74 C 44.15 472.74 40.98 474.14 40.23 477.08 C 38.53 481.21 40.98 487.02 45.89 487.05 C 66.92 487.56 87.97 486.91 109.01 487.16 C 112.24 487.15 116.13 487.20 118.33 484.39 C 121.36 480.05 118.33 473.19 112.99 472.70 C 103.43 472.53 93.85 472.60 84.29 472.46 C 83.37 457.54 84.06 442.56 83.65 427.62 C 89.67 426.51 94.10 421.70 96.19 416.16 C 102.85 416.07 109.73 417.02 116.21 415.13 C 120.70 413.75 121.96 408.84 123.36 404.93 C 129.80 426.77 134.11 449.22 141.12 470.88 C 141.18 471.78 141.30 473.57 141.36 474.47 C 141.43 478.99 142.62 483.37 144.17 487.59 C 149.95 487.44 155.73 487.65 161.52 487.45 C 163.57 483.35 162.13 478.72 160.08 474.95 C 161.21 474.50 162.34 474.06 163.48 473.64 C 164.44 478.20 165.11 482.81 165.72 487.43 C 179.08 487.96 192.46 487.35 205.83 487.44 C 206.44 481.90 201.81 477.47 196.95 475.83 C 191.85 474.70 186.59 474.76 181.39 474.68 C 181.32 474.11 181.18 472.96 181.11 472.39 C 180.69 470.57 180.11 468.79 179.23 467.15 C 180.69 467.47 182.16 467.74 183.65 467.96 C 184.59 457.35 183.54 446.67 183.90 436.03 C 190.22 437.19 196.66 437.14 203.05 436.79 C 223.50 437.11 243.63 432.86 263.77 429.95 C 264.10 426.91 264.54 423.89 264.94 420.87 C 264.25 436.49 263.56 452.13 262.91 467.75 C 263.20 470.08 263.35 472.43 263.29 474.79 C 259.84 474.93 256.05 474.02 252.95 476.01 C 249.51 477.97 248.98 482.90 251.00 486.05 C 251.96 487.87 254.22 487.52 255.94 487.68 C 263.78 487.64 271.62 487.79 279.46 487.49 C 279.82 483.50 279.77 479.49 279.95 475.50 C 280.50 473.24 281.21 471.04 281.79 468.81 C 284.29 453.39 285.77 437.81 288.49 422.43 C 296.14 421.16 304.13 419.12 310.25 414.09 C 313.17 432.28 314.60 450.69 317.88 468.82 C 318.19 470.43 318.43 472.06 318.64 473.69 C 317.73 474.01 316.82 474.34 315.92 474.69 C 310.00 475.98 308.82 485.09 314.37 487.48 C 322.02 487.89 329.73 487.79 337.39 487.49 C 337.26 483.16 337.91 478.66 336.34 474.52 C 335.57 472.67 335.98 470.65 336.16 468.73 C 336.14 448.61 334.61 428.48 334.07 408.35 C 363.71 411.31 393.50 419.93 423.38 414.43 C 430.46 413.39 438.42 410.60 441.43 403.47 C 456.76 403.31 472.09 403.64 487.42 403.37 C 489.15 402.17 491.14 400.88 491.84 398.78 C 492.32 396.56 492.13 394.28 492.15 392.03 C 491.95 378.60 492.14 365.18 492.19 351.75 C 492.74 355.03 493.55 358.25 494.24 361.50 C 496.63 359.46 499.69 359.83 502.58 359.62 C 505.05 357.92 507.57 356.26 510.37 355.14 C 510.86 357.61 511.44 360.06 512.00 362.52 L 512.00 512.00 L 0.00 512.00 L 0.00 0.00 Z" fill="#fedd98" opacity="1.00" stroke="#fedd98" stroke-width="0.09375"/>
<path d="M 194.98 36.87 C 204.89 34.80 215.04 35.94 224.97 37.17 C 234.62 39.03 244.15 41.69 253.10 45.78 C 266.82 51.63 280.69 57.12 294.67 62.32 C 303.80 65.83 313.41 67.72 323.03 69.29 C 325.15 69.75 327.63 69.70 329.21 71.41 C 266.17 72.13 203.11 71.48 140.07 71.76 C 139.71 72.27 138.99 73.27 138.63 73.78 C 137.54 75.28 136.72 77.05 136.75 78.95 C 136.71 140.31 136.61 201.66 136.58 263.01 C 136.59 267.24 136.44 271.47 136.32 275.70 C 132.26 276.62 128.14 277.31 123.99 277.66 C 118.42 272.67 113.90 266.67 108.49 261.54 C 103.08 256.42 98.59 250.35 92.55 245.93 C 92.52 242.70 92.24 239.47 91.25 236.39 C 91.11 235.88 90.83 234.85 90.69 234.34 C 95.50 234.04 101.60 234.10 104.11 229.09 C 108.91 220.50 102.63 211.07 103.74 202.09 C 107.47 197.77 110.41 189.70 105.14 185.46 C 103.05 186.61 100.91 187.85 98.48 188.09 C 90.31 189.06 82.03 188.22 73.88 189.39 C 67.89 190.11 63.62 196.21 63.95 202.05 C 64.24 206.47 65.54 210.75 66.23 215.13 C 67.03 218.93 67.49 223.05 69.88 226.26 C 69.46 229.58 68.85 232.88 68.52 236.22 C 68.32 239.28 68.41 242.34 68.45 245.41 C 64.37 246.64 60.31 248.64 57.91 252.32 C 54.27 259.77 53.64 268.29 52.54 276.41 C 50.40 296.56 48.34 316.72 46.94 336.93 C 46.02 340.93 44.94 344.93 44.89 349.07 C 44.07 339.26 42.78 329.50 41.15 319.79 C 39.35 305.32 37.33 290.88 35.39 276.43 C 34.88 272.83 32.90 268.98 29.28 267.72 C 25.93 266.90 22.42 267.37 19.03 267.77 C 16.98 258.63 15.01 249.39 14.87 239.98 C 14.93 235.29 15.55 230.63 16.14 225.98 C 18.47 211.23 20.63 196.07 27.63 182.66 C 34.76 167.15 46.45 154.34 58.94 142.94 C 70.77 132.80 83.55 123.69 94.27 112.29 C 100.72 105.03 107.34 97.87 112.87 89.86 C 119.42 82.41 126.13 74.93 134.60 69.60 C 143.28 62.40 153.12 56.82 162.02 49.92 C 171.55 42.66 183.06 38.10 194.98 36.87 Z" fill="#f8bf68" opacity="1.00" stroke="#f8bf68" stroke-width="0.09375"/>
<path d="M 138.63 73.78 C 140.70 72.06 143.42 72.34 145.92 72.41 C 218.30 72.79 290.68 72.13 363.06 72.58 C 367.86 72.77 372.76 71.88 377.47 73.10 C 371.34 74.03 365.15 73.60 358.98 73.74 C 343.99 73.90 329.01 73.61 314.02 73.79 C 290.36 74.46 266.69 73.38 243.02 73.84 C 214.68 73.90 186.34 73.86 158.00 74.13 C 152.08 74.25 146.10 73.57 140.26 74.79 C 141.88 78.78 143.14 82.99 142.63 87.34 C 146.36 88.64 149.04 85.44 152.04 83.90 C 158.04 84.17 164.01 85.21 170.05 84.87 C 207.36 84.89 244.67 84.95 281.99 85.03 C 304.98 84.64 327.97 85.01 350.96 85.05 C 352.89 85.04 354.72 85.73 356.54 86.31 C 305.35 86.77 254.16 86.38 202.98 86.43 C 185.45 86.54 167.93 86.07 150.41 86.46 C 150.78 148.74 150.63 211.03 150.66 273.30 C 145.87 274.02 141.07 274.75 136.32 275.70 C 136.44 271.47 136.59 267.24 136.58 263.01 C 136.61 201.66 136.71 140.31 136.75 78.95 C 136.72 77.05 137.54 75.28 138.63 73.78 Z" fill="#00032b" opacity="1.00" stroke="#00032b" stroke-width="0.09375"/>
<path d="M 377.47 73.10 C 379.81 73.81 382.13 75.77 382.11 78.40 C 381.62 80.23 381.03 82.07 381.04 83.98 C 381.08 107.31 381.30 130.65 381.27 153.98 C 380.85 183.55 381.02 213.13 380.89 242.71 C 376.82 240.56 372.64 238.65 368.65 236.36 C 368.62 186.43 368.82 136.50 369.32 86.59 C 365.07 86.06 360.79 86.45 356.54 86.31 C 354.72 85.73 352.89 85.04 350.96 85.05 C 327.97 85.01 304.98 84.64 281.99 85.03 C 244.67 84.95 207.36 84.89 170.05 84.87 C 164.01 85.21 158.04 84.17 152.04 83.90 C 149.04 85.44 146.36 88.64 142.63 87.34 C 143.14 82.99 141.88 78.78 140.26 74.79 C 146.10 73.57 152.08 74.25 158.00 74.13 C 186.34 73.86 214.68 73.90 243.02 73.84 C 266.69 73.38 290.36 74.46 314.02 73.79 C 329.01 73.61 343.99 73.90 358.98 73.74 C 365.15 73.60 371.34 74.03 377.47 73.10 Z" fill="#03133d" opacity="1.00" stroke="#03133d" stroke-width="0.09375"/>
<path d="M 381.04 83.98 C 381.03 82.07 381.62 80.23 382.11 78.40 C 382.34 81.03 382.33 83.66 382.34 86.30 C 382.57 109.96 382.05 133.64 382.53 157.31 C 382.70 185.88 382.60 214.47 382.91 243.03 L 384.23 243.75 C 386.07 244.70 387.95 245.56 389.83 246.45 C 390.66 234.15 389.50 221.84 389.84 209.53 C 391.50 213.14 390.91 217.13 391.28 220.95 C 391.43 223.37 394.09 224.40 396.06 225.02 C 398.13 224.24 399.71 222.61 401.41 221.26 C 401.34 218.17 400.70 215.15 399.97 212.16 C 399.39 210.77 400.63 209.69 401.25 208.58 C 401.61 208.77 402.33 209.16 402.68 209.35 C 403.21 208.11 403.75 206.87 404.25 205.62 C 404.36 212.12 404.24 218.61 404.25 225.11 C 415.51 225.00 426.78 225.49 438.02 224.70 C 442.18 224.53 446.34 224.80 450.50 224.79 C 447.03 226.92 442.97 226.98 439.07 226.46 C 441.41 228.12 444.01 229.79 444.99 232.66 C 448.59 233.48 452.26 233.94 455.92 234.48 C 455.64 234.82 455.08 235.48 454.80 235.81 C 439.18 235.76 423.54 236.61 407.93 235.75 C 405.89 236.32 403.78 237.88 403.45 240.10 C 404.74 242.37 407.45 243.50 409.99 243.32 C 424.70 243.29 439.40 243.50 454.11 243.40 C 456.01 243.69 457.12 241.93 458.20 240.69 C 460.10 244.93 458.32 249.58 460.13 253.84 C 459.66 254.19 458.73 254.88 458.27 255.23 C 459.07 252.63 457.58 249.93 454.86 249.49 C 439.56 249.53 424.24 249.69 408.94 249.48 C 406.77 249.12 405.30 250.87 403.84 252.12 C 406.82 254.28 410.22 255.90 413.85 256.64 C 412.41 260.08 409.61 263.00 409.49 266.89 C 408.23 267.79 407.54 269.20 408.17 270.73 C 410.64 273.51 416.61 272.04 416.80 276.74 C 417.56 275.48 418.30 274.21 419.20 273.05 C 420.49 273.51 420.18 275.33 420.67 276.42 C 421.16 276.50 422.13 276.67 422.61 276.75 C 421.81 278.52 421.10 280.32 420.40 282.13 C 424.40 284.56 428.22 287.28 432.25 289.67 C 434.55 291.08 437.29 290.02 439.63 289.30 C 439.64 291.83 437.55 292.46 435.45 292.75 C 435.14 294.02 434.85 295.29 434.56 296.57 C 432.74 297.27 430.93 297.98 429.13 298.71 C 437.34 300.46 445.84 300.10 454.15 299.33 C 456.34 299.10 458.51 299.59 460.66 300.02 C 460.56 300.45 460.36 301.31 460.26 301.73 C 442.83 301.58 425.38 301.55 407.94 301.64 C 406.11 301.56 404.10 302.68 403.49 304.43 C 402.87 306.66 405.65 307.55 406.96 308.77 C 408.24 310.14 409.07 311.84 409.83 313.55 C 408.90 314.01 407.97 314.48 407.06 314.95 C 405.55 315.84 403.07 316.65 403.27 318.82 C 403.32 320.58 405.13 321.29 406.36 322.18 C 405.88 325.05 405.62 327.96 405.25 330.85 C 405.10 331.10 404.80 331.60 404.65 331.84 C 404.14 335.38 404.41 338.95 404.61 342.50 C 429.19 342.81 453.76 342.35 478.33 342.73 C 478.32 343.03 478.30 343.64 478.29 343.94 C 473.02 344.23 467.74 344.01 462.46 344.05 C 462.67 344.43 463.08 345.19 463.29 345.57 C 461.85 347.90 459.72 350.07 459.35 352.87 C 460.25 355.45 462.94 357.97 460.75 360.65 C 462.60 361.30 464.88 361.59 466.02 363.40 C 468.35 366.91 469.51 371.32 473.18 373.81 C 475.50 376.34 480.72 373.95 481.39 378.31 C 479.82 384.33 478.91 390.91 481.25 396.86 C 482.10 399.92 485.16 401.44 487.42 403.37 C 472.09 403.64 456.76 403.31 441.43 403.47 C 440.71 403.49 439.28 403.52 438.56 403.54 C 423.61 403.31 408.65 403.91 393.71 403.42 C 391.69 401.91 389.93 399.74 389.78 397.12 C 389.49 371.42 389.98 345.72 389.83 320.01 C 389.86 304.10 389.50 288.18 389.70 272.27 C 387.34 270.50 384.85 268.90 382.30 267.43 C 382.06 278.39 382.71 289.38 381.89 300.32 C 378.15 297.11 373.16 298.02 368.65 297.63 C 368.83 285.64 368.58 273.65 368.73 261.67 C 357.19 255.83 345.69 249.93 334.23 243.96 C 334.70 236.42 337.31 229.30 338.37 221.87 C 337.64 221.39 336.95 220.87 336.29 220.32 C 338.68 220.74 341.09 221.29 343.17 222.59 C 351.56 227.38 360.07 231.94 368.65 236.36 C 372.64 238.65 376.82 240.56 380.89 242.71 C 381.02 213.13 380.85 183.55 381.27 153.98 C 381.30 130.65 381.08 107.31 381.04 83.98 Z" fill="#000531" opacity="1.00" stroke="#000531" stroke-width="0.09375"/>
<path d="M 382.34 86.30 C 389.67 83.98 397.24 82.06 404.96 81.93 C 419.91 82.09 435.35 91.19 440.04 105.88 C 444.28 116.80 439.71 129.22 445.24 139.80 C 449.90 148.79 457.99 155.25 464.98 162.36 C 471.70 161.65 478.45 162.14 485.19 161.80 C 485.31 162.03 485.54 162.48 485.65 162.70 C 459.77 162.58 433.89 162.85 408.00 162.81 C 403.15 163.17 398.24 162.78 393.42 163.50 C 392.05 163.77 390.67 164.03 389.31 164.31 C 389.05 163.27 388.80 162.24 388.55 161.20 C 387.80 161.58 387.05 161.95 386.31 162.33 C 386.12 161.87 385.74 160.95 385.55 160.49 C 385.01 160.98 384.48 161.46 383.95 161.95 C 383.58 160.37 383.08 158.83 382.53 157.31 C 382.05 133.64 382.57 109.96 382.34 86.30 Z" fill="#f9c16a" opacity="1.00" stroke="#f9c16a" stroke-width="0.09375"/>
<path d="M 150.41 86.46 C 167.93 86.07 185.45 86.54 202.98 86.43 C 254.16 86.38 305.35 86.77 356.54 86.31 C 360.79 86.45 365.07 86.06 369.32 86.59 C 368.82 136.50 368.62 186.43 368.65 236.36 C 360.07 231.94 351.56 227.38 343.17 222.59 C 341.09 221.29 338.68 220.74 336.29 220.32 C 330.30 217.15 323.55 215.41 318.02 211.42 L 319.14 211.41 C 328.22 211.41 337.30 211.54 346.38 211.47 C 347.23 207.55 347.76 203.42 346.51 199.52 C 336.01 199.18 325.50 199.73 314.99 199.38 C 315.36 197.72 316.34 196.33 317.44 195.07 C 317.81 194.74 318.55 194.06 318.92 193.73 C 319.02 193.71 319.21 193.66 319.31 193.64 L 320.93 193.36 C 322.71 191.04 323.87 188.34 325.06 185.70 C 332.04 185.65 339.01 185.77 345.99 185.78 C 347.78 181.91 347.21 177.60 346.44 173.56 C 339.10 173.54 331.74 173.35 324.41 173.94 C 323.96 173.97 323.07 174.02 322.62 174.04 C 322.70 173.61 322.86 172.74 322.94 172.31 C 324.10 168.13 324.26 163.78 324.26 159.47 C 324.95 159.59 326.31 159.83 326.99 159.96 C 333.50 160.83 340.22 160.88 346.70 159.71 C 347.38 155.73 347.61 151.59 346.35 147.69 C 333.99 147.15 321.61 148.07 309.27 147.18 C 304.51 145.43 299.41 146.76 294.65 147.83 C 272.77 147.24 250.87 147.78 228.98 147.51 C 223.54 147.54 218.09 147.18 212.67 147.71 C 212.41 151.90 212.37 156.11 212.72 160.30 C 218.15 160.84 223.59 160.18 229.02 160.33 C 246.84 160.16 264.67 160.72 282.47 159.95 C 282.86 158.94 283.27 157.93 283.68 156.92 C 281.58 162.04 282.38 167.76 283.48 173.02 C 281.70 176.49 281.35 180.42 281.43 184.27 C 281.16 180.74 281.28 177.21 281.51 173.69 C 258.48 173.68 235.45 173.23 212.43 173.59 C 212.26 177.20 212.32 180.82 212.46 184.43 C 213.34 185.03 214.22 185.64 215.10 186.25 C 222.33 185.07 229.70 185.87 236.99 185.59 C 251.85 185.87 266.71 185.53 281.57 185.80 C 283.25 189.79 285.05 194.22 288.81 196.68 C 289.40 196.99 290.58 197.61 291.17 197.92 C 291.36 198.33 291.74 199.16 291.93 199.57 C 265.49 199.85 239.04 199.07 212.61 199.58 C 212.00 203.49 211.60 207.76 213.84 211.25 C 233.90 211.47 253.96 211.71 274.03 211.69 C 279.12 211.59 284.26 211.64 289.31 210.81 C 285.01 214.53 279.11 215.02 273.97 216.99 C 269.81 218.02 264.73 219.56 263.56 224.29 C 255.80 225.42 247.60 223.09 240.12 225.80 C 240.23 226.27 240.45 227.23 240.55 227.71 C 237.41 225.32 233.81 223.60 230.77 221.06 C 226.67 217.69 221.58 215.66 217.81 211.86 C 216.56 211.75 215.30 211.65 214.04 211.57 C 213.76 211.88 213.20 212.51 212.92 212.82 C 211.50 209.69 210.51 206.30 208.51 203.47 C 205.33 200.10 200.60 197.94 195.92 198.66 C 193.15 198.96 191.09 201.15 189.73 203.41 C 187.38 203.50 185.03 203.52 182.68 203.49 C 179.93 203.53 177.03 203.18 174.43 204.20 C 173.93 209.51 174.40 214.85 174.14 220.17 C 182.00 221.82 190.15 219.84 198.06 221.30 C 199.47 222.53 201.00 223.59 202.50 224.72 C 202.18 226.33 201.76 228.08 202.43 229.67 C 205.71 232.11 209.40 234.02 212.40 236.85 C 211.55 240.99 211.69 245.23 211.78 249.43 C 216.57 249.42 221.38 249.64 226.13 248.93 C 232.77 252.83 238.76 257.67 244.54 262.73 C 233.89 263.63 223.17 263.06 212.49 263.49 C 211.31 267.45 211.70 271.62 212.47 275.61 C 231.34 275.75 250.23 275.16 269.10 275.82 C 269.56 280.35 269.90 284.90 270.26 289.45 C 265.63 287.84 260.70 289.14 255.94 289.12 C 241.40 288.52 226.84 288.93 212.29 288.85 C 212.16 292.79 212.13 296.74 212.19 300.69 C 214.09 301.08 216.02 301.43 217.97 301.38 C 235.80 301.19 253.62 301.42 271.44 301.24 C 271.64 305.71 272.37 310.20 271.89 314.67 C 271.11 320.17 270.75 325.73 270.38 331.26 C 253.92 331.21 237.46 331.12 221.01 331.11 C 198.00 330.26 174.94 332.08 151.96 330.69 C 146.65 329.99 141.23 330.05 135.93 330.79 C 132.25 328.27 133.24 322.94 132.19 319.11 C 136.34 316.59 141.41 316.78 145.98 315.55 C 156.28 313.00 166.84 311.65 177.02 308.62 C 184.73 307.57 192.55 307.85 200.27 307.11 C 203.34 306.89 204.98 303.96 205.22 301.19 C 202.14 301.62 199.02 301.80 195.92 301.64 C 197.29 298.52 201.75 299.32 204.51 298.14 C 204.47 296.82 204.44 295.49 204.42 294.17 C 201.72 294.47 199.01 294.68 196.30 294.83 C 196.29 294.29 196.26 293.21 196.24 292.67 C 198.96 291.96 201.82 291.43 204.22 289.87 C 205.09 288.56 204.33 287.04 204.01 285.71 C 201.10 284.15 197.86 284.75 194.88 285.67 C 187.87 287.25 180.72 288.46 174.24 291.76 C 174.18 291.48 174.04 290.94 173.98 290.67 C 162.45 291.97 151.25 295.16 139.79 296.92 C 132.18 298.05 124.74 300.20 117.07 300.94 C 113.38 295.46 107.87 291.56 104.18 286.07 C 104.15 291.90 104.18 297.73 104.21 303.57 C 101.04 304.29 97.85 304.94 94.67 305.62 C 94.27 303.45 93.89 301.26 93.81 299.05 C 93.36 282.01 93.56 264.94 92.27 247.94 C 92.63 245.98 90.40 245.60 89.01 245.66 C 82.16 245.44 75.30 245.13 68.45 245.41 C 68.41 242.34 68.32 239.28 68.52 236.22 C 69.86 236.23 71.21 236.24 72.55 236.26 C 78.78 236.37 85.02 236.46 91.25 236.39 C 92.24 239.47 92.52 242.70 92.55 245.93 C 98.59 250.35 103.08 256.42 108.49 261.54 C 113.90 266.67 118.42 272.67 123.99 277.66 C 128.14 277.31 132.26 276.62 136.32 275.70 C 141.07 274.75 145.87 274.02 150.66 273.30 C 150.63 211.03 150.78 148.74 150.41 86.46 Z" fill="#fefefe" opacity="1.00" stroke="#fefefe" stroke-width="0.09375"/>
<path d="M 173.97 128.03 C 174.57 125.30 173.09 121.43 175.92 119.68 C 183.02 119.31 190.15 119.76 197.26 119.58 C 197.83 119.90 198.95 120.55 199.52 120.87 C 199.75 121.82 200.20 122.77 200.00 123.77 C 199.50 127.60 200.05 131.48 199.36 135.30 C 191.99 136.28 184.51 135.36 177.09 135.50 C 173.13 135.86 173.85 130.62 173.97 128.03 Z" fill="#010835" opacity="1.00" stroke="#010835" stroke-width="0.09375"/>
<path d="M 212.59 121.70 C 214.70 121.39 216.84 121.26 218.97 121.28 C 255.99 121.09 293.00 121.24 330.01 121.34 C 335.44 121.43 340.90 120.97 346.31 121.62 C 347.65 125.33 347.21 129.31 347.21 133.17 C 342.38 135.24 337.05 133.66 331.99 133.83 C 296.32 133.68 260.63 133.83 224.95 133.83 C 220.83 133.45 216.55 134.97 212.61 133.26 C 212.05 129.43 211.98 125.52 212.59 121.70 Z" fill="#d22022" opacity="1.00" stroke="#d22022" stroke-width="0.09375"/>
<path d="M 174.40 147.98 C 175.09 146.68 176.62 146.38 177.98 146.40 C 184.01 146.22 190.06 146.53 196.09 146.68 C 197.45 146.58 198.65 147.22 199.84 147.76 C 199.82 152.54 199.98 157.33 199.68 162.10 C 199.40 163.81 197.27 163.56 196.02 163.65 C 190.01 163.54 183.99 163.53 177.98 163.45 C 176.58 163.58 175.41 162.80 174.23 162.20 C 174.37 157.47 174.00 152.71 174.40 147.98 Z" fill="#041446" opacity="1.00" stroke="#041446" stroke-width="0.09375"/>
<path d="M 294.65 147.83 C 299.41 146.76 304.51 145.43 309.27 147.18 C 312.65 148.12 316.20 148.80 319.08 150.96 C 321.23 153.25 323.79 155.77 323.80 159.15 C 323.90 163.55 323.32 167.93 322.94 172.31 C 322.86 172.74 322.70 173.61 322.62 174.04 C 321.31 180.54 321.72 187.38 319.31 193.64 C 319.21 193.66 319.02 193.71 318.92 193.73 C 318.55 194.06 317.81 194.74 317.44 195.07 C 315.58 196.30 313.50 197.78 311.15 197.30 C 305.79 196.28 300.31 196.54 294.90 196.91 C 293.61 196.78 292.32 196.60 291.04 196.43 C 290.51 196.10 289.46 195.45 288.93 195.13 C 284.77 188.43 285.24 180.41 283.48 173.02 C 282.38 167.76 281.58 162.04 283.68 156.92 C 284.47 155.09 285.14 153.07 286.66 151.70 C 289.09 149.99 291.94 149.00 294.65 147.83 Z" fill="#00021c" opacity="1.00" stroke="#00021c" stroke-width="0.09375"/>
<path d="M 309.27 147.18 C 321.61 148.07 333.99 147.15 346.35 147.69 C 347.61 151.59 347.38 155.73 346.70 159.71 C 340.22 160.88 333.50 160.83 326.99 159.96 C 326.47 159.81 325.41 159.53 324.88 159.39 C 323.68 156.16 322.31 152.67 319.08 150.96 C 316.20 148.80 312.65 148.12 309.27 147.18 Z" fill="#d32522" opacity="1.00" stroke="#d32522" stroke-width="0.09375"/>
<path d="M 212.67 147.71 C 218.09 147.18 223.54 147.54 228.98 147.51 C 250.87 147.78 272.77 147.24 294.65 147.83 C 291.94 149.00 289.09 149.99 286.66 151.70 C 285.14 153.07 284.47 155.09 283.68 156.92 C 283.27 157.93 282.86 158.94 282.47 159.95 C 264.67 160.72 246.84 160.16 229.02 160.33 C 223.59 160.18 218.15 160.84 212.72 160.30 C 212.37 156.11 212.41 151.90 212.67 147.71 Z" fill="#cd1d1d" opacity="1.00" stroke="#cd1d1d" stroke-width="0.09375"/>
<path d="M 319.08 150.96 C 322.31 152.67 323.68 156.16 324.88 159.39 C 325.41 159.53 326.47 159.81 326.99 159.96 C 326.31 159.83 324.95 159.59 324.26 159.47 C 324.26 163.78 324.10 168.13 322.94 172.31 C 323.32 167.93 323.90 163.55 323.80 159.15 C 323.79 155.77 321.23 153.25 319.08 150.96 Z" fill="#6a5c6c" opacity="1.00" stroke="#6a5c6c" stroke-width="0.09375"/>
<path d="M 382.53 157.31 C 383.08 158.83 383.58 160.37 383.95 161.95 C 384.03 173.96 384.27 185.98 383.93 197.99 C 384.07 213.24 384.16 228.50 384.23 243.75 L 382.91 243.03 C 382.60 214.47 382.70 185.88 382.53 157.31 Z" fill="#fad787" opacity="1.00" stroke="#fad787" stroke-width="0.09375"/>
<path d="M 383.95 161.95 C 384.48 161.46 385.01 160.98 385.55 160.49 C 385.74 160.95 386.12 161.87 386.31 162.33 C 387.05 161.95 387.80 161.58 388.55 161.20 C 388.80 162.24 389.05 163.27 389.31 164.31 C 390.67 164.03 392.05 163.77 393.42 163.50 C 391.30 165.46 389.16 167.92 389.45 171.02 C 389.59 183.85 389.63 196.70 389.84 209.53 C 389.50 221.84 390.66 234.15 389.83 246.45 C 387.95 245.56 386.07 244.70 384.23 243.75 C 384.16 228.50 384.07 213.24 383.93 197.99 C 384.27 185.98 384.03 173.96 383.95 161.95 Z" fill="#fbc66c" opacity="1.00" stroke="#fbc66c" stroke-width="0.09375"/>
<path d="M 393.42 163.50 C 398.24 162.78 403.15 163.17 408.00 162.81 C 433.89 162.85 459.77 162.58 485.65 162.70 C 489.25 163.19 492.33 166.25 492.23 169.99 C 492.71 180.49 492.33 191.02 492.46 201.53 C 491.91 247.81 492.42 294.08 492.34 340.36 C 492.23 344.15 492.18 347.95 492.19 351.75 C 492.14 365.18 491.95 378.60 492.15 392.03 C 492.13 394.28 492.32 396.56 491.84 398.78 C 491.14 400.88 489.15 402.17 487.42 403.37 C 485.16 401.44 482.10 399.92 481.25 396.86 C 478.91 390.91 479.82 384.33 481.39 378.31 C 480.72 373.95 475.50 376.34 473.18 373.81 C 469.51 371.32 468.35 366.91 466.02 363.40 C 464.88 361.59 462.60 361.30 460.75 360.65 C 462.94 357.97 460.25 355.45 459.35 352.87 C 459.72 350.07 461.85 347.90 463.29 345.57 C 463.08 345.19 462.67 344.43 462.46 344.05 C 467.74 344.01 473.02 344.23 478.29 343.94 C 478.30 343.64 478.32 343.03 478.33 342.73 C 478.31 341.34 478.26 339.96 478.19 338.59 C 478.20 324.48 477.96 310.38 478.18 296.27 L 477.35 296.23 C 474.81 295.96 472.27 295.81 469.72 295.78 C 469.73 302.52 470.51 309.28 469.82 316.01 C 467.94 315.81 466.07 315.62 464.23 315.25 C 463.45 314.79 462.68 314.33 461.92 313.87 C 462.03 312.15 462.21 310.43 462.38 308.72 C 462.80 306.13 463.41 302.80 460.26 301.73 C 460.36 301.31 460.56 300.45 460.66 300.02 C 458.51 299.59 456.34 299.10 454.15 299.33 C 445.84 300.10 437.34 300.46 429.13 298.71 C 430.93 297.98 432.74 297.27 434.56 296.57 C 434.85 295.29 435.14 294.02 435.45 292.75 C 437.55 292.46 439.64 291.83 439.63 289.30 C 441.86 287.77 443.78 285.84 445.51 283.77 C 451.63 284.68 457.84 283.97 464.00 284.15 C 468.57 284.01 473.22 284.54 477.74 283.59 C 479.09 281.19 477.97 278.16 477.23 275.67 C 466.62 275.59 456.00 275.88 445.40 275.23 C 440.15 271.19 434.05 268.49 428.00 265.91 C 426.15 269.50 424.34 273.10 422.61 276.75 C 422.13 276.67 421.16 276.50 420.67 276.42 C 420.18 275.33 420.49 273.51 419.20 273.05 C 418.30 274.21 417.56 275.48 416.80 276.74 C 416.61 272.04 410.64 273.51 408.17 270.73 C 407.54 269.20 408.23 267.79 409.49 266.89 C 409.61 263.00 412.41 260.08 413.85 256.64 C 426.90 256.97 439.97 256.61 453.03 257.15 C 454.99 257.36 456.80 256.45 458.27 255.23 C 458.73 254.88 459.66 254.19 460.13 253.84 C 458.32 249.58 460.10 244.93 458.20 240.69 C 457.90 238.55 456.85 236.69 454.80 235.81 C 455.08 235.48 455.64 234.82 455.92 234.48 C 452.26 233.94 448.59 233.48 444.99 232.66 C 444.01 229.79 441.41 228.12 439.07 226.46 C 442.97 226.98 447.03 226.92 450.50 224.79 C 451.19 224.75 452.57 224.66 453.26 224.62 C 461.66 224.44 470.06 224.58 478.45 224.60 C 478.28 208.79 478.49 192.97 478.47 177.15 C 464.99 177.27 451.51 177.11 438.04 177.22 C 426.79 177.25 415.55 177.35 404.30 177.16 C 404.26 186.65 404.31 196.14 404.25 205.62 C 403.75 206.87 403.21 208.11 402.68 209.35 C 402.33 209.16 401.61 208.77 401.25 208.58 C 400.63 209.69 399.39 210.77 399.97 212.16 C 400.70 215.15 401.34 218.17 401.41 221.26 C 399.71 222.61 398.13 224.24 396.06 225.02 C 394.09 224.40 391.43 223.37 391.28 220.95 C 390.91 217.13 391.50 213.14 389.84 209.53 C 389.63 196.70 389.59 183.85 389.45 171.02 C 389.16 167.92 391.30 165.46 393.42 163.50 Z" fill="#000c36" opacity="1.00" stroke="#000c36" stroke-width="0.09375"/>
<path d="M 212.43 173.59 C 235.45 173.23 258.48 173.68 281.51 173.69 C 281.28 177.21 281.16 180.74 281.43 184.27 C 281.47 184.65 281.53 185.42 281.57 185.80 C 266.71 185.53 251.85 185.87 236.99 185.59 C 229.70 185.87 222.33 185.07 215.10 186.25 C 214.22 185.64 213.34 185.03 212.46 184.43 C 212.32 180.82 212.26 177.20 212.43 173.59 Z" fill="#cf241f" opacity="1.00" stroke="#cf241f" stroke-width="0.09375"/>
<path d="M 324.41 173.94 C 331.74 173.35 339.10 173.54 346.44 173.56 C 347.21 177.60 347.78 181.91 345.99 185.78 C 339.01 185.77 332.04 185.65 325.06 185.70 C 325.82 181.90 326.85 177.31 324.41 173.94 Z" fill="#d11f24" opacity="1.00" stroke="#d11f24" stroke-width="0.09375"/>
<path d="M 174.67 174.68 C 180.44 174.09 186.25 174.72 192.04 174.41 C 194.48 174.24 196.91 174.45 199.33 174.78 C 200.37 179.89 199.79 185.18 199.76 190.35 C 196.71 191.79 193.29 191.15 190.05 191.23 C 185.40 191.10 180.73 191.47 176.10 191.08 C 174.72 190.64 174.23 189.35 174.37 188.02 C 174.37 183.57 173.88 179.09 174.67 174.68 Z" fill="#051544" opacity="1.00" stroke="#051544" stroke-width="0.09375"/>
<path d="M 281.43 184.27 C 281.35 180.42 281.70 176.49 283.48 173.02 C 285.24 180.41 284.77 188.43 288.93 195.13 C 289.46 195.45 290.51 196.10 291.04 196.43 C 290.48 196.49 289.36 196.61 288.81 196.68 C 285.05 194.22 283.25 189.79 281.57 185.80 C 281.53 185.42 281.47 184.65 281.43 184.27 Z" fill="#f7d3ce" opacity="1.00" stroke="#f7d3ce" stroke-width="0.09375"/>
<path d="M 322.62 174.04 C 323.07 174.02 323.96 173.97 324.41 173.94 C 326.85 177.31 325.82 181.90 325.06 185.70 C 323.87 188.34 322.71 191.04 320.93 193.36 L 319.31 193.64 C 321.72 187.38 321.31 180.54 322.62 174.04 Z" fill="#fbdcc8" opacity="1.00" stroke="#fbdcc8" stroke-width="0.09375"/>
<path d="M 494.31 175.80 C 500.53 178.49 505.84 182.85 512.00 185.70 L 512.00 337.84 C 510.02 336.28 507.46 335.15 504.94 335.98 C 502.34 336.96 499.65 336.32 497.11 335.53 C 495.67 338.57 494.93 341.85 494.34 345.15 C 493.93 340.11 493.90 335.06 493.54 330.03 C 493.34 333.49 492.91 336.93 492.34 340.36 C 492.42 294.08 491.91 247.81 492.46 201.53 C 494.83 193.15 493.04 184.34 494.31 175.80 Z" fill="#fbc671" opacity="1.00" stroke="#fbc671" stroke-width="0.09375"/>
<path d="M 404.30 177.16 C 415.55 177.35 426.79 177.25 438.04 177.22 C 437.86 178.72 437.68 180.22 437.52 181.72 C 430.16 185.03 426.11 193.22 425.99 201.03 C 424.80 210.48 431.17 220.11 440.02 223.28 C 443.82 224.76 447.97 224.14 451.85 223.38 C 452.20 223.69 452.91 224.31 453.26 224.62 C 452.57 224.66 451.19 224.75 450.50 224.79 C 446.34 224.80 442.18 224.53 438.02 224.70 C 426.78 225.49 415.51 225.00 404.25 225.11 C 404.24 218.61 404.36 212.12 404.25 205.62 C 404.31 196.14 404.26 186.65 404.30 177.16 Z" fill="#f8bf6b" opacity="1.00" stroke="#f8bf6b" stroke-width="0.09375"/>
<path d="M 438.04 177.22 C 451.51 177.11 464.99 177.27 478.47 177.15 C 478.49 192.97 478.28 208.79 478.45 224.60 C 470.06 224.58 461.66 224.44 453.26 224.62 C 452.91 224.31 452.20 223.69 451.85 223.38 C 460.38 220.76 467.31 212.98 468.11 203.97 C 468.43 199.81 468.14 195.46 466.71 191.51 C 463.88 186.11 458.79 182.06 453.17 179.84 C 447.96 178.64 442.28 179.20 437.52 181.72 C 437.68 180.22 437.86 178.72 438.04 177.22 Z" fill="#f8c369" opacity="1.00" stroke="#f8c369" stroke-width="0.09375"/>
<path d="M 437.52 181.72 C 442.28 179.20 447.96 178.64 453.17 179.84 C 458.79 182.06 463.88 186.11 466.71 191.51 C 468.14 195.46 468.43 199.81 468.11 203.97 C 467.31 212.98 460.38 220.76 451.85 223.38 C 447.97 224.14 443.82 224.76 440.02 223.28 C 431.17 220.11 424.80 210.48 425.99 201.03 C 426.11 193.22 430.16 185.03 437.52 181.72 Z" fill="#fefefd" opacity="1.00" stroke="#fefefd" stroke-width="0.09375"/>
<path d="M 98.48 188.09 C 100.91 187.85 103.05 186.61 105.14 185.46 C 110.41 189.70 107.47 197.77 103.74 202.09 C 99.17 205.58 93.59 207.15 88.15 208.67 C 88.18 214.21 88.75 219.73 89.02 225.27 C 85.08 226.01 81.11 226.57 77.13 227.11 C 75.42 227.30 73.70 227.47 71.99 227.66 C 71.46 227.31 70.41 226.61 69.88 226.26 C 67.49 223.05 67.03 218.93 66.23 215.13 C 65.54 210.75 64.24 206.47 63.95 202.05 C 63.62 196.21 67.89 190.11 73.88 189.39 C 82.03 188.22 90.31 189.06 98.48 188.09 Z" fill="#000225" opacity="1.00" stroke="#000225" stroke-width="0.09375"/>
<path d="M 436.50 192.58 C 439.17 191.10 442.12 188.61 445.31 190.28 C 445.40 191.04 445.56 192.57 445.65 193.33 C 445.14 193.69 444.12 194.41 443.61 194.77 C 442.54 194.13 441.46 193.54 440.35 193.01 C 440.33 195.39 439.95 197.73 439.40 200.04 C 443.76 201.05 447.97 203.15 450.57 206.92 C 448.45 208.90 447.63 211.57 447.32 214.37 C 445.60 215.42 443.43 214.57 441.56 214.42 C 442.62 212.00 443.56 209.50 443.67 206.84 C 440.98 205.22 437.70 205.35 434.89 204.11 C 433.57 200.39 434.39 195.86 436.50 192.58 Z" fill="#02093d" opacity="1.00" stroke="#02093d" stroke-width="0.09375"/>
<path d="M 445.31 190.28 C 445.91 191.95 446.02 194.21 448.02 194.84 C 452.31 196.88 457.02 198.88 459.73 203.02 C 458.72 203.75 457.70 206.30 456.13 205.17 C 452.70 200.78 447.86 197.96 443.23 195.04 L 443.61 194.77 C 444.12 194.41 445.14 193.69 445.65 193.33 C 445.56 192.57 445.40 191.04 445.31 190.28 Z" fill="#e6321e" opacity="1.00" stroke="#e6321e" stroke-width="0.09375"/>
<path d="M 454.51 191.24 C 457.61 191.87 459.44 194.71 459.96 197.66 C 458.20 196.95 456.29 196.43 454.82 195.19 C 453.64 194.19 454.51 192.52 454.51 191.24 Z" fill="#cc5727" opacity="1.00" stroke="#cc5727" stroke-width="0.09375"/>
<path d="M 311.15 197.30 C 313.50 197.78 315.58 196.30 317.44 195.07 C 316.34 196.33 315.36 197.72 314.99 199.38 C 325.50 199.73 336.01 199.18 346.51 199.52 C 347.76 203.42 347.23 207.55 346.38 211.47 C 337.30 211.54 328.22 211.41 319.14 211.41 C 318.46 211.17 317.10 210.71 316.42 210.47 C 315.92 208.57 315.47 206.66 315.10 204.73 C 314.88 201.80 313.60 199.01 311.15 197.30 Z" fill="#cf2324" opacity="1.00" stroke="#cf2324" stroke-width="0.09375"/>
<path d="M 291.04 196.43 C 292.32 196.60 293.61 196.78 294.90 196.91 C 294.55 197.07 293.83 197.40 293.48 197.57 C 292.93 199.57 292.47 201.59 291.90 203.58 C 291.16 205.89 290.55 208.24 290.30 210.66 C 290.06 210.70 289.56 210.78 289.31 210.81 C 284.26 211.64 279.12 211.59 274.03 211.69 C 253.96 211.71 233.90 211.47 213.84 211.25 C 211.60 207.76 212.00 203.49 212.61 199.58 C 239.04 199.07 265.49 199.85 291.93 199.57 C 291.74 199.16 291.36 198.33 291.17 197.92 C 290.58 197.61 289.40 196.99 288.81 196.68 C 289.36 196.61 290.48 196.49 291.04 196.43 Z" fill="#d22220" opacity="1.00" stroke="#d22220" stroke-width="0.09375"/>
<path d="M 294.90 196.91 C 300.31 196.54 305.79 196.28 311.15 197.30 C 313.60 199.01 314.88 201.80 315.10 204.73 C 315.08 205.35 315.02 206.61 315.00 207.23 C 314.91 206.54 314.73 205.15 314.64 204.46 C 307.05 204.25 299.47 204.08 291.90 203.58 C 292.47 201.59 292.93 199.57 293.48 197.57 C 293.83 197.40 294.55 197.07 294.90 196.91 Z" fill="#ea937b" opacity="1.00" stroke="#ea937b" stroke-width="0.09375"/>
<path d="M 189.73 203.41 C 191.09 201.15 193.15 198.96 195.92 198.66 C 200.60 197.94 205.33 200.10 208.51 203.47 C 210.51 206.30 211.50 209.69 212.92 212.82 C 209.50 216.84 205.67 220.49 202.50 224.72 C 201.00 223.59 199.47 222.53 198.06 221.30 C 196.33 218.17 192.19 217.48 190.58 214.24 C 188.87 210.90 189.48 207.00 189.73 203.41 Z" fill="#fbb396" opacity="1.00" stroke="#fbb396" stroke-width="0.09375"/>
<path d="M 88.15 208.67 C 93.59 207.15 99.17 205.58 103.74 202.09 C 102.63 211.07 108.91 220.50 104.11 229.09 C 101.60 234.10 95.50 234.04 90.69 234.34 C 89.93 231.36 89.38 228.32 89.02 225.27 C 88.75 219.73 88.18 214.21 88.15 208.67 Z" fill="#ffc7ab" opacity="1.00" stroke="#ffc7ab" stroke-width="0.09375"/>
<path d="M 174.43 204.20 C 177.03 203.18 179.93 203.53 182.68 203.49 C 184.29 204.04 185.89 204.65 187.49 205.28 C 187.45 207.74 187.33 210.22 187.58 212.68 C 187.77 215.40 190.11 217.16 191.78 219.06 C 185.92 219.75 179.92 218.80 174.14 220.17 C 174.40 214.85 173.93 209.51 174.43 204.20 Z" fill="#081f4a" opacity="1.00" stroke="#081f4a" stroke-width="0.09375"/>
<path d="M 182.68 203.49 C 185.03 203.52 187.38 203.50 189.73 203.41 C 189.48 207.00 188.87 210.90 190.58 214.24 C 192.19 217.48 196.33 218.17 198.06 221.30 C 190.15 219.84 182.00 221.82 174.14 220.17 C 179.92 218.80 185.92 219.75 191.78 219.06 C 190.11 217.16 187.77 215.40 187.58 212.68 C 187.33 210.22 187.45 207.74 187.49 205.28 C 185.89 204.65 184.29 204.04 182.68 203.49 Z" fill="#020929" opacity="1.00" stroke="#020929" stroke-width="0.09375"/>
<path d="M 291.90 203.58 C 299.47 204.08 307.05 204.25 314.64 204.46 C 314.73 205.15 314.91 206.54 315.00 207.23 C 314.93 208.66 314.82 210.11 314.36 211.48 C 306.38 212.29 298.21 212.07 290.30 210.66 C 290.55 208.24 291.16 205.89 291.90 203.58 Z" fill="#01dffd" opacity="1.00" stroke="#01dffd" stroke-width="0.09375"/>
<path d="M 315.10 204.73 C 315.47 206.66 315.92 208.57 316.42 210.47 C 317.10 210.71 318.46 211.17 319.14 211.41 L 318.02 211.42 C 323.55 215.41 330.30 217.15 336.29 220.32 C 336.95 220.87 337.64 221.39 338.37 221.87 C 337.31 229.30 334.70 236.42 334.23 243.96 C 333.64 250.24 333.87 256.60 332.67 262.82 C 332.10 267.07 331.79 271.36 331.65 275.65 C 331.49 279.98 330.76 284.26 330.69 288.60 C 330.55 292.89 330.26 297.18 330.07 301.48 C 329.81 306.07 329.59 310.66 329.67 315.26 C 310.43 314.04 291.15 315.17 271.89 314.67 C 272.37 310.20 271.64 305.71 271.44 301.24 C 271.03 297.31 270.41 293.40 270.26 289.45 C 269.90 284.90 269.56 280.35 269.10 275.82 C 268.63 270.96 268.51 266.04 267.32 261.28 C 266.78 261.67 265.69 262.45 265.15 262.83 C 266.02 262.04 266.84 261.18 267.67 260.35 C 266.98 255.75 268.69 250.40 265.95 246.36 C 265.76 243.28 265.43 240.21 264.94 237.16 C 264.47 232.87 264.00 228.58 263.56 224.29 C 264.73 219.56 269.81 218.02 273.97 216.99 C 279.11 215.02 285.01 214.53 289.31 210.81 C 289.56 210.78 290.06 210.70 290.30 210.66 C 298.21 212.07 306.38 212.29 314.36 211.48 C 314.82 210.11 314.93 208.66 315.00 207.23 C 315.02 206.61 315.08 205.35 315.10 204.73 Z" fill="#00bcea" opacity="1.00" stroke="#00bcea" stroke-width="0.09375"/>
<path d="M 214.04 211.57 C 215.30 211.65 216.56 211.75 217.81 211.86 C 221.58 215.66 226.67 217.69 230.77 221.06 C 233.81 223.60 237.41 225.32 240.55 227.71 C 243.97 231.04 247.96 233.71 251.97 236.27 C 256.67 239.56 261.29 242.99 265.95 246.36 C 268.69 250.40 266.98 255.75 267.67 260.35 C 266.84 261.18 266.02 262.04 265.15 262.83 C 261.55 265.19 258.16 268.20 254.07 269.58 C 250.56 267.79 247.81 264.87 244.54 262.73 C 238.76 257.67 232.77 252.83 226.13 248.93 C 221.78 244.64 217.49 240.28 212.40 236.85 C 209.40 234.02 205.71 232.11 202.43 229.67 C 201.76 228.08 202.18 226.33 202.50 224.72 C 205.67 220.49 209.50 216.84 212.92 212.82 C 213.20 212.51 213.76 211.88 214.04 211.57 Z" fill="#000530" opacity="1.00" stroke="#000530" stroke-width="0.09375"/>
<path d="M 240.12 225.80 C 247.60 223.09 255.80 225.42 263.56 224.29 C 264.00 228.58 264.47 232.87 264.94 237.16 C 260.63 237.01 256.07 237.97 251.97 236.27 C 247.96 233.71 243.97 231.04 240.55 227.71 C 240.45 227.23 240.23 226.27 240.12 225.80 Z" fill="#cc211e" opacity="1.00" stroke="#cc211e" stroke-width="0.09375"/>
<path d="M 69.88 226.26 C 70.41 226.61 71.46 227.31 71.99 227.66 C 73.70 227.47 75.42 227.30 77.13 227.11 C 75.65 227.36 74.19 227.66 72.72 227.95 C 72.62 230.72 72.56 233.49 72.55 236.26 C 71.21 236.24 69.86 236.23 68.52 236.22 C 68.85 232.88 69.46 229.58 69.88 226.26 Z" fill="#e9aa66" opacity="1.00" stroke="#e9aa66" stroke-width="0.09375"/>
<path d="M 77.13 227.11 C 81.11 226.57 85.08 226.01 89.02 225.27 C 89.38 228.32 89.93 231.36 90.69 234.34 C 90.83 234.85 91.11 235.88 91.25 236.39 C 85.02 236.46 78.78 236.37 72.55 236.26 C 72.56 233.49 72.62 230.72 72.72 227.95 C 74.19 227.66 75.65 227.36 77.13 227.11 Z" fill="#f9a68d" opacity="1.00" stroke="#f9a68d" stroke-width="0.09375"/>
<path d="M 174.13 237.99 C 174.23 236.14 173.57 233.36 176.06 232.86 C 183.86 232.66 191.69 232.68 199.49 233.18 C 199.38 238.42 200.83 244.09 199.07 249.06 C 190.97 249.85 182.70 249.53 174.55 249.40 C 173.78 245.64 174.32 241.79 174.13 237.99 Z" fill="#051946" opacity="1.00" stroke="#051946" stroke-width="0.09375"/>
<path d="M 251.97 236.27 C 256.07 237.97 260.63 237.01 264.94 237.16 C 265.43 240.21 265.76 243.28 265.95 246.36 C 261.29 242.99 256.67 239.56 251.97 236.27 Z" fill="#fbfbf6" opacity="1.00" stroke="#fbfbf6" stroke-width="0.09375"/>
<path d="M 403.45 240.10 C 403.78 237.88 405.89 236.32 407.93 235.75 C 423.54 236.61 439.18 235.76 454.80 235.81 C 456.85 236.69 457.90 238.55 458.20 240.69 C 457.12 241.93 456.01 243.69 454.11 243.40 C 439.40 243.50 424.70 243.29 409.99 243.32 C 407.45 243.50 404.74 242.37 403.45 240.10 Z" fill="#fefefd" opacity="1.00" stroke="#fefefd" stroke-width="0.09375"/>
<path d="M 212.40 236.85 C 217.49 240.28 221.78 244.64 226.13 248.93 C 221.38 249.64 216.57 249.42 211.78 249.43 C 211.69 245.23 211.55 240.99 212.40 236.85 Z" fill="#d81e1b" opacity="1.00" stroke="#d81e1b" stroke-width="0.09375"/>
<path d="M 68.45 245.41 C 75.30 245.13 82.16 245.44 89.01 245.66 C 90.40 245.60 92.63 245.98 92.27 247.94 C 93.56 264.94 93.36 282.01 93.81 299.05 C 93.89 301.26 94.27 303.45 94.67 305.62 C 97.85 304.94 101.04 304.29 104.21 303.57 C 108.47 302.56 112.73 301.58 117.07 300.94 C 124.74 300.20 132.18 298.05 139.79 296.92 C 151.25 295.16 162.45 291.97 173.98 290.67 C 174.04 290.94 174.18 291.48 174.24 291.76 C 174.75 297.44 176.10 303.00 177.02 308.62 C 166.84 311.65 156.28 313.00 145.98 315.55 C 141.41 316.78 136.34 316.59 132.19 319.11 C 124.68 320.80 117.05 321.90 109.53 323.53 C 104.54 324.31 99.57 326.01 94.47 325.39 C 90.27 324.29 85.57 323.83 82.27 320.71 C 75.49 314.82 72.06 306.22 68.97 298.03 C 66.83 292.08 63.68 286.55 61.81 280.50 C 60.40 275.99 58.43 271.67 57.27 267.08 C 55.61 262.15 57.87 257.28 57.91 252.32 C 60.31 248.64 64.37 246.64 68.45 245.41 Z" fill="#00c4f4" opacity="1.00" stroke="#00c4f4" stroke-width="0.09375"/>
<path d="M 334.23 243.96 C 345.69 249.93 357.19 255.83 368.73 261.67 C 368.58 273.65 368.83 285.64 368.65 297.63 C 373.16 298.02 378.15 297.11 381.89 300.32 C 382.14 309.79 382.99 319.35 381.59 328.78 C 378.83 329.85 376.09 331.40 373.03 331.22 C 365.16 331.23 357.27 331.14 349.40 331.42 C 348.86 339.13 349.44 346.88 349.32 354.60 C 344.48 357.17 338.72 354.82 333.50 355.30 C 333.25 357.60 332.97 359.90 332.71 362.21 C 332.67 359.53 332.58 356.86 332.51 354.19 C 334.87 354.36 337.24 354.58 339.61 354.70 L 339.91 353.66 C 339.84 346.04 340.08 338.36 339.34 330.77 C 336.44 330.99 333.53 331.21 330.63 331.37 C 330.22 326.01 330.71 320.57 329.67 315.26 C 329.59 310.66 329.81 306.07 330.07 301.48 C 335.53 301.52 340.99 301.40 346.45 301.37 C 347.00 297.12 346.71 292.83 346.67 288.57 C 341.34 288.43 336.01 288.33 330.69 288.60 C 330.76 284.26 331.49 279.98 331.65 275.65 C 336.67 275.63 341.69 275.69 346.71 275.60 C 347.66 271.63 347.64 267.49 346.80 263.50 C 342.09 263.30 337.35 263.52 332.67 262.82 C 333.87 256.60 333.64 250.24 334.23 243.96 Z" fill="#fefefe" opacity="1.00" stroke="#fefefe" stroke-width="0.09375"/>
<path d="M 408.94 249.48 C 424.24 249.69 439.56 249.53 454.86 249.49 C 457.58 249.93 459.07 252.63 458.27 255.23 C 456.80 256.45 454.99 257.36 453.03 257.15 C 439.97 256.61 426.90 256.97 413.85 256.64 C 410.22 255.90 406.82 254.28 403.84 252.12 C 405.30 250.87 406.77 249.12 408.94 249.48 Z" fill="#fefefd" opacity="1.00" stroke="#fefefd" stroke-width="0.09375"/>
<path d="M 52.54 276.41 C 53.64 268.29 54.27 259.77 57.91 252.32 C 57.87 257.28 55.61 262.15 57.27 267.08 C 55.00 269.79 53.75 273.13 52.54 276.41 Z" fill="#1aa5bd" opacity="1.00" stroke="#1aa5bd" stroke-width="0.09375"/>
<path d="M 174.00 261.46 C 178.29 261.19 182.56 260.75 186.86 260.78 C 186.30 261.21 185.73 261.62 185.16 262.03 C 181.12 263.53 175.37 263.60 173.34 267.99 C 173.83 265.85 173.84 263.64 174.00 261.46 Z" fill="#4d4f83" opacity="1.00" stroke="#4d4f83" stroke-width="0.09375"/>
<path d="M 185.42 264.81 C 188.82 262.96 192.51 261.62 196.39 261.27 C 196.61 262.64 196.83 264.02 197.06 265.41 C 192.65 265.34 188.75 267.53 184.72 268.98 C 184.61 269.43 184.39 270.33 184.28 270.78 C 188.39 268.90 192.63 266.99 197.14 266.40 C 196.65 267.75 197.18 270.08 195.21 270.37 C 191.86 271.66 188.08 272.13 185.30 274.60 C 186.00 275.18 186.71 275.77 187.42 276.36 C 190.15 276.36 192.89 276.38 195.62 276.54 C 194.18 279.95 190.12 280.18 187.01 281.01 C 180.42 282.22 173.83 283.50 167.56 285.91 C 166.70 280.71 165.43 275.55 165.17 270.27 C 167.92 269.62 170.65 268.88 173.34 267.99 C 175.37 263.60 181.12 263.53 185.16 262.03 C 185.22 262.73 185.35 264.12 185.42 264.81 Z" fill="#f7a98f" opacity="1.00" stroke="#f7a98f" stroke-width="0.09375"/>
<path d="M 265.15 262.83 C 265.69 262.45 266.78 261.67 267.32 261.28 C 268.51 266.04 268.63 270.96 269.10 275.82 C 250.23 275.16 231.34 275.75 212.47 275.61 C 211.70 271.62 211.31 267.45 212.49 263.49 C 223.17 263.06 233.89 263.63 244.54 262.73 C 247.81 264.87 250.56 267.79 254.07 269.58 C 258.16 268.20 261.55 265.19 265.15 262.83 Z" fill="#ce2621" opacity="1.00" stroke="#ce2621" stroke-width="0.09375"/>
<path d="M 331.65 275.65 C 331.79 271.36 332.10 267.07 332.67 262.82 C 337.35 263.52 342.09 263.30 346.80 263.50 C 347.64 267.49 347.66 271.63 346.71 275.60 C 341.69 275.69 336.67 275.63 331.65 275.65 Z" fill="#dc262a" opacity="1.00" stroke="#dc262a" stroke-width="0.09375"/>
<path d="M 422.61 276.75 C 424.34 273.10 426.15 269.50 428.00 265.91 C 434.05 268.49 440.15 271.19 445.40 275.23 C 445.37 278.07 445.41 280.92 445.51 283.77 C 443.78 285.84 441.86 287.77 439.63 289.30 C 437.29 290.02 434.55 291.08 432.25 289.67 C 428.22 287.28 424.40 284.56 420.40 282.13 C 421.10 280.32 421.81 278.52 422.61 276.75 Z" fill="#fbb59c" opacity="1.00" stroke="#fbb59c" stroke-width="0.09375"/>
<path d="M 19.03 267.77 C 22.42 267.37 25.93 266.90 29.28 267.72 C 32.90 268.98 34.88 272.83 35.39 276.43 C 37.33 290.88 39.35 305.32 41.15 319.79 C 42.78 329.50 44.07 339.26 44.89 349.07 C 45.15 351.94 45.40 354.80 45.64 357.67 C 46.24 363.04 46.07 368.51 47.31 373.81 C 47.53 377.12 47.87 380.90 45.82 383.76 C 43.93 386.09 40.65 386.03 37.96 386.56 C 36.96 386.68 35.97 386.82 34.98 386.96 C 30.76 387.90 25.46 386.70 23.52 382.46 C 21.68 377.90 21.90 372.84 21.20 368.04 C 19.11 351.06 17.98 333.98 15.68 317.02 C 14.32 304.96 12.14 293.01 10.69 280.96 C 10.47 278.66 10.10 276.32 10.57 274.03 C 11.98 270.58 15.54 268.56 19.03 267.77 Z" fill="#d12020" opacity="1.00" stroke="#d12020" stroke-width="0.09375"/>
<path d="M 52.54 276.41 C 53.75 273.13 55.00 269.79 57.27 267.08 C 58.43 271.67 60.40 275.99 61.81 280.50 C 60.93 283.14 60.53 285.98 61.60 288.64 C 64.15 296.05 67.03 303.36 70.16 310.55 C 69.71 310.53 68.81 310.48 68.36 310.46 C 68.53 312.66 68.97 314.97 68.01 317.07 C 65.92 322.26 64.56 327.69 62.84 333.01 C 61.61 336.90 59.79 340.67 59.48 344.81 C 59.16 348.80 59.52 352.80 59.60 356.80 C 62.25 357.15 64.87 357.67 67.47 358.31 C 61.31 358.25 55.13 358.53 48.98 358.17 C 48.28 358.04 46.86 357.79 46.16 357.67 C 45.95 350.75 46.32 343.82 46.94 336.93 C 48.34 316.72 50.40 296.56 52.54 276.41 Z" fill="#00afd7" opacity="1.00" stroke="#00afd7" stroke-width="0.09375"/>
<path d="M 382.30 267.43 C 384.85 268.90 387.34 270.50 389.70 272.27 C 389.50 288.18 389.86 304.10 389.83 320.01 C 389.98 345.72 389.49 371.42 389.78 397.12 C 389.93 399.74 391.69 401.91 393.71 403.42 C 395.87 405.73 399.14 405.07 401.96 405.11 C 412.63 404.77 423.32 405.29 434.00 404.91 C 435.62 404.90 437.09 404.13 438.56 403.54 C 439.28 403.52 440.71 403.49 441.43 403.47 C 438.42 410.60 430.46 413.39 423.38 414.43 C 393.50 419.93 363.71 411.31 334.07 408.35 C 333.58 399.91 333.78 391.45 333.39 383.01 C 333.19 376.08 332.58 369.15 332.71 362.21 C 332.97 359.90 333.25 357.60 333.50 355.30 C 338.72 354.82 344.48 357.17 349.32 354.60 C 357.55 353.98 365.83 354.57 374.07 354.26 C 377.68 354.07 379.43 350.23 379.23 347.02 C 379.11 341.82 380.34 335.71 376.23 331.65 C 375.16 331.48 374.09 331.34 373.03 331.22 C 376.09 331.40 378.83 329.85 381.59 328.78 C 382.99 319.35 382.14 309.79 381.89 300.32 C 382.71 289.38 382.06 278.39 382.30 267.43 Z" fill="#fac46d" opacity="1.00" stroke="#fac46d" stroke-width="0.09375"/>
<path d="M 185.92 274.69 C 188.96 272.08 193.08 272.52 196.78 272.30 C 196.66 273.06 196.43 274.58 196.31 275.33 C 192.92 275.60 188.92 276.80 185.92 274.69 Z" fill="#f2ad95" opacity="1.00" stroke="#f2ad95" stroke-width="0.09375"/>
<path d="M 445.40 275.23 C 456.00 275.88 466.62 275.59 477.23 275.67 C 477.97 278.16 479.09 281.19 477.74 283.59 C 473.22 284.54 468.57 284.01 464.00 284.15 C 457.84 283.97 451.63 284.68 445.51 283.77 C 445.41 280.92 445.37 278.07 445.40 275.23 Z" fill="#f6b961" opacity="1.00" stroke="#f6b961" stroke-width="0.09375"/>
<path d="M 61.60 288.64 C 60.53 285.98 60.93 283.14 61.81 280.50 C 63.68 286.55 66.83 292.08 68.97 298.03 C 72.06 306.22 75.49 314.82 82.27 320.71 C 85.57 323.83 90.27 324.29 94.47 325.39 C 94.44 326.00 94.38 327.22 94.35 327.83 C 90.19 327.16 85.63 327.32 81.99 324.89 C 76.75 321.39 72.89 316.17 70.16 310.55 C 67.03 303.36 64.15 296.05 61.60 288.64 Z" fill="#0294c8" opacity="1.00" stroke="#0294c8" stroke-width="0.09375"/>
<path d="M 194.88 285.67 C 197.86 284.75 201.10 284.15 204.01 285.71 C 201.84 288.04 198.73 287.97 195.81 287.78 C 195.49 287.08 195.19 286.37 194.88 285.67 Z" fill="#fbcfbb" opacity="1.00" stroke="#fbcfbb" stroke-width="0.09375"/>
<path d="M 174.24 291.76 C 180.72 288.46 187.87 287.25 194.88 285.67 C 195.19 286.37 195.49 287.08 195.81 287.78 C 198.73 287.97 201.84 288.04 204.01 285.71 C 204.33 287.04 205.09 288.56 204.22 289.87 C 201.82 291.43 198.96 291.96 196.24 292.67 C 196.26 293.21 196.29 294.29 196.30 294.83 C 199.01 294.68 201.72 294.47 204.42 294.17 C 204.44 295.49 204.47 296.82 204.51 298.14 C 201.75 299.32 197.29 298.52 195.92 301.64 C 199.02 301.80 202.14 301.62 205.22 301.19 C 204.98 303.96 203.34 306.89 200.27 307.11 C 192.55 307.85 184.73 307.57 177.02 308.62 C 176.10 303.00 174.75 297.44 174.24 291.76 Z" fill="#fab197" opacity="1.00" stroke="#fab197" stroke-width="0.09375"/>
<path d="M 104.18 286.07 C 107.87 291.56 113.38 295.46 117.07 300.94 C 112.73 301.58 108.47 302.56 104.21 303.57 C 104.18 297.73 104.15 291.90 104.18 286.07 Z" fill="#eebb53" opacity="1.00" stroke="#eebb53" stroke-width="0.09375"/>
<path d="M 330.69 288.60 C 336.01 288.33 341.34 288.43 346.67 288.57 C 346.71 292.83 347.00 297.12 346.45 301.37 C 340.99 301.40 335.53 301.52 330.07 301.48 C 330.26 297.18 330.55 292.89 330.69 288.60 Z" fill="#d42d2e" opacity="1.00" stroke="#d42d2e" stroke-width="0.09375"/>
<path d="M 212.29 288.85 C 226.84 288.93 241.40 288.52 255.94 289.12 C 260.70 289.14 265.63 287.84 270.26 289.45 C 270.41 293.40 271.03 297.31 271.44 301.24 C 253.62 301.42 235.80 301.19 217.97 301.38 C 216.02 301.43 214.09 301.08 212.19 300.69 C 212.13 296.74 212.16 292.79 212.29 288.85 Z" fill="#d12b26" opacity="1.00" stroke="#d12b26" stroke-width="0.09375"/>
<path d="M 469.72 295.78 C 472.27 295.81 474.81 295.96 477.35 296.23 C 474.97 296.21 472.59 296.27 470.22 296.28 C 470.15 306.00 469.91 315.77 471.67 325.36 L 471.61 325.80 C 471.26 324.79 470.91 323.79 470.56 322.80 C 468.05 322.44 465.52 322.23 462.99 322.28 C 448.99 322.44 435.00 321.48 421.00 321.94 C 416.13 322.19 411.24 322.28 406.36 322.18 C 405.13 321.29 403.32 320.58 403.27 318.82 C 403.07 316.65 405.55 315.84 407.06 314.95 C 426.10 315.52 445.19 314.82 464.23 315.25 C 466.07 315.62 467.94 315.81 469.82 316.01 C 470.51 309.28 469.73 302.52 469.72 295.78 Z" fill="#fefefe" opacity="1.00" stroke="#fefefe" stroke-width="0.09375"/>
<path d="M 477.35 296.23 L 478.18 296.27 C 477.96 310.38 478.20 324.48 478.19 338.59 C 475.28 333.75 477.14 327.89 476.41 322.57 C 475.92 322.53 474.93 322.46 474.43 322.42 C 473.50 323.39 472.56 324.35 471.67 325.36 C 469.91 315.77 470.15 306.00 470.22 296.28 C 472.59 296.27 474.97 296.21 477.35 296.23 Z" fill="#fdc76e" opacity="1.00" stroke="#fdc76e" stroke-width="0.09375"/>
<path d="M 403.49 304.43 C 404.10 302.68 406.11 301.56 407.94 301.64 C 425.38 301.55 442.83 301.58 460.26 301.73 C 463.41 302.80 462.80 306.13 462.38 308.72 C 443.91 308.84 425.43 308.56 406.96 308.77 C 405.65 307.55 402.87 306.66 403.49 304.43 Z" fill="#fefefd" opacity="1.00" stroke="#fefefd" stroke-width="0.09375"/>
<path d="M 406.96 308.77 C 425.43 308.56 443.91 308.84 462.38 308.72 C 462.21 310.43 462.03 312.15 461.92 313.87 C 462.68 314.33 463.45 314.79 464.23 315.25 C 445.19 314.82 426.10 315.52 407.06 314.95 C 407.97 314.48 408.90 314.01 409.83 313.55 C 409.07 311.84 408.24 310.14 406.96 308.77 Z" fill="#001248" opacity="1.00" stroke="#001248" stroke-width="0.09375"/>
<path d="M 68.36 310.46 C 68.81 310.48 69.71 310.53 70.16 310.55 C 72.89 316.17 76.75 321.39 81.99 324.89 C 85.63 327.32 90.19 327.16 94.35 327.83 C 94.22 338.02 94.59 348.22 94.38 358.41 C 85.41 358.57 76.44 358.59 67.47 358.31 C 64.87 357.67 62.25 357.15 59.60 356.80 C 59.52 352.80 59.16 348.80 59.48 344.81 C 59.79 340.67 61.61 336.90 62.84 333.01 C 64.56 327.69 65.92 322.26 68.01 317.07 C 68.97 314.97 68.53 312.66 68.36 310.46 Z" fill="#00bced" opacity="1.00" stroke="#00bced" stroke-width="0.09375"/>
<path d="M 270.38 331.26 C 270.75 325.73 271.11 320.17 271.89 314.67 C 291.15 315.17 310.43 314.04 329.67 315.26 C 330.71 320.57 330.22 326.01 330.63 331.37 C 330.72 338.92 331.72 346.41 332.28 353.93 C 332.14 354.30 331.88 355.03 331.74 355.40 C 325.61 353.87 319.19 354.67 313.13 356.13 C 310.29 356.88 307.34 356.67 304.45 356.42 C 303.90 358.06 303.36 359.72 302.89 361.39 C 302.42 357.38 301.86 353.38 301.18 349.40 C 298.12 363.26 296.78 377.44 294.02 391.36 C 292.20 401.72 290.58 412.12 288.49 422.43 C 285.77 437.81 284.29 453.39 281.79 468.81 C 275.49 468.69 269.15 468.76 262.91 467.75 C 263.56 452.13 264.25 436.49 264.94 420.87 C 265.97 407.58 266.22 394.24 266.90 380.93 C 267.62 372.11 267.02 363.18 268.42 354.42 C 269.64 346.77 270.42 339.01 270.38 331.26 Z" fill="#00011b" opacity="1.00" stroke="#00011b" stroke-width="0.09375"/>
<path d="M 109.53 323.53 C 117.05 321.90 124.68 320.80 132.19 319.11 C 133.24 322.94 132.25 328.27 135.93 330.79 C 136.07 332.20 136.15 333.62 136.17 335.05 C 135.61 339.85 135.45 344.71 135.91 349.52 C 136.13 352.04 138.42 354.36 141.01 354.29 C 150.24 354.61 159.49 354.18 168.74 354.16 C 170.05 376.40 168.03 398.79 170.42 420.99 C 166.64 408.50 164.08 395.71 161.55 382.93 C 160.42 376.10 155.60 369.89 148.76 368.10 C 136.27 364.50 123.35 362.68 110.55 360.51 C 110.68 348.17 109.81 335.86 109.53 323.53 Z" fill="#f8bf67" opacity="1.00" stroke="#f8bf67" stroke-width="0.09375"/>
<path d="M 406.36 322.18 C 411.24 322.28 416.13 322.19 421.00 321.94 C 435.00 321.48 448.99 322.44 462.99 322.28 C 465.52 322.23 468.05 322.44 470.56 322.80 C 469.74 325.74 468.63 328.60 467.23 331.32 C 448.68 330.90 430.11 330.68 411.55 330.92 C 409.45 330.84 407.35 330.82 405.25 330.85 C 405.62 327.96 405.88 325.05 406.36 322.18 Z" fill="#c7201e" opacity="1.00" stroke="#c7201e" stroke-width="0.09375"/>
<path d="M 474.43 322.42 C 474.93 322.46 475.92 322.53 476.41 322.57 C 477.14 327.89 475.28 333.75 478.19 338.59 C 478.26 339.96 478.31 341.34 478.33 342.73 C 453.76 342.35 429.19 342.81 404.61 342.50 C 406.72 342.27 408.83 342.05 410.94 341.84 C 411.77 339.01 412.38 336.12 412.71 333.19 C 415.13 332.93 417.56 332.68 419.99 332.51 C 417.13 332.26 414.31 331.68 411.55 330.92 C 430.11 330.68 448.68 330.90 467.23 331.32 C 468.63 328.60 469.74 325.74 470.56 322.80 C 470.91 323.79 471.26 324.79 471.61 325.80 L 471.67 325.36 C 472.56 324.35 473.50 323.39 474.43 322.42 Z" fill="#f1b25d" opacity="1.00" stroke="#f1b25d" stroke-width="0.09375"/>
<path d="M 94.47 325.39 C 99.57 326.01 104.54 324.31 109.53 323.53 C 109.81 335.86 110.68 348.17 110.55 360.51 C 105.19 359.55 99.66 359.79 94.38 358.41 C 94.59 348.22 94.22 338.02 94.35 327.83 C 94.38 327.22 94.44 326.00 94.47 325.39 Z" fill="#fefefe" opacity="1.00" stroke="#fefefe" stroke-width="0.09375"/>
<path d="M 135.93 330.79 C 141.23 330.05 146.65 329.99 151.96 330.69 C 148.20 334.36 142.60 331.35 138.25 333.15 C 137.30 334.93 136.85 336.91 136.29 338.84 C 136.24 337.57 136.20 336.31 136.17 335.05 C 136.15 333.62 136.07 332.20 135.93 330.79 Z" fill="#040419" opacity="1.00" stroke="#040419" stroke-width="0.09375"/>
<path d="M 330.63 331.37 C 333.53 331.21 336.44 330.99 339.34 330.77 C 340.08 338.36 339.84 346.04 339.91 353.66 C 337.36 353.70 334.81 353.72 332.28 353.93 C 331.72 346.41 330.72 338.92 330.63 331.37 Z" fill="#112352" opacity="1.00" stroke="#112352" stroke-width="0.09375"/>
<path d="M 492.34 340.36 C 492.91 336.93 493.34 333.49 493.54 330.03 C 493.90 335.06 493.93 340.11 494.34 345.15 C 494.93 341.85 495.67 338.57 497.11 335.53 C 499.65 336.32 502.34 336.96 504.94 335.98 C 507.46 335.15 510.02 336.28 512.00 337.84 L 512.00 362.52 C 511.44 360.06 510.86 357.61 510.37 355.14 C 507.57 356.26 505.05 357.92 502.58 359.62 C 499.69 359.83 496.63 359.46 494.24 361.50 C 493.55 358.25 492.74 355.03 492.19 351.75 C 492.18 347.95 492.23 344.15 492.34 340.36 Z" fill="#fbce81" opacity="1.00" stroke="#fbce81" stroke-width="0.09375"/>
<path d="M 151.96 330.69 C 174.94 332.08 198.00 330.26 221.01 331.11 C 237.46 331.12 253.92 331.21 270.38 331.26 C 270.42 339.01 269.64 346.77 268.42 354.42 C 240.12 354.46 211.82 354.26 183.52 354.22 C 184.55 381.47 184.16 408.76 183.90 436.03 C 183.54 446.67 184.59 457.35 183.65 467.96 C 183.42 465.93 183.18 463.92 182.93 461.91 C 182.37 462.81 181.80 463.71 181.23 464.61 C 176.58 454.75 173.12 444.02 173.36 433.01 C 173.56 428.77 171.50 424.97 170.42 420.99 C 168.03 398.79 170.05 376.40 168.74 354.16 C 159.49 354.18 150.24 354.61 141.01 354.29 C 138.42 354.36 136.13 352.04 135.91 349.52 C 135.45 344.71 135.61 339.85 136.17 335.05 C 136.20 336.31 136.24 337.57 136.29 338.84 C 136.85 336.91 137.30 334.93 138.25 333.15 C 142.60 331.35 148.20 334.36 151.96 330.69 Z" fill="#071742" opacity="1.00" stroke="#071742" stroke-width="0.09375"/>
<path d="M 349.40 331.42 C 357.27 331.14 365.16 331.23 373.03 331.22 C 374.09 331.34 375.16 331.48 376.23 331.65 C 380.34 335.71 379.11 341.82 379.23 347.02 C 379.43 350.23 377.68 354.07 374.07 354.26 C 365.83 354.57 357.55 353.98 349.32 354.60 C 349.44 346.88 348.86 339.13 349.40 331.42 Z" fill="#071541" opacity="1.00" stroke="#071541" stroke-width="0.09375"/>
<path d="M 404.65 331.84 C 404.80 331.60 405.10 331.10 405.25 330.85 C 407.35 330.82 409.45 330.84 411.55 330.92 C 414.31 331.68 417.13 332.26 419.99 332.51 C 417.56 332.68 415.13 332.93 412.71 333.19 C 412.38 336.12 411.77 339.01 410.94 341.84 C 408.83 342.05 406.72 342.27 404.61 342.50 C 404.41 338.95 404.14 335.38 404.65 331.84 Z" fill="#f8bf67" opacity="1.00" stroke="#f8bf67" stroke-width="0.09375"/>
<path d="M 44.89 349.07 C 44.94 344.93 46.02 340.93 46.94 336.93 C 46.32 343.82 45.95 350.75 46.16 357.67 C 46.86 357.79 48.28 358.04 48.98 358.17 C 48.15 358.04 46.47 357.79 45.64 357.67 C 45.40 354.80 45.15 351.94 44.89 349.07 Z" fill="#f7d3ce" opacity="1.00" stroke="#f7d3ce" stroke-width="0.09375"/>
<path d="M 294.02 391.36 C 296.78 377.44 298.12 363.26 301.18 349.40 C 301.86 353.38 302.42 357.38 302.89 361.39 C 303.93 371.38 305.40 381.32 306.73 391.28 C 306.00 390.03 305.25 388.82 304.51 387.60 C 303.94 388.48 303.42 389.38 302.80 390.22 C 301.10 390.03 299.46 389.17 297.75 389.39 C 296.49 390.02 295.32 390.81 294.02 391.36 Z" fill="#fece85" opacity="1.00" stroke="#fece85" stroke-width="0.09375"/>
<path d="M 183.52 354.22 C 211.82 354.26 240.12 354.46 268.42 354.42 C 267.02 363.18 267.62 372.11 266.90 380.93 C 266.22 394.24 265.97 407.58 264.94 420.87 C 264.54 423.89 264.10 426.91 263.77 429.95 C 243.63 432.86 223.50 437.11 203.05 436.79 C 196.66 437.14 190.22 437.19 183.90 436.03 C 184.16 408.76 184.55 381.47 183.52 354.22 Z" fill="#f8c169" opacity="1.00" stroke="#f8c169" stroke-width="0.09375"/>
<path d="M 313.13 356.13 C 319.19 354.67 325.61 353.87 331.74 355.40 C 331.88 355.03 332.14 354.30 332.28 353.93 C 334.81 353.72 337.36 353.70 339.91 353.66 L 339.61 354.70 C 337.24 354.58 334.87 354.36 332.51 354.19 C 332.58 356.86 332.67 359.53 332.71 362.21 C 332.58 369.15 333.19 376.08 333.39 383.01 C 333.78 391.45 333.58 399.91 334.07 408.35 C 334.61 428.48 336.14 448.61 336.16 468.73 C 330.07 468.88 323.97 468.77 317.88 468.82 C 314.60 450.69 313.17 432.28 310.25 414.09 C 309.11 406.48 307.96 398.87 306.73 391.28 C 305.40 381.32 303.93 371.38 302.89 361.39 C 303.36 359.72 303.90 358.06 304.45 356.42 C 307.34 356.67 310.29 356.88 313.13 356.13 Z" fill="#000631" opacity="1.00" stroke="#000631" stroke-width="0.09375"/>
<path d="M 404.07 358.86 C 403.90 356.25 406.15 353.15 409.00 353.68 C 423.48 355.25 438.07 352.95 452.55 354.37 C 453.28 356.57 453.74 359.09 452.46 361.19 C 437.60 360.67 422.75 361.73 407.89 361.16 C 406.46 360.80 404.77 360.28 404.07 358.86 Z" fill="#fefffe" opacity="1.00" stroke="#fefffe" stroke-width="0.09375"/>
<path d="M 45.64 357.67 C 46.47 357.79 48.15 358.04 48.98 358.17 C 55.13 358.53 61.31 358.25 67.47 358.31 C 76.44 358.59 85.41 358.57 94.38 358.41 C 99.66 359.79 105.19 359.55 110.55 360.51 C 123.35 362.68 136.27 364.50 148.76 368.10 C 155.60 369.89 160.42 376.10 161.55 382.93 C 164.08 395.71 166.64 408.50 170.42 420.99 C 171.50 424.97 173.56 428.77 173.36 433.01 C 173.12 444.02 176.58 454.75 181.23 464.61 C 181.80 463.71 182.37 462.81 182.93 461.91 C 183.18 463.92 183.42 465.93 183.65 467.96 C 182.16 467.74 180.69 467.47 179.23 467.15 L 178.44 466.69 C 173.33 468.48 167.93 469.01 162.56 469.32 C 161.94 467.41 160.12 466.92 158.37 467.51 C 152.72 469.11 146.97 470.34 141.12 470.88 C 134.11 449.22 129.80 426.77 123.36 404.93 C 122.15 399.77 118.60 394.68 113.15 393.53 C 106.18 392.26 99.04 393.05 92.00 392.79 C 84.86 392.53 77.69 393.07 70.57 392.34 C 67.27 390.36 63.26 390.22 59.85 388.46 C 53.70 385.81 48.83 380.38 47.31 373.81 C 46.07 368.51 46.24 363.04 45.64 357.67 Z" fill="#00042e" opacity="1.00" stroke="#00042e" stroke-width="0.09375"/>
<path d="M 404.36 369.11 C 407.02 366.05 411.45 367.40 414.98 367.29 C 429.32 367.29 443.68 366.91 458.02 367.24 C 462.28 367.54 461.02 375.34 457.02 374.64 C 442.68 374.42 428.34 374.65 414.00 374.50 C 410.82 374.95 407.68 374.60 404.74 373.29 C 404.35 371.98 403.03 370.31 404.36 369.11 Z" fill="#fefefe" opacity="1.00" stroke="#fefefe" stroke-width="0.09375"/>
<path d="M 47.31 373.81 C 48.83 380.38 53.70 385.81 59.85 388.46 C 63.26 390.22 67.27 390.36 70.57 392.34 C 61.43 392.95 52.08 391.45 43.08 393.25 C 42.54 393.40 41.45 393.71 40.91 393.87 C 39.86 391.46 38.86 389.03 37.96 386.56 C 40.65 386.03 43.93 386.09 45.82 383.76 C 47.87 380.90 47.53 377.12 47.31 373.81 Z" fill="#fec66c" opacity="1.00" stroke="#fec66c" stroke-width="0.09375"/>
<path d="M 404.30 382.16 C 406.16 380.52 408.71 380.76 411.02 380.74 C 415.54 380.83 420.06 380.59 424.58 380.86 C 418.03 382.97 411.06 382.41 404.30 382.16 Z" fill="#dfb981" opacity="1.00" stroke="#dfb981" stroke-width="0.09375"/>
<path d="M 424.58 380.86 C 435.65 380.54 446.83 380.49 457.89 381.10 C 460.62 381.62 463.41 382.03 466.04 382.97 C 468.26 383.90 468.60 386.66 467.79 388.68 C 471.04 388.54 474.31 388.80 477.45 389.73 C 453.11 389.76 428.76 389.97 404.42 389.56 C 403.61 387.16 403.52 384.63 403.87 382.14 L 404.30 382.16 C 411.06 382.41 418.03 382.97 424.58 380.86 Z" fill="#e1a860" opacity="1.00" stroke="#e1a860" stroke-width="0.09375"/>
<path d="M 457.89 381.10 C 464.72 381.40 471.61 380.78 478.41 381.44 C 478.99 384.26 478.82 387.16 478.74 390.02 C 478.42 389.95 477.77 389.80 477.45 389.73 C 474.31 388.80 471.04 388.54 467.79 388.68 C 468.60 386.66 468.26 383.90 466.04 382.97 C 463.41 382.03 460.62 381.62 457.89 381.10 Z" fill="#f2af5c" opacity="1.00" stroke="#f2af5c" stroke-width="0.09375"/>
<path d="M 34.98 386.96 C 35.97 386.82 36.96 386.68 37.96 386.56 C 38.86 389.03 39.86 391.46 40.91 393.87 C 41.45 393.71 42.54 393.40 43.08 393.25 C 41.64 393.83 40.17 394.34 38.62 394.52 C 37.65 391.89 36.38 389.38 34.98 386.96 Z" fill="#040419" opacity="1.00" stroke="#040419" stroke-width="0.09375"/>
<path d="M 302.80 390.22 C 303.42 389.38 303.94 388.48 304.51 387.60 C 305.25 388.82 306.00 390.03 306.73 391.28 C 307.96 398.87 309.11 406.48 310.25 414.09 C 304.13 419.12 296.14 421.16 288.49 422.43 C 290.58 412.12 292.20 401.72 294.02 391.36 C 295.32 390.81 296.49 390.02 297.75 389.39 C 299.46 389.17 301.10 390.03 302.80 390.22 Z" fill="#fbc374" opacity="1.00" stroke="#fbc374" stroke-width="0.09375"/>
<path d="M 43.08 393.25 C 52.08 391.45 61.43 392.95 70.57 392.34 C 77.69 393.07 84.86 392.53 92.00 392.79 C 99.04 393.05 106.18 392.26 113.15 393.53 C 118.60 394.68 122.15 399.77 123.36 404.93 C 121.96 408.84 120.70 413.75 116.21 415.13 C 109.73 417.02 102.85 416.07 96.19 416.16 C 88.17 415.46 80.11 416.02 72.08 415.81 C 68.71 415.69 65.34 415.92 62.02 416.45 C 56.67 416.96 51.30 416.52 45.94 416.42 C 35.24 416.97 30.34 400.52 38.62 394.52 C 40.17 394.34 41.64 393.83 43.08 393.25 Z" fill="#d1221f" opacity="1.00" stroke="#d1221f" stroke-width="0.09375"/>
<path d="M 393.71 403.42 C 408.65 403.91 423.61 403.31 438.56 403.54 C 437.09 404.13 435.62 404.90 434.00 404.91 C 423.32 405.29 412.63 404.77 401.96 405.11 C 399.14 405.07 395.87 405.73 393.71 403.42 Z" fill="#fbd581" opacity="1.00" stroke="#fbd581" stroke-width="0.09375"/>
<path d="M 62.02 416.45 C 65.34 415.92 68.71 415.69 72.08 415.81 C 80.11 416.02 88.17 415.46 96.19 416.16 C 94.10 421.70 89.67 426.51 83.65 427.62 C 81.41 427.86 79.23 428.46 77.03 428.91 C 76.78 428.71 76.29 428.31 76.05 428.10 C 75.65 428.13 74.86 428.17 74.46 428.20 C 68.53 426.72 65.16 421.20 62.02 416.45 Z" fill="#000019" opacity="1.00" stroke="#000019" stroke-width="0.09375"/>
<path d="M 77.03 428.91 C 79.23 428.46 81.41 427.86 83.65 427.62 C 84.06 442.56 83.37 457.54 84.29 472.46 C 93.85 472.60 103.43 472.53 112.99 472.70 C 118.33 473.19 121.36 480.05 118.33 484.39 C 116.13 487.20 112.24 487.15 109.01 487.16 C 87.97 486.91 66.92 487.56 45.89 487.05 C 40.98 487.02 38.53 481.21 40.23 477.08 C 40.98 474.14 44.15 472.74 46.94 472.74 C 56.35 472.70 65.76 472.81 75.16 472.64 C 75.14 462.76 75.30 452.88 74.80 443.01 C 74.44 438.08 75.45 433.07 74.46 428.20 C 74.86 428.17 75.65 428.13 76.05 428.10 C 76.29 428.31 76.78 428.71 77.03 428.91 Z" fill="#000834" opacity="1.00" stroke="#000834" stroke-width="0.09375"/>
<path d="M 158.37 467.51 C 160.12 466.92 161.94 467.41 162.56 469.32 C 162.88 470.75 163.19 472.19 163.48 473.64 C 162.34 474.06 161.21 474.50 160.08 474.95 C 159.88 474.52 159.48 473.66 159.28 473.23 C 158.81 471.35 158.59 469.42 158.37 467.51 Z" fill="#fdcc64" opacity="1.00" stroke="#fdcc64" stroke-width="0.09375"/>
<path d="M 162.56 469.32 C 167.93 469.01 173.33 468.48 178.44 466.69 L 179.23 467.15 C 180.11 468.79 180.69 470.57 181.11 472.39 C 175.19 472.21 169.40 473.88 163.48 473.64 C 163.19 472.19 162.88 470.75 162.56 469.32 Z" fill="#bb171e" opacity="1.00" stroke="#bb171e" stroke-width="0.09375"/>
<path d="M 141.12 470.88 C 146.97 470.34 152.72 469.11 158.37 467.51 C 158.59 469.42 158.81 471.35 159.28 473.23 C 153.27 472.88 147.30 473.67 141.36 474.47 C 141.30 473.57 141.18 471.78 141.12 470.88 Z" fill="#a20d09" opacity="1.00" stroke="#a20d09" stroke-width="0.09375"/>
<path d="M 262.91 467.75 C 269.15 468.76 275.49 468.69 281.79 468.81 C 281.21 471.04 280.50 473.24 279.95 475.50 C 274.44 474.57 268.85 474.65 263.29 474.79 C 263.35 472.43 263.20 470.08 262.91 467.75 Z" fill="#bf8184" opacity="1.00" stroke="#bf8184" stroke-width="0.09375"/>
<path d="M 317.88 468.82 C 323.97 468.77 330.07 468.88 336.16 468.73 C 335.98 470.65 335.57 472.67 336.34 474.52 C 329.55 475.43 322.72 474.27 315.92 474.69 C 316.82 474.34 317.73 474.01 318.64 473.69 C 318.43 472.06 318.19 470.43 317.88 468.82 Z" fill="#feb6a1" opacity="1.00" stroke="#feb6a1" stroke-width="0.09375"/>
<path d="M 163.48 473.64 C 169.40 473.88 175.19 472.21 181.11 472.39 C 181.18 472.96 181.32 474.11 181.39 474.68 C 186.59 474.76 191.85 474.70 196.95 475.83 C 201.81 477.47 206.44 481.90 205.83 487.44 C 192.46 487.35 179.08 487.96 165.72 487.43 C 165.11 482.81 164.44 478.20 163.48 473.64 Z" fill="#00001d" opacity="1.00" stroke="#00001d" stroke-width="0.09375"/>
<path d="M 141.36 474.47 C 147.30 473.67 153.27 472.88 159.28 473.23 C 159.48 473.66 159.88 474.52 160.08 474.95 C 162.13 478.72 163.57 483.35 161.52 487.45 C 155.73 487.65 149.95 487.44 144.17 487.59 C 142.62 483.37 141.43 478.99 141.36 474.47 Z" fill="#00001e" opacity="1.00" stroke="#00001e" stroke-width="0.09375"/>
<path d="M 252.95 476.01 C 256.05 474.02 259.84 474.93 263.29 474.79 C 268.85 474.65 274.44 474.57 279.95 475.50 C 279.77 479.49 279.82 483.50 279.46 487.49 C 271.62 487.79 263.78 487.64 255.94 487.68 C 254.22 487.52 251.96 487.87 251.00 486.05 C 248.98 482.90 249.51 477.97 252.95 476.01 Z" fill="#000129" opacity="1.00" stroke="#000129" stroke-width="0.09375"/>
<path d="M 314.37 487.48 C 308.82 485.09 310.00 475.98 315.92 474.69 C 322.72 474.27 329.55 475.43 336.34 474.52 C 337.91 478.66 337.26 483.16 337.39 487.49 C 329.73 487.79 322.02 487.89 314.37 487.48 Z" fill="#00002b" opacity="1.00" stroke="#00002b" stroke-width="0.09375"/>
</svg>