<?xml version="1.0" encoding="utf-8"?>
<svg xmlns="http://www.w3.org/2000/svg" height="512pt" version="1.1" viewBox="0 0 512 512" width="512pt">
<path d="M 0.00 0.00 L 512.00 0.00 L 512.00 512.00 L 0.00 512.00 L 0.00 0.00 Z" fill="transparent" opacity="1.00" stroke="transparent" stroke-width="0.25"/>
<path d="M 93.38 67.83 C 91.34 66.11 90.70 62.61 93.00 60.83 C 95.66 60.56 98.34 60.75 101.01 60.72 C 206.75 60.74 312.48 60.74 418.22 60.72 C 419.23 62.44 419.35 64.40 419.39 66.34 C 418.20 66.80 416.99 67.03 415.74 67.05 C 415.95 66.56 416.36 65.59 416.57 65.11 C 416.76 64.64 417.13 63.69 417.31 63.22 C 309.48 63.16 201.66 63.24 93.83 63.20 C 93.82 63.69 93.81 64.66 93.80 65.15 C 93.76 65.53 93.69 66.28 93.66 66.65 L 93.38 67.83 Z" fill="#292936" opacity="1.00" stroke="#292936" stroke-width="0.25"/>
<path d="M 93.83 63.20 C 201.66 63.24 309.48 63.16 417.31 63.22 C 417.13 63.69 416.76 64.64 416.57 65.11 C 308.98 65.23 201.39 65.14 93.80 65.15 C 93.81 64.66 93.82 63.69 93.83 63.20 Z" fill="#fefeff" opacity="1.00" stroke="#fefeff" stroke-width="0.25"/>
<path d="M 93.80 65.15 C 201.39 65.14 308.98 65.23 416.57 65.11 C 416.36 65.59 415.95 66.56 415.74 67.05 L 415.15 67.54 L 414.45 68.12 C 414.18 71.24 413.97 74.37 413.18 77.41 C 385.48 77.02 357.77 77.36 330.07 77.25 C 252.54 77.28 175.01 77.21 97.48 77.27 C 97.48 76.63 97.47 75.37 97.47 74.73 C 107.08 75.82 116.73 74.48 126.37 74.83 C 132.56 75.09 138.77 75.25 144.97 75.14 C 230.66 75.14 316.34 75.14 402.02 75.13 C 405.60 75.10 409.18 74.89 412.77 74.75 C 412.77 72.24 412.78 69.73 412.78 67.23 C 355.20 67.35 297.61 67.23 240.02 67.29 C 203.82 67.13 167.62 67.54 131.43 67.06 C 131.56 69.19 131.60 71.32 131.57 73.46 C 129.74 73.76 127.92 74.07 126.09 74.36 C 125.52 73.28 124.96 72.20 124.41 71.12 C 124.57 69.72 124.73 68.32 124.88 66.92 C 123.31 66.92 121.73 66.91 120.16 66.91 C 120.65 68.38 121.14 69.84 121.64 71.30 C 120.75 72.25 119.90 73.25 118.89 74.08 C 117.39 74.38 115.90 73.82 114.41 73.65 C 113.87 71.31 113.89 68.93 114.54 66.62 C 112.86 66.80 111.19 66.98 109.51 67.15 C 104.97 65.55 100.02 66.22 95.32 66.49 L 93.66 66.65 C 93.69 66.28 93.76 65.53 93.80 65.15 Z" fill="#101f34" opacity="1.00" stroke="#101f34" stroke-width="0.25"/>
<path d="M 95.32 66.49 C 100.02 66.22 104.97 65.55 109.51 67.15 C 110.16 68.87 111.33 71.15 110.04 72.88 C 108.73 74.47 105.92 75.38 104.43 73.54 C 102.65 71.74 103.73 68.99 103.73 66.78 C 101.64 66.98 99.56 67.18 97.48 67.36 C 97.48 69.82 97.47 72.28 97.47 74.73 C 97.47 75.37 97.48 76.63 97.48 77.27 C 97.57 138.64 97.50 200.02 97.48 261.40 C 99.56 261.40 101.64 261.40 103.72 261.40 C 103.28 260.19 102.84 258.99 102.39 257.80 C 100.14 256.31 97.86 253.93 98.71 250.97 C 99.26 247.86 102.85 247.59 104.84 245.80 C 110.01 240.28 114.66 234.28 120.05 228.97 C 119.67 226.72 118.85 224.18 120.26 222.11 C 121.84 219.04 126.04 218.54 128.76 220.35 C 137.63 225.46 146.63 230.39 155.38 235.71 C 163.42 241.47 164.10 253.42 159.14 261.43 C 166.90 261.36 174.67 261.33 182.43 261.46 C 182.30 232.30 182.39 203.15 182.38 173.99 C 182.25 171.83 182.99 169.80 183.82 167.86 C 183.75 169.58 183.67 171.31 183.66 173.04 C 183.79 173.16 184.05 173.39 184.18 173.50 C 186.94 173.70 189.70 173.73 192.46 173.89 C 193.47 173.95 194.49 173.97 195.50 173.96 C 201.46 173.51 207.45 173.45 213.41 173.79 C 215.23 174.36 217.09 174.97 219.03 174.97 C 242.68 174.81 266.33 175.33 289.97 174.67 C 299.89 174.46 309.81 175.22 319.71 174.71 L 319.83 173.74 C 320.11 171.31 318.66 169.44 316.94 167.93 C 317.33 167.76 318.11 167.43 318.50 167.26 C 318.91 167.41 319.72 167.71 320.13 167.86 C 320.90 169.82 321.60 171.84 321.50 173.98 C 321.49 203.13 321.48 232.27 321.47 261.41 L 321.50 261.95 C 335.97 261.35 350.46 261.84 364.94 261.68 C 368.54 261.73 372.46 261.36 375.62 263.46 C 357.57 263.63 339.51 263.32 321.46 263.63 C 321.35 268.43 321.91 273.30 321.10 278.05 C 320.19 281.03 317.07 282.81 314.04 282.39 C 298.61 282.36 283.18 282.38 267.76 282.36 L 267.68 280.35 C 280.79 280.34 293.90 280.36 307.01 280.36 C 310.84 280.34 314.75 280.72 318.47 279.62 C 320.44 274.23 319.31 268.42 319.55 262.83 C 274.48 262.90 229.41 262.85 184.34 262.84 C 183.72 268.25 185.79 274.30 183.01 279.23 C 181.95 274.08 182.51 268.81 182.41 263.61 C 174.60 263.45 166.78 263.48 158.97 263.55 C 156.74 263.52 155.07 265.22 153.15 266.09 C 149.79 268.02 145.73 267.92 142.00 267.53 C 138.59 267.21 136.18 264.26 132.94 263.56 C 125.70 263.38 118.45 263.56 111.20 263.47 C 114.80 272.79 118.46 282.09 122.04 291.43 C 121.71 291.88 121.04 292.80 120.70 293.25 C 116.01 280.72 111.02 268.29 106.10 255.84 C 105.14 256.76 103.87 257.78 104.75 259.23 C 109.28 270.68 113.74 282.17 118.20 293.66 L 116.97 293.55 L 116.13 293.28 C 112.21 283.33 108.45 273.33 104.39 263.43 C 101.41 263.50 98.42 263.52 95.44 263.60 C 95.30 197.90 95.61 132.19 95.32 66.49 Z" fill="#14121c" opacity="1.00" stroke="#14121c" stroke-width="0.25"/>
<path d="M 97.48 67.36 C 99.56 67.18 101.64 66.98 103.73 66.78 C 103.73 68.99 102.65 71.74 104.43 73.54 C 105.92 75.38 108.73 74.47 110.04 72.88 C 111.33 71.15 110.16 68.87 109.51 67.15 C 111.19 66.98 112.86 66.80 114.54 66.62 C 113.89 68.93 113.87 71.31 114.41 73.65 C 115.90 73.82 117.39 74.38 118.89 74.08 C 119.90 73.25 120.75 72.25 121.64 71.30 C 121.14 69.84 120.65 68.38 120.16 66.91 C 121.73 66.91 123.31 66.92 124.88 66.92 C 124.73 68.32 124.57 69.72 124.41 71.12 C 124.96 72.20 125.52 73.28 126.09 74.36 L 126.37 74.83 C 116.73 74.48 107.08 75.82 97.47 74.73 C 97.47 72.28 97.48 69.82 97.48 67.36 Z" fill="#729ec5" opacity="1.00" stroke="#729ec5" stroke-width="0.25"/>
<path d="M 131.43 67.06 C 167.62 67.54 203.82 67.13 240.02 67.29 C 297.61 67.23 355.20 67.35 412.78 67.23 C 412.78 69.73 412.77 72.24 412.77 74.75 C 409.18 74.89 405.60 75.10 402.02 75.13 C 316.34 75.14 230.66 75.14 144.97 75.14 C 138.77 75.25 132.56 75.09 126.37 74.83 L 126.09 74.36 C 127.92 74.07 129.74 73.76 131.57 73.46 C 131.60 71.32 131.56 69.19 131.43 67.06 Z" fill="#69a0cb" opacity="1.00" stroke="#69a0cb" stroke-width="0.25"/>
<path d="M 414.45 68.12 L 415.15 67.54 C 415.09 128.69 415.08 189.84 415.11 251.00 C 415.07 255.20 415.36 259.42 414.91 263.62 C 412.61 263.59 410.31 263.61 408.01 263.73 C 406.54 266.81 405.19 270.16 402.61 272.50 C 402.14 272.67 401.20 273.03 400.72 273.20 C 402.72 268.68 405.66 264.67 407.63 260.14 C 401.90 262.23 400.24 268.60 398.34 273.73 C 398.04 273.78 397.46 273.89 397.17 273.94 C 397.81 271.77 398.15 269.52 398.42 267.28 C 396.26 269.06 395.02 271.54 394.43 274.23 C 390.76 274.56 387.10 274.14 383.48 273.62 C 381.97 269.54 379.78 265.35 375.62 263.46 C 372.46 261.36 368.54 261.73 364.94 261.68 C 350.46 261.84 335.97 261.35 321.50 261.95 L 321.47 261.41 C 338.62 261.26 355.78 261.30 372.94 261.40 C 372.23 260.27 371.54 259.14 370.87 258.00 C 373.17 258.30 375.42 258.85 377.63 259.54 C 377.20 258.39 376.35 256.09 375.92 254.94 C 379.63 256.49 382.48 259.37 385.43 262.00 C 385.53 257.00 385.18 252.01 385.48 247.02 C 389.91 250.85 391.45 256.71 393.09 262.09 C 394.34 258.96 395.56 255.82 396.78 252.67 C 397.21 252.56 398.08 252.35 398.52 252.24 C 398.91 254.14 399.29 256.05 399.64 257.97 C 401.65 254.89 403.42 250.77 407.47 250.07 C 406.65 253.06 405.72 256.01 404.94 259.01 C 406.93 258.10 408.92 257.19 410.97 256.39 C 410.67 258.10 410.08 259.72 409.40 261.31 C 410.47 261.34 411.54 261.37 412.62 261.40 C 412.90 204.26 412.66 147.11 412.75 89.97 C 412.85 85.79 412.38 81.55 413.18 77.41 C 413.97 74.37 414.18 71.24 414.45 68.12 Z" fill="#1a2a2f" opacity="1.00" stroke="#1a2a2f" stroke-width="0.25"/>
<path d="M 105.45 68.33 C 106.52 68.37 107.58 68.41 108.65 68.45 C 108.49 69.88 109.47 72.84 106.99 72.54 C 104.05 73.21 104.63 69.97 105.45 68.33 Z" fill="#db615e" opacity="1.00" stroke="#db615e" stroke-width="0.25"/>
<path d="M 115.80 68.97 C 116.82 68.53 117.90 68.23 119.03 68.09 C 119.22 69.47 119.40 70.85 119.58 72.24 C 118.57 72.28 116.56 72.36 115.55 72.39 C 115.61 71.54 115.74 69.83 115.80 68.97 Z" fill="#539281" opacity="1.00" stroke="#539281" stroke-width="0.25"/>
<path d="M 126.45 68.62 C 127.55 68.56 128.65 68.50 129.75 68.44 C 129.81 69.61 129.82 70.78 129.81 71.95 C 128.80 72.43 127.66 72.37 126.58 72.51 C 126.52 71.21 126.48 69.92 126.45 68.62 Z" fill="#f8ffff" opacity="1.00" stroke="#f8ffff" stroke-width="0.25"/>
<path d="M 97.48 77.27 C 175.01 77.21 252.54 77.28 330.07 77.25 C 357.77 77.36 385.48 77.02 413.18 77.41 C 412.38 81.55 412.85 85.79 412.75 89.97 C 412.66 147.11 412.90 204.26 412.62 261.40 C 411.54 261.37 410.47 261.34 409.40 261.31 C 410.08 259.72 410.67 258.10 410.97 256.39 C 408.92 257.19 406.93 258.10 404.94 259.01 C 405.72 256.01 406.65 253.06 407.47 250.07 C 403.42 250.77 401.65 254.89 399.64 257.97 C 399.29 256.05 398.91 254.14 398.52 252.24 C 398.08 252.35 397.21 252.56 396.78 252.67 C 395.56 255.82 394.34 258.96 393.09 262.09 C 391.45 256.71 389.91 250.85 385.48 247.02 C 385.18 252.01 385.53 257.00 385.43 262.00 C 382.48 259.37 379.63 256.49 375.92 254.94 C 376.35 256.09 377.20 258.39 377.63 259.54 C 375.42 258.85 373.17 258.30 370.87 258.00 C 371.54 259.14 372.23 260.27 372.94 261.40 C 355.78 261.30 338.62 261.26 321.47 261.41 C 321.48 232.27 321.49 203.13 321.50 173.98 C 321.60 171.84 320.90 169.82 320.13 167.86 C 319.72 167.71 318.91 167.41 318.50 167.26 L 317.10 166.72 C 314.40 166.35 311.68 166.43 308.97 166.44 C 269.30 166.47 229.63 166.48 189.97 166.42 C 187.81 166.28 185.78 167.05 183.82 167.86 C 182.99 169.80 182.25 171.83 182.38 173.99 C 182.39 203.15 182.30 232.30 182.43 261.46 C 174.67 261.33 166.90 261.36 159.14 261.43 C 164.10 253.42 163.42 241.47 155.38 235.71 C 146.63 230.39 137.63 225.46 128.76 220.35 C 126.04 218.54 121.84 219.04 120.26 222.11 C 118.85 224.18 119.67 226.72 120.05 228.97 C 114.66 234.28 110.01 240.28 104.84 245.80 C 102.85 247.59 99.26 247.86 98.71 250.97 C 97.86 253.93 100.14 256.31 102.39 257.80 C 102.84 258.99 103.28 260.19 103.72 261.40 C 101.64 261.40 99.56 261.40 97.48 261.40 C 97.50 200.02 97.57 138.64 97.48 77.27 Z" fill="#ffffff" opacity="1.00" stroke="#ffffff" stroke-width="0.25"/>
<path d="M 30.16 156.17 C 35.21 151.47 42.08 148.80 48.99 148.98 C 58.86 149.31 67.97 155.58 72.60 164.18 C 78.57 174.28 78.94 187.35 73.80 197.87 C 69.70 206.43 61.59 213.46 52.01 214.82 C 43.40 216.36 34.54 212.48 28.66 206.23 C 15.40 192.93 16.26 168.71 30.16 156.17 Z" fill="#091730" opacity="1.00" stroke="#091730" stroke-width="0.25"/>
<path d="M 43.26 151.38 C 52.05 149.32 61.30 153.24 67.17 159.81 C 77.27 170.82 78.15 188.66 69.89 200.96 C 65.37 207.05 58.78 212.22 51.00 212.92 C 43.24 213.94 35.48 210.44 30.12 204.94 C 17.25 192.27 18.29 168.59 32.05 156.95 C 35.15 154.07 39.12 152.21 43.26 151.38 Z" fill="#789fc3" opacity="1.00" stroke="#789fc3" stroke-width="0.25"/>
<path d="M 43.45 154.65 C 49.42 153.50 55.94 154.44 60.85 158.19 C 75.17 168.31 76.48 191.80 63.60 203.59 C 55.14 212.48 39.23 211.76 31.68 202.05 C 20.46 190.21 21.91 168.96 34.78 158.89 C 37.38 156.98 40.29 155.41 43.45 154.65 Z" fill="#172538" opacity="1.00" stroke="#172538" stroke-width="0.25"/>
<path d="M 430.21 156.27 C 448.03 156.21 465.85 156.21 483.67 156.29 C 483.62 182.36 483.73 208.42 483.61 234.49 C 465.82 234.53 448.04 234.54 430.25 234.49 C 429.89 208.42 430.24 182.35 430.21 156.27 Z" fill="#0d162d" opacity="1.00" stroke="#0d162d" stroke-width="0.25"/>
<path d="M 43.03 156.95 C 49.70 155.12 57.23 157.02 62.17 161.88 C 72.77 171.74 73.22 190.01 63.70 200.74 C 60.04 204.42 55.44 207.78 50.03 207.83 C 37.01 209.09 26.35 196.28 26.22 183.95 C 25.37 172.75 31.62 160.09 43.03 156.95 Z" fill="#ffffff" opacity="1.00" stroke="#ffffff" stroke-width="0.25"/>
<path d="M 432.00 158.22 C 448.54 158.26 465.09 158.21 481.63 158.28 C 481.75 183.02 481.71 207.76 481.64 232.50 C 465.13 232.58 448.62 232.39 432.11 232.58 C 431.44 211.41 432.03 190.20 431.85 169.01 C 431.77 165.41 431.84 161.82 432.00 158.22 Z" fill="#67a2cd" opacity="1.00" stroke="#67a2cd" stroke-width="0.25"/>
<path d="M 183.82 167.86 C 185.78 167.05 187.81 166.28 189.97 166.42 C 229.63 166.48 269.30 166.47 308.97 166.44 C 311.68 166.43 314.40 166.35 317.10 166.72 L 318.50 167.26 C 318.11 167.43 317.33 167.76 316.94 167.93 C 306.32 168.94 295.57 167.99 284.90 168.40 C 261.31 168.55 237.72 168.44 214.12 168.43 C 207.85 168.38 201.57 168.46 195.29 168.26 C 195.37 170.16 195.44 172.06 195.50 173.96 C 194.49 173.97 193.47 173.95 192.46 173.89 L 192.15 173.14 C 192.86 173.15 194.28 173.17 194.98 173.17 C 194.92 172.42 194.79 170.90 194.72 170.14 C 194.14 169.79 192.96 169.10 192.37 168.76 C 190.59 168.44 188.73 168.17 186.94 168.62 C 184.88 169.37 184.66 171.68 184.18 173.50 C 184.05 173.39 183.79 173.16 183.66 173.04 C 183.67 171.31 183.75 169.58 183.82 167.86 Z" fill="#21111b" opacity="1.00" stroke="#21111b" stroke-width="0.25"/>
<path d="M 195.29 168.26 C 201.57 168.46 207.85 168.38 214.12 168.43 C 214.25 169.89 214.37 171.34 214.50 172.80 C 223.63 173.63 232.81 172.91 241.97 173.20 C 256.17 173.00 270.41 173.62 284.60 172.91 C 284.69 171.40 284.79 169.90 284.90 168.40 C 295.57 167.99 306.32 168.94 316.94 167.93 C 318.66 169.44 320.11 171.31 319.83 173.74 C 284.37 174.02 248.89 173.50 213.41 173.79 C 207.45 173.45 201.46 173.51 195.50 173.96 C 195.44 172.06 195.37 170.16 195.29 168.26 Z" fill="#ca5e63" opacity="1.00" stroke="#ca5e63" stroke-width="0.25"/>
<path d="M 214.12 168.43 C 237.72 168.44 261.31 168.55 284.90 168.40 C 284.79 169.90 284.69 171.40 284.60 172.91 C 270.41 173.62 256.17 173.00 241.97 173.20 C 232.81 172.91 223.63 173.63 214.50 172.80 C 214.37 171.34 214.25 169.89 214.12 168.43 Z" fill="#f24c41" opacity="1.00" stroke="#f24c41" stroke-width="0.25"/>
<path d="M 184.18 173.50 C 184.66 171.68 184.88 169.37 186.94 168.62 C 188.73 168.17 190.59 168.44 192.37 168.76 L 191.75 170.93 C 191.85 171.48 192.05 172.59 192.15 173.14 L 192.46 173.89 C 189.70 173.73 186.94 173.70 184.18 173.50 Z" fill="#f14f4e" opacity="1.00" stroke="#f14f4e" stroke-width="0.25"/>
<path d="M 203.61 172.92 C 203.42 171.16 203.39 168.79 205.82 169.16 C 208.16 169.07 207.43 171.41 207.39 172.92 C 206.44 172.92 204.55 172.92 203.61 172.92 Z" fill="#42111d" opacity="1.00" stroke="#42111d" stroke-width="0.25"/>
<path d="M 192.37 168.76 C 192.96 169.10 194.14 169.79 194.72 170.14 C 194.79 170.90 194.92 172.42 194.98 173.17 C 194.28 173.17 192.86 173.15 192.15 173.14 C 192.05 172.59 191.85 171.48 191.75 170.93 L 192.37 168.76 Z" fill="#3a1018" opacity="1.00" stroke="#3a1018" stroke-width="0.25"/>
<path d="M 197.68 169.59 C 198.67 169.54 200.65 169.43 201.63 169.37 C 201.58 170.27 201.47 172.08 201.41 172.98 C 200.54 172.94 198.79 172.87 197.91 172.84 C 197.86 172.03 197.74 170.41 197.68 169.59 Z" fill="#3f0c15" opacity="1.00" stroke="#3f0c15" stroke-width="0.25"/>
<path d="M 209.64 169.51 C 211.81 168.94 214.53 169.31 213.51 172.26 C 212.25 172.75 210.95 173.04 209.59 173.13 C 209.60 172.22 209.63 170.41 209.64 169.51 Z" fill="#370c14" opacity="1.00" stroke="#370c14" stroke-width="0.25"/>
<path d="M 285.47 169.65 C 288.76 169.53 292.07 169.33 295.36 169.71 C 296.95 172.77 293.27 173.54 291.00 173.52 C 288.48 173.69 284.36 173.20 285.47 169.65 Z" fill="#231028" opacity="1.00" stroke="#231028" stroke-width="0.25"/>
<path d="M 297.21 170.97 C 300.08 167.85 304.97 170.01 308.73 169.65 C 308.74 171.45 308.53 173.93 306.06 173.56 C 303.09 173.52 298.77 174.14 297.21 170.97 Z" fill="#2d1f35" opacity="1.00" stroke="#2d1f35" stroke-width="0.25"/>
<path d="M 310.11 171.01 C 312.21 169.14 316.90 168.56 317.86 171.88 C 315.53 173.53 312.07 173.03 310.11 171.01 Z" fill="#ff443f" opacity="1.00" stroke="#ff443f" stroke-width="0.25"/>
<path d="M 453.24 171.31 C 459.37 170.19 466.16 171.84 470.63 176.33 C 476.90 181.81 479.06 191.29 476.27 199.06 C 473.06 208.81 461.94 215.60 451.85 212.53 C 442.15 210.11 435.48 199.95 436.52 190.12 C 437.29 181.18 444.19 172.74 453.24 171.31 Z" fill="#091730" opacity="1.00" stroke="#091730" stroke-width="0.25"/>
<path d="M 452.41 173.52 C 456.79 172.84 461.65 172.79 465.59 175.11 C 472.87 179.00 476.93 187.99 475.06 196.02 C 473.24 206.08 462.08 213.70 452.12 210.45 C 443.31 208.28 437.38 198.89 438.59 190.00 C 439.20 182.35 444.80 175.22 452.41 173.52 Z" fill="#fefefe" opacity="1.00" stroke="#fefefe" stroke-width="0.25"/>
<path d="M 213.41 173.79 C 248.89 173.50 284.37 174.02 319.83 173.74 L 319.71 174.71 C 309.81 175.22 299.89 174.46 289.97 174.67 C 266.33 175.33 242.68 174.81 219.03 174.97 C 217.09 174.97 215.23 174.36 213.41 173.79 Z" fill="#330c17" opacity="1.00" stroke="#330c17" stroke-width="0.25"/>
<path d="M 184.26 260.80 C 184.46 232.43 184.24 204.06 184.39 175.69 C 229.44 175.70 274.49 175.67 319.54 175.69 C 319.62 204.08 319.46 232.46 319.61 260.85 C 295.41 260.84 271.21 260.76 247.01 260.86 C 226.10 260.82 205.18 260.80 184.26 260.80 Z" fill="#ffffff" opacity="1.00" stroke="#ffffff" stroke-width="0.25"/>
<path d="M 193.52 215.36 C 193.03 203.80 193.14 192.19 193.49 180.62 C 205.15 180.67 216.81 180.62 228.47 180.63 C 228.63 192.18 228.75 203.76 228.40 215.31 C 216.77 215.42 205.15 215.43 193.52 215.36 Z" fill="#14121c" opacity="1.00" stroke="#14121c" stroke-width="0.25"/>
<path d="M 279.56 181.67 C 289.19 182.25 298.81 181.40 308.45 181.40 C 308.55 183.21 308.63 185.01 308.65 186.82 C 308.66 188.12 308.67 189.42 308.68 190.72 C 308.06 191.35 307.44 191.98 306.82 192.62 C 306.89 189.49 306.84 186.37 306.79 183.25 C 298.06 183.45 289.33 183.87 280.60 183.77 C 281.48 192.54 281.18 201.35 280.69 210.13 C 289.39 209.43 298.12 209.70 306.84 209.70 C 307.14 209.95 307.75 210.45 308.06 210.69 C 306.80 212.12 304.69 211.30 303.04 211.52 C 295.14 211.18 287.26 211.81 279.37 211.69 C 278.87 205.13 279.80 198.56 279.38 191.99 C 279.37 188.56 278.28 185.00 279.56 181.67 Z" fill="#32323a" opacity="1.00" stroke="#32323a" stroke-width="0.25"/>
<path d="M 195.17 213.39 C 195.39 203.09 195.01 192.78 195.38 182.49 C 205.78 182.67 216.19 182.62 226.59 182.49 C 226.67 192.83 226.63 203.16 226.54 213.50 C 216.08 213.32 205.62 213.47 195.17 213.39 Z" fill="#ffffff" opacity="1.00" stroke="#ffffff" stroke-width="0.25"/>
<path d="M 236.40 182.52 C 247.79 182.54 259.19 182.57 270.58 182.57 L 270.50 184.22 C 259.14 184.24 247.78 184.26 236.41 184.20 L 236.40 182.52 Z" fill="#2c2b35" opacity="1.00" stroke="#2c2b35" stroke-width="0.25"/>
<path d="M 280.60 183.77 C 289.33 183.87 298.06 183.45 306.79 183.25 C 306.84 186.37 306.89 189.49 306.82 192.62 C 307.44 191.98 308.06 191.35 308.68 190.72 C 308.67 189.42 308.66 188.12 308.65 186.82 C 308.86 188.71 309.17 190.59 309.79 192.39 C 310.15 198.68 308.64 205.28 310.48 211.35 C 309.88 211.18 308.67 210.86 308.06 210.69 C 307.75 210.45 307.14 209.95 306.84 209.70 C 298.12 209.70 289.39 209.43 280.69 210.13 C 281.18 201.35 281.48 192.54 280.60 183.77 Z" fill="#aeb5bf" opacity="1.00" stroke="#aeb5bf" stroke-width="0.25"/>
<path d="M 235.94 186.21 C 244.62 185.60 253.33 185.93 262.02 186.10 C 265.12 186.19 268.37 185.63 271.30 186.96 C 268.69 188.19 265.79 187.77 263.01 187.82 C 254.22 187.69 245.41 188.03 236.63 187.65 C 236.46 187.29 236.11 186.57 235.94 186.21 Z" fill="#3a3941" opacity="1.00" stroke="#3a3941" stroke-width="0.25"/>
<path d="M 236.31 189.59 C 244.95 189.38 253.60 189.64 262.24 189.48 C 262.64 189.83 263.44 190.51 263.84 190.86 C 254.74 191.82 245.52 191.01 236.37 191.28 L 236.31 189.59 Z" fill="#35353e" opacity="1.00" stroke="#35353e" stroke-width="0.25"/>
<path d="M 291.68 192.72 C 293.45 191.53 295.80 190.83 297.14 193.01 C 297.68 196.82 297.54 200.69 297.53 204.53 L 296.26 204.54 C 296.06 200.86 295.82 197.18 295.51 193.50 C 294.97 193.46 293.90 193.37 293.36 193.33 C 293.07 196.73 292.91 200.13 292.81 203.54 C 291.31 200.13 291.79 196.33 291.68 192.72 Z" fill="#141b2b" opacity="1.00" stroke="#141b2b" stroke-width="0.25"/>
<path d="M 302.24 200.33 C 303.69 197.50 303.35 193.24 306.53 191.65 C 306.12 195.91 304.08 199.74 302.71 203.73 C 302.25 203.60 301.34 203.33 300.88 203.19 C 300.06 200.61 299.23 198.02 298.50 195.41 C 301.43 194.79 300.74 198.77 302.24 200.33 Z" fill="#222534" opacity="1.00" stroke="#222534" stroke-width="0.25"/>
<path d="M 236.21 194.53 C 236.32 194.09 236.54 193.20 236.65 192.75 C 246.61 192.89 256.58 192.92 266.54 192.73 C 266.61 193.19 266.76 194.10 266.83 194.56 C 256.63 194.56 246.42 194.63 236.21 194.53 Z" fill="#222534" opacity="1.00" stroke="#222534" stroke-width="0.25"/>
<path d="M 290.18 197.43 C 290.78 195.89 291.26 194.31 291.68 192.72 C 291.79 196.33 291.31 200.13 292.81 203.54 L 293.14 204.44 C 290.33 205.77 291.05 201.66 290.83 200.08 C 290.40 200.09 289.54 200.12 289.11 200.13 L 289.37 199.50 C 289.57 198.98 289.98 197.95 290.18 197.43 Z" fill="#525865" opacity="1.00" stroke="#525865" stroke-width="0.25"/>
<path d="M 307.67 192.00 C 308.49 192.80 308.94 193.77 309.01 194.91 C 309.40 199.80 309.60 204.73 309.15 209.62 C 308.58 209.01 308.02 208.38 307.47 207.75 C 308.16 202.51 307.16 197.25 307.67 192.00 Z" fill="#2f323b" opacity="1.00" stroke="#2f323b" stroke-width="0.25"/>
<path d="M 284.63 195.56 C 286.66 195.38 289.77 194.50 290.18 197.43 C 289.98 197.95 289.57 198.98 289.37 199.50 C 288.76 197.45 287.60 196.82 285.89 197.62 C 285.59 199.97 285.60 202.34 285.58 204.71 C 285.10 204.66 284.13 204.56 283.65 204.52 C 283.55 201.50 283.60 198.44 284.63 195.56 Z" fill="#2d333f" opacity="1.00" stroke="#2d333f" stroke-width="0.25"/>
<path d="M 236.24 196.39 C 247.85 196.58 259.50 195.91 271.07 196.73 C 270.61 197.09 269.68 197.80 269.21 198.16 C 258.37 198.23 247.52 198.08 236.68 198.21 C 236.57 197.75 236.35 196.84 236.24 196.39 Z" fill="#2d333f" opacity="1.00" stroke="#2d333f" stroke-width="0.25"/>
<path d="M 236.43 201.45 C 236.49 201.03 236.61 200.21 236.67 199.80 C 246.44 199.89 256.20 199.87 265.97 199.82 C 267.76 199.75 269.53 200.12 271.25 200.62 C 270.61 201.15 269.89 201.42 269.08 201.43 C 258.20 201.52 247.32 201.49 236.43 201.45 Z" fill="#1f1d29" opacity="1.00" stroke="#1f1d29" stroke-width="0.25"/>
<path d="M 235.99 203.34 C 239.51 203.16 243.05 203.17 246.56 203.55 C 246.45 203.95 246.22 204.74 246.11 205.13 C 242.95 204.92 239.56 205.53 236.54 204.64 C 236.40 204.32 236.13 203.66 235.99 203.34 Z" fill="#3a393e" opacity="1.00" stroke="#3a393e" stroke-width="0.25"/>
<path d="M 236.65 211.49 C 241.54 211.92 246.92 210.32 251.47 212.57 C 251.39 213.48 251.31 214.39 251.24 215.30 C 246.57 216.21 241.76 215.88 237.05 215.71 C 236.62 215.35 235.76 214.64 235.33 214.28 C 235.66 213.59 236.32 212.19 236.65 211.49 Z" fill="#1f1d29" opacity="1.00" stroke="#1f1d29" stroke-width="0.25"/>
<path d="M 254.57 211.64 C 259.36 211.41 264.18 211.36 268.98 211.53 C 271.03 211.75 271.05 215.62 268.88 215.68 C 264.06 215.94 259.21 215.89 254.40 215.53 C 254.43 214.23 254.49 212.94 254.57 211.64 Z" fill="#1e1c27" opacity="1.00" stroke="#1e1c27" stroke-width="0.25"/>
<path d="M 237.82 213.26 C 241.69 213.71 245.89 212.45 249.54 214.07 C 245.60 214.52 241.63 214.31 237.68 214.35 L 237.82 213.26 Z" fill="#b1b7c2" opacity="1.00" stroke="#b1b7c2" stroke-width="0.25"/>
<path d="M 255.63 213.46 C 259.86 213.30 264.10 213.23 268.33 213.56 C 264.24 214.32 259.49 215.29 255.63 213.46 Z" fill="#b1b7c2" opacity="1.00" stroke="#b1b7c2" stroke-width="0.25"/>
<path d="M 121.78 228.05 C 120.52 225.45 121.50 222.65 123.83 221.11 C 126.04 221.21 128.15 221.83 129.99 223.07 C 137.56 227.75 145.53 231.76 153.12 236.41 C 151.73 236.40 150.53 236.91 149.53 237.93 L 148.81 238.39 L 148.37 237.89 C 148.16 237.46 147.74 236.60 147.53 236.18 C 137.43 236.83 131.67 248.79 135.22 257.66 C 136.11 260.03 137.62 262.09 138.99 264.20 C 134.88 263.22 132.94 259.19 131.60 255.59 C 128.22 246.44 125.31 237.13 121.78 228.05 Z" fill="#fda8ad" opacity="1.00" stroke="#fda8ad" stroke-width="0.25"/>
<path d="M 279.55 222.51 C 283.73 222.60 287.88 223.09 292.04 223.47 C 297.59 223.97 303.13 222.98 308.68 223.30 C 308.98 233.07 310.02 242.94 308.38 252.65 C 300.91 253.18 293.44 251.97 285.98 252.68 C 283.66 252.61 281.02 253.34 278.94 252.04 C 278.22 248.13 278.76 244.05 278.90 240.09 C 279.71 234.25 278.87 228.35 279.55 222.51 Z" fill="#34343c" opacity="1.00" stroke="#34343c" stroke-width="0.25"/>
<path d="M 195.24 222.62 C 205.36 222.45 215.48 222.68 225.61 222.56 L 225.62 224.29 C 215.73 224.10 205.82 224.50 195.94 224.07 L 195.24 222.62 Z" fill="#2d2b38" opacity="1.00" stroke="#2d2b38" stroke-width="0.25"/>
<path d="M 235.60 224.94 C 237.03 224.40 238.51 224.15 240.04 224.20 C 249.37 224.24 258.70 224.20 268.03 224.20 C 269.26 224.07 270.48 224.36 271.08 225.54 C 262.43 226.40 253.71 225.65 245.03 225.89 C 241.89 225.69 238.48 226.57 235.60 224.94 Z" fill="#3a3941" opacity="1.00" stroke="#3a3941" stroke-width="0.25"/>
<path d="M 280.74 224.43 C 289.46 225.43 298.25 225.42 307.02 225.16 C 307.09 228.11 307.17 231.05 307.27 234.00 C 306.69 233.85 305.55 233.55 304.97 233.41 C 304.09 236.24 303.13 239.06 302.04 241.82 C 301.12 240.09 301.22 237.44 299.07 236.67 C 299.22 239.98 299.72 243.50 302.07 246.05 C 304.26 242.50 304.84 238.21 307.26 234.78 C 307.51 240.16 307.60 245.58 306.86 250.92 C 298.03 250.75 289.20 250.56 280.37 250.98 C 280.12 242.12 281.50 233.29 280.74 224.43 Z" fill="#b1b7c2" opacity="1.00" stroke="#b1b7c2" stroke-width="0.25"/>
<path d="M 195.78 226.00 C 205.52 225.86 215.26 226.01 225.01 225.97 C 226.21 226.01 228.27 225.80 228.63 227.34 C 226.91 228.23 224.94 228.11 223.08 228.11 C 213.81 227.91 204.55 228.06 195.29 227.99 C 195.41 227.49 195.66 226.50 195.78 226.00 Z" fill="#575862" opacity="1.00" stroke="#575862" stroke-width="0.25"/>
<path d="M 240.05 229.49 C 238.58 229.33 235.35 230.21 236.37 227.65 C 244.64 227.88 252.93 227.53 261.20 227.79 C 261.69 228.06 262.67 228.62 263.15 228.90 C 255.56 230.20 247.74 229.06 240.05 229.49 Z" fill="#313239" opacity="1.00" stroke="#313239" stroke-width="0.25"/>
<path d="M 195.53 231.43 C 195.54 230.99 195.58 230.10 195.60 229.66 C 203.03 229.91 210.57 229.18 217.94 230.00 C 217.84 230.37 217.62 231.10 217.52 231.47 C 210.19 231.34 202.86 231.46 195.53 231.43 Z" fill="#383942" opacity="1.00" stroke="#383942" stroke-width="0.25"/>
<path d="M 120.54 230.91 C 121.44 231.73 121.70 232.87 121.69 234.05 C 116.91 238.54 112.85 243.74 108.19 248.36 C 107.76 248.43 106.89 248.59 106.45 248.67 C 105.66 247.10 107.18 246.10 108.06 245.04 C 112.26 240.36 116.49 235.71 120.54 230.91 Z" fill="#fefeff" opacity="1.00" stroke="#fefeff" stroke-width="0.25"/>
<path d="M 194.73 233.71 C 204.72 232.93 214.84 233.33 224.87 233.53 L 223.99 235.02 C 214.66 235.22 205.29 235.25 195.97 234.98 L 194.73 233.71 Z" fill="#34343c" opacity="1.00" stroke="#34343c" stroke-width="0.25"/>
<path d="M 236.21 233.36 C 247.76 233.53 259.31 233.35 270.86 233.46 C 270.68 233.87 270.30 234.70 270.11 235.12 C 258.94 235.37 247.76 235.18 236.58 235.25 C 236.49 234.77 236.30 233.83 236.21 233.36 Z" fill="#34343c" opacity="1.00" stroke="#34343c" stroke-width="0.25"/>
<path d="M 291.86 235.05 C 292.83 232.71 295.41 233.08 297.38 233.69 C 297.58 237.69 297.68 241.70 297.58 245.70 L 296.13 245.61 C 296.24 242.11 296.33 238.59 295.90 235.11 C 295.29 235.15 294.08 235.21 293.47 235.24 C 293.29 238.70 293.21 242.17 293.26 245.64 L 291.56 245.64 C 291.49 242.12 290.93 238.52 291.86 235.05 Z" fill="#141b2b" opacity="1.00" stroke="#141b2b" stroke-width="0.25"/>
<path d="M 118.55 239.90 C 119.88 238.50 120.91 236.57 122.90 236.03 C 124.18 239.23 124.87 242.65 126.20 245.85 C 128.01 251.09 129.96 256.29 131.90 261.48 C 124.63 261.23 117.36 261.46 110.09 261.35 C 108.64 257.90 107.85 254.31 108.66 250.58 C 111.90 246.97 115.51 243.69 118.55 239.90 Z" fill="#fffeff" opacity="1.00" stroke="#fffeff" stroke-width="0.25"/>
<path d="M 195.92 236.97 C 205.64 236.67 215.38 237.02 225.11 236.80 C 226.46 236.58 227.09 237.19 227.01 238.65 C 216.34 238.53 205.66 239.00 195.02 238.39 L 195.92 236.97 Z" fill="#36343f" opacity="1.00" stroke="#36343f" stroke-width="0.25"/>
<path d="M 235.94 237.20 C 243.96 236.47 252.02 237.33 260.06 236.93 C 262.50 236.91 265.15 236.49 267.22 238.11 C 263.60 239.28 259.77 238.60 256.04 238.75 C 249.59 238.62 243.10 239.05 236.67 238.53 C 236.49 238.20 236.12 237.53 235.94 237.20 Z" fill="#3a3941" opacity="1.00" stroke="#3a3941" stroke-width="0.25"/>
<path d="M 282.63 245.48 C 282.96 242.47 281.42 238.20 284.93 236.57 C 287.06 236.36 289.25 236.69 291.16 237.71 C 288.36 239.51 289.26 242.80 289.23 245.58 L 287.61 245.62 C 287.56 243.27 287.63 240.91 287.20 238.60 C 286.62 238.66 285.46 238.78 284.88 238.84 C 284.54 241.46 284.52 244.11 284.04 246.71 C 283.69 246.40 282.99 245.79 282.63 245.48 Z" fill="#222534" opacity="1.00" stroke="#222534" stroke-width="0.25"/>
<path d="M 55.05 237.88 C 55.60 237.79 56.71 237.61 57.26 237.52 C 58.32 243.62 57.92 250.02 55.66 255.81 C 53.58 261.62 49.15 266.36 47.92 272.51 C 49.96 272.61 52.01 272.74 54.04 272.99 L 53.12 273.40 C 48.07 275.55 41.90 275.50 36.83 273.48 L 35.93 273.04 C 37.53 272.84 39.15 272.67 40.76 272.52 C 40.30 271.24 39.81 269.97 39.34 268.70 C 40.25 268.80 41.15 268.91 42.06 269.01 C 42.58 270.12 43.16 271.20 43.74 272.28 L 44.02 271.30 C 44.62 269.47 45.29 267.68 45.86 265.84 C 45.97 267.28 46.10 268.72 46.25 270.17 C 50.70 260.50 58.37 250.67 55.35 239.39 C 51.06 243.20 48.25 248.27 46.32 253.61 C 45.08 254.05 44.17 254.83 43.58 255.96 C 42.56 250.62 40.71 244.96 36.19 241.56 C 35.91 243.91 35.65 246.27 35.54 248.64 C 35.25 249.09 34.68 249.99 34.39 250.44 C 33.03 246.83 34.25 243.04 34.73 239.40 C 36.06 239.41 37.58 239.33 38.52 240.49 C 41.80 244.00 43.69 248.54 44.83 253.15 C 46.80 247.37 49.36 240.91 55.05 237.88 Z" fill="#1e2e3b" opacity="1.00" stroke="#1e2e3b" stroke-width="0.25"/>
<path d="M 136.14 255.08 C 133.97 247.27 140.33 237.90 148.37 237.89 L 148.81 238.39 L 149.53 237.93 C 152.65 238.24 155.66 240.68 157.82 243.08 C 163.20 250.47 159.65 261.99 151.02 264.99 C 144.21 267.67 137.41 261.55 136.14 255.08 Z" fill="#ffffff" opacity="1.00" stroke="#ffffff" stroke-width="0.25"/>
<path d="M 46.32 253.61 C 48.25 248.27 51.06 243.20 55.35 239.39 C 58.37 250.67 50.70 260.50 46.25 270.17 C 46.10 268.72 45.97 267.28 45.86 265.84 C 46.09 261.77 46.12 257.68 46.32 253.61 Z" fill="#289872" opacity="1.00" stroke="#289872" stroke-width="0.25"/>
<path d="M 194.94 240.65 C 204.46 240.15 214.05 240.28 223.58 240.53 C 223.81 240.88 224.27 241.58 224.51 241.92 C 215.00 242.25 205.47 242.17 195.96 242.01 L 194.94 240.65 Z" fill="#36343f" opacity="1.00" stroke="#36343f" stroke-width="0.25"/>
<path d="M 236.31 240.44 C 247.50 240.54 258.69 240.55 269.88 240.45 C 269.80 240.91 269.65 241.82 269.57 242.28 C 258.58 242.11 247.58 242.22 236.58 242.27 C 236.52 241.81 236.38 240.89 236.31 240.44 Z" fill="#222033" opacity="1.00" stroke="#222033" stroke-width="0.25"/>
<path d="M 36.19 241.56 C 40.71 244.96 42.56 250.62 43.58 255.96 C 43.79 258.92 43.89 261.89 43.96 264.87 C 43.35 265.18 42.13 265.81 41.51 266.13 C 40.53 259.95 35.98 254.98 35.54 248.64 C 35.65 246.27 35.91 243.91 36.19 241.56 Z" fill="#28946f" opacity="1.00" stroke="#28946f" stroke-width="0.25"/>
<path d="M 195.89 243.96 C 205.22 243.86 214.62 243.65 223.93 244.13 L 225.08 245.34 C 220.43 246.00 215.72 245.54 211.05 245.64 C 205.72 245.55 200.37 245.93 195.06 245.38 L 195.89 243.96 Z" fill="#34343c" opacity="1.00" stroke="#34343c" stroke-width="0.25"/>
<path d="M 236.04 245.65 C 235.94 243.39 238.49 244.10 239.97 243.93 C 246.00 244.19 252.10 243.51 258.09 244.49 C 256.86 246.01 254.77 245.69 253.04 245.77 C 247.38 245.69 241.71 245.76 236.04 245.65 Z" fill="#3a3941" opacity="1.00" stroke="#3a3941" stroke-width="0.25"/>
<path d="M 195.44 247.49 C 206.13 247.47 216.82 247.51 227.51 247.49 C 227.46 247.94 227.38 248.84 227.34 249.29 C 216.80 249.18 206.27 249.19 195.73 249.28 C 195.66 248.83 195.51 247.94 195.44 247.49 Z" fill="#34343c" opacity="1.00" stroke="#34343c" stroke-width="0.25"/>
<path d="M 236.24 247.57 C 243.41 247.69 250.59 247.41 257.75 247.68 C 257.32 248.22 256.89 248.76 256.46 249.31 C 249.83 249.14 243.20 249.21 236.57 249.30 C 236.49 248.87 236.32 248.00 236.24 247.57 Z" fill="#1e1c27" opacity="1.00" stroke="#1e1c27" stroke-width="0.25"/>
<path d="M 25.33 249.14 C 28.87 248.65 31.76 250.75 34.27 252.94 C 34.30 252.31 34.36 251.06 34.39 250.44 C 34.68 249.99 35.25 249.09 35.54 248.64 C 35.98 254.98 40.53 259.95 41.51 266.13 C 41.65 266.85 41.92 268.29 42.06 269.01 C 41.15 268.91 40.25 268.80 39.34 268.70 L 38.99 268.66 C 34.66 261.99 25.43 258.09 25.33 249.14 Z" fill="#082a2b" opacity="1.00" stroke="#082a2b" stroke-width="0.25"/>
<path d="M 101.74 249.28 C 103.32 249.20 104.91 249.32 106.47 249.57 C 106.56 251.15 106.62 252.74 106.63 254.33 C 105.16 255.01 103.63 256.08 101.93 255.38 C 101.15 254.35 100.58 253.21 100.22 251.97 C 100.60 251.30 101.36 249.96 101.74 249.28 Z" fill="#fefeff" opacity="1.00" stroke="#fefeff" stroke-width="0.25"/>
<path d="M 28.04 251.12 C 30.87 252.41 33.45 254.26 35.62 256.49 C 37.79 259.39 39.08 262.86 40.04 266.33 C 35.61 261.76 29.85 257.97 27.52 251.81 L 28.04 251.12 Z" fill="#369379" opacity="1.00" stroke="#369379" stroke-width="0.25"/>
<path d="M 387.40 252.92 C 390.91 259.02 393.07 266.26 392.17 273.33 C 390.37 274.28 389.26 273.86 388.82 272.06 C 387.41 265.78 387.17 259.33 387.40 252.92 Z" fill="#2d9676" opacity="1.00" stroke="#2d9676" stroke-width="0.25"/>
<path d="M 43.58 255.96 C 44.17 254.83 45.08 254.05 46.32 253.61 C 46.12 257.68 46.09 261.77 45.86 265.84 C 45.29 267.68 44.62 269.47 44.02 271.30 C 44.06 269.15 44.01 267.01 43.96 264.87 C 43.89 261.89 43.79 258.92 43.58 255.96 Z" fill="#04382f" opacity="1.00" stroke="#04382f" stroke-width="0.25"/>
<path d="M 399.03 264.03 C 399.34 260.42 401.47 257.37 403.98 254.91 C 403.64 258.49 402.02 261.92 399.03 264.03 Z" fill="#395f61" opacity="1.00" stroke="#395f61" stroke-width="0.25"/>
<path d="M 104.75 259.23 C 103.87 257.78 105.14 256.76 106.10 255.84 C 111.02 268.29 116.01 280.72 120.70 293.25 C 119.88 293.43 119.04 293.56 118.20 293.66 C 113.74 282.17 109.28 270.68 104.75 259.23 Z" fill="#fffeff" opacity="1.00" stroke="#fffeff" stroke-width="0.25"/>
<path d="M 394.20 269.08 C 394.69 265.01 394.88 260.36 397.74 257.17 C 397.93 259.37 398.71 261.67 398.11 263.87 C 397.16 265.84 395.62 267.44 394.20 269.08 Z" fill="#2f7266" opacity="1.00" stroke="#2f7266" stroke-width="0.25"/>
<path d="M 380.08 260.75 C 385.24 262.55 386.74 268.37 386.96 273.27 C 384.36 272.38 383.71 269.58 382.64 267.38 C 381.67 265.21 380.79 263.01 380.08 260.75 Z" fill="#347a6c" opacity="1.00" stroke="#347a6c" stroke-width="0.25"/>
<path d="M 398.34 273.73 C 400.24 268.60 401.90 262.23 407.63 260.14 C 405.66 264.67 402.72 268.68 400.72 273.20 C 400.13 273.33 398.93 273.59 398.34 273.73 Z" fill="#418076" opacity="1.00" stroke="#418076" stroke-width="0.25"/>
<path d="M 111.20 263.47 C 118.45 263.56 125.70 263.38 132.94 263.56 C 136.18 264.26 138.59 267.21 142.00 267.53 C 145.73 267.92 149.79 268.02 153.15 266.09 C 155.07 265.22 156.74 263.52 158.97 263.55 C 166.78 263.48 174.60 263.45 182.41 263.61 C 182.51 268.81 181.95 274.08 183.01 279.23 C 185.79 274.30 183.72 268.25 184.34 262.84 C 229.41 262.85 274.48 262.90 319.55 262.83 C 319.31 268.42 320.44 274.23 318.47 279.62 C 314.75 280.72 310.84 280.34 307.01 280.36 C 293.90 280.36 280.79 280.34 267.68 280.35 C 241.50 280.30 215.32 280.30 189.14 280.36 C 187.40 280.48 186.17 278.99 184.79 278.23 C 184.35 278.90 183.91 279.57 183.48 280.26 C 185.24 281.14 186.93 282.51 189.02 282.39 C 205.19 282.37 221.37 282.37 237.55 282.38 C 237.27 287.35 236.69 292.31 235.52 297.15 C 233.58 296.43 231.65 295.69 229.70 294.99 C 224.35 292.86 218.48 293.01 212.90 291.93 C 204.96 290.92 196.94 290.53 188.94 290.27 C 166.86 288.81 144.61 289.37 122.70 292.68 C 122.54 292.37 122.20 291.74 122.04 291.43 C 118.46 282.09 114.80 272.79 111.20 263.47 Z" fill="#ffffff" opacity="1.00" stroke="#ffffff" stroke-width="0.25"/>
<path d="M 321.46 263.63 C 339.51 263.32 357.57 263.63 375.62 263.46 C 379.78 265.35 381.97 269.54 383.48 273.62 C 382.75 273.63 381.30 273.65 380.57 273.66 C 379.57 282.00 381.54 290.36 381.89 298.69 C 367.26 298.50 352.62 298.76 338.00 298.59 C 327.42 297.05 316.69 298.03 306.05 297.78 C 298.51 298.82 290.91 298.70 283.33 298.62 C 278.87 298.61 274.41 298.66 269.96 298.40 C 268.93 293.10 268.10 287.75 267.76 282.36 C 283.18 282.38 298.61 282.36 314.04 282.39 C 317.07 282.81 320.19 281.03 321.10 278.05 C 321.91 273.30 321.35 268.43 321.46 263.63 Z" fill="#ffffff" opacity="1.00" stroke="#ffffff" stroke-width="0.25"/>
<path d="M 41.51 266.13 C 42.13 265.81 43.35 265.18 43.96 264.87 C 44.01 267.01 44.06 269.15 44.02 271.30 L 43.74 272.28 C 43.16 271.20 42.58 270.12 42.06 269.01 C 41.92 268.29 41.65 266.85 41.51 266.13 Z" fill="#3b716a" opacity="1.00" stroke="#3b716a" stroke-width="0.25"/>
<path d="M 250.73 267.51 C 252.67 267.34 255.17 266.62 256.55 268.47 C 258.12 269.71 257.36 271.88 257.52 273.59 C 255.81 275.43 252.66 276.47 250.63 274.54 C 248.40 272.76 249.69 269.59 250.73 267.51 Z" fill="#14121c" opacity="1.00" stroke="#14121c" stroke-width="0.25"/>
<path d="M 394.43 274.23 C 395.02 271.54 396.26 269.06 398.42 267.28 C 398.15 269.52 397.81 271.77 397.17 273.94 C 396.48 274.01 395.12 274.16 394.43 274.23 Z" fill="#387169" opacity="1.00" stroke="#387169" stroke-width="0.25"/>
<path d="M 251.52 273.47 C 251.43 271.81 250.78 269.29 253.08 268.89 C 253.73 269.03 255.02 269.31 255.67 269.45 C 255.67 270.83 255.64 272.20 255.58 273.58 C 254.22 273.56 252.87 273.52 251.52 273.47 Z" fill="#fffeff" opacity="1.00" stroke="#fffeff" stroke-width="0.25"/>
<path d="M 71.85 270.42 C 75.37 272.39 72.85 277.17 74.23 280.38 C 74.91 277.43 75.18 274.41 75.61 271.42 C 76.37 271.41 77.89 271.39 78.65 271.38 C 79.08 274.36 78.56 277.36 78.45 280.36 C 79.50 277.85 79.55 275.11 79.69 272.44 C 80.77 272.31 81.85 272.19 82.94 272.09 C 82.64 274.74 81.77 277.29 81.54 279.95 C 81.43 286.86 79.87 293.64 79.41 300.53 C 84.58 298.95 89.93 298.33 95.32 298.47 C 95.21 292.57 95.18 286.67 95.30 280.77 C 95.17 279.36 96.80 278.77 97.61 277.96 C 97.70 276.45 97.75 274.94 97.77 273.43 C 100.25 272.58 102.89 272.80 105.47 272.74 C 105.63 274.25 105.76 275.77 105.87 277.29 C 107.17 278.27 108.87 279.17 109.01 281.02 C 109.34 286.85 108.50 292.77 109.19 298.57 C 109.66 298.63 110.60 298.74 111.08 298.79 C 111.03 299.11 110.94 299.74 110.89 300.06 C 106.75 303.83 99.13 305.15 95.02 300.79 C 91.61 300.70 88.16 300.61 84.83 301.47 C 75.70 303.76 66.44 305.48 57.26 307.55 C 59.50 307.72 61.75 307.87 64.00 307.89 C 80.54 307.73 97.07 307.93 113.61 307.78 C 113.65 308.37 113.72 309.55 113.76 310.14 C 96.86 310.22 79.96 310.09 63.07 310.18 C 56.88 310.29 50.69 309.47 44.51 310.23 C 44.48 309.85 44.42 309.09 44.38 308.71 L 44.31 307.88 C 52.21 307.06 59.78 304.33 67.66 303.39 C 67.31 299.90 66.81 296.44 66.39 292.97 L 68.26 293.54 C 71.64 293.93 75.05 293.81 78.44 293.77 C 78.60 291.81 78.73 289.85 78.95 287.90 C 79.02 287.47 79.15 286.63 79.22 286.20 C 79.42 284.94 79.62 283.68 79.83 282.42 C 75.40 282.44 70.97 282.43 66.54 282.65 C 65.70 280.08 64.90 277.50 64.06 274.93 C 63.86 274.34 63.46 273.15 63.25 272.55 C 64.04 272.32 65.61 271.84 66.40 271.60 C 66.67 274.48 66.96 277.36 67.59 280.18 C 67.61 277.16 67.45 274.14 67.56 271.13 C 68.40 271.23 70.08 271.43 70.92 271.53 C 70.82 272.13 70.62 273.34 70.52 273.95 C 70.96 272.77 71.40 271.59 71.85 270.42 Z" fill="#222033" opacity="1.00" stroke="#222033" stroke-width="0.25"/>
<path d="M 400.72 273.20 C 401.20 273.03 402.14 272.67 402.61 272.50 L 402.66 273.37 C 404.31 273.55 405.98 273.81 407.57 274.33 C 406.82 281.94 406.78 289.66 405.34 297.19 C 405.03 296.38 404.41 294.77 404.11 293.97 C 404.44 287.85 405.20 281.77 405.53 275.66 C 397.65 275.39 389.77 275.68 381.89 275.64 C 382.34 283.40 383.21 291.12 383.76 298.87 L 381.89 298.69 C 381.54 290.36 379.57 282.00 380.57 273.66 C 381.30 273.65 382.75 273.63 383.48 273.62 C 387.10 274.14 390.76 274.56 394.43 274.23 C 395.12 274.16 396.48 274.01 397.17 273.94 C 397.46 273.89 398.04 273.78 398.34 273.73 C 398.93 273.59 400.13 273.33 400.72 273.20 Z" fill="#342a19" opacity="1.00" stroke="#342a19" stroke-width="0.25"/>
<path d="M 34.53 294.18 C 33.52 287.33 31.58 280.56 31.57 273.61 C 33.03 273.43 34.49 273.25 35.96 273.09 L 36.83 273.48 C 41.90 275.50 48.07 275.55 53.12 273.40 C 54.88 272.84 56.75 273.51 58.54 273.55 C 58.62 279.79 56.67 285.84 55.99 292.03 C 55.21 295.84 54.99 299.81 53.44 303.43 C 47.89 303.91 42.30 303.90 36.74 303.52 C 35.15 300.68 35.28 297.28 34.53 294.18 Z" fill="#371824" opacity="1.00" stroke="#371824" stroke-width="0.25"/>
<path d="M 99.66 274.73 C 100.98 274.69 102.31 274.64 103.63 274.58 C 103.84 275.32 104.26 276.79 104.47 277.53 C 102.83 277.72 101.18 277.76 99.53 277.76 C 99.57 276.75 99.61 275.74 99.66 274.73 Z" fill="#fefeff" opacity="1.00" stroke="#fefeff" stroke-width="0.25"/>
<path d="M 64.06 274.93 C 64.90 277.50 65.70 280.08 66.54 282.65 C 66.92 283.85 67.31 285.05 67.70 286.25 C 71.54 286.18 75.38 286.20 79.22 286.20 C 79.15 286.63 79.02 287.47 78.95 287.90 C 75.19 288.22 71.41 288.12 67.65 288.05 C 67.85 289.88 68.07 291.71 68.26 293.54 L 66.39 292.97 C 65.12 287.03 65.01 280.92 64.06 274.93 Z" fill="#36343f" opacity="1.00" stroke="#36343f" stroke-width="0.25"/>
<path d="M 33.43 276.03 C 41.16 277.03 49.00 276.80 56.75 276.12 C 55.23 284.55 53.88 293.02 52.31 301.44 C 47.47 302.00 42.57 301.96 37.72 301.46 C 36.53 292.94 34.61 284.55 33.43 276.03 Z" fill="#fe8280" opacity="1.00" stroke="#fe8280" stroke-width="0.25"/>
<path d="M 381.89 275.64 C 389.77 275.68 397.65 275.39 405.53 275.66 C 405.20 281.77 404.44 287.85 404.11 293.97 C 403.81 297.01 403.69 300.07 403.20 303.10 C 397.14 304.47 390.67 303.48 384.46 303.57 C 384.20 302.00 383.94 300.44 383.76 298.87 C 383.21 291.12 382.34 283.40 381.89 275.64 Z" fill="#fcd776" opacity="1.00" stroke="#fcd776" stroke-width="0.25"/>
<path d="M 183.48 280.26 C 183.91 279.57 184.35 278.90 184.79 278.23 C 186.17 278.99 187.40 280.48 189.14 280.36 C 215.32 280.30 241.50 280.30 267.68 280.35 L 267.76 282.36 C 268.10 287.75 268.93 293.10 269.96 298.40 C 274.41 298.66 278.87 298.61 283.33 298.62 C 284.07 300.01 284.75 301.42 285.32 302.89 C 270.61 302.45 255.89 302.81 241.18 302.66 L 241.99 303.61 C 240.72 303.12 239.46 302.57 238.22 302.05 C 235.93 299.90 233.18 298.36 230.41 296.94 C 230.24 296.46 229.88 295.48 229.70 294.99 C 231.65 295.69 233.58 296.43 235.52 297.15 C 236.69 292.31 237.27 287.35 237.55 282.38 C 221.37 282.37 205.19 282.37 189.02 282.39 C 186.93 282.51 185.24 281.14 183.48 280.26 Z" fill="#19182c" opacity="1.00" stroke="#19182c" stroke-width="0.25"/>
<path d="M 97.23 279.96 C 100.61 279.47 104.17 279.17 107.42 280.50 C 107.45 281.43 107.48 282.36 107.52 283.30 C 107.04 283.43 106.10 283.69 105.62 283.82 C 105.05 288.57 105.39 293.43 105.43 298.22 C 106.06 298.39 107.31 298.73 107.93 298.90 C 105.76 302.68 100.88 301.25 97.36 301.02 C 96.47 294.05 96.76 286.96 97.23 279.96 Z" fill="#fefeff" opacity="1.00" stroke="#fefeff" stroke-width="0.25"/>
<path d="M 390.57 281.85 C 397.30 278.66 404.70 286.52 401.84 293.10 C 400.37 298.75 392.30 301.09 388.35 296.63 C 383.67 292.67 385.13 284.40 390.57 281.85 Z" fill="#21111b" opacity="1.00" stroke="#21111b" stroke-width="0.25"/>
<path d="M 66.54 282.65 C 70.97 282.43 75.40 282.44 79.83 282.42 C 79.62 283.68 79.42 284.94 79.22 286.20 C 75.38 286.20 71.54 286.18 67.70 286.25 C 67.31 285.05 66.92 283.85 66.54 282.65 Z" fill="#fefeff" opacity="1.00" stroke="#fefeff" stroke-width="0.25"/>
<path d="M 99.63 283.56 C 100.64 283.47 101.66 283.38 102.68 283.30 C 103.57 287.82 103.19 292.47 103.10 297.05 C 102.85 298.87 100.43 299.01 99.63 297.60 C 99.24 292.93 99.50 288.23 99.63 283.56 Z" fill="#3a3941" opacity="1.00" stroke="#3a3941" stroke-width="0.25"/>
<path d="M 239.48 282.42 C 248.19 282.42 256.91 282.39 265.62 282.33 C 265.83 283.97 266.05 285.63 266.25 287.28 C 257.28 287.19 248.29 287.63 239.32 287.03 C 239.37 285.49 239.42 283.95 239.48 282.42 Z" fill="#73c3d8" opacity="1.00" stroke="#73c3d8" stroke-width="0.25"/>
<path d="M 392.27 283.42 C 396.78 282.07 401.51 286.31 400.50 290.96 C 400.48 295.93 393.82 299.34 390.05 295.92 C 385.66 292.70 386.85 284.76 392.27 283.42 Z" fill="#fa5049" opacity="1.00" stroke="#fa5049" stroke-width="0.25"/>
<path d="M 237.15 298.63 C 238.41 294.88 238.83 290.93 239.32 287.03 C 248.29 287.63 257.28 287.19 266.25 287.28 C 266.37 291.16 267.26 294.94 267.92 298.75 C 257.66 298.72 247.40 298.88 237.15 298.63 Z" fill="#ffffff" opacity="1.00" stroke="#ffffff" stroke-width="0.25"/>
<path d="M 67.65 288.05 C 71.41 288.12 75.19 288.22 78.95 287.90 C 78.73 289.85 78.60 291.81 78.44 293.77 C 75.05 293.81 71.64 293.93 68.26 293.54 C 68.07 291.71 67.85 289.88 67.65 288.05 Z" fill="#ffffff" opacity="1.00" stroke="#ffffff" stroke-width="0.25"/>
<path d="M 122.70 292.68 C 144.61 289.37 166.86 288.81 188.94 290.27 C 196.94 290.53 204.96 290.92 212.90 291.93 C 218.48 293.01 224.35 292.86 229.70 294.99 C 229.88 295.48 230.24 296.46 230.41 296.94 C 213.29 292.80 195.56 292.52 178.05 291.65 C 160.12 291.33 142.08 291.53 124.36 294.52 C 121.81 295.03 119.32 295.83 116.89 296.73 C 116.46 296.93 115.62 297.33 115.19 297.53 C 115.87 296.24 116.54 294.95 116.97 293.55 L 118.20 293.66 C 119.04 293.56 119.88 293.43 120.70 293.25 C 121.04 292.80 121.71 291.88 122.04 291.43 C 122.20 291.74 122.54 292.37 122.70 292.68 Z" fill="#101f34" opacity="1.00" stroke="#101f34" stroke-width="0.25"/>
<path d="M 124.36 294.52 C 142.08 291.53 160.12 291.33 178.05 291.65 C 195.56 292.52 213.29 292.80 230.41 296.94 C 233.18 298.36 235.93 299.90 238.22 302.05 C 243.64 307.66 243.81 315.85 244.54 323.14 C 246.19 339.11 248.46 355.02 249.85 371.02 C 250.68 378.35 251.02 385.74 250.58 393.10 C 250.48 395.76 249.28 398.17 248.38 400.61 L 249.84 401.83 L 248.34 400.98 C 245.43 403.49 242.16 405.69 238.27 406.24 C 222.13 409.09 205.66 408.88 189.34 408.63 C 181.04 408.54 172.77 407.75 164.49 407.18 C 156.07 406.04 147.45 405.39 139.42 402.43 C 132.33 399.90 126.31 393.63 125.43 385.96 C 123.10 370.08 121.04 354.16 118.87 338.25 C 118.13 330.22 117.01 322.22 116.15 314.20 C 115.48 308.41 114.31 302.24 116.89 296.73 C 119.32 295.83 121.81 295.03 124.36 294.52 Z" fill="#63cde3" opacity="1.00" stroke="#63cde3" stroke-width="0.25"/>
<path d="M 403.20 303.10 C 403.69 300.07 403.81 297.01 404.11 293.97 C 404.41 294.77 405.03 296.38 405.34 297.19 C 405.47 297.55 405.72 298.29 405.84 298.65 C 412.91 298.95 420.25 297.60 427.04 300.14 C 436.12 303.06 445.45 305.08 454.55 307.88 C 451.56 308.59 448.48 308.56 445.45 308.18 C 445.80 308.15 446.50 308.09 446.85 308.06 C 438.57 305.90 430.38 303.40 422.12 301.14 C 416.66 300.34 411.11 300.98 405.61 300.76 C 405.16 302.26 404.69 303.76 404.22 305.27 C 396.99 305.21 389.60 306.27 382.48 304.75 C 382.41 303.42 382.33 302.09 382.27 300.76 C 367.85 300.90 353.43 300.56 339.02 300.94 C 339.84 301.22 340.67 301.51 341.50 301.80 C 341.49 303.33 341.47 304.86 341.44 306.40 C 330.29 306.47 319.13 306.35 307.99 306.49 C 304.27 306.89 301.40 303.93 299.83 300.90 C 295.24 300.70 290.64 300.76 286.05 300.74 C 286.50 301.37 287.40 302.63 287.85 303.26 C 287.83 303.99 287.79 305.45 287.78 306.19 C 273.12 306.62 258.44 306.33 243.78 306.30 C 243.96 306.74 244.31 307.61 244.49 308.05 C 244.63 308.50 244.90 309.41 245.03 309.87 C 245.57 312.70 245.59 315.60 245.76 318.48 C 245.80 318.79 245.89 319.42 245.93 319.73 C 245.98 319.98 246.07 320.47 246.12 320.71 C 248.60 338.97 250.36 357.33 252.38 375.64 C 258.61 376.01 264.99 376.02 271.03 377.71 C 275.17 378.72 277.15 383.09 276.71 387.06 C 268.38 390.38 260.09 393.83 251.94 397.60 C 251.28 399.02 250.59 400.44 249.84 401.83 L 248.38 400.61 C 249.28 398.17 250.48 395.76 250.58 393.10 C 251.02 385.74 250.68 378.35 249.85 371.02 C 248.46 355.02 246.19 339.11 244.54 323.14 C 243.81 315.85 243.64 307.66 238.22 302.05 C 239.46 302.57 240.72 303.12 241.99 303.61 C 244.50 304.75 247.32 304.28 249.99 304.37 C 261.96 304.30 273.93 304.40 285.91 304.33 L 285.32 302.89 C 284.75 301.42 284.07 300.01 283.33 298.62 C 290.91 298.70 298.51 298.82 306.05 297.78 C 316.69 298.03 327.42 297.05 338.00 298.59 C 352.62 298.76 367.26 298.50 381.89 298.69 L 383.76 298.87 C 383.94 300.44 384.20 302.00 384.46 303.57 C 390.67 303.48 397.14 304.47 403.20 303.10 Z" fill="#152537" opacity="1.00" stroke="#152537" stroke-width="0.25"/>
<path d="M 68.50 295.74 C 71.73 295.75 74.96 295.77 78.20 295.82 C 77.89 297.65 77.63 299.50 77.38 301.35 C 74.75 301.58 72.11 301.73 69.46 301.78 C 69.13 299.77 68.80 297.76 68.50 295.74 Z" fill="#fffeff" opacity="1.00" stroke="#fffeff" stroke-width="0.25"/>
<path d="M 115.19 297.53 C 115.62 297.33 116.46 296.93 116.89 296.73 C 114.31 302.24 115.48 308.41 116.15 314.20 C 117.01 322.22 118.13 330.22 118.87 338.25 C 118.25 336.28 117.53 334.35 116.66 332.48 C 116.37 332.24 115.81 331.76 115.52 331.52 C 112.40 331.30 109.22 331.65 106.14 331.03 L 105.14 329.48 C 108.88 329.31 112.64 329.44 116.37 329.07 C 112.43 327.99 108.30 328.32 104.26 328.17 C 104.19 329.66 104.13 331.15 104.01 332.64 C 103.64 333.10 102.92 334.02 102.55 334.48 C 102.36 332.16 102.25 329.83 102.18 327.50 C 99.91 327.46 97.65 327.43 95.39 327.31 L 95.05 327.09 C 90.60 324.75 85.09 327.40 80.36 325.49 C 89.35 324.94 98.36 325.34 107.36 325.40 C 107.40 323.81 107.43 322.22 107.46 320.64 C 109.71 320.40 111.94 319.97 114.16 319.52 C 102.45 318.91 90.72 319.57 79.00 319.15 C 67.51 318.75 55.95 319.90 44.50 318.67 C 67.90 318.45 91.30 318.65 114.71 318.59 C 114.38 315.77 114.00 312.96 113.76 310.14 C 113.72 309.55 113.65 308.37 113.61 307.78 C 113.57 307.22 113.50 306.10 113.46 305.54 C 112.52 305.00 111.56 304.49 110.60 304.00 C 110.67 303.01 110.82 301.04 110.89 300.06 C 110.94 299.74 111.03 299.11 111.08 298.79 C 112.04 298.65 113.00 298.51 113.97 298.37 C 114.27 298.16 114.89 297.74 115.19 297.53 Z" fill="#171a34" opacity="1.00" stroke="#171a34" stroke-width="0.25"/>
<path d="M 303.77 299.90 C 312.85 299.41 321.96 299.91 331.06 299.66 C 333.21 299.40 335.13 300.50 337.03 301.32 C 333.77 302.30 330.35 301.96 327.00 301.93 C 319.95 301.78 312.89 302.16 305.84 301.80 C 305.12 301.19 304.43 300.56 303.77 299.90 Z" fill="#fefeff" opacity="1.00" stroke="#fefeff" stroke-width="0.25"/>
<path d="M 339.02 300.94 C 353.43 300.56 367.85 300.90 382.27 300.76 C 382.33 302.09 382.41 303.42 382.48 304.75 C 389.60 306.27 396.99 305.21 404.22 305.27 C 404.69 303.76 405.16 302.26 405.61 300.76 C 411.11 300.98 416.66 300.34 422.12 301.14 C 430.38 303.40 438.57 305.90 446.85 308.06 C 446.50 308.09 445.80 308.15 445.45 308.18 C 429.33 307.54 413.18 308.02 397.04 307.84 C 377.36 308.30 357.67 307.40 337.99 308.08 C 326.35 307.43 314.69 308.61 303.06 307.89 C 283.54 308.12 264.01 308.14 244.49 308.05 C 244.31 307.61 243.96 306.74 243.78 306.30 C 258.44 306.33 273.12 306.62 287.78 306.19 C 287.79 305.45 287.83 303.99 287.85 303.26 C 287.40 302.63 286.50 301.37 286.05 300.74 C 290.64 300.76 295.24 300.70 299.83 300.90 C 301.40 303.93 304.27 306.89 307.99 306.49 C 319.13 306.35 330.29 306.47 341.44 306.40 C 341.47 304.86 341.49 303.33 341.50 301.80 C 340.67 301.51 339.84 301.22 339.02 300.94 Z" fill="#feffff" opacity="1.00" stroke="#feffff" stroke-width="0.25"/>
<path d="M 84.83 301.47 C 88.16 300.61 91.61 300.70 95.02 300.79 C 99.13 305.15 106.75 303.83 110.89 300.06 C 110.82 301.04 110.67 303.01 110.60 304.00 C 111.56 304.49 112.52 305.00 113.46 305.54 C 113.50 306.10 113.57 307.22 113.61 307.78 C 97.07 307.93 80.54 307.73 64.00 307.89 C 61.75 307.87 59.50 307.72 57.26 307.55 C 66.44 305.48 75.70 303.76 84.83 301.47 Z" fill="#feffff" opacity="1.00" stroke="#feffff" stroke-width="0.25"/>
<path d="M 337.03 301.32 C 337.23 301.27 337.62 301.18 337.81 301.13 C 337.63 301.55 337.28 302.41 337.10 302.83 C 338.51 303.07 340.24 303.02 340.49 304.82 L 339.89 304.69 C 338.29 304.29 336.66 303.98 335.01 303.99 C 325.77 304.00 316.50 304.44 307.28 303.63 C 306.92 303.17 306.20 302.26 305.84 301.80 C 312.89 302.16 319.95 301.78 327.00 301.93 C 330.35 301.96 333.77 302.30 337.03 301.32 Z" fill="#535460" opacity="1.00" stroke="#535460" stroke-width="0.25"/>
<path d="M 241.18 302.66 C 255.89 302.81 270.61 302.45 285.32 302.89 L 285.91 304.33 C 273.93 304.40 261.96 304.30 249.99 304.37 C 247.32 304.28 244.50 304.75 241.99 303.61 L 241.18 302.66 Z" fill="#edeffb" opacity="1.00" stroke="#edeffb" stroke-width="0.25"/>
<path d="M 307.28 303.63 C 316.50 304.44 325.77 304.00 335.01 303.99 C 336.66 303.98 338.29 304.29 339.89 304.69 C 328.55 305.26 317.15 305.06 305.80 304.81 C 306.17 304.52 306.91 303.93 307.28 303.63 Z" fill="#7b7e8d" opacity="1.00" stroke="#7b7e8d" stroke-width="0.25"/>
<path d="M 244.49 308.05 C 264.01 308.14 283.54 308.12 303.06 307.89 C 314.69 308.61 326.35 307.43 337.99 308.08 C 357.67 307.40 377.36 308.30 397.04 307.84 C 413.18 308.02 429.33 307.54 445.45 308.18 C 448.48 308.56 451.56 308.59 454.55 307.88 C 455.57 307.93 456.57 308.17 457.56 308.60 C 457.56 312.54 457.58 316.49 457.58 320.44 C 450.67 320.88 443.73 320.59 436.81 320.59 C 436.67 353.61 436.84 386.62 436.71 419.64 C 457.28 420.03 477.89 419.89 498.47 419.71 C 498.50 420.59 498.53 421.48 498.57 422.37 C 477.96 422.30 457.33 422.09 436.72 422.48 C 436.86 430.89 436.80 439.31 436.71 447.73 C 407.78 446.98 378.79 447.47 349.83 447.35 C 347.14 442.64 344.84 437.72 342.42 432.88 L 342.69 432.23 L 343.45 430.59 C 345.12 433.94 346.89 437.24 348.67 440.54 C 348.92 402.47 348.80 364.39 348.76 326.32 C 347.01 324.52 345.28 322.68 343.28 321.16 C 342.80 321.02 341.86 320.75 341.38 320.61 C 309.63 320.81 277.87 320.56 246.12 320.71 C 246.07 320.47 245.98 319.98 245.93 319.73 C 245.89 319.42 245.80 318.79 245.76 318.48 C 315.70 318.78 385.65 318.47 455.60 318.60 C 455.62 315.78 455.65 312.98 455.71 310.17 C 450.49 309.65 445.25 310.25 440.02 310.15 C 377.69 310.17 315.36 310.13 253.04 310.17 C 250.36 310.17 247.70 310.03 245.03 309.87 C 244.90 309.41 244.63 308.50 244.49 308.05 Z" fill="#251321" opacity="1.00" stroke="#251321" stroke-width="0.25"/>
<path d="M 42.70 308.14 L 44.38 308.71 C 44.42 309.09 44.48 309.85 44.51 310.23 C 44.60 313.04 44.48 315.86 44.50 318.67 C 55.95 319.90 67.51 318.75 79.00 319.15 C 90.72 319.57 102.45 318.91 114.16 319.52 C 111.94 319.97 109.71 320.40 107.46 320.64 C 98.52 320.69 89.57 320.65 80.62 320.63 C 80.54 322.25 80.45 323.87 80.36 325.49 C 85.09 327.40 90.60 324.75 95.05 327.09 C 94.49 327.12 93.37 327.18 92.81 327.21 C 88.67 327.48 84.51 327.37 80.37 327.39 C 79.78 358.20 78.77 389.00 78.35 419.82 C 78.34 420.43 78.32 421.65 78.32 422.26 C 78.34 430.74 77.76 439.20 77.55 447.68 C 74.97 447.78 72.39 447.78 69.81 447.75 C 69.39 439.26 69.71 430.76 69.61 422.27 C 69.61 421.66 69.61 420.45 69.61 419.84 C 69.56 386.75 69.65 353.66 69.52 320.56 C 60.53 320.64 51.52 320.91 42.54 320.37 C 42.42 316.29 42.37 312.21 42.70 308.14 Z" fill="#21111b" opacity="1.00" stroke="#21111b" stroke-width="0.25"/>
<path d="M 44.51 310.23 C 50.69 309.47 56.88 310.29 63.07 310.18 C 79.96 310.09 96.86 310.22 113.76 310.14 C 114.00 312.96 114.38 315.77 114.71 318.59 C 91.30 318.65 67.90 318.45 44.50 318.67 C 44.48 315.86 44.60 313.04 44.51 310.23 Z" fill="#fca5ab" opacity="1.00" stroke="#fca5ab" stroke-width="0.25"/>
<path d="M 245.03 309.87 C 247.70 310.03 250.36 310.17 253.04 310.17 C 315.36 310.13 377.69 310.17 440.02 310.15 C 445.25 310.25 450.49 309.65 455.71 310.17 C 455.65 312.98 455.62 315.78 455.60 318.60 C 385.65 318.47 315.70 318.78 245.76 318.48 C 245.59 315.60 245.57 312.70 245.03 309.87 Z" fill="#fca6ab" opacity="1.00" stroke="#fca6ab" stroke-width="0.25"/>
<path d="M 78.43 320.54 C 78.20 339.37 77.33 358.19 77.25 377.03 C 76.26 399.92 76.61 422.85 75.63 445.75 C 74.28 445.66 72.94 445.57 71.59 445.48 C 71.71 403.88 71.52 362.28 71.62 320.69 C 73.89 320.65 76.16 320.60 78.43 320.54 Z" fill="#fba5ad" opacity="1.00" stroke="#fba5ad" stroke-width="0.25"/>
<path d="M 377.67 320.55 C 384.43 319.78 391.25 320.15 398.04 320.05 C 399.22 320.27 400.85 319.79 401.80 320.62 C 401.80 322.16 401.79 323.71 401.75 325.26 L 401.74 325.72 C 393.67 325.69 385.58 326.15 377.54 325.43 C 377.58 323.80 377.62 322.17 377.67 320.55 Z" fill="#181a31" opacity="1.00" stroke="#181a31" stroke-width="0.25"/>
<path d="M 423.07 320.59 C 426.96 320.61 430.85 320.62 434.75 320.53 C 434.70 362.21 434.68 403.90 434.76 445.58 C 433.61 445.61 432.47 445.65 431.34 445.70 C 431.54 405.74 431.25 365.77 431.46 325.81 C 428.76 323.92 425.88 322.30 423.07 320.59 Z" fill="#f6b1b7" opacity="1.00" stroke="#f6b1b7" stroke-width="0.25"/>
<path d="M 80.62 320.63 C 89.57 320.65 98.52 320.69 107.46 320.64 C 107.43 322.22 107.40 323.81 107.36 325.40 C 98.36 325.34 89.35 324.94 80.36 325.49 C 80.45 323.87 80.54 322.25 80.62 320.63 Z" fill="#b8c2cc" opacity="1.00" stroke="#b8c2cc" stroke-width="0.25"/>
<path d="M 246.12 320.71 C 277.87 320.56 309.63 320.81 341.38 320.61 C 341.28 353.65 341.27 386.69 341.39 419.72 C 296.31 419.96 251.21 419.85 206.12 419.78 L 204.78 419.62 C 204.71 416.58 204.71 413.55 204.74 410.51 C 215.17 411.08 225.62 409.97 235.95 408.64 C 241.17 408.04 246.68 406.32 249.84 401.83 C 250.59 400.44 251.28 399.02 251.94 397.60 C 260.09 393.83 268.38 390.38 276.71 387.06 C 277.15 383.09 275.17 378.72 271.03 377.71 C 264.99 376.02 258.61 376.01 252.38 375.64 C 250.36 357.33 248.60 338.97 246.12 320.71 Z" fill="#ffffff" opacity="1.00" stroke="#ffffff" stroke-width="0.25"/>
<path d="M 341.38 320.61 C 341.86 320.75 342.80 321.02 343.28 321.16 C 343.50 357.63 343.16 394.12 343.45 430.59 L 342.69 432.23 C 342.38 432.12 341.77 431.90 341.46 431.79 C 341.13 428.67 341.33 425.53 341.34 422.41 C 296.02 422.02 250.67 422.58 205.35 422.13 C 205.54 421.54 205.93 420.37 206.12 419.78 C 251.21 419.85 296.31 419.96 341.39 419.72 C 341.27 386.69 341.28 353.65 341.38 320.61 Z" fill="#19182c" opacity="1.00" stroke="#19182c" stroke-width="0.25"/>
<path d="M 343.28 321.16 C 345.28 322.68 347.01 324.52 348.76 326.32 C 348.80 364.39 348.92 402.47 348.67 440.54 C 346.89 437.24 345.12 433.94 343.45 430.59 C 343.16 394.12 343.50 357.63 343.28 321.16 Z" fill="#ae94b5" opacity="1.00" stroke="#ae94b5" stroke-width="0.25"/>
<path d="M 346.40 320.68 C 356.82 320.50 367.24 320.76 377.67 320.55 C 377.62 322.17 377.58 323.80 377.54 325.43 C 368.65 325.19 359.76 325.25 350.87 325.35 C 349.30 323.87 347.81 322.31 346.40 320.68 Z" fill="#b7c2cb" opacity="1.00" stroke="#b7c2cb" stroke-width="0.25"/>
<path d="M 401.80 320.62 C 407.55 320.73 413.32 320.44 419.07 320.70 C 421.51 321.91 423.68 323.58 425.88 325.19 C 417.83 325.37 409.79 325.27 401.75 325.26 C 401.79 323.71 401.80 322.16 401.80 320.62 Z" fill="#b4c0c9" opacity="1.00" stroke="#b4c0c9" stroke-width="0.25"/>
<path d="M 80.37 327.39 C 84.51 327.37 88.67 327.48 92.81 327.21 C 93.40 331.79 92.82 336.39 92.90 340.98 C 93.67 355.32 92.27 369.66 93.10 384.00 C 93.42 388.34 92.92 392.66 92.32 396.95 C 92.09 404.55 92.25 412.16 92.26 419.76 C 87.62 419.86 82.99 419.85 78.35 419.82 C 78.77 389.00 79.78 358.20 80.37 327.39 Z" fill="#feffff" opacity="1.00" stroke="#feffff" stroke-width="0.25"/>
<path d="M 92.81 327.21 C 93.37 327.18 94.49 327.12 95.05 327.09 L 95.39 327.31 C 95.09 349.68 95.22 372.07 95.32 394.44 C 102.99 394.47 110.67 394.23 118.34 394.58 C 118.37 402.98 118.36 411.39 118.35 419.79 C 138.91 420.00 159.48 419.64 180.03 420.00 C 184.43 419.81 188.84 419.77 193.22 420.18 C 193.22 420.72 193.21 421.79 193.21 422.32 C 168.24 422.33 143.26 422.13 118.30 422.42 C 117.77 426.97 120.31 433.38 115.42 436.23 C 109.64 436.86 103.75 436.31 97.92 436.51 C 95.82 436.78 93.88 435.66 92.61 434.06 C 91.84 430.21 92.33 426.25 92.30 422.36 C 87.64 422.23 82.98 422.32 78.32 422.26 C 78.32 421.65 78.34 420.43 78.35 419.82 C 82.99 419.85 87.62 419.86 92.26 419.76 C 92.25 412.16 92.09 404.55 92.32 396.95 C 92.92 392.66 93.42 388.34 93.10 384.00 C 92.27 369.66 93.67 355.32 92.90 340.98 C 92.82 336.39 93.40 331.79 92.81 327.21 Z" fill="#1e1c27" opacity="1.00" stroke="#1e1c27" stroke-width="0.25"/>
<path d="M 351.15 327.36 C 377.24 327.51 403.33 327.20 429.42 327.46 C 429.31 339.16 429.29 350.86 429.44 362.55 C 403.21 362.75 376.96 362.87 350.73 362.49 C 351.10 350.78 350.59 339.05 351.15 327.36 Z" fill="#f1b4ba" opacity="1.00" stroke="#f1b4ba" stroke-width="0.25"/>
<path d="M 95.39 327.31 C 97.65 327.43 99.91 327.46 102.18 327.50 C 102.25 329.83 102.36 332.16 102.55 334.48 C 107.17 334.80 111.81 334.71 116.44 334.68 C 119.02 352.44 121.12 370.28 123.87 388.02 C 125.20 395.08 130.71 400.78 137.15 403.62 C 145.63 407.48 155.09 407.80 164.17 409.12 C 173.88 409.84 183.59 410.64 193.34 410.66 C 193.28 413.83 193.25 417.01 193.22 420.18 C 188.84 419.77 184.43 419.81 180.03 420.00 C 159.48 419.64 138.91 420.00 118.35 419.79 C 118.36 411.39 118.37 402.98 118.34 394.58 C 110.67 394.23 102.99 394.47 95.32 394.44 C 95.22 372.07 95.09 349.68 95.39 327.31 Z" fill="#feffff" opacity="1.00" stroke="#feffff" stroke-width="0.25"/>
<path d="M 104.26 328.17 C 108.30 328.32 112.43 327.99 116.37 329.07 C 112.64 329.44 108.88 329.31 105.14 329.48 L 106.14 331.03 C 109.22 331.65 112.40 331.30 115.52 331.52 C 115.81 331.76 116.37 332.24 116.66 332.48 C 112.44 332.68 108.22 332.60 104.01 332.64 C 104.13 331.15 104.19 329.66 104.26 328.17 Z" fill="#aeb5bf" opacity="1.00" stroke="#aeb5bf" stroke-width="0.25"/>
<path d="M 353.03 329.18 C 360.34 328.96 367.67 329.04 374.98 329.05 C 376.57 328.74 377.49 329.95 377.71 331.40 C 378.07 332.77 378.38 334.15 378.70 335.54 C 387.02 335.41 395.34 335.58 403.66 335.49 C 404.18 335.48 405.21 335.47 405.72 335.46 C 405.79 333.40 405.54 331.35 405.35 329.31 C 412.48 328.80 419.73 328.92 426.90 329.09 C 427.25 339.66 427.45 350.29 426.92 360.86 C 403.61 361.33 380.30 360.82 357.00 361.09 C 355.50 361.02 352.57 361.40 352.86 359.03 C 352.66 350.38 353.08 341.71 352.59 333.07 C 352.49 331.75 352.76 330.46 353.03 329.18 Z" fill="#ffa9af" opacity="1.00" stroke="#ffa9af" stroke-width="0.25"/>
<path d="M 377.71 331.40 C 378.27 331.20 379.41 330.80 379.97 330.60 C 387.82 330.38 395.68 330.65 403.53 330.49 C 403.62 332.16 403.65 333.82 403.66 335.49 C 395.34 335.58 387.02 335.41 378.70 335.54 C 378.38 334.15 378.07 332.77 377.71 331.40 Z" fill="#331420" opacity="1.00" stroke="#331420" stroke-width="0.25"/>
<path d="M 380.42 332.16 C 387.43 332.08 394.50 331.77 401.50 332.30 C 401.66 332.67 401.99 333.42 402.16 333.80 C 394.74 334.15 387.30 334.02 379.88 333.89 C 380.01 333.46 380.28 332.59 380.42 332.16 Z" fill="#6a515f" opacity="1.00" stroke="#6a515f" stroke-width="0.25"/>
<path d="M 104.01 332.64 C 108.22 332.60 112.44 332.68 116.66 332.48 C 117.53 334.35 118.25 336.28 118.87 338.25 C 121.04 354.16 123.10 370.08 125.43 385.96 C 126.31 393.63 132.33 399.90 139.42 402.43 C 147.45 405.39 156.07 406.04 164.49 407.18 C 172.77 407.75 181.04 408.54 189.34 408.63 C 205.66 408.88 222.13 409.09 238.27 406.24 C 242.16 405.69 245.43 403.49 248.34 400.98 L 249.84 401.83 C 246.68 406.32 241.17 408.04 235.95 408.64 C 225.62 409.97 215.17 411.08 204.74 410.51 C 201.17 410.00 197.57 409.79 193.97 410.07 C 194.29 411.95 194.64 413.82 194.90 415.72 C 195.67 425.36 194.93 435.06 195.33 444.73 C 197.79 444.78 200.25 444.82 202.71 444.84 C 202.78 435.16 202.74 425.48 202.80 415.81 C 203.48 417.06 204.09 418.36 204.78 419.62 L 206.12 419.78 C 205.93 420.37 205.54 421.54 205.35 422.13 C 205.23 422.37 204.98 422.84 204.85 423.07 C 204.63 427.77 204.78 432.48 204.74 437.19 C 205.32 437.29 206.47 437.49 207.05 437.59 C 212.59 439.92 218.14 442.37 223.99 443.85 C 227.73 445.03 231.48 446.22 235.03 447.90 C 235.81 450.77 238.47 452.38 240.39 454.43 C 242.08 456.11 243.84 457.72 245.40 459.52 L 244.39 460.80 C 240.87 457.94 237.61 454.79 234.52 451.48 C 233.13 449.92 231.01 449.45 229.16 448.67 C 220.93 445.69 213.07 441.71 204.68 439.14 C 204.65 440.21 204.57 442.36 204.54 443.44 C 214.10 447.09 223.71 450.62 233.24 454.37 C 230.91 456.69 228.06 454.15 225.58 453.57 C 219.42 451.26 213.38 448.62 207.13 446.58 C 204.43 445.64 201.71 447.12 198.99 447.21 C 196.68 447.56 194.60 446.39 192.71 445.24 L 193.09 443.23 C 193.22 441.83 193.24 440.42 193.31 439.02 C 183.80 440.88 174.81 444.65 165.51 447.29 C 161.16 448.94 156.01 449.07 152.56 452.53 C 149.73 455.27 145.73 456.73 143.58 460.15 C 148.84 457.67 153.85 454.55 159.57 453.18 C 160.79 453.47 162.00 453.79 163.21 454.13 C 158.69 455.39 154.17 456.79 150.09 459.14 C 147.40 460.27 144.93 462.30 141.92 462.37 C 141.02 461.48 140.58 460.38 140.61 459.06 C 145.60 455.74 149.98 451.51 155.10 448.40 C 167.82 444.34 180.67 440.66 193.31 436.36 C 193.15 431.68 193.20 427.00 193.21 422.32 C 193.21 421.79 193.22 420.72 193.22 420.18 C 193.25 417.01 193.28 413.83 193.34 410.66 C 183.59 410.64 173.88 409.84 164.17 409.12 C 155.09 407.80 145.63 407.48 137.15 403.62 C 130.71 400.78 125.20 395.08 123.87 388.02 C 121.12 370.28 119.02 352.44 116.44 334.68 C 111.81 334.71 107.17 334.80 102.55 334.48 C 102.92 334.02 103.64 333.10 104.01 332.64 Z" fill="#141b2b" opacity="1.00" stroke="#141b2b" stroke-width="0.25"/>
<path d="M 350.90 367.99 C 351.05 366.87 351.24 365.77 351.49 364.67 C 376.33 364.86 401.18 364.70 426.01 364.77 C 427.18 364.86 428.34 365.05 429.48 365.34 C 429.26 391.78 429.30 418.23 429.46 444.66 C 426.03 445.52 422.47 445.13 418.98 445.18 C 397.67 445.22 376.37 445.16 355.06 445.20 C 353.53 445.26 352.05 444.91 350.61 444.49 C 351.16 419.00 350.61 393.49 350.90 367.99 Z" fill="#ffa9af" opacity="1.00" stroke="#ffa9af" stroke-width="0.25"/>
<path d="M 378.28 372.42 C 386.81 372.38 395.35 372.25 403.88 372.55 C 403.80 374.16 403.68 375.77 403.50 377.37 C 395.20 377.31 386.90 377.34 378.61 377.35 C 378.44 375.71 378.34 374.06 378.28 372.42 Z" fill="#21111b" opacity="1.00" stroke="#21111b" stroke-width="0.25"/>
<path d="M 380.17 374.34 C 387.38 374.48 394.59 374.43 401.80 374.38 C 401.80 374.67 401.81 375.26 401.82 375.55 C 394.64 375.40 387.45 375.42 380.27 375.55 C 380.25 375.25 380.20 374.64 380.17 374.34 Z" fill="#ae94b5" opacity="1.00" stroke="#ae94b5" stroke-width="0.25"/>
<path d="M 252.45 377.40 C 258.31 378.09 264.30 378.04 270.03 379.50 C 272.89 380.12 274.40 382.86 274.87 385.53 C 267.31 388.40 260.06 392.02 252.49 394.85 C 252.97 389.04 252.67 383.21 252.45 377.40 Z" fill="#63c9e1" opacity="1.00" stroke="#63c9e1" stroke-width="0.25"/>
<path d="M 94.19 396.41 C 101.62 396.52 109.04 396.30 116.47 396.48 C 116.46 397.49 116.44 399.49 116.43 400.50 C 109.00 400.44 101.58 400.51 94.16 400.43 C 94.17 399.09 94.18 397.75 94.19 396.41 Z" fill="#fefeff" opacity="1.00" stroke="#fefeff" stroke-width="0.25"/>
<path d="M 13.03 401.03 C 24.98 399.31 37.15 399.29 49.10 400.90 C 51.46 401.28 53.76 401.92 55.98 402.79 C 56.37 404.63 54.84 405.65 53.85 406.82 L 53.64 405.57 C 45.67 408.07 37.18 407.52 28.94 407.69 C 22.03 407.65 14.99 407.57 8.32 405.52 C 8.59 407.84 8.42 410.26 9.02 412.52 C 10.30 413.50 11.40 414.64 12.33 415.94 C 11.65 415.79 10.30 415.48 9.62 415.32 C 12.12 425.13 12.51 435.37 14.44 445.30 C 16.30 445.77 18.16 446.26 20.04 446.65 C 29.39 448.24 39.13 447.82 48.30 445.37 C 49.66 435.48 51.19 425.59 51.89 415.63 C 41.74 417.84 31.28 417.83 20.96 417.31 L 18.09 417.03 C 18.85 416.47 19.62 415.92 20.39 415.38 C 21.71 415.44 23.04 415.50 24.37 415.55 C 34.09 415.87 43.96 415.77 53.41 413.21 C 53.60 410.53 53.30 407.49 55.53 405.51 C 55.81 408.09 55.64 410.71 55.59 413.30 C 54.95 414.13 54.31 414.96 53.67 415.79 C 53.67 417.14 53.67 418.49 53.66 419.85 C 58.98 419.83 64.29 419.85 69.61 419.84 C 69.61 420.45 69.61 421.66 69.61 422.27 C 64.20 422.31 58.79 422.27 53.38 422.34 C 52.36 430.41 51.37 438.48 50.29 446.54 C 42.32 449.83 33.50 449.68 25.04 449.39 C 20.81 448.90 16.46 448.44 12.58 446.56 C 11.15 436.29 9.32 426.07 8.47 415.74 C 7.91 414.89 7.34 414.06 6.77 413.23 C 6.67 409.76 6.48 406.31 6.55 402.84 C 8.67 402.10 10.81 401.39 13.03 401.03 Z" fill="#1f1d29" opacity="1.00" stroke="#1f1d29" stroke-width="0.25"/>
<path d="M 10.66 403.59 C 24.38 401.04 38.73 400.86 52.43 403.65 C 43.70 406.71 34.12 405.46 25.01 405.72 C 20.27 405.30 14.80 406.33 10.66 403.59 Z" fill="#babec8" opacity="1.00" stroke="#babec8" stroke-width="0.25"/>
<path d="M 94.15 402.42 C 101.59 402.40 109.02 402.37 116.46 402.41 C 116.35 411.92 116.51 421.43 116.39 430.95 C 116.77 432.91 114.98 434.77 113.00 434.49 C 107.66 434.52 102.32 434.55 96.98 434.46 C 95.64 434.51 94.10 433.49 94.28 432.02 C 93.99 422.16 94.25 412.28 94.15 402.42 Z" fill="#fefeff" opacity="1.00" stroke="#fefeff" stroke-width="0.25"/>
<path d="M 193.97 410.07 C 197.57 409.79 201.17 410.00 204.74 410.51 C 204.71 413.55 204.71 416.58 204.78 419.62 C 204.09 418.36 203.48 417.06 202.80 415.81 C 200.17 415.64 197.53 415.68 194.90 415.72 C 194.64 413.82 194.29 411.95 193.97 410.07 Z" fill="#141833" opacity="1.00" stroke="#141833" stroke-width="0.25"/>
<path d="M 9.02 412.52 C 11.68 413.13 14.39 413.57 16.91 414.67 L 16.14 414.84 C 14.79 414.88 13.28 414.60 12.04 415.26 C 13.75 415.93 15.58 416.50 17.44 416.26 C 17.55 416.04 17.77 415.59 17.89 415.37 C 19.88 414.05 22.24 415.39 24.37 415.55 C 23.04 415.50 21.71 415.44 20.39 415.38 C 19.62 415.92 18.85 416.47 18.09 417.03 L 20.96 417.31 C 19.71 417.50 18.47 417.74 17.24 417.99 C 18.10 427.54 20.08 437.02 20.04 446.65 C 18.16 446.26 16.30 445.77 14.44 445.30 C 12.51 435.37 12.12 425.13 9.62 415.32 C 10.30 415.48 11.65 415.79 12.33 415.94 C 11.40 414.64 10.30 413.50 9.02 412.52 Z" fill="#dad9dd" opacity="1.00" stroke="#dad9dd" stroke-width="0.25"/>
<path d="M 12.04 415.26 C 13.28 414.60 14.79 414.88 16.14 414.84 L 17.20 415.04 L 17.89 415.37 C 17.77 415.59 17.55 416.04 17.44 416.26 C 15.58 416.50 13.75 415.93 12.04 415.26 Z" fill="#262631" opacity="1.00" stroke="#262631" stroke-width="0.25"/>
<path d="M 20.96 417.31 C 31.28 417.83 41.74 417.84 51.89 415.63 C 51.19 425.59 49.66 435.48 48.30 445.37 C 39.13 447.82 29.39 448.24 20.04 446.65 C 20.08 437.02 18.10 427.54 17.24 417.99 C 18.47 417.74 19.71 417.50 20.96 417.31 Z" fill="#ffffff" opacity="1.00" stroke="#ffffff" stroke-width="0.25"/>
<path d="M 194.90 415.72 C 197.53 415.68 200.17 415.64 202.80 415.81 C 202.74 425.48 202.78 435.16 202.71 444.84 C 200.25 444.82 197.79 444.78 195.33 444.73 C 194.93 435.06 195.67 425.36 194.90 415.72 Z" fill="#67cae2" opacity="1.00" stroke="#67cae2" stroke-width="0.25"/>
<path d="M 165.51 447.29 C 174.81 444.65 183.80 440.88 193.31 439.02 C 193.24 440.42 193.22 441.83 193.09 443.23 C 181.82 446.20 170.72 449.78 159.57 453.18 C 153.85 454.55 148.84 457.67 143.58 460.15 C 145.73 456.73 149.73 455.27 152.56 452.53 C 156.01 449.07 161.16 448.94 165.51 447.29 Z" fill="#fffeff" opacity="1.00" stroke="#fffeff" stroke-width="0.25"/>
<path d="M 204.68 439.14 C 213.07 441.71 220.93 445.69 229.16 448.67 C 231.01 449.45 233.13 449.92 234.52 451.48 C 237.61 454.79 240.87 457.94 244.39 460.80 C 244.17 461.08 243.71 461.64 243.48 461.92 C 239.91 459.61 236.91 456.51 233.24 454.37 C 223.71 450.62 214.10 447.09 204.54 443.44 C 204.57 442.36 204.65 440.21 204.68 439.14 Z" fill="#fffeff" opacity="1.00" stroke="#fffeff" stroke-width="0.25"/>
<path d="M 159.57 453.18 C 170.72 449.78 181.82 446.20 193.09 443.23 L 192.71 445.24 C 187.58 446.80 182.45 448.35 177.26 449.69 C 177.57 451.98 178.01 454.36 177.11 456.59 C 174.65 458.13 171.81 457.83 169.42 456.33 C 169.21 455.01 168.97 453.70 168.71 452.40 C 166.88 453.01 165.05 453.58 163.21 454.13 C 162.00 453.79 160.79 453.47 159.57 453.18 Z" fill="#171a30" opacity="1.00" stroke="#171a30" stroke-width="0.25"/>
<path d="M 177.26 449.69 C 182.45 448.35 187.58 446.80 192.71 445.24 C 194.60 446.39 196.68 447.56 198.99 447.21 C 201.71 447.12 204.43 445.64 207.13 446.58 C 213.38 448.62 219.42 451.26 225.58 453.57 C 221.93 455.18 217.82 454.34 213.96 454.56 C 201.66 454.90 189.40 456.02 177.11 456.59 C 178.01 454.36 177.57 451.98 177.26 449.69 Z" fill="#feffff" opacity="1.00" stroke="#feffff" stroke-width="0.25"/>
<path d="M 335.65 455.90 C 341.14 454.95 346.37 451.11 352.10 452.86 C 358.33 454.94 364.56 457.09 370.76 459.26 C 372.86 459.92 372.07 462.59 372.27 464.17 C 373.44 464.20 374.60 464.30 375.77 464.45 C 374.21 464.80 372.60 464.64 371.04 464.54 C 366.48 466.17 361.88 468.11 356.98 468.30 C 353.84 467.98 351.00 466.49 348.06 465.47 C 344.34 464.00 340.40 463.15 336.75 461.49 C 334.99 461.01 335.43 458.92 335.25 457.56 C 335.35 457.14 335.55 456.31 335.65 455.90 Z" fill="#0d162d" opacity="1.00" stroke="#0d162d" stroke-width="0.25"/>
<path d="M 163.21 454.13 C 165.05 453.58 166.88 453.01 168.71 452.40 C 168.97 453.70 169.21 455.01 169.42 456.33 L 169.14 457.23 C 162.74 457.42 156.49 459.28 150.09 459.14 C 154.17 456.79 158.69 455.39 163.21 454.13 Z" fill="#fcffff" opacity="1.00" stroke="#fcffff" stroke-width="0.25"/>
<path d="M 225.58 453.57 C 228.06 454.15 230.91 456.69 233.24 454.37 L 231.59 455.51 C 235.54 458.43 239.31 461.64 243.63 464.05 C 242.26 466.07 240.69 468.30 241.31 470.90 C 241.58 474.37 246.26 475.63 248.84 473.71 C 250.98 472.74 250.84 470.03 250.60 468.09 C 250.35 465.95 247.96 465.28 246.46 464.20 C 246.46 463.06 246.45 461.94 246.44 460.82 C 246.18 460.49 245.66 459.85 245.40 459.52 C 243.84 457.72 242.08 456.11 240.39 454.43 C 248.50 452.94 256.79 454.09 264.98 453.75 C 275.66 454.47 286.37 454.48 297.07 454.73 C 309.77 455.96 322.60 455.65 335.25 457.56 C 335.43 458.92 334.99 461.01 336.75 461.49 C 340.40 463.15 344.34 464.00 348.06 465.47 C 351.00 466.49 353.84 467.98 356.98 468.30 C 361.88 468.11 366.48 466.17 371.04 464.54 C 372.60 464.64 374.21 464.80 375.77 464.45 L 376.08 464.40 C 379.00 464.97 381.74 466.18 384.32 467.67 C 384.61 468.22 385.20 469.31 385.50 469.86 C 383.33 473.63 378.87 474.70 375.03 475.94 C 363.93 478.85 352.49 480.18 341.09 481.32 C 333.39 482.01 325.69 482.83 317.96 482.89 C 311.83 480.85 305.36 482.12 299.06 482.13 C 282.41 483.43 265.69 482.87 249.01 483.20 C 234.00 482.95 218.96 483.40 203.99 482.13 C 198.32 482.08 192.51 481.17 186.98 482.89 C 172.80 482.55 158.66 481.11 144.62 479.17 C 135.61 477.55 126.06 476.47 118.29 471.20 C 118.37 471.83 118.51 473.09 118.58 473.72 C 117.11 470.33 119.63 467.06 122.80 465.98 C 128.46 464.00 134.34 462.43 140.35 462.12 C 140.45 461.09 140.53 460.07 140.61 459.06 C 140.58 460.38 141.02 461.48 141.92 462.37 C 144.93 462.30 147.40 460.27 150.09 459.14 C 156.49 459.28 162.74 457.42 169.14 457.23 L 169.42 456.33 C 171.81 457.83 174.65 458.13 177.11 456.59 C 189.40 456.02 201.66 454.90 213.96 454.56 C 217.82 454.34 221.93 455.18 225.58 453.57 Z" fill="#62cce2" opacity="1.00" stroke="#62cce2" stroke-width="0.25"/>
<path d="M 337.25 457.27 C 342.55 455.76 348.32 452.67 353.81 455.22 C 359.04 457.20 364.43 458.77 369.63 460.80 C 369.72 461.20 369.91 462.00 370.00 462.40 C 366.40 463.52 362.87 465.04 359.10 465.52 C 352.59 463.72 346.35 461.02 339.94 458.88 C 338.98 458.46 337.76 458.30 337.25 457.27 Z" fill="#feffff" opacity="1.00" stroke="#feffff" stroke-width="0.25"/>
<path d="M 233.24 454.37 C 236.91 456.51 239.91 459.61 243.48 461.92 C 243.71 461.64 244.17 461.08 244.39 460.80 L 245.40 459.52 C 245.66 459.85 246.18 460.49 246.44 460.82 C 246.45 461.94 246.46 463.06 246.46 464.20 C 247.96 465.28 250.35 465.95 250.60 468.09 C 250.84 470.03 250.98 472.74 248.84 473.71 C 246.26 475.63 241.58 474.37 241.31 470.90 C 240.69 468.30 242.26 466.07 243.63 464.05 C 239.31 461.64 235.54 458.43 231.59 455.51 L 233.24 454.37 Z" fill="#191a33" opacity="1.00" stroke="#191a33" stroke-width="0.25"/>
<path d="M 135.92 466.11 C 136.83 463.63 139.60 463.10 141.93 463.05 C 145.95 464.88 146.71 471.57 142.04 473.03 C 137.91 475.08 133.89 469.87 135.92 466.11 Z" fill="#131935" opacity="1.00" stroke="#131935" stroke-width="0.25"/>
<path d="M 375.03 475.94 C 378.87 474.70 383.33 473.63 385.50 469.86 C 386.74 475.11 380.31 476.51 376.62 477.76 C 358.10 482.40 338.97 483.80 319.99 485.17 C 283.70 486.96 247.35 487.17 211.03 486.29 C 186.55 485.36 161.97 484.39 137.79 480.16 C 131.19 478.84 124.16 477.79 118.58 473.72 C 118.51 473.09 118.37 471.83 118.29 471.20 C 126.06 476.47 135.61 477.55 144.62 479.17 C 158.66 481.11 172.80 482.55 186.98 482.89 C 202.25 484.20 217.61 484.31 232.93 484.61 C 261.27 484.77 289.67 484.87 317.96 482.89 C 325.69 482.83 333.39 482.01 341.09 481.32 C 352.49 480.18 363.93 478.85 375.03 475.94 Z" fill="#102e41" opacity="1.00" stroke="#102e41" stroke-width="0.25"/>
<path d="M 186.98 482.89 C 192.51 481.17 198.32 482.08 203.99 482.13 C 218.96 483.40 234.00 482.95 249.01 483.20 C 265.69 482.87 282.41 483.43 299.06 482.13 C 305.36 482.12 311.83 480.85 317.96 482.89 C 289.67 484.87 261.27 484.77 232.93 484.61 C 217.61 484.31 202.25 484.20 186.98 482.89 Z" fill="#73c3d8" opacity="1.00" stroke="#73c3d8" stroke-width="0.25"/>
</svg>