<svg xmlns="http://www.w3.org/2000/svg" height="512pt" viewBox="0 0 512 512" width="512pt"><path d="M0 0h512v512H0V0Z" fill="#fcaa89" stroke="#fcaa89" stroke-width=".094"/><path d="M221.07 96.52c.94.21 1.87.44 2.81.68-.13.58-.37 1.74-.5 2.32-2.05.23-4.12.3-6.17.04.1-1.37.58-2.61 1.83-3.36l1.35 1.29c-.57 2.21 2.65 1.11 1.01-.36l-.33-.61Z" fill="#00015c" stroke="#00015c" stroke-width=".094"/><path d="M228.47 99.51c-1.24-1.5.66-4.21 2.47-3.28 1.56.31 2.74 1.48 2.7 3.13-1.72.16-3.48.7-5.17.15Z" fill="#0c1296" stroke="#0c1296" stroke-width=".094"/><path d="M236.96 98.68c.58-3.16 5.45-2.89 6.86-.65.45 2.92-2.98 2.09-4.76 2.26-.52-.4-1.57-1.21-2.1-1.61Z" fill="#0b0b73" stroke="#0b0b73" stroke-width=".094"/><path d="M206.39 99.6c-.7-2.97 2.78-1.96 4.47-2.14 1.67-.46 2.61 1.84 1.26 2.72-2.16.76-4.47.11-6.68-.03l.95-.55Z" fill="#0a0288" stroke="#0a0288" stroke-width=".094"/><path d="m220.39 97.49 1.01-.36c1.64 1.47-1.58 2.57-1.01.36Z" fill="#0241ff" stroke="#0241ff" stroke-width=".094"/><path d="M248.44 98.41c2.23-1.86 5.25-.64 6.72 1.55-1.36.47-2.72.91-4.08 1.36-.59-.3-1.76-.89-2.35-1.18-.07-.43-.22-1.3-.29-1.73Z" fill="#0a1190" stroke="#0a1190" stroke-width=".094"/><path d="M197.56 99.63c.02-1.8.84-2.2 2.46-1.21-.66.73-1.48 1.13-2.46 1.21Z" fill="#e7a1c0" stroke="#e7a1c0" stroke-width=".094"/><path d="m200.02 98.42 2.46.48c-1.64 1.87-3.83 2.21-6.12 1.44l1.2-.71c.98-.08 1.8-.48 2.46-1.21Z" fill="#000095" stroke="#000095" stroke-width=".094"/><path d="M196.36 100.34c2.29.77 4.48.43 6.12-1.44l.62-.46c.57 3.92-5.7 4.65-7.26 1.82l.52.08Z" fill="#000037" stroke="#000037" stroke-width=".094"/><path d="M257.96 99.87c.86-.19 2.57-.55 3.43-.73.13.07.4.21.53.28l.94-1.15c1.05.89 2.05 1.83 3.01 2.82-2.56 2.39-5.82.97-7.91-1.22Z" fill="#000053" stroke="#000053" stroke-width=".094"/><path d="m261.39 99.14.53.28c-.13-.07-.4-.21-.53-.28Z" fill="#0241ff" stroke="#0241ff" stroke-width=".094"/><path d="M270.26 100.48c1.82.26 3.62.6 5.42.99-.2.89-.39 1.78-.59 2.67-1.56.13-3.13.26-4.68.38-.07-1.35-.12-2.7-.15-4.04Z" fill="#1610a8" stroke="#1610a8" stroke-width=".094"/><path d="M186.25 101.49c2-.02 5.84-2.3 6.52.51-1.64 1.88-4.18 2.01-6.47 1.66-.01-.54-.04-1.63-.05-2.17Z" fill="#000251" stroke="#000251" stroke-width=".094"/><path d="M176.56 103.72c2.39-.38 4.81-.55 7.23-.37-2.07 1.18-3.74 4.58-6.53 3.2-1.33-.23-.55-1.94-.7-2.83Z" fill="#010064" stroke="#010064" stroke-width=".094"/><path d="M280.21 103.18c2.07.66 5.93.3 5.79 3.42-1.89-.01-3.78-.02-5.66-.02-.06-1.14-.1-2.27-.13-3.4Z" fill="#0d099a" stroke="#0d099a" stroke-width=".094"/><path d="M167.34 108.59c.18-2.99 3.89-1.84 5.81-1.58-.26 2.61-4.76 4.2-5.81 1.58Z" fill="#0c0578" stroke="#0c0578" stroke-width=".094"/><path d="M290.05 107.97c-.25-3.17 5.43-2.28 5.8.47-1.85.96-4.35 1.45-5.8-.47Z" fill="#00005a" stroke="#00005a" stroke-width=".094"/><path d="M298.12 109.93c1.85-1.13 3.95-.97 5.59.43 2.23 1.09-.96 2.49-1.68 3.35-1.42-1.14-2.75-2.39-3.91-3.78Z" fill="#010049" stroke="#010049" stroke-width=".094"/><path d="M381.91 116.66c-.1-2.69-.47-5.44.27-8.08.34 2.29.65 4.61 1.38 6.83l2.68.2c.24-1.53.42-3.06.67-4.58.15-.53.46-1.58.61-2.11l1.05-.8c.91 2.5.66 5.19.81 7.79l.02.65c-2.47-.82-5.1-1.23-7.49.1Z" fill="#140010" stroke="#140010" stroke-width=".094"/><path d="M382.18 108.58c1.77.07 3.55.19 5.34.34-.15.53-.46 1.58-.61 2.11-.92-.39-1.84-.77-2.76-1.16-.19 1.85-.38 3.7-.59 5.54-.73-2.22-1.04-4.54-1.38-6.83Z" fill="#0e0556" stroke="#0e0556" stroke-width=".094"/><path d="M156.98 111.51c2.2-.81 4.5-1.34 6.85-1.42l-.56 2.17c-1.24.5-2.49.98-3.76 1.38-.38.29-1.13.85-1.51 1.14-.35-1.09-.69-2.18-1.02-3.27Z" fill="#02005f" stroke="#02005f" stroke-width=".094"/><path d="M384.15 109.87c.92.39 1.84.77 2.76 1.16-.25 1.52-.43 3.05-.67 4.58l-2.68-.2c.21-1.84.4-3.69.59-5.54Z" fill="#6e237f" stroke="#6e237f" stroke-width=".094"/><path d="M113.6 113.79c10.89-4.71 24.66-3.14 33.28 5.33 3.06 3.84 6.43 7.86 7.31 12.84.89 5.28 1.9 10.71.74 16.03-.95 4.15-3.21 7.89-5.68 11.3-2.3 3.21-5.99 4.87-9.08 7.16.33 7.13 4.63 13.33 5.81 20.27-2.81.14-5.24-1.12-7.31-2.91.69-.36 2.07-1.06 2.76-1.42l.39-.21a65.283 65.283 0 0 1-6.04-17.09c4.95-4.39 11.37-7.75 14.03-14.19 2.93-7.89 2.51-17.29-2.2-24.42-5.8-9.09-17.35-14.43-27.99-11.74-2.02-.25-4.02-.6-6.02-.95Z" fill="#00006a" stroke="#00006a" stroke-width=".094"/><path d="M307.58 113.55c.93-.39 1.86-.77 2.81-1.12 1.36 1.03 2.65 2.18 3.63 3.59-1.94.49-4.2 1.4-5.73-.51 1.03-.31 2.04-.66 3.05-1.04-1.18.21-2.35.45-3.52.7l-.24-1.62Z" fill="#00004b" stroke="#00004b" stroke-width=".094"/><path d="M148.95 116.89c.36-1.93 1.59-3.43 3.03-4.69.35 1.33 2.34 2.76 1.43 4.2-1.42.55-2.97.41-4.46.49Z" fill="#020269" stroke="#020269" stroke-width=".094"/><path d="m307.5 113.06.08.49.24 1.62c1.17-.25 2.34-.49 3.52-.7-1.01.38-2.02.73-3.05 1.04-.12.04-.35.11-.47.15l-.32-2.6Z" fill="#0241ff" stroke="#0241ff" stroke-width=".094"/><path d="M99.5 129.64c2.52-6.82 7.69-12.47 14.1-15.85 2 .35 4 .7 6.02.95-7.49 2.71-14.61 8.06-17.26 15.83-2.66 7.58-.95 16.1 3.1 22.86 4.23 6.13 11.29 9.32 18.03 11.9 4.01 1.43 6.03 5.41 9.1 8.07 3.16 2.77 6.17 5.73 8.84 8.99-.69.36-2.07 1.06-2.76 1.42-5.04-3.74-9.09-8.56-13.58-12.9-2.7-2.79-6.84-2.92-10.03-4.87-5.45-3.28-10.86-7.28-13.41-13.33-3.11-7.14-5.28-15.55-2.15-23.07Z" fill="#008" stroke="#008" stroke-width=".094"/><path d="M119.62 114.74c10.64-2.69 22.19 2.65 27.99 11.74 4.71 7.13 5.13 16.53 2.2 24.42-2.66 6.44-9.08 9.8-14.03 14.19 1.21 5.95 3.24 11.7 6.04 17.09l-.39.21c-2.67-3.26-5.68-6.22-8.84-8.99-3.07-2.66-5.09-6.64-9.1-8.07-6.74-2.58-13.8-5.77-18.03-11.9-4.05-6.76-5.76-15.28-3.1-22.86 2.65-7.77 9.77-13.12 17.26-15.83Z" fill="#fdfdfa" stroke="#fdfdfa" stroke-width=".094"/><path d="M365.07 118.06c1.35-1.51 2.65-3.06 3.98-4.59 1.31 1.93 6.17 3.9 3.84 6.45-1.44 1.27-2.85 2.59-4.24 3.92-1.83-1.47-2.65-3.71-3.58-5.78Z" fill="#020032" stroke="#020032" stroke-width=".094"/><path d="M396.07 118.67c1.91-1.31 3.46-4.48 5.84-4.3 1.3 2.2 3 4.14 5.1 5.62-1.09 1.87-2.01 4.07-4.02 5.14-1.39-1.22-2.56-2.66-3.81-4.01a15.99 15.99 0 0 0-3.11-2.45Z" fill="#000037" stroke="#000037" stroke-width=".094"/><path d="M368.43 116.3c2.44-.82 1.44 3.23-.5 2.83-1.67-.28-.57-2.49.5-2.83Z" fill="#182b70" stroke="#182b70" stroke-width=".094"/><path d="M381.91 116.66c2.39-1.33 5.02-.92 7.49-.1l-.02-.65c2.16 1.09 4.42 1.93 6.69 2.76 1.13.69 2.18 1.5 3.11 2.45-.06 1.76.51 3.41 1.78 4.65-.66 3.51-1.03 7.07-1.01 10.64l-.43-.79c.63-5.32-1.79-10.85-6.91-12.98-6.13-3.25-14.31-2.1-18.57 3.6-.38-1.41-.76-2.82-1.13-4.23.32-.55.97-1.65 1.29-2.2 2.37-1.47 5.15-2.08 7.71-3.15Z" fill="#ff552a" stroke="#ff552a" stroke-width=".094"/><path d="M316.28 117.45c.59-.09 1.78-.25 2.37-.33.81 1.17 1.82 2.14 3.16 2.69-1.21 4-6.01.79-5.53-2.36Z" fill="#00064a" stroke="#00064a" stroke-width=".094"/><path d="M399.91 118.15c2.51-2.68 5.03 1.9 5.35 4.18-2.7 1.18-5.59-1.53-5.35-4.18Z" fill="#0524a9" stroke="#0524a9" stroke-width=".094"/><path d="M363.52 120.32c.39-.56 1.17-1.69 1.55-2.26.93 2.07 1.75 4.31 3.58 5.78l.52.5c-2.29-.65-4.09-2.29-5.65-4.02Z" fill="#a6393f" stroke="#a6393f" stroke-width=".094"/><path d="M112.53 125.58c5.17-4.63 12.79-6.42 19.5-4.67 10.57 3.18 16.19 15.85 13.27 26.12-1.21-2.99-2.32-6.02-3.15-9.14-1.15-6.78-6.09-13.85-13.56-14.04.16 5.27 2.73 9.97 4.27 14.9 1.92.15 3.85.3 5.76.55-1.44 1.1-2.87 2.21-4.42 3.14l-.61.12c-2.74-.09-3.7 2.93-5.23 4.63.15-1.68.28-3.37.4-5.05l-2.03.24c-.03 4.01.18 8.02.76 11.99l.48 1.08.38.89c-1.81-1.25-3.63-2.48-5.42-3.74.08-3.44.09-7-1.35-10.21-3.24.37-6.51.49-9.77.54 1.13 5.39 4.9 10.56 10.24 12.37-1.4 1.04-2.88 1.97-4.35 2.91-4.88-2.3-7.66-7.26-9.28-12.18-2.43-6.95.08-14.64 4.11-20.45Z" fill="#000095" stroke="#000095" stroke-width=".094"/><path d="M368.65 123.84c1.39-1.33 2.8-2.65 4.24-3.92l1.31-.11c-.32.55-.97 1.65-1.29 2.2-2.45 4.46-4.23 9.34-4.66 14.44-.43-2.33-.92-4.69-2.13-6.76-.26-.27-.79-.8-1.06-1.07 1.2-1.59 2.67-2.96 4.32-4.09-.05-.04-.15-.14-.21-.19l-.52-.5Z" fill="#fe8860" stroke="#fe8860" stroke-width=".094"/><path d="M374.04 126.24c4.26-5.7 12.44-6.85 18.57-3.6.22 1.92.69 3.8 1.54 5.54-2.49-2.35-5.63-4.51-9.18-4.42-4.18.42-8.55 3.06-9.61 7.35-1.25 6.51 4.99 13.22 11.63 12.22 3.94-.17 7.33-2.82 8.71-6.47.67.38 2.02 1.14 2.7 1.52-2.2 4.7-6.93 8.94-12.42 8.46-3.15.07-5.82-1.72-8.47-3.15-2.48-2.74-5.05-5.85-5.34-9.69-.36-2.74.64-5.37 1.87-7.76Z" fill="#00032d" stroke="#00032d" stroke-width=".094"/><path d="M407.01 119.99c1.15.3 1.67 1 1.58 2.11-.09 2.24-.18 4.5.26 6.72-1.02.74-2.03 1.49-3.11 2.12l-1.11.55c-.72-2.2-2.14-4.04-3.67-5.72-1.27-1.24-1.84-2.89-1.78-4.65 1.25 1.35 2.42 2.79 3.81 4.01 2.01-1.07 2.93-3.27 4.02-5.14Z" fill="#fb9667" stroke="#fb9667" stroke-width=".094"/><path d="M323.94 121.94c1.74.33 3.87.41 4.98 2.04l-.52 2.68c-2.32-.7-4.89-1.8-4.46-4.72Z" fill="#000063" stroke="#000063" stroke-width=".094"/><path d="M368.25 136.45c.43-5.1 2.21-9.98 4.66-14.44.37 1.41.75 2.82 1.13 4.23-1.23 2.39-2.23 5.02-1.87 7.76.29 3.84 2.86 6.95 5.34 9.69-2.91.04-5.38-1.44-7.43-3.37l-.52 2.88c-.19-.79-.58-2.36-.77-3.15-.19-1.2-.37-2.4-.54-3.6Z" fill="#fc6c48" stroke="#fc6c48" stroke-width=".094"/><path d="M392.61 122.64c5.12 2.13 7.54 7.66 6.91 12.98l-1.12 2.76c-.68-.38-2.03-1.14-2.7-1.52 1-3.04.1-6.07-1.55-8.68-.85-1.74-1.32-3.62-1.54-5.54Z" fill="#00034a" stroke="#00034a" stroke-width=".094"/><path d="M111.49 139.29c-.04-7.29 5.84-14.17 12.86-15.8.88 5.24-.32 10.94-3.82 14.99-2.77 1.4-6.05.64-9.04.81Z" fill="#fcfbf8" stroke="#fcfbf8" stroke-width=".094"/><path d="M132.86 138.75c-1.54-4.93-4.11-9.63-4.27-14.9 7.47.19 12.41 7.26 13.56 14.04.09.75.26 2.24.35 2.98-1.29-.53-2.57-1.1-3.88-1.57-1.91-.25-3.84-.4-5.76-.55Z" fill="#fcfbf9" stroke="#fcfbf9" stroke-width=".094"/><path d="M375.36 131.11c1.06-4.29 5.43-6.93 9.61-7.35 3.55-.09 6.69 2.07 9.18 4.42 1.65 2.61 2.55 5.64 1.55 8.68-1.38 3.65-4.77 6.3-8.71 6.47-6.64 1-12.88-5.71-11.63-12.22Z" fill="#f7b895" stroke="#f7b895" stroke-width=".094"/><path d="M400.96 125.77c1.53 1.68 2.95 3.52 3.67 5.72.03 1.46.01 2.92 0 4.38-.37-.07-1.11-.21-1.49-.28-.1-.31-.31-.93-.41-1.24-.82.88-1.63 1.77-2.47 2.62l-.31-.56c-.02-3.57.35-7.13 1.01-10.64Z" fill="#fe753f" stroke="#fe753f" stroke-width=".094"/><path d="M332.25 129.04c-1.01-2.36 2.26-3.72 3.33-1.62 1.62 2.41 3.34 4.74 5.33 6.88 8.4.46 16.8-.31 25.15-1.16 1.53 2.62.67 5.76.94 8.65-1.38 1.41-3.76 2.95-2.08 5.07.78 1.61.89 3.37.58 5.11-2.44-2.92-5.32-5.9-5.47-9.94 1.74-1.11 3.19-2.57 4.16-4.4-17.17-.68-34.37.01-51.54-.46-7.68-2.96-16.34.61-24.06-2.68 17.19-.44 34.4-.01 51.6-.16-1.94-2.69-5.5-3.21-7.94-5.29Z" fill="#000060" stroke="#000060" stroke-width=".094"/><path d="M363.23 129.24c.46-.15 1.38-.46 1.83-.62.27.27.8.8 1.06 1.07-.71.04-2.12.13-2.83.18l-.06-.63Z" fill="#68171f" stroke="#68171f" stroke-width=".094"/><path d="m361.92 129.77 1.37.1c.71-.05 2.12-.14 2.83-.18 1.21 2.07 1.7 4.43 2.13 6.76.17 1.2.35 2.4.54 3.6-.45.44-1.34 1.3-1.79 1.74-.27-2.89.59-6.03-.94-8.65-1.46-.78-3.26-.04-4.64-.96.13-.61.38-1.81.5-2.41Z" fill="#000037" stroke="#000037" stroke-width=".094"/><path d="m404.63 131.49 1.11-.55c1.48-.22 2.97-.33 4.48-.32.38 1.16.76 2.32 1.15 3.48-2.26.03-4.26 1.04-5.2 3.14.55.06 1.67.17 2.23.22.05-.45.17-1.35.23-1.8 4.06-.31 2.73 6.25-.58 5.77-3.06.33-3.86-3.22-3.42-5.56.01-1.46.03-2.92 0-4.38Z" fill="#000218" stroke="#000218" stroke-width=".094"/><path d="M154.19 131.96c3.47 1.6 4.14 5.6 4.25 9.04.1 3.19-.5 6.35-1.52 9.36-.67-.79-1.33-1.58-1.99-2.37 1.16-5.32.15-10.75-.74-16.03Z" fill="#e97f6d" stroke="#e97f6d" stroke-width=".094"/><path d="M126.65 132.97c1.52 1.52 2.63 5.19-.14 5.95-.07-1.98-.04-3.97.14-5.95Z" fill="#fefffd" stroke="#fefffd" stroke-width=".094"/><path d="M176.61 136.64c3.35-3.17 8.22-2.16 12.39-2.15 33.19-.13 66.41-.29 99.59 0 7.72 3.29 16.38-.28 24.06 2.68-43.52.34-87.06.37-130.57.34-2.7.16-5.02 2.72-4.69 5.45.05 9.35-.04 18.69.03 28.03.07 6.08-.65 12.19.3 18.23-1.29 3.09-4.97 3.91-7.51 5.69.36.42 1.09 1.26 1.45 1.68-1.74 1.9-3.67 3.65-5.14 5.79-.72 2.08.15 4.26.49 6.34 5.69-3.45 11.56-6.74 18.23-7.83l-.15.93c-3.31 1.58-6.89 2.53-10.1 4.31-1.73.97-2.48 2.95-2.61 4.83.4 1.21.81 2.42 1.23 3.63-.24 4.93-2.76 10.36.46 14.84-.18 1.21-.31 2.44-.39 3.67-.9-1.56-1.31-3.85-3.26-4.43-3.98-1.28-8.23-1.86-12.39-1.25-3.13-.64-5.74-2.48-8.05-4.6l-.28 1.2c-2.79-4.5-2.65-10.83 1.43-14.53l.22.01c3.72-.17 8.17.53 11.23-1.93 2.38-3.76 2.3-8.5 3.56-12.68 2.22-1.86 4.98-2.86 7.66-3.86.18-14.66.59-29.31.36-43.97.08-3.55-.64-7.85 2.45-10.42Z" fill="#000069" stroke="#000069" stroke-width=".094"/><path d="M400.26 136.97c.84-.85 1.65-1.74 2.47-2.62.1.31.31.93.41 1.24-1.87 3.26-1.57 7.02-1.71 10.63-2.07.83-4.91 1.23-5.22 3.96-.19.38-.55 1.14-.74 1.52-2.13.54-4.23 1.19-6.35 1.76-1.44.32-2.89.59-4.34.83l-.41.07c-1.04 2.02-.54 4.31-.17 6.43-.2.63-.59 1.89-.78 2.51l-1.26-.08c.3-3.52-.18-7.03-.69-10.5-.44-.09-1.31-.25-1.74-.34-2.58-1.15-5.08-3.28-8.08-2.69-2.03-1.49-1.61-4.3-2.09-6.49l.52-2.88c2.05 1.93 4.52 3.41 7.43 3.37 2.65 1.43 5.32 3.22 8.47 3.15 5.49.48 10.22-3.76 12.42-8.46l1.12-2.76.43.79.31.56Z" fill="#fb583e" stroke="#fb583e" stroke-width=".094"/><path d="M182.08 137.51c43.51.03 87.05 0 130.57-.34 17.17.47 34.37-.22 51.54.46-.97 1.83-2.42 3.29-4.16 4.4.15 4.04 3.03 7.02 5.47 9.94 1.03 1.57 2.15 3.1 3.42 4.49 2.7.84 4.66-1.08 6.46-2.8 1.08.05 2.17.13 3.27.24-.56 17.47-.26 34.96-.38 52.45l-.18.67c-2.55-.99-5.11-1.94-7.73-2.69-.4-11.11-.16-22.25-.18-33.37.48-1.83-1.57-2.1-2.73-2.59-1.08 10.84-.78 21.76-.38 32.63-.15 4.58-.42 9.17.16 13.74l-.98-.4c-5.53-3.56-9.85-8.71-13.46-14.14-1.87-3.53-6.25-4.34-9.89-3.84-3.21.13-5.18 3.72-4.72 6.66-.03 3.09 2.76 4.97 4.18 7.44 1.02 1.82 2.78 3 4.54 4.04 2.47 1.65 5.48 3.04 6.72 5.94.34 2.15.1 4.34.31 6.51 3.13 3.43 7.31 5.66 11.55 7.4.52 2.37.65 4.82.86 7.23.12 6.13.29 12.26-.02 18.39 1.39-.06 2.79-.13 4.19-.2-.34-7.21-1.45-14.59-.33-21.72l.38-.33c2.64 1.53 5.25 3.19 8.21 4.08.8 5.4-.27 10.83-.07 16.25-.16 3.36.54 6.86-.43 10.14-2.47 4.04-7.75 3.42-11.8 3.29-14.01-.33-28.02-.01-42.03-.41.13-3.55.3-7.11 1.01-10.59.36-.02 1.1-.07 1.47-.09 11.46-.28 22.93-.28 34.4-.1.32-.97 2.05-3.36-.08-3.29-11.59-.61-23.22-.02-34.81-.69.08-2.52.13-5.04.17-7.55 2.96-.25 5.93-.45 8.91-.61 8.62.27 17.26-.34 25.87.28-.03-.93-.08-2.81-.11-3.74-6.99.15-13.99.2-20.98 0-1.82-.39-3.61-.86-5.4-1.31 1.74-.38 3.49-.74 5.25-1.1-3-.47-5.95-1.18-8.76-2.32 8.56-.39 17.14-.27 25.7.04 1.44.05 2.88-.14 4.32-.27.37-1.42.73-2.82 1.11-4.23-.5-.84-.99-1.67-1.49-2.5-.38.85-1.14 2.56-1.52 3.41-3.37.04-6.74.08-10.11.08-7.25-.35-14.52-.42-21.77-.14.07-3.5.1-7.01.28-10.51.57-3.85.65-7.96-.87-11.61-1.74-3.44-5.34-5.26-8.37-7.38l-.44-1.58c4.58.17 9.07 1.58 13.66 1.36 1.95-.09 2.35-3.69.05-3.64-3.98-.71-8.12-.63-12.09.15-1.42.17-2.87.86-4.3.5-1.49-1.85-1.74-4.3-2.26-6.53 3.6.46 5.88-2.34 7.99-4.74.73-.02 2.21-.05 2.95-.07 11.66-.05 23.33.24 34.99.07.03-.88.08-2.65.1-3.53-12.33.12-24.68-.19-37.01.33.68-2.12 1.18-4.28 1.59-6.46.26-.07.78-.2 1.04-.27 9.35-.18 18.7-.18 28.04-.1 1.92-.09 3.95.14 5.76-.64-.07-1.02-.17-2.03-.31-3.04-11.58.17-23.17-.23-34.73.39-.84-1.8-1.82-3.53-2.89-5.19-3.4-4.63-9.07-7.41-14.85-6.73-3.71-.35-6.68 1.98-9.95 3.21-3.01.49-5.97-1.14-8.99-.68-1.64.88-1.27 2.68-1.18 4.22 1.47 2.77 3.57 5.13 5.88 7.23-.39 4.68-1.97 9.38-.65 14.06.56 4.37 4.9 6.43 8.22 8.53v2.52c-2.93.95-5.89 1.8-8.73 2.98-7.82 3.22-10.88 11.87-16.83 17.29-3.31-1.52-5.76-4.86-8.86-6.91-1.8-2.99-2.92-6.31-4.09-9.58-.71-2.03-1.46-4.09-1.45-6.27l1.39-.23c-.44-4.76.69-10.26-2.91-14.08-8.25-.98-16.55-.16-24.83-.29-11.71.08-23.42-.49-35.13-.43.03.93.08 2.79.11 3.72 13.36-.38 26.73.23 40.1.08 5.87-.14 11.71.52 17.57.85.55 2.57.28 5.18.01 7.77-1.12.19-2.24.39-3.35.6 0-.87.01-2.59.02-3.45-1.37.37-2.36 1.18-2.96 2.43-.2.39-.62 1.17-.83 1.56-.19-1.27-.41-2.58-.14-3.85 1.25-.85 2.63-1.48 3.96-2.19.69 1.38 1.39 2.76 2.1 4.14 1.03-2.01.83-4.29 1.02-6.46-4.14-1.01-8.91-.66-11.92 2.69 1.69 4.08 2.81 8.37 4.05 12.61-13.62-.51-27.25-.86-40.88-1.01-.13-.48-.4-1.46-.53-1.95 8.6-.2 17.2.14 25.78.44.23-.76.67-2.26.89-3.01-9.09-.79-18.28-1.51-27.39-.51-.87-2.26-2.09-4.36-3.19-6.51-4.28-1.76-9.2-2.87-11.8-7.1-.86-5.68-.7-11.45-.32-17.16-.87-.04-2.6-.14-3.47-.19-.01 5.02.09 10.05.44 15.07-3.2.2-6.53.33-9.39 1.95-.95-6.04-.23-12.15-.3-18.23-.07-9.34.02-18.68-.03-28.03-.33-2.73 1.99-5.29 4.69-5.45Z" fill="#fefefd" stroke="#fefefd" stroke-width=".094"/><path d="M142.15 137.89c.83 3.12 1.94 6.15 3.15 9.14-1.61 4.66-4.58 9.13-9.31 11.06-5.85 2.08-12.46 2.54-18.29.12 1.47-.94 2.95-1.87 4.35-2.91.22-.68.66-2.03.88-2.7 1.79 1.26 3.61 2.49 5.42 3.74l-.38-.89c.08-2.75.16-5.51.39-8.26 1.53-1.7 2.49-4.72 5.23-4.63-1.69 3.48-3.07 8.11-.72 11.58 1.11 1.28 2.71.29 3.72-.56 2.55-2.05 4.93-5.12 4.51-8.57-.94-2.98-4.39-2.96-6.9-2.57 1.55-.93 2.98-2.04 4.42-3.14 1.31.47 2.59 1.04 3.88 1.57-.09-.74-.26-2.23-.35-2.98Z" fill="#00007c" stroke="#00007c" stroke-width=".094"/><path d="M93.83 142.24c.32-.42.95-1.24 1.27-1.65 1.94 5.07 2.3 10.72 5.42 15.33.28-.8.85-2.41 1.13-3.21 2.55 6.05 7.96 10.05 13.41 13.33l.6 1.59-1.69-.39c-5.96-3.24-13.37-6.2-20.01-3.21-2.82 1.09-4.04 3.92-5.37 6.39-2 2.1-4.36 3.89-5.96 6.36a66.64 66.64 0 0 0-.57 3.44c-1.88-1.24-.71-3.41-.53-5.18-1.1.16-2.2.31-3.29.47-.94-.75-1.88-1.49-2.82-2.23-1.16.91-2.33 1.81-3.53 2.66.25-.81.56-1.6.94-2.35 1.33-1.81 2.2-3.86 2.17-6.14.8.11 1.61.22 2.42.34.06-.93.12-1.86.19-2.79 2.04-1.58 2.86-4.02 3.29-6.47.14-.32.42-.94.56-1.25 2.37-2.04 5.11-3.98 5.86-7.21-.86.12-2.58.35-3.44.47.34-1.78 2.41-1.44 3.69-1.98l1.28-3c.36.83.72 1.66 1.1 2.48 1.24-1.97 2.48-3.94 3.88-5.8Z" fill="#fdaf90" stroke="#fdaf90" stroke-width=".094"/><path d="M367 141.79c.45-.44 1.34-1.3 1.79-1.74.19.79.58 2.36.77 3.15.48 2.19.06 5 2.09 6.49l-.07 1.98c-1.14-.89-2.39-1.61-3.61-2.36-1.06-.77-2.07-1.59-3.05-2.45-1.68-2.12.7-3.66 2.08-5.07Z" fill="#fb909e" stroke="#fb909e" stroke-width=".094"/><path d="M88.85 145.56c-.74-1.25.39-2.36.95-3.38l4.03.06c-1.4 1.86-2.64 3.83-3.88 5.8-.38-.82-.74-1.65-1.1-2.48Z" fill="#00077d" stroke="#00077d" stroke-width=".094"/><path d="m126.73 142.38 2.03-.24c-.12 1.68-.25 3.37-.4 5.05-.23 2.75-.31 5.51-.39 8.26l-.48-1.08c-.58-3.97-.79-7.98-.76-11.99Z" fill="#fefffd" stroke="#fefffd" stroke-width=".094"/><path d="M134.2 142.44c2.51-.39 5.96-.41 6.9 2.57.42 3.45-1.96 6.52-4.51 8.57-1.01.85-2.61 1.84-3.72.56-2.35-3.47-.97-8.1.72-11.58l.61-.12Z" fill="#fdfdfb" stroke="#fdfdfb" stroke-width=".094"/><path d="M111.81 142.93c3.26-.05 6.53-.17 9.77-.54 1.44 3.21 1.43 6.77 1.35 10.21-.22.67-.66 2.02-.88 2.7-5.34-1.81-9.11-6.98-10.24-12.37Z" fill="#fcfcf9" stroke="#fcfcf9" stroke-width=".094"/><path d="M407.58 154c2.4-4.32 5.9-8.86 11.39-8.74l-.28 2.79c-3.47 1.09-6.4 3.72-6.43 7.61-1.63 3.7.91 7.63.3 11.52 0 .21.01.64.01.86.12 3.99-.5 8.03.21 11.99.32 2.06 2.34 2.57 4.1 2.72-.07 1.02-.2 3.06-.27 4.07-1.98-.68-4.37-.78-5.91-2.33-1.54-4.31-.99-9.01-1.45-13.49-.44-2.5 1.03-4.67 1.66-6.98-.19-3.29-2-6.22-3.04-9.3l-.29-.72Z" fill="#000045" stroke="#000045" stroke-width=".094"/><path d="M418.97 145.26c4.11.51 7.56 3.51 8.34 7.62 1.66-.2 3.31-.42 4.97-.65-.83.84-1.68 1.66-2.54 2.47-1.35.83-2.72 1.63-4.09 2.41-.36-4.04-2.07-9.07-6.96-9.06l.28-2.79Z" fill="#000053" stroke="#000053" stroke-width=".094"/><path d="M186.76 147.26c4.75.31 9.58-.19 14.27.76 1.11.97.35 2.71.64 4 .12 2.44 1.62 6.12-1.54 7.27-4.47.47-8.97 0-13.45.03-.03-4.02-.17-8.04.08-12.06Z" fill="#00007b" stroke="#00007b" stroke-width=".094"/><path d="M364.92 146.86c.98.86 1.99 1.68 3.05 2.45-.1 1.84 1.3 3.54 3.22 3.46-.75 1.23-1.52 2.46-2.27 3.69-1.27-1.39-2.39-2.92-3.42-4.49.31-1.74.2-3.5-.58-5.11Z" fill="#000098" stroke="#000098" stroke-width=".094"/><path d="M396.21 150.18c1.42-1.86 3.95-3.58 5.99-1.45 1.65 1.97 5.41 3.67 4.4 6.66-1.51.84-3.03 1.64-4.55 2.45-2.39-1.83-4.68-3.8-6.58-6.14.19-.38.55-1.14.74-1.52Z" fill="#00012d" stroke="#00012d" stroke-width=".094"/><path d="M412.26 155.66c.03-3.89 2.96-6.52 6.43-7.61 4.89-.01 6.6 5.02 6.96 9.06 1.37-.78 2.74-1.58 4.09-2.41 5.49-1.21 10.05 4.19 9.31 9.38-.29 2.57-1.84 4.73-3.49 6.63-2.43 1.97-5.85 2.27-8.18-.03a44.2 44.2 0 0 1-.23-4.15c.35-3.94-3.31-6.33-6.95-6.02-3.5.33-6.55-1.69-7.94-4.85Z" fill="#fdfdfb" stroke="#fdfdfb" stroke-width=".094"/><path d="M367.97 149.31c1.22.75 2.47 1.47 3.61 2.36-.1.28-.29.83-.39 1.1-1.92.08-3.32-1.62-3.22-3.46Z" fill="#0241ff" stroke="#0241ff" stroke-width=".094"/><path d="M83.88 150.54c.86-.12 2.58-.35 3.44-.47-.75 3.23-3.49 5.17-5.86 7.21.01-2.45.93-4.83 2.42-6.74Z" fill="#000085" stroke="#000085" stroke-width=".094"/><path d="M371.65 149.69c3-.59 5.5 1.54 8.08 2.69-.99.07-2.95.2-3.93.27-.11.25-.32.76-.42 1.01-1.8 1.72-3.76 3.64-6.46 2.8.75-1.23 1.52-2.46 2.27-3.69.1-.27.29-.82.39-1.1l.07-1.98Z" fill="#010143" stroke="#010143" stroke-width=".094"/><path d="M189.72 150.86c2.9 0 5.8-.04 8.7-.08-.32 1.83.48 4.45-1.39 5.63-2.39.18-4.79-.08-7.17-.22-.07-1.78-.11-3.56-.14-5.33Z" fill="#fefefb" stroke="#fefefb" stroke-width=".094"/><path d="M400.17 151.29c1.42-1.1 3.23 1.38 1.71 2.37-1.44 1.06-3.17-1.34-1.71-2.37Z" fill="#3f85ad" stroke="#3f85ad" stroke-width=".094"/><path d="M379.73 152.38c.43.09 1.3.25 1.74.34.51 3.47.99 6.98.69 10.5-.85 6.21-.48 12.49-.49 18.74.12 9.17.06 18.34.02 27.52l-.2-.14c-.21-10.12.08-20.24-.09-30.36-.16-4.09.72-8.39-.93-12.27-.79 7.83-.14 15.73-1.01 23.56-.7 5.35.89 10.94-1.19 16.08.12-17.49-.18-34.98.38-52.45-1.1-.11-2.19-.19-3.27-.24.1-.25.31-.76.42-1.01.98-.07 2.94-.2 3.93-.27Z" fill="#000081" stroke="#000081" stroke-width=".094"/><path d="M389.12 153.46c2.12-.57 4.22-1.22 6.35-1.76 1.9 2.34 4.19 4.31 6.58 6.14 1.52-.81 3.04-1.61 4.55-2.45.31-.17.95-.5 1.27-.67 1.04 3.08 2.85 6.01 3.04 9.3-.63 2.31-2.1 4.48-1.66 6.98.46 4.48-.09 9.18 1.45 13.49 1.54 1.55 3.93 1.65 5.91 2.33-.26 2.91-.26 5.89-1.18 8.68-1.87 2.03-4.68 2.69-7.03 3.97-3.52 1.57-5.14 5.32-6.91 8.48-1.59 3.04-3.18 6.07-4.93 9.02-5.03-2.36-10.16-4.54-14.87-7.49.04-9.18.1-18.35-.02-27.52.01-6.25-.36-12.53.49-18.74l1.26.08c2.1.14 4.21.26 6.33.38-.18-3.41-.37-6.82-.63-10.22Z" fill="#fba688" stroke="#fba688" stroke-width=".094"/><path d="M432.28 152.23c8.29.09 12.44 10.87 8.18 17.29-.93 1.32-2.06 2.47-3.12 3.66-.44-.62-1.34-1.86-1.78-2.47 1.65-1.9 3.2-4.06 3.49-6.63.74-5.19-3.82-10.59-9.31-9.38.86-.81 1.71-1.63 2.54-2.47Z" fill="#00008f" stroke="#00008f" stroke-width=".094"/><path d="m384.37 154.36.41-.07c.88 2.14.68 4.56-.58 6.5-.37-2.12-.87-4.41.17-6.43Z" fill="#84151c" stroke="#84151c" stroke-width=".094"/><path d="M384.78 154.29c1.45-.24 2.9-.51 4.34-.83.26 3.4.45 6.81.63 10.22-2.12-.12-4.23-.24-6.33-.38.19-.62.58-1.88.78-2.51 1.26-1.94 1.46-4.36.58-6.5Z" fill="#070f49" stroke="#070f49" stroke-width=".094"/><path d="M209.1 155.18c21.97.11 43.94-.13 65.91-.04 6.34.11 12.68-.55 19.01-.05 20.66.19 41.31 0 61.97.09 2.17.17 6.23-.04 5.5 3.39-42.5-.2-85.01-.48-127.51-.13-7.68-.08-15.36.04-23.03-.13-2.08.48-1.73-1.9-1.85-3.13Z" fill="navy" stroke="navy" stroke-width=".094"/><path d="M412.56 167.18c.61-3.89-1.93-7.82-.3-11.52 1.39 3.16 4.44 5.18 7.94 4.85.13.54.4 1.62.53 2.17l-2.79 1.08c-.74.28-1.47.55-2.2.84-.49-.59-1.48-1.76-1.98-2.35-.4 1.64-.83 3.28-1.2 4.93Z" fill="#000071" stroke="#000071" stroke-width=".094"/><path d="M75.6 161.56c1.49-1.43 3.44-2.22 5.3-3.03-.43 2.45-1.25 4.89-3.29 6.47l-.72.73c-1.38-.99-2.09-2.58-1.29-4.17Z" fill="#000984" stroke="#000984" stroke-width=".094"/><path d="M420.2 160.51c3.64-.31 7.3 2.08 6.95 6.02-.94.31-1.89.62-2.82.94-.19-3.33-3.54-4.5-6.39-3.71l2.79-1.08c-.13-.55-.4-1.63-.53-2.17Z" fill="#0000b3" stroke="#0000b3" stroke-width=".094"/><path d="M93.96 164.03c6.64-2.99 14.05-.03 20.01 3.21.93.53 1.86 1.07 2.78 1.61-.31 3.12-1.33 6.09-3.01 8.73-1.31 1.58.02 3.43.53 5.04l-2.71.09c-.26-.5-.54-.99-.82-1.47-1.42-3-5.03-2.8-7.81-3-3.85-.62-4.57 4.35-6.08 6.88-2.17 3.69-1.23 8.02.78 11.54-.86 1.18-1.72 2.37-2.58 3.56a6.733 6.733 0 0 1-.61-3.32c.05-.44.14-1.32.19-1.76-.71-.56-1.41-1.13-2.14-1.66.01-2.82-.36-5.68.19-8.47.86-3.3 3.32-5.78 5.34-8.39-2.65-1.29-5.41-2.31-8.18-3.3-4.2 2.18-5.86 6.79-5.2 11.33-1.5-2.36-1.92-5.12-2.01-7.87 1.6-2.47 3.96-4.26 5.96-6.36 1.33-2.47 2.55-5.3 5.37-6.39Z" fill="#000068" stroke="#000068" stroke-width=".094"/><path d="M413.76 162.25c.5.59 1.49 1.76 1.98 2.35.73-.29 1.46-.56 2.2-.84 2.85-.79 6.2.38 6.39 3.71l.03.75c-1.04 2.08-5.09 2.51-4.33-.58.56-.4 1.69-1.2 2.25-1.59-1.73-1.32-4.38-.89-5.64.86-.53 4.42 4.38 6.36 7.97 6.61.01.33.01.99.02 1.31-.07.36-.21 1.06-.28 1.41-2.78-.66-5.8-.74-8.39-1.99-.97-2.16-1.57-4.57-3.39-6.21 0-.22-.01-.65-.01-.86.37-1.65.8-3.29 1.2-4.93Z" fill="#ffd8ed" stroke="#ffd8ed" stroke-width=".094"/><path d="M416.64 166.91c1.26-1.75 3.91-2.18 5.64-.86-.56.39-1.69 1.19-2.25 1.59-.76 3.09 3.29 2.66 4.33.58.06 1.76.17 3.53.25 5.3-3.59-.25-8.5-2.19-7.97-6.61Z" fill="#00004f" stroke="#00004f" stroke-width=".094"/><path d="M95.34 166.34c3.72-1.55 7.9-.49 11.58.67 2.18.86 4.79 1.71 5.84 4.01-.23 2.32-2.25 4.62-4.72 4.47-4.95-.03-9.58-2.13-14.31-3.36-3.33-1.01-.69-5.18 1.61-5.79Z" fill="#fdfdfa" stroke="#fdfdfa" stroke-width=".094"/><path d="M70.89 169.03c.64-1.79 2.56-1.71 4.11-1.58.03 2.28-.84 4.33-2.17 6.14-1.63-.87-3.09-2.72-1.94-4.56Z" fill="#020157" stroke="#020157" stroke-width=".094"/><path d="M296 170.34c3.27-1.23 6.24-3.56 9.95-3.21 5.78-.68 11.45 2.1 14.85 6.73-.55 4.72-.35 9.53.82 14.15l.68 1.16c.21.34.62 1.01.82 1.35-4.39-.12-8.48 1.91-12.87 2.02l-2.82-3.81c.15-3.23-2.49-5.01-4.91-6.55.14.59.43 1.78.58 2.37-5.09-3.01-9.38-7.32-14.95-9.51-.77-.39-1.55-.78-2.32-1.16-.09-1.54-.46-3.34 1.18-4.22 3.02-.46 5.98 1.17 8.99.68Z" fill="#00007d" stroke="#00007d" stroke-width=".094"/><path d="M380.47 166.71c1.65 3.88.77 8.18.93 12.27.17 10.12-.12 20.24.09 30.36l.2.14c4.71 2.95 9.84 5.13 14.87 7.49.52 1.59 1.04 3.19 1.56 4.79-.53-.14-1.6-.42-2.14-.55-4.55-2.78-9.56-4.66-14.34-6.98.06 2.07.11 4.14.14 6.21 3.83 1.83 7.8 3.33 11.74 4.9l-.2 1.36c1.9-.38 3.8-.72 5.71-1.07-1.21 1.2-1.88 3.79-4.07 3.03-9.18-1.64-17.51-6.2-26.26-9.26-1.19 2.81-2.64 5.5-4.38 8.02-.68-.42-1.36-.83-2.04-1.24 1.73-1.89 5.11-6.45 1.71-8.17-2 1.65-3.97 3.4-5.62 5.42-.9 1.71 1.43 1.89 2.43 2.61 1.74 1.64 3.31 3.5 5.38 4.76 9.92 6.11 20.93 11.56 32.81 11.88 7.23-1.02 13.15-5.82 18.99-9.86 4.3-2.96 7.24-7.83 12.36-9.52-1.71 4.23-4.98 7.54-8.38 10.47-5.46 4.47-11.07 8.89-17.59 11.73.64 9.54.81 19.1 1.7 28.62-.24.48-.71 1.45-.95 1.93-.94-1.42-1.88-2.85-2.83-4.26-.83-8.45-.57-16.97-1.65-25.4-6.19-.43-12.31-1.58-18.27-3.26-.2 7.95.49 15.92-.06 23.85-.3 4.55-4.87 7.26-9.01 7.57-4.07-.33-8.13-.66-12.2-.77 1.8-.72 3.6-1.48 5.37-2.3 4.05.13 9.33.75 11.8-3.29.97-3.28.27-6.78.43-10.14-.2-5.42.87-10.85.07-16.25-2.96-.89-5.57-2.55-8.21-4.08-.19-.1-.56-.31-.74-.41-1.22 1.38-2.25 2.91-3.48 4.27-.21-2.41-.34-4.86-.86-7.23-4.24-1.74-8.42-3.97-11.55-7.4-.21-2.17.03-4.36-.31-6.51-1.24-2.9-4.25-4.29-6.72-5.94-.98-2.27-2.86-4.02-3.77-6.31.4-.27 1.21-.82 1.61-1.1 2.3 5.02 7.66 7.23 12.31 9.5-1.17.35-2.34.69-3.51 1.04.61.71 1.82 2.14 2.43 2.85a74.07 74.07 0 0 1 5.32-5.46c-2.95-3.76-6.31-7.19-9.04-11.11.12-1.25.33-2.48.54-3.71 3.61 5.43 7.93 10.58 13.46 14.14 1.45.8 2.99 1.41 4.53 2.05 2.09 2.02 4.68 3.34 7.45 4.19.1-3.14-.1-6.27-.6-9.36-2.04-1.13-4.07-2.27-6.03-3.53-.46-1.11-.87-2.23-1.24-3.36 2.62.75 5.18 1.7 7.73 2.69l.18-.67c2.08-5.14.49-10.73 1.19-16.08.87-7.83.22-15.73 1.01-23.56Z" fill="#00006e" stroke="#00006e" stroke-width=".094"/><path d="M424.33 167.47c.93-.32 1.88-.63 2.82-.94.01 1.39.09 2.77.23 4.15 2.33 2.3 5.75 2 8.18.03.44.61 1.34 1.85 1.78 2.47-2 1.55-4.29 2.62-6.72 3.31.1 4.35.78 8.67 1.92 12.88.72.13 2.17.4 2.89.53-.55.87-1.09 1.75-1.63 2.63-4.98.5-9.42 2.92-14.04 4.61.28 1.31.5 2.62.68 3.95-.97 1.72-2.52 3-3.92 4.36-.45-.67-1.36-2-1.81-2.66.87-1.06 1.61-2.2 2.23-3.43-5.45.93-9.52 5.21-11.87 9.98-1.2-.46-2.4-.93-3.58-1.39 1.77-3.16 3.39-6.91 6.91-8.48 2.35-1.28 5.16-1.94 7.03-3.97.92-2.79.92-5.77 1.18-8.68.07-1.01.2-3.05.27-4.07 3.47-.77 5.85-3.5 7.47-6.51.07-.35.21-1.05.28-1.41-.01-.32-.01-.98-.02-1.31-.08-1.77-.19-3.54-.25-5.3l-.03-.75Z" fill="#00006f" stroke="#00006f" stroke-width=".094"/><path d="M367.45 168.37c1.16.49 3.21.76 2.73 2.59.02 11.12-.22 22.26.18 33.37.37 1.13.78 2.25 1.24 3.36l-.93-.57c.03 3.09.1 6.18.11 9.27-1.54-.64-3.08-1.25-4.53-2.05l.98.4c-.58-4.57-.31-9.16-.16-13.74-.4-10.87-.7-21.79.38-32.63Z" fill="#0000a7" stroke="#0000a7" stroke-width=".094"/><path d="M412.57 168.04c1.82 1.64 2.42 4.05 3.39 6.21 2.59 1.25 5.61 1.33 8.39 1.99-1.62 3.01-4 5.74-7.47 6.51-1.76-.15-3.78-.66-4.1-2.72-.71-3.96-.09-8-.21-11.99Z" fill="#ffb8de" stroke="#ffb8de" stroke-width=".094"/><path d="m271.19 170.62 1.01-.07c.13 5.83-.08 11.68.71 17.48 1.32 10.73-.45 21.61 1 32.32.03 1.52 1.42 4.28-.9 4.63-2.57-.66-1.51-4.08-1.97-6.02-.45-16.11.31-32.22.15-48.34Z" fill="#0003aa" stroke="#0003aa" stroke-width=".094"/><path d="M272.2 170.55c.54-.04 1.63-.14 2.17-.19-.33 16.66.38 33.35-.46 49.99-1.45-10.71.32-21.59-1-32.32-.79-5.8-.58-11.65-.71-17.48Z" fill="#030086" stroke="#030086" stroke-width=".094"/><path d="M186.67 172.2c.87.05 2.6.15 3.47.19-.38 5.71-.54 11.48.32 17.16-1.37 3.94-2.77 7.92-5.22 11.34-6.67 1.09-12.54 4.38-18.23 7.83-.34-2.08-1.21-4.26-.49-6.34 1.47-2.14 3.4-3.89 5.14-5.79-.36-.42-1.09-1.26-1.45-1.68 2.54-1.78 6.22-2.6 7.51-5.69 2.86-1.62 6.19-1.75 9.39-1.95-.35-5.02-.45-10.05-.44-15.07Z" fill="#000082" stroke="#000082" stroke-width=".094"/><path d="M84.64 184.65c-.66-4.54 1-9.15 5.2-11.33 2.77.99 5.53 2.01 8.18 3.3-2.02 2.61-4.48 5.09-5.34 8.39-.55 2.79-.18 5.65-.19 8.47-3.59-1.95-6.61-4.84-7.85-8.83Z" fill="#fdfdfb" stroke="#fdfdfb" stroke-width=".094"/><path d="M285.83 173.88c.77.38 1.55.77 2.32 1.16 1.75 2.15 4.5 2.73 6.81 4.03-.07 5.24-2.65 10.69-.72 15.9.92 2.66 3.46 4.2 5.93 5.2-.32 1.17-.62 2.35-.89 3.53-3.32-2.1-7.66-4.16-8.22-8.53-1.32-4.68.26-9.38.65-14.06-2.31-2.1-4.41-4.46-5.88-7.23Z" fill="#000070" stroke="#000070" stroke-width=".094"/><path d="M320.8 173.86c1.07 1.66 2.05 3.39 2.89 5.19.43 1.12.84 2.25 1.24 3.39-.26.07-.78.2-1.04.27-.41 2.18-.91 4.34-1.59 6.46l-.68-1.16c-1.17-4.62-1.37-9.43-.82-14.15Z" fill="#00004f" stroke="#00004f" stroke-width=".094"/><path d="M66.84 176.84c1.36-.52 2.7-1.04 4.05-1.57-1.62 2.71-2.22 6.57-5.65 7.58-.26-2.16.68-4.13 1.6-6.01Z" fill="#000064" stroke="#000064" stroke-width=".094"/><path d="M288.15 175.04c5.57 2.19 9.86 6.5 14.95 9.51-.15-.59-.44-1.78-.58-2.37 2.42 1.54 5.06 3.32 4.91 6.55.48 3.17 1.38 6.26 2.49 9.27.19.57.58 1.73.78 2.31-3.5-.57-7.03-.43-10.53-.14-2.47-1-5.01-2.54-5.93-5.2-1.93-5.21.65-10.66.72-15.9-2.31-1.3-5.06-1.88-6.81-4.03Z" fill="#ffe3db" stroke="#ffe3db" stroke-width=".094"/><path d="M421.66 185.68c2.82-2.79 4.47-6.38 6.5-9.71.32 4.37.75 8.73 1.22 13.09-2.95 1.36-6 2.49-9.11 3.43-.05-2.31-.56-5.07 1.39-6.81Z" fill="#feeeef" stroke="#feeeef" stroke-width=".094"/><path d="M82.06 180.22c.16-1.15.35-2.3.57-3.44.09 2.75.51 5.51 2.01 7.87 1.24 3.99 4.26 6.88 7.85 8.83.73.53 1.43 1.1 2.14 1.66-.05.44-.14 1.32-.19 1.76-7.53-1.78-12.77-8.98-12.38-16.68Z" fill="#004" stroke="#004" stroke-width=".094"/><path d="M96.85 185.12c1.51-2.53 2.23-7.5 6.08-6.88 2.78.2 6.39 0 7.81 3-2.12-.4-4.22-.86-6.33-1.31-.64 1.99-.42 4.06-.07 6.09.62 2.97-2.86 5.43-1.79 8.31 2.33.75 4.76 1.11 7.14 1.64-2.43 1.18-5.16.75-7.75.55-2.48-2.91-.34-7.24-2.83-10.01-.56-.35-1.69-1.04-2.26-1.39Z" fill="#fbf0ec" stroke="#fbf0ec" stroke-width=".094"/><path d="M198.36 179.08c1.44-.62 3.15-.17 4.69-.3 13.15.23 26.33-.4 39.46.56-.09.99-.19 1.99-.29 2.99-14.74-.31-29.48.07-44.22-.12l.36-3.13Z" fill="#00007a" stroke="#00007a" stroke-width=".094"/><path d="M323.69 179.05c11.56-.62 23.15-.22 34.73-.39.14 1.01.24 2.02.31 3.04-1.81.78-3.84.55-5.76.64-9.34-.08-18.69-.08-28.04.1-.4-1.14-.81-2.27-1.24-3.39Z" fill="#008" stroke="#008" stroke-width=".094"/><path d="M104.41 179.93c2.11.45 4.21.91 6.33 1.31.28.48.56.97.82 1.47 1.91 4.28 2.02 10.03-1.87 13.26-2.38-.53-4.81-.89-7.14-1.64-1.07-2.88 2.41-5.34 1.79-8.31-.35-2.03-.57-4.1.07-6.09Z" fill="#f6dee1" stroke="#f6dee1" stroke-width=".094"/><path d="m111.56 182.71 2.71-.09c3.27 6.26 1.44 16.91-6.64 18.02-2.58-.19-4.65-1.76-5.69-4.12 2.59.2 5.32.63 7.75-.55 3.89-3.23 3.78-8.98 1.87-13.26Z" fill="#000052" stroke="#000052" stroke-width=".094"/><path d="M61.14 189.73c.6-2.41 2.11-4.56 4.42-5.58.14 1.65.47 3.54-.76 4.91-.77 1.18-2.5.43-3.66.67Z" fill="#00006a" stroke="#00006a" stroke-width=".094"/><path d="M97.63 196.66c-2.01-3.52-2.95-7.85-.78-11.54.57.35 1.7 1.04 2.26 1.39l-1.94-.3c.08 5.72.58 13.48 7.02 15.63.32 1.57.66 3.14 1.07 4.7-.04 1.98 1.25 4.92-1.27 5.95-2.74-.9-4.81-3.15-6.29-5.54-.33-2.36 1.41-4.24 2.55-6.1-.89-1.39-1.79-2.77-2.62-4.19Z" fill="#fddfec" stroke="#fddfec" stroke-width=".094"/><path d="m97.17 186.21 1.94.3c2.49 2.77.35 7.1 2.83 10.01 1.04 2.36 3.11 3.93 5.69 4.12.83 3.52 1.12 7.14 2.04 10.64 2.55 2.06 4.87 4.54 5.19 7.98-3.3 2.4 2.1 6.77-1.18 9.5-1.38-4.8-2.14-9.81-4.24-14.37-1.26.52-2.51 1.07-3.74 1.64l.08 1c-.2-.49-.6-1.48-.79-1.98.89-.85 1.79-1.7 2.7-2.55-.79-2-1.64-3.97-2.43-5.96-.41-1.56-.75-3.13-1.07-4.7-6.44-2.15-6.94-9.91-7.02-15.63Z" fill="#000064" stroke="#000064" stroke-width=".094"/><path d="M197.84 188.7c11.71-.06 23.42.51 35.13.43 8.28.13 16.58-.69 24.83.29 3.6 3.82 2.47 9.32 2.91 14.08l-1.39.23c-.01 2.18.74 4.24 1.45 6.27-.66.32-1.99.95-2.65 1.27-.53-1.27-1.09-2.51-1.6-3.77-.44-1.2-.8-2.42-1.16-3.64-2.64.43-5.33-.23-6.02-3.16.6-1.25 1.59-2.06 2.96-2.43-.01.86-.02 2.58-.02 3.45 1.11-.21 2.23-.41 3.35-.6.27-2.59.54-5.2-.01-7.77-5.86-.33-11.7-.99-17.57-.85-13.37.15-26.74-.46-40.1-.08-.03-.93-.08-2.79-.11-3.72Z" fill="navy" stroke="navy" stroke-width=".094"/><path d="m307.43 188.73 2.82 3.81c4.39-.11 8.48-2.14 12.87-2.02.28.44.83 1.34 1.1 1.78-.74.02-2.22.05-2.95.07-2.11 2.4-4.39 5.2-7.99 4.74.52 2.23.77 4.68 2.26 6.53 1.43.36 2.88-.33 4.3-.5-1.01.91-1.88 1.96-2.68 3.05.58 1.65 1.32 3.25 2.15 4.8-1.66-1.29-3.19-2.72-4.68-4.19-.21-.19-.62-.56-.83-.74-2.14-.33-4.4-.34-6.28-1.57 1.46-.38 2.91-.81 4.35-1.28-.18-.48-.55-1.45-.73-1.94-.42-1.09-.83-2.18-1.22-3.27-1.11-3.01-2.01-6.1-2.49-9.27Z" fill="#000061" stroke="#000061" stroke-width=".094"/><path d="M322.3 189.17c12.33-.52 24.68-.21 37.01-.33-.02.88-.07 2.65-.1 3.53-11.66.17-23.33-.12-34.99-.07-.27-.44-.82-1.34-1.1-1.78-.2-.34-.61-1.01-.82-1.35Z" fill="#00009b" stroke="#00009b" stroke-width=".094"/><path d="M190.46 189.55c2.6 4.23 7.52 5.34 11.8 7.1 1.1 2.15 2.32 4.25 3.19 6.51.25 1.02.48 2.05.72 3.08.13.49.4 1.47.53 1.95.42 1.37.89 2.72 1.36 4.08-.53 0-1.59.01-2.12.02-1.01 2.63-1.79 5.65-4.2 7.4-3.72 2.59-7.1 5.97-11.7 6.94-.55-.61-1.65-1.82-2.19-2.42-.39.66-1.15 1.97-1.53 2.63-.82-1.26-1.64-2.53-2.52-3.74 7.99-.27 11.47-10.82 7.97-17.06.08-.33.23-1 .31-1.33 4.73 3.4 6.01 9.23 7.64 14.45 5.67-3.63 3.91-11.16 3.83-16.8-2.32-2.91-5.46-5.12-8.93-6.46-.01.92-.01 1.84-.02 2.77-2.06 1.16-3.88 2.76-4.36 5.21-.5-1.4-1.03-2.79-1.57-4.17-1.25 1.2-2.48 2.41-3.65 3.69l.07-1.58.15-.93c2.45-3.42 3.85-7.4 5.22-11.34Z" fill="#000050" stroke="#000050" stroke-width=".094"/><path d="M435.43 189.9c3.18 3.42 4.6 7.95 6.33 12.18 1.09 3.49 3.02 7.1 2.66 10.79-.51.64-1.54 1.91-2.05 2.55-1.59-8.03-4.34-15.87-8.57-22.89.54-.88 1.08-1.76 1.63-2.63Z" fill="#0000a7" stroke="#0000a7" stroke-width=".094"/><path d="M57.34 197.09c.84-2.12 2.33-3.79 4.27-4.94-.49 2.21.92 6.48-2.47 6.65-.45-.43-1.35-1.28-1.8-1.71Z" fill="#0e0069" stroke="#0e0069" stroke-width=".094"/><path d="M419.76 197.14c4.62-1.69 9.06-4.11 14.04-4.61 4.23 7.02 6.98 14.86 8.57 22.89 3.38 18.27 5.04 37.01 3.72 55.58-.43 2.37-.01 5.52-2.23 7.1-11.99.22-24.01.28-36-.1-.36-.23-1.07-.69-1.43-.92-.13-.99-.25-1.98-.36-2.96-.89-9.52-1.06-19.08-1.7-28.62 6.52-2.84 12.13-7.26 17.59-11.73 3.4-2.93 6.67-6.24 8.38-10.47-5.12 1.69-8.06 6.56-12.36 9.52-5.84 4.04-11.76 8.84-18.99 9.86-11.88-.32-22.89-5.77-32.81-11.88-2.07-1.26-3.64-3.12-5.38-4.76.29.14.87.4 1.16.54l.32-.4c.68.41 1.36.82 2.04 1.24 1.74-2.52 3.19-5.21 4.38-8.02 8.75 3.06 17.08 7.62 26.26 9.26 2.19.76 2.86-1.83 4.07-3.03 6.86-5.82 10.74-14.25 17.49-20.18 1.4-1.36 2.95-2.64 3.92-4.36-.18-1.33-.4-2.64-.68-3.95Z" fill="#fefefd" stroke="#fefefd" stroke-width=".094"/><path d="M243.53 196.59c3.01-3.35 7.78-3.7 11.92-2.69-.19 2.17.01 4.45-1.02 6.46-.71-1.38-1.41-2.76-2.1-4.14-1.33.71-2.71 1.34-3.96 2.19-.27 1.27-.05 2.58.14 3.85 2 6.59 3.18 13.42 5.59 19.88 1.72-.63 3.44-1.27 5.06-2.12.94.49 1.88.99 2.83 1.49-2.42 1.27-4.88 2.44-7.42 3.42 1.92 4.87 4.96 9.14 7.87 13.45-.48.19-1.44.55-1.92.74.06 1.2.11 2.4.17 3.61-.91-1.01-1.8-2.02-2.7-3.02-16.33.36-32.66-.05-48.98-.26-3.16.52-6.63 1.94-9.71.33-.91-2.25 1.67-3.85 3.66-3.59 17.83-.07 35.67.11 53.5.22-5.74-6.79-6.47-15.9-8.5-24.19-13.3-.18-26.6-.08-39.9.05-.47-1.36-.94-2.71-1.36-4.08 13.63.15 27.26.5 40.88 1.01-1.24-4.24-2.36-8.53-4.05-12.61Z" fill="#00007b" stroke="#00007b" stroke-width=".094"/><path d="M161.06 206.82c.8-4.25 1.31-9.15 5.08-11.93-1.26 4.18-1.18 8.92-3.56 12.68-3.06 2.46-7.51 1.76-11.23 1.93 2.63-2.47 6.17-3.7 9.71-2.68Z" fill="#004" stroke="#004" stroke-width=".094"/><path d="M194.62 195.9c3.47 1.34 6.61 3.55 8.93 6.46.08 5.64 1.84 13.17-3.83 16.8-1.63-5.22-2.91-11.05-7.64-14.45-.08.33-.23 1-.31 1.33-.24.22-.72.67-.96.89-.15.98-.32 1.96-.53 2.94-1.32-.67-2.65-1.34-3.98-1.99.11-.22.34-.66.46-.88.32-.29.97-.87 1.3-1.16-1.33.83-.58 3.35 1.07 2.25.81-.87 1.06-1.91.75-3.11.09-.27.27-.82.36-1.1.48-2.45 2.3-4.05 4.36-5.21.01-.93.01-1.85.02-2.77Z" fill="#000068" stroke="#000068" stroke-width=".094"/><path d="M323.04 196.19c3.22.09 6.45.2 9.68.33.03.66.08 1.97.11 2.63-3.3.16-6.61.23-9.9.47.02-1.15.06-2.29.11-3.43Z" fill="#0000a9" stroke="#0000a9" stroke-width=".094"/><path d="M338.18 203.02c-.46-2.94 1.51-6.53 4.72-6.66 3.64-.5 8.02.31 9.89 3.84-.21 1.23-.42 2.46-.54 3.71-2.06 1.95-4.77 2.74-7.51 3.18-.4.28-1.21.83-1.61 1.1.91 2.29 2.79 4.04 3.77 6.31-1.76-1.04-3.52-2.22-4.54-4.04-1.42-2.47-4.21-4.35-4.18-7.44Z" fill="#00008b" stroke="#00008b" stroke-width=".094"/><path d="M97.63 196.66c.83 1.42 1.73 2.8 2.62 4.19-1.14 1.86-2.88 3.74-2.55 6.1 1.48 2.39 3.55 4.64 6.29 5.54 2.52-1.03 1.23-3.97 1.27-5.95.79 1.99 1.64 3.96 2.43 5.96-.91.85-1.81 1.7-2.7 2.55.19.5.59 1.49.79 1.98 3.52 9.22 7.07 18.55 12.06 27.09-1.31-5.14-3.15-10.14-4.16-15.36 3.28-2.73-2.12-7.1 1.18-9.5 3.72 11.01 6.63 22.27 9.37 33.54 1.49 2.26 4.53 2.98 6.81 4.31 5.94 2.43 11.32 6.15 17.51 7.94 3.18-9.93 4.23-22.2 13.83-28.36-.15 1.48-.26 2.96-.43 4.44-5.93 6.84-5.74 16.34-9.13 24.33-1.71 1.99-4.38 4.07-3.21 7.03-.97 2.36-1.74 4.79-2.43 7.25 4.43 2.13 8.55 4.82 12.79 7.31 4.42 2.37 9.61-1.48 10.26-6.06.75 1.38 1.44 2.79 2.15 4.19-.94 1.17-1.94 2.28-2.93 3.4l.96.08c-.25.52-.75 1.56-.99 2.08-5.88-.23-11.77-.17-17.59.84 3.79.41 7.6.64 11.4 1.08-7.85.07-15.7.22-23.55-.1.09 3.03-.62 6.3.48 9.19 3.84.99 7.89-.23 11.82.02 15.8.29 31.64-.42 47.41.33-3.83.4-7.64.93-11.47 1.41 3.34.1 6.7-.05 10.01.44 1.5-.07 1.72 1.68 2.37 2.65-13.89-.41-27.81-.42-41.69.11-.29 4.6-.37 9.22-.43 13.83 3.03-.29 6.06-.6 9.08-1.01-2-2.05-4.59-3.42-6.51-5.53-.13-2.06 1.15-3.78 2-5.54 1.85 1.36 3.63 2.83 5.4 4.3l-4.17.6c1.31 1.82 2.55 3.8 4.56 4.93 7.07 4.16 14.77 7.11 21.74 11.47 2.69 1.75 5.65 2.99 8.63 4.17-8.73-1.36-17.64-1.26-26.45-1.12-4.09-.3-8.19-.22-12.27.19-.15 2.89-.53 6.4 2.78 7.61-.58 1.42-1.15 2.85-1.71 4.28-.38-.13-1.15-.39-1.53-.53-.69-2.12-.25-5.42-3.26-5.61-.32-11.12.11-22.26.23-33.39-2.1.01-4.2.01-6.29 0 .31 31.63-.31 63.27.18 94.9 1.68.73 3.36 1.46 5.07 2.1-.31 1.27.15 3.32-1.66 3.54-3.44.6-6.95.09-10.29-.8 3.1-.15 6.2-.38 9.3-.54-3.56-4.57-9.64-2.69-14.44-1.84-1.69-.61-3.36-1.26-5-1.98-.04.29-.11.87-.14 1.16-1.61-1.74-2.2-3.95-2.18-6.25 2.59.22 5.2.29 7.8.12.56.75 1.12 1.49 1.7 2.22.1-.8.31-2.42.41-3.23.2 1.15.42 2.3.66 3.46 1.62.28 3.25.57 4.87.86-.1-4.31-.2-8.61-.25-12.91-.36-26.82.56-53.64.39-80.46-3.07-.02-6.18.21-9.21-.37-2.23-2.08-1.05-5.64-1.45-8.36.38-2.67-1.04-6.47 1.7-8.18 2.32-.71 4.81-.21 7.19-.31-1.15-1.97-2.36-3.93-4.12-5.41-.5-.24-1.49-.73-1.99-.97 1.87.2 3.55 1.02 5.19 1.89-.88-2.06-2.09-4-4.21-4.95.83.21 2.49.63 3.33.84 1.84-3.42 3.1-7.11 4.03-10.88-7.06-3.36-14.38-6.23-21.1-10.25-5.65-3.27-9-9.12-12.47-14.42-4.51-8.08-8.56-16.48-11.59-25.23-.33-3.06-2.85-4.88-4.94-6.79-1.17-1.04-2.46-1.92-3.75-2.79.46-.46.93-.91 1.39-1.36-.92-.53-1.84-1.05-2.75-1.57 1.17-.48 2.34-.97 3.51-1.45-.09-1.66-.26-3.3-.54-4.93.86-1.19 1.72-2.38 2.58-3.56Z" fill="#000078" stroke="#000078" stroke-width=".094"/><path d="M202.92 196.5c3.4.03 6.82-.17 10.21.15 1.28.46 1.45 1.78 1.7 2.92-3.69.4-7.72 1.25-11.19-.52l-.72-2.55Z" fill="#00005c" stroke="#00005c" stroke-width=".094"/><path d="M309.92 198c.39 1.09.8 2.18 1.22 3.27-2.92 1.15-6.06.91-9.12.89.3.9.61 1.8.93 2.71 1.52-.12 3.05-.23 4.57-.38 1.88 1.23 4.14 1.24 6.28 1.57.21.18.62.55.83.74-8.2 1.53-16.31 3.62-24.37 5.75.07-.84.21-2.51.29-3.35 2.84-1.18 5.8-2.03 8.73-2.98v-2.52c.27-1.18.57-2.36.89-3.53 3.5-.29 7.03-.43 10.53.14-.2-.58-.59-1.74-.78-2.31Z" fill="#00007a" stroke="#00007a" stroke-width=".094"/><path d="M344.67 199.79c1.19-.2 2.5.41 3.28 1.31.46 3.13-5.75 4.95-6.44 1.44-.11-1.8 1.7-2.44 3.16-2.75Z" fill="#fcfbf8" stroke="#fcfbf8" stroke-width=".094"/><path d="M185.02 203.4c1.17-1.28 2.4-2.49 3.65-3.69.54 1.38 1.07 2.77 1.57 4.17-.09.28-.27.83-.36 1.1-.46.22-1.37.65-1.82.86-.33.29-.98.87-1.3 1.16-.12.22-.35.66-.46.88 1.33.65 2.66 1.32 3.98 1.99-.91.68-1.82 1.35-2.75 2.01-1.49 4.33-2.97 10.28-8.54 10.53-2.24-2.26-4.16-4.87-5.38-7.82-.42-1.21-.83-2.42-1.23-3.63 4.4-2.14 9.72-3.26 12.64-7.56Z" fill="#fddcdf" stroke="#fddcdf" stroke-width=".094"/><path d="M405.07 209.34c2.35-4.77 6.42-9.05 11.87-9.98-.62 1.23-1.36 2.37-2.23 3.43-2.05 1.9-4.26 3.62-6.11 5.72-3.24 3.69-4.8 8.69-8.81 11.73 1.4-3.8 3.4-7.33 5.28-10.9Z" fill="#fdffee" stroke="#fdffee" stroke-width=".094"/><path d="M55.44 206.55c.01-2.16.36-5.6 3.23-5.5.1 1.85.06 3.7-.15 5.54-1.03.14-2.06.12-3.08-.04Z" fill="#01006b" stroke="#01006b" stroke-width=".094"/><path d="M248.51 202.26c.21-.39.63-1.17.83-1.56.69 2.93 3.38 3.59 6.02 3.16.36 1.22.72 2.44 1.16 3.64-.66-.09-1.98-.25-2.65-.33-.19.86-.38 1.72-.56 2.59 3.35 2.79 1.33 8.71 6.07 10.11l-.22.15c-1.62.85-3.34 1.49-5.06 2.12-2.41-6.46-3.59-13.29-5.59-19.88Z" fill="#f9e8ea" stroke="#f9e8ea" stroke-width=".094"/><path d="M302.02 202.16c3.06.02 6.2.26 9.12-.89.18.49.55 1.46.73 1.94-1.44.47-2.89.9-4.35 1.28-1.52.15-3.05.26-4.57.38-.32-.91-.63-1.81-.93-2.71Z" fill="#ffe4ef" stroke="#ffe4ef" stroke-width=".094"/><path d="M344.06 200.8c1.6-.42 2.16.19 1.7 1.84-1.58.39-2.15-.23-1.7-1.84Z" fill="#000037" stroke="#000037" stroke-width=".094"/><path d="M174.99 206.13c3.21-1.78 6.79-2.73 10.1-4.31l-.07 1.58c-2.92 4.3-8.24 5.42-12.64 7.56.13-1.88.88-3.86 2.61-4.83Z" fill="#000139" stroke="#000139" stroke-width=".094"/><path d="M205.45 203.16c9.11-1 18.3-.28 27.39.51-.22.75-.66 2.25-.89 3.01-8.58-.3-17.18-.64-25.78-.44-.24-1.03-.47-2.06-.72-3.08Z" fill="#000072" stroke="#000072" stroke-width=".094"/><path d="M319.84 203.14c3.97-.78 8.11-.86 12.09-.15 2.3-.05 1.9 3.55-.05 3.64-4.59.22-9.08-1.19-13.66-1.36l.44 1.58-1.5-.66c.8-1.09 1.67-2.14 2.68-3.05Z" fill="#000095" stroke="#000095" stroke-width=".094"/><path d="M408.6 208.51c1.85-2.1 4.06-3.82 6.11-5.72.45.66 1.36 1.99 1.81 2.66-6.75 5.93-10.63 14.36-17.49 20.18-1.91.35-3.81.69-5.71 1.07l.2-1.36c.83-1.37 1.64-2.76 2.46-4.13.54.13 1.61.41 2.14.55-.52-1.6-1.04-3.2-1.56-4.79 1.75-2.95 3.34-5.98 4.93-9.02 1.18.46 2.38.93 3.58 1.39-1.88 3.57-3.88 7.1-5.28 10.9 4.01-3.04 5.57-8.04 8.81-11.73Z" fill="#00007d" stroke="#00007d" stroke-width=".094"/><path d="M344.74 207.09c2.74-.44 5.45-1.23 7.51-3.18 2.73 3.92 6.09 7.35 9.04 11.11a74.07 74.07 0 0 0-5.32 5.46c-.61-.71-1.82-2.14-2.43-2.85 1.17-.35 2.34-.69 3.51-1.04-4.65-2.27-10.01-4.48-12.31-9.5Z" fill="#fcd6d0" stroke="#fcd6d0" stroke-width=".094"/><path d="M188.06 205.84c.45-.21 1.36-.64 1.82-.86.31 1.2.06 2.24-.75 3.11-1.65 1.1-2.4-1.42-1.07-2.25Z" fill="#17083f" stroke="#17083f" stroke-width=".094"/><path d="M190.81 206.93c.24-.22.72-.67.96-.89 3.5 6.24.02 16.79-7.97 17.06l-1.13-.15c-1.24-.17-2.46-.33-3.68-.54 5.57-.25 7.05-6.2 8.54-10.53.93-.66 1.84-1.33 2.75-2.01.21-.98.38-1.96.53-2.94Z" fill="#ffd0d2" stroke="#ffd0d2" stroke-width=".094"/><path d="M79.36 225.88c1.27-7.86 6.13-14.89 12.72-19.28.91.52 1.83 1.04 2.75 1.57-.46.45-.93.9-1.39 1.36-4.43 3.8-8.71 8.03-10.3 13.86-2.17 3.66-1.28 8.08-1.95 12.12-.14 1.4-.29 2.81-.44 4.21-1.83 8.3-.75 16.91-2.23 25.28-.32-6.09-.14-12.22-.96-18.28-.12-6.97.61-13.97 1.8-20.84Z" fill="#000043" stroke="#000043" stroke-width=".094"/><path d="M253.87 207.17c.67.08 1.99.24 2.65.33.51 1.26 1.07 2.5 1.6 3.77.99 2.52 1.94 5.1 2.23 7.82l-.97.78c-4.74-1.4-2.72-7.32-6.07-10.11.18-.87.37-1.73.56-2.59Z" fill="#ffc5cd" stroke="#ffc5cd" stroke-width=".094"/><path d="M290.26 212.55c8.06-2.13 16.17-4.22 24.37-5.75 1.49 1.47 3.02 2.9 4.68 4.19 2.61 1.98 5.85 4.3 5.45 8.05-.83 23.37-2.49 46.77-6.06 69.9-7.88.82-15.84.22-23.75.51-2.99-.13-6.25.63-8.96-.98-.14-11.86-.47-23.75.23-35.59.05-.6.14-1.81.19-2.41 6.88-3.52 14.05-6.89 19.62-12.39 3.08-3.05 6.54-6 8.1-10.17-4.21 2.38-7.78 5.67-11.6 8.6-4.62 3.58-9.99 6-14.97 9.02-2.88 1.77-6.01 3.08-9.28 3.96-7.33 1.27-11.55-6.4-15.6-11.2 1.09-.4 2.19-.79 3.28-1.18 1.72-2.16 3.58-4.21 5.61-6.08 1.31.56 2.87.8 3.79-.57 5.44-5.55 8.42-13.4 14.9-17.91Z" fill="#00c0ea" stroke="#00c0ea" stroke-width=".094"/><path d="M319.31 210.99c-.83-1.55-1.57-3.15-2.15-4.8l1.5.66c3.03 2.12 6.63 3.94 8.37 7.38 1.52 3.65 1.44 7.76.87 11.61-1 3.3-1.17 6.75-1.05 10.18.6.67 1.2 1.35 1.81 2.04l-1 1.8c-.36 1.63-.53 3.29-.69 4.95 1.55 2.98 5.85 1.87 8.54 3.34-2.98.16-5.95.36-8.91.61-.04 2.51-.09 5.03-.17 7.55-.45.53-.9 1.07-1.34 1.61.61.82 1.21 1.64 1.83 2.47-.37.02-1.11.07-1.47.09-.71 3.48-.88 7.04-1.01 10.59-.05 1.35-.09 2.7-.14 4.05-.18 3.13-.63 6.23-1.17 9.32-.65 1.71-1.3 3.43-1.89 5.17-.63-.17-1.9-.5-2.54-.67 3.57-23.13 5.23-46.53 6.06-69.9.4-3.75-2.84-6.07-5.45-8.05Z" fill="#000047" stroke="#000047" stroke-width=".094"/><path d="m370.67 207.12.93.57c1.96 1.26 3.99 2.4 6.03 3.53.5 3.09.7 6.22.6 9.36-2.77-.85-5.36-2.17-7.45-4.19-.01-3.09-.08-6.18-.11-9.27Z" fill="#fcfdf9" stroke="#fcfdf9" stroke-width=".094"/><path d="M55.34 209.51c2.3.94 1.51 4.35.46 6.1-3.43 1.1-3.28-5.6-.46-6.1Z" fill="#040063" stroke="#040063" stroke-width=".094"/><path d="M83.14 223.39c1.59-5.83 5.87-10.06 10.3-13.86 1.29.87 2.58 1.75 3.75 2.79 1.83 2.12 3.39 4.46 4.94 6.79 3.03 8.75 7.08 17.15 11.59 25.23 3.47 5.3 6.82 11.15 12.47 14.42 6.72 4.02 14.04 6.89 21.1 10.25-.93 3.77-2.19 7.46-4.03 10.88-.84-.21-2.5-.63-3.33-.84-6.51-1.93-12.9-4.24-19.2-6.78-15.53-6.08-25.15-20.62-33.93-33.99-3.09-4.33-4.07-9.66-3.66-14.89Z" fill="#00c2e7" stroke="#00c2e7" stroke-width=".094"/><path d="M260.77 210c1.17 3.27 2.29 6.59 4.09 9.58-.74.76-1.47 1.53-2.2 2.29-.17-.09-.5-.27-.67-.36-.95-.5-1.89-1-2.83-1.49l.22-.15.97-.78c-.29-2.72-1.24-5.3-2.23-7.82.66-.32 1.99-.95 2.65-1.27Z" fill="#00009a" stroke="#00009a" stroke-width=".094"/><path d="M273.72 226.49c5.95-5.42 9.01-14.07 16.83-17.29-.08.84-.22 2.51-.29 3.35-6.48 4.51-9.46 12.36-14.9 17.91-.92 1.37-2.48 1.13-3.79.57-2.95-3.07-5.61-6.45-8.91-9.16.73-.76 1.46-1.53 2.2-2.29 3.1 2.05 5.55 5.39 8.86 6.91Z" fill="#070067" stroke="#070067" stroke-width=".094"/><path d="M97.19 212.32c2.09 1.91 4.61 3.73 4.94 6.79-1.55-2.33-3.11-4.67-4.94-6.79Z" fill="#fefffd" stroke="#fefffd" stroke-width=".094"/><path d="M205.94 212.29c.53-.01 1.59-.02 2.12-.02 13.3-.13 26.6-.23 39.9-.05 2.03 8.29 2.76 17.4 8.5 24.19-17.83-.11-35.67-.29-53.5-.22-1.99-.26-4.57 1.34-3.66 3.59 3.08 1.61 6.55.19 9.71-.33 16.32.21 32.65.62 48.98.26.9 1 1.79 2.01 2.7 3.02 3.29 3.61 6.64 7.19 10.43 10.29l.16 3.07c.59.34 2.77.07 2.43 1.11-1.35.4-3.13.2-3.61 2.05 1.75.27 3.52.46 5.3.59-.03-2.38-.12-4.75-.17-7.13 1.97-.07 3.94-.29 5.84-.88l1.2-.31c-.18 6.62.21 13.24.22 19.87-15.22.04-30.44-.19-45.66.04-9.06.07-18.12.13-27.18-.09-2.48-3.69-5.04-7.34-7.4-11.11 1.9-.19 3.81-.35 5.73-.38 18.82-.1 37.64-.01 56.47-.2l.39-3.35c-21.6-.01-43.21.14-64.82-.03-.91-2.6-1.47-5.3-2.07-7.98 20.15-.05 40.31-.14 60.46.04.21-1.03.43-2.06.64-3.08-14-.88-28.06-.13-42.08-.52-2.13.11-5.02-.75-5.98 1.83-.68-.78-1.33-1.58-2.09-2.26-3.91-.22-7.84.05-11.74.21-1.01-2.2-1.79-4.53-3.06-6.59-1.7-2.21-4.21-3.59-6.56-4.98-.23-2.92-.18-5.85.31-8.73.54.6 1.64 1.81 2.19 2.42 4.6-.97 7.98-4.35 11.7-6.94 2.41-1.75 3.19-4.77 4.2-7.4Z" fill="#fdfdfc" stroke="#fdfdfc" stroke-width=".094"/><path d="m444.42 212.87.5-.62c3.65 17.98 5.43 36.42 4.67 54.76-.34 5.38-.38 11-2.74 15.97-1.48-1.63-3.48-2.53-5.47-3.35.83-.5 1.66-1.01 2.48-1.53 2.22-1.58 1.8-4.73 2.23-7.1 1.32-18.57-.34-37.31-3.72-55.58.51-.64 1.54-1.91 2.05-2.55Z" fill="#000073" stroke="#000073" stroke-width=".094"/><path d="M105.7 216.03c1.23-.57 2.48-1.12 3.74-1.64 2.1 4.56 2.86 9.57 4.24 14.37 1.01 5.22 2.85 10.22 4.16 15.36-4.99-8.54-8.54-17.87-12.06-27.09l-.08-1Z" fill="#fefef9" stroke="#fefef9" stroke-width=".094"/><path d="M173.61 214.59c1.22 2.95 3.14 5.56 5.38 7.82 1.22.21 2.44.37 3.68.54.12.58.37 1.75.49 2.34-1.96-.45-3.94-.87-5.94-1.02-1.43 1.45-2.24 3.37-3.15 5.16-3.22-4.48-.7-9.91-.46-14.84Z" fill="#000045" stroke="#000045" stroke-width=".094"/><path d="M381.64 214.23c4.78 2.32 9.79 4.2 14.34 6.98-.82 1.37-1.63 2.76-2.46 4.13-3.94-1.57-7.91-3.07-11.74-4.9-.03-2.07-.08-4.14-.14-6.21Z" fill="#fdfdf8" stroke="#fdfdf8" stroke-width=".094"/><path d="M203.94 219.78c1.11-1.52 1.52-4.79 4.05-4.43 8.28.15 16.54.87 24.83.9l-.09 3.43c-9.56-1.11-19.2.25-28.79.1Z" fill="#000075" stroke="#000075" stroke-width=".094"/><path d="M53.41 218.07c2.87.78 1.97 3.87 1.22 5.91-4 .59-3.38-4.14-1.22-5.91Z" fill="#01004f" stroke="#01004f" stroke-width=".094"/><path d="M358.37 223.43c1.65-2.02 3.62-3.77 5.62-5.42 3.4 1.72.02 6.28-1.71 8.17l-.32.4c-.29-.14-.87-.4-1.16-.54-1-.72-3.33-.9-2.43-2.61Z" fill="#fcefcb" stroke="#fcefcb" stroke-width=".094"/><path d="M329.98 221.53c7.44-.27 14.98.58 22.34-.98.57 1.41 1.19 2.85.83 4.42-.25.21-.76.65-1.02.87-7.46.16-14.99-.86-22.37.58-.9-1.46-2.42-4.24.22-4.89Z" fill="#f6d5be" stroke="#f6d5be" stroke-width=".094"/><path d="M204.04 222.55c5.97-.68 11.98-.09 17.97-.38-.32 1.46-.79 2.89-1.53 4.19-6.44-.56-12.97.14-19.38-.66.78-1.17 1.09-3.35 2.94-3.15Z" fill="#000076" stroke="#000076" stroke-width=".094"/><path d="M261.99 221.51c.17.09.5.27.67.36 3.3 2.71 5.96 6.09 8.91 9.16-2.03 1.87-3.89 3.92-5.61 6.08-1.09.39-2.19.78-3.28 1.18l-.24.09c-2.91-4.31-5.95-8.58-7.87-13.45 2.54-.98 5-2.15 7.42-3.42Z" fill="#00d0ec" stroke="#00d0ec" stroke-width=".094"/><path d="M149.98 222.82c2.31 2.12 4.92 3.96 8.05 4.6 4.16-.61 8.41-.03 12.39 1.25 1.95.58 2.36 2.87 3.26 4.43l.46 1c-.52.99-1.04 1.99-1.56 3-4.08-2.58-7.67 1.68-10.63 4.03.17-1.48.28-2.96.43-4.44 2.29-2.17 5.55-3.2 8.51-4.28-1.46-1.28-3.33-.08-4.98.01-6.53 1.15-13.61-2.15-16.21-8.4l.28-1.2Z" fill="#005" stroke="#005" stroke-width=".094"/><path d="m182.67 222.95 1.13.15c.88 1.21 1.7 2.48 2.52 3.74.38-.66 1.14-1.97 1.53-2.63-.49 2.88-.54 5.81-.31 8.73-.34-.2-1.02-.58-1.36-.78.02.74.04 1.48.07 2.23-.76 1.06-1.53 2.13-2.29 3.2-3.69 1.29-7.82 1.21-11.38-.49.52-1.01 1.04-2.01 1.56-3 2.87 1.14 6.37 1.86 9.17.16.96-2.89.43-6.06-.15-8.97-.12-.59-.37-1.76-.49-2.34Z" fill="#000072" stroke="#000072" stroke-width=".094"/><path d="M81.19 235.51c.67-4.04-.22-8.46 1.95-12.12-.41 5.23.57 10.56 3.66 14.89 8.78 13.37 18.4 27.91 33.93 33.99-.89 1.12-1.7 2.31-2.22 3.66-5.5-2.74-10.97-5.77-15.37-10.14-5.81-5.9-11.02-12.37-15.68-19.22-2.37-3.52-3.83-7.57-6.27-11.06Z" fill="#02005f" stroke="#02005f" stroke-width=".094"/><path d="M177.22 224.27c2 .15 3.98.57 5.94 1.02.58 2.91 1.11 6.08.15 8.97-2.8 1.7-6.3.98-9.17-.16l-.46-1c.08-1.23.21-2.46.39-3.67.91-1.79 1.72-3.71 3.15-5.16Z" fill="#febacf" stroke="#febacf" stroke-width=".094"/><path d="M326.85 236.02c-.12-3.43.05-6.88 1.05-10.18-.18 3.5-.21 7.01-.28 10.51 7.25-.28 14.52-.21 21.77.14 1.65 2.69 4.85 3.08 7.69 3.51-8.56-.31-17.14-.43-25.7-.04-1.24-.04-2.48-.07-3.72-.1l1-1.8c-.61-.69-1.21-1.37-1.81-2.04Z" fill="#00006c" stroke="#00006c" stroke-width=".094"/><path d="M50.43 232.63c-.44-2.18.3-5.68 3.15-5.44.64 2.26.11 6.33-3.15 5.44Z" fill="#00004a" stroke="#00004a" stroke-width=".094"/><path d="M302.53 236.51c3.82-2.93 7.39-6.22 11.6-8.6-1.56 4.17-5.02 7.12-8.1 10.17-5.57 5.5-12.74 8.87-19.62 12.39-.05.6-.14 1.81-.19 2.41-.9.29-1.8.59-2.7.9-.18-.7-.56-2.09-.75-2.78-.42.21-1.27.62-1.7.83-1.9.59-3.87.81-5.84.88.21-1.71 1.67-2.54 3.05-3.22 3.27-.88 6.4-2.19 9.28-3.96 4.98-3.02 10.35-5.44 14.97-9.02Z" fill="#03005a" stroke="#03005a" stroke-width=".094"/><path d="M186.18 232.16c.34.2 1.02.58 1.36.78 2.35 1.39 4.86 2.77 6.56 4.98 1.27 2.06 2.05 4.39 3.06 6.59-.56.23-1.68.69-2.23.91.94 1.02 1.92 2.02 3.02 2.87.6 2.68 1.16 5.38 2.07 7.98.67 1.36 1.44 2.66 2.23 3.96 2.36 3.77 4.92 7.42 7.4 11.11.76 1.32 1.45 2.68 2.19 4.02-2.76-1.2-5.39-2.7-7.8-4.5-.18-.25-.54-.74-.72-.99-3.32-6.01-6.78-12.1-8.33-18.85-1.19-5.5-3.14-10.99-7.14-15.09-1.3.56-2.58 1.12-3.89 1.66.76-1.07 1.53-2.14 2.29-3.2-.03-.75-.05-1.49-.07-2.23Z" fill="#00005e" stroke="#00005e" stroke-width=".094"/><path d="M361.02 233c.5.83.99 1.66 1.49 2.5-.38 1.41-.74 2.81-1.11 4.23-1.44.13-2.88.32-4.32.27-2.84-.43-6.04-.82-7.69-3.51 3.37 0 6.74-.04 10.11-.08.38-.85 1.14-2.56 1.52-3.41Z" fill="#000093" stroke="#000093" stroke-width=".094"/><path d="M52.37 241.72c-3.9.9-3.87-5.15-.61-5.84.47 1.01.93 2.02 1.4 3.04-.2.7-.59 2.1-.79 2.8Z" fill="#00005f" stroke="#00005f" stroke-width=".094"/><path d="M81.19 235.51c2.44 3.49 3.9 7.54 6.27 11.06 4.66 6.85 9.87 13.32 15.68 19.22 4.4 4.37 9.87 7.4 15.37 10.14-.02 3.44.35 6.93-.26 10.34-.42 2.02-1.81 4.42-4.18 4.3-10.75.09-21.51-.4-32.22-1.38-.1-.25-.3-.77-.4-1.03-1.76-16.08-.97-32.3-.7-48.44.15-1.4.3-2.81.44-4.21Z" fill="#00c2e9" stroke="#00c2e9" stroke-width=".094"/><path d="M161.95 241.13c2.96-2.35 6.55-6.61 10.63-4.03 3.56 1.7 7.69 1.78 11.38.49 1.31-.54 2.59-1.1 3.89-1.66 4 4.1 5.95 9.59 7.14 15.09 1.55 6.75 5.01 12.84 8.33 18.85-.15.76-.45 2.28-.59 3.05-1.33-3.85-5.45-5.69-6.44-9.67-.41 1.17-.83 2.34-1.25 3.51-.92-.57-1.84-1.14-2.75-1.71-.24-.61-.7-1.85-.93-2.47h-.02c-.36-.05-1.07-.14-1.43-.19-.76 8.92-.61 17.88-.21 26.82-6.44.06-12.87-.1-19.29-.55l-.96-.08c.99-1.12 1.99-2.23 2.93-3.4.45-1.7 1.17-3.52.6-5.28-.9-3.59-4.72-5.01-7.54-6.78-.02-2.45-.09-4.9-.33-7.34-.67-3.65.23-8.01-2.46-10.97-.69 5.4-.04 10.86-.6 16.26-.5.06-1.5.16-1.99.21-2.65-.78-5.22-1.83-7.62-3.2.09-.65.28-1.97.38-2.62 3.39-7.99 3.2-17.49 9.13-24.33Z" fill="#f96e2b" stroke="#f96e2b" stroke-width=".094"/><path d="M366.34 241.58c1.23-1.36 2.26-2.89 3.48-4.27.18.1.55.31.74.41l-.38.33c-1.12 7.13-.01 14.51.33 21.72-1.4.07-2.8.14-4.19.2.31-6.13.14-12.26.02-18.39Z" fill="#000082" stroke="#000082" stroke-width=".094"/><path d="m262.44 238.38.24-.09c4.05 4.8 8.27 12.47 15.6 11.2-1.38.68-2.84 1.51-3.05 3.22.05 2.38.14 4.75.17 7.13-1.78-.13-3.55-.32-5.3-.59.48-1.85 2.26-1.65 3.61-2.05.34-1.04-1.84-.77-2.43-1.11l-.16-3.07c-3.79-3.1-7.14-6.68-10.43-10.29-.06-1.21-.11-2.41-.17-3.61.48-.19 1.44-.55 1.92-.74Z" fill="#080091" stroke="#080091" stroke-width=".094"/><path d="M78.52 265c1.48-8.37.4-16.98 2.23-25.28-.27 16.14-1.06 32.36.7 48.44-1.04-1.35-2.14-2.63-3.2-3.95-.97-3.1-.5-6.58-.83-9.82-.1-9.22-.47-18.47.14-27.67.82 6.06.64 12.19.96 18.28Z" fill="#000064" stroke="#000064" stroke-width=".094"/><path d="M326.97 244.81c.16-1.66.33-3.32.69-4.95 1.24.03 2.48.06 3.72.1 2.81 1.14 5.76 1.85 8.76 2.32-1.76.36-3.51.72-5.25 1.1 1.79.45 3.58.92 5.4 1.31-4.45-.01-8.89-.07-13.32.12Z" fill="#b1c8ed" stroke="#b1c8ed" stroke-width=".094"/><path d="M382.37 243.13c5.96 1.68 12.08 2.83 18.27 3.26 1.08 8.43.82 16.95 1.65 25.4.38 3.72.19 7.49-.82 11.1-2.08 7.44-2.18 15.22-3.62 22.78-.54 2.1-1.12 4.19-1.65 6.3-.19-3.2-.27-6.39-.22-9.58-.65.41-1.3.82-1.94 1.24-1.36-3.28-.88-6.7.74-9.78-.71-1.07-1.41-2.13-2.1-3.2-.31-1.4-.21-3.14-1.73-3.84-.58.9-1.07 1.86-1.48 2.85-15.65-.23-31.3.08-46.95-.27-4.98-1.98-10.44-.62-15.62-1.41.04-4-1.41-10.38 3.78-11.71-1.94-.36-3.87-.77-5.81-1.1 16.13-.47 32.29-.34 48.43-.62 4.14-.31 8.71-3.02 9.01-7.57.55-7.93-.14-15.9.06-23.85Z" fill="#fbaa8c" stroke="#fbaa8c" stroke-width=".094"/><path d="M197.16 244.51c3.9-.16 7.83-.43 11.74-.21.76.68 1.41 1.48 2.09 2.26.96-2.58 3.85-1.72 5.98-1.83 14.02.39 28.08-.36 42.08.52-.21 1.02-.43 2.05-.64 3.08-20.15-.18-40.31-.09-60.46-.04-1.1-.85-2.08-1.85-3.02-2.87.55-.22 1.67-.68 2.23-.91Z" fill="#00008e" stroke="#00008e" stroke-width=".094"/><path d="M51.95 250.98c-3.15-.22-3.93-6.98-.08-5.45-1.4 1.1-.76 2.96-.26 4.35l.34 1.1Z" fill="#000037" stroke="#000037" stroke-width=".094"/><path d="M326.97 244.81c4.43-.19 8.87-.13 13.32-.12 6.99.2 13.99.15 20.98 0 .03.93.08 2.81.11 3.74-8.61-.62-17.25-.01-25.87-.28-2.69-1.47-6.99-.36-8.54-3.34Z" fill="#00006d" stroke="#00006d" stroke-width=".094"/><path d="M51.61 249.88c-.5-1.39-1.14-3.25.26-4.35 1.9.53 1.9 4.26-.26 4.35Z" fill="#030086" stroke="#030086" stroke-width=".094"/><path d="M281.07 251.83c.43-.21 1.28-.62 1.7-.83.19.69.57 2.08.75 2.78.9-.31 1.8-.61 2.7-.9-.7 11.84-.37 23.73-.23 35.59-.9-.67-1.77-1.34-2.65-2.03-.22 1.01-.43 2.01-.65 3.02-.28-4.92-.41-9.84-.35-14.77-13.11.06-26.22-.17-39.32.09-7.89-.02-15.79.33-23.67-.2 7.45-1.76 15.15-.64 22.72-.92 5.01-.23 10.3.92 15.06-1.12-6.77-.35-13.54-.59-20.3-1.11 15.22-.23 30.44 0 45.66-.04-.01-6.63-.4-13.25-.22-19.87l-1.2.31Z" fill="#00007d" stroke="#00007d" stroke-width=".094"/><path d="M50.61 253.42c.57.02 1.71.04 2.28.05.27 1.96.35 3.95.33 5.93-1.22-.19-2.59-.23-3.44-1.27-.6-1.62.35-3.2.83-4.71Z" fill="#13075b" stroke="#13075b" stroke-width=".094"/><path d="M162.65 254.81c2.69 2.96 1.79 7.32 2.46 10.97-.15 2.51-.36 5.01-.53 7.52l-2.53-2.23c.56-5.4-.09-10.86.6-16.26Z" fill="#000043" stroke="#000043" stroke-width=".094"/><path d="M200.02 256.27c21.61.17 43.22.02 64.82.03l-.39 3.35c-18.83.19-37.65.1-56.47.2-1.92.03-3.83.19-5.73.38-.79-1.3-1.56-2.6-2.23-3.96Z" fill="navy" stroke="navy" stroke-width=".094"/><path d="M325.09 257.92c.44-.54.89-1.08 1.34-1.61 11.59.67 23.22.08 34.81.69 2.13-.07.4 2.32.08 3.29-11.47-.18-22.94-.18-34.4.1-.62-.83-1.22-1.65-1.83-2.47Z" fill="#000087" stroke="#000087" stroke-width=".094"/><path d="M50.49 265.92c1.05-1.16 1.51-4.62 3.64-3.51.23 2.09 0 4.19-.23 6.27-.52-.11-1.56-.32-2.07-.43-.34-.58-1.01-1.74-1.34-2.33Z" fill="#170c4e" stroke="#170c4e" stroke-width=".094"/><path d="M189.91 262.39c.36.05 1.07.14 1.43.19h.02c-.79.98-1.22 2.14-1.1 3.41-.15 7.71-.1 15.42-.15 23.13.94-.2 1.87-.4 2.82-.6 1.16.17 2.33.35 3.5.52-.57-3.55-1.36-7.12-2.96-10.36-.79-1.67-1.68-3.31-2.39-5.01 1.53-.19 2.99.45 4.41.97 5.03 3.92 8.7 9.33 14.25 12.62 2.62 3.07 6.69 3.8 10.43 4.68.29-.76.58-1.51.87-2.26 5.1-.2 10.2-.11 15.3.18.17 1.04.35 2.08.53 3.13-8.94-.74-17.88.47-26.81-.09-15.61-.19-31.23.15-46.83-.24-3.8-.44-7.61-.67-11.4-1.08 5.82-1.01 11.71-1.07 17.59-.84.24-.52.74-1.56.99-2.08 6.42.45 12.85.61 19.29.55-.4-8.94-.55-17.9.21-26.82Z" fill="#000060" stroke="#000060" stroke-width=".094"/><path d="M190.26 265.99c-.12-1.27.31-2.43 1.1-3.41.23.62.69 1.86.93 2.47.44 3.37.91 6.9 3.2 9.59-1.42-.52-2.88-1.16-4.41-.97.71 1.7 1.6 3.34 2.39 5.01l-.81-.79c-.03 3.55.12 7.09.27 10.63-.95.2-1.88.4-2.82.6.05-7.71 0-15.42.15-23.13Z" fill="#000037" stroke="#000037" stroke-width=".094"/><path d="M196.29 263.25c.99 3.98 5.11 5.82 6.44 9.67.14-.77.44-2.29.59-3.05.18.25.54.74.72.99 5.33 8 14.7 11.35 23.36 14.34 1.28.98 2.51 2.01 3.74 3.04-2.55.25-5.09.51-7.65.69-4.62-.05-9.36.02-13.75-1.67-5.55-3.29-9.22-8.7-14.25-12.62-2.29-2.69-2.76-6.22-3.2-9.59.91.57 1.83 1.14 2.75 1.71.42-1.17.84-2.34 1.25-3.51Z" fill="#fd6a34" stroke="#fd6a34" stroke-width=".094"/><path d="M149.61 272.49c-1.17-2.96 1.5-5.04 3.21-7.03-.1.65-.29 1.97-.38 2.62 2.4 1.37 4.97 2.42 7.62 3.2.99 1.26 1.65 1.19 1.99-.21l2.53 2.23c.17-2.51.38-5.01.53-7.52.24 2.44.31 4.89.33 7.34 2.82 1.77 6.64 3.19 7.54 6.78.57 1.76-.15 3.58-.6 5.28-.71-1.4-1.4-2.81-2.15-4.19-1.51-1.66-3.41-2.88-5.46-3.75-4.57-2.02-9.13-4.11-13.91-5.57l-1.25.82Z" fill="#00005d" stroke="#00005d" stroke-width=".094"/><path d="M195.11 269.34c3.29.21-1.58 2.99 0 0Z" fill="#d4331f" stroke="#d4331f" stroke-width=".094"/><path d="M160.06 271.28c.49-.05 1.49-.15 1.99-.21-.34 1.4-1 1.47-1.99.21Z" fill="#9b657f" stroke="#9b657f" stroke-width=".094"/><path d="M204.04 270.86c2.41 1.8 5.04 3.3 7.8 4.5.08.03.24.11.32.15 6.58 3.49 13.71 5.81 20.9 7.7.22.08.68.24.91.32.41 1.25.82 2.49 1.24 3.74-2.62-.63-5.23-1.28-7.81-2.07-8.66-2.99-18.03-6.34-23.36-14.34Z" fill="#000129" stroke="#000129" stroke-width=".094"/><path d="M209.65 271.34c9.06.22 18.12.16 27.18.09 6.76.52 13.53.76 20.3 1.11-4.76 2.04-10.05.89-15.06 1.12-7.57.28-15.27-.84-22.72.92-2.43.02-4.84.3-7.19.93-.08-.04-.24-.12-.32-.15-.74-1.34-1.43-2.7-2.19-4.02Z" fill="#0000a8" stroke="#0000a8" stroke-width=".094"/><path d="M324.3 275.12c.05-1.35.09-2.7.14-4.05 14.01.4 28.02.08 42.03.41-1.77.82-3.57 1.58-5.37 2.3 4.07.11 8.13.44 12.2.77-16.14.28-32.3.15-48.43.62l-.57-.05Z" fill="#000076" stroke="#000076" stroke-width=".094"/><path d="M51.95 275.06c-1.49-2.41 1.83-3.38 3.57-2.54.04.95.13 2.86.18 3.81-1.48.55-3.55.93-3.75-1.27Z" fill="#00004d" stroke="#00004d" stroke-width=".094"/><path d="m149.61 272.49 1.25-.82c4.78 1.46 9.34 3.55 13.91 5.57 2.05.87 3.95 2.09 5.46 3.75-.65 4.58-5.84 8.43-10.26 6.06-4.24-2.49-8.36-5.18-12.79-7.31.69-2.46 1.46-4.89 2.43-7.25Z" fill="#fbddde" stroke="#fbddde" stroke-width=".094"/><path d="M402.29 271.79c.95 1.41 1.89 2.84 2.83 4.26.24-.48.71-1.45.95-1.93.11.98.23 1.97.36 2.96.36.23 1.07.69 1.43.92 1.9 2.04 3.13 4.59 3.8 7.28-.92 21.53 1.2 43.13 6.06 64.12-.68.03-2.04.08-2.72.11-.22 2.14-.4 4.3-.23 6.46.45 5.47-.27 11.01.85 16.44.12 6.54-1.09 13.04-1.08 19.59-.16 3.01.71 6.22-.85 9.01-.28-.49-.84-1.46-1.11-1.95-.78 2.01-1.1 4.31-2.52 5.99-6.73-.07-13.76.92-20.26-1.25 1.48-.59 2.98-1.16 4.52-1.6 1.63 2.02 4.33 1.67 6.64 1.8 3.03.04 6.06-.08 9.09-.17-.03-1.21-.05-2.42-.08-3.62-1.38-.13-2.77-.24-4.14-.33 1.64-.58 3.24-1.28 4.84-1.98-4.02-2.55-8.2 1.8-12.33.73-1.77-3.23-.87-7.12-.94-10.63.64-6.28-.96-12.57.02-18.82 1.57-8.91.04-18 1.17-26.95 1.36-8.83-.92-17.72.11-26.58.42-2.8.64-5.72-.86-8.27 0-.42 0-1.28.01-1.71 1.44-7.56 1.54-15.34 3.62-22.78 1.01-3.61 1.2-7.38.82-11.1Z" fill="#000054" stroke="#000054" stroke-width=".094"/><path d="M118.51 275.93c.52-1.35 1.33-2.54 2.22-3.66 6.3 2.54 12.69 4.85 19.2 6.78 2.12.95 3.33 2.89 4.21 4.95-1.64-.87-3.32-1.69-5.19-1.89-5.64-1.37-10.99-3.7-16.6-5.17-.14 5.21-.39 10.46.3 15.65.77 4.62 2.2 9.09 3.29 13.64 5 21.5 8.89 43.24 11.79 65.12-1.06 3.52-.5 7.14.07 10.68-.02 1.49.89 3.98-1.19 4.45-3.12.8-7.77 2.44-9.86-1.06-1.62-3.84-1.93-8.12-3.86-11.84-.33.02-1.01.06-1.34.09-3.45-11.25-5.99-22.74-8.83-34.14-.39 2.67-.72 5.37-1.57 7.94.09-4.58-.03-9.18.56-13.73.99-7.22.35-14.5.58-21.76-.06-4.96.44-9.96-.25-14.89l-1.65-1.37c-8.95.3-18.01.31-26.88-1.06 1.22 10.21 4.01 20.15 5.38 30.34.71 4.83.87 9.9 3.35 14.25-.37.26-1.13.78-1.5 1.05-3.43-6.28-5.04-13.3-5.75-20.36-1.93-8.37-2.21-17-3.64-25.45-3.04-2.56-3.23-6.6-3.1-10.28 1.06 1.32 2.16 2.6 3.2 3.95.1.26.3.78.4 1.03 10.71.98 21.47 1.47 32.22 1.38 2.37.12 3.76-2.28 4.18-4.3.61-3.41.24-6.9.26-10.34Z" fill="#00004d" stroke="#00004d" stroke-width=".094"/><path d="M212.16 275.51c2.35-.63 4.76-.91 7.19-.93 7.88.53 15.78.18 23.67.2 13.1-.26 26.21-.03 39.32-.09-.06 4.93.07 9.85.35 14.77-11.98.02-23.98-.16-35.95.45-.03-1.91.06-3.85-.56-5.68l-.25-.81c-2.22-1.04-4.68-1.17-7.09-1.29-1.99-.27-4.14-.26-5.78 1.08-7.19-1.89-14.32-4.21-20.9-7.7Z" fill="#faa88e" stroke="#faa88e" stroke-width=".094"/><path d="m324.3 275.12.57.05c1.94.33 3.87.74 5.81 1.1-5.19 1.33-3.74 7.71-3.78 11.71 5.18.79 10.64-.57 15.62 1.41-6.57.07-13.14-.06-19.71-.01.05-1.66.16-3.3.32-4.94.54-3.09.99-6.19 1.17-9.32Z" fill="#fcacaa" stroke="#fcacaa" stroke-width=".094"/><path d="M122.35 276.94c5.61 1.47 10.96 3.8 16.6 5.17.5.24 1.49.73 1.99.97 1.76 1.48 2.97 3.44 4.12 5.41-2.38.1-4.87-.4-7.19.31-2.74 1.71-1.32 5.51-1.7 8.18.4 2.72-.78 6.28 1.45 8.36 3.03.58 6.14.35 9.21.37.17 26.82-.75 53.64-.39 80.46-.6-.84-1.2-1.67-1.8-2.5-1.02-.09-2.03-.18-3.05-.26-.31-1.44-.62-2.86-.93-4.28-.33.31-.98.95-1.31 1.26-.51-3.02-1.11-6.02-1.62-9.04-2.9-21.88-6.79-43.62-11.79-65.12-1.09-4.55-2.52-9.02-3.29-13.64-.69-5.19-.44-10.44-.3-15.65Z" fill="#fca690" stroke="#fca690" stroke-width=".094"/><path d="M407.86 278c11.99.38 24.01.32 36 .1-.82.52-1.65 1.03-2.48 1.53 1.99.82 3.99 1.72 5.47 3.35-1.36 4.37-2.6 8.79-4.08 13.11-1.44 1.08-2.94 2.08-4.44 3.07.6-5.74 1.84-11.45 4.16-16.76-9.94.16-19.88-.06-29.81.22-.25.67-.76 2-1.02 2.66-.67-2.69-1.9-5.24-3.8-7.28Z" fill="#030086" stroke="#030086" stroke-width=".094"/><path d="M55.96 285.67c-2.32-1.22-3.26-5.36.08-5.95.76 1.1 1.52 2.21 2.28 3.33-.69.95-1.21 2.12-2.36 2.62Z" fill="#0a0468" stroke="#0a0468" stroke-width=".094"/><path d="m192.66 277.89.81.79c1.6 3.24 2.39 6.81 2.96 10.36-1.17-.17-2.34-.35-3.5-.52-.15-3.54-.3-7.08-.27-10.63Z" fill="#fcfbf8" stroke="#fcfbf8" stroke-width=".094"/><path d="M200.89 289.09c-.92-2.6-1.8-5.21-2.66-7.83 2.8 3.18 5.95 6.04 9.58 8.23-2.31-.16-4.61-.3-6.92-.4Z" fill="#fff6f8" stroke="#fff6f8" stroke-width=".094"/><path d="M233.06 283.21c1.64-1.34 3.79-1.35 5.78-1.08-.99 1.76-3.1 2.06-4.87 1.4-.23-.08-.69-.24-.91-.32Z" fill="#febacf" stroke="#febacf" stroke-width=".094"/><path d="M238.84 282.13c2.41.12 4.87.25 7.09 1.29-.89 1.45-1.72 2.94-2.64 4.37-.43-1.56-1.21-3.94-3.29-3.01-.47 1.09-.9 2.2-1.27 3.33-.95-.25-1.91-.48-2.86-.68l-.66-.16c-.42-1.25-.83-2.49-1.24-3.74 1.77.66 3.88.36 4.87-1.4Z" fill="#000069" stroke="#000069" stroke-width=".094"/><path d="M412.68 282.62c9.93-.28 19.87-.06 29.81-.22-2.32 5.31-3.56 11.02-4.16 16.76-2.68 21.57-1.62 43.38.66 64.94 1.06 7.96 2.13 15.95 4.19 23.73.12 1.43.23 2.87.33 4.31-3.46.76-9.04.36-9.48 5.04-.19-3.31-1.93-6.19-3.09-9.21-4.91-12.67-9.62-25.45-13.22-38.57-4.86-20.99-6.98-42.59-6.06-64.12.26-.66.77-1.99 1.02-2.66Z" fill="#0050f9" stroke="#0050f9" stroke-width=".094"/><path d="M146.05 284c3.04 1 5.78 2.79 7.95 5.15-2.24.19-4.67.54-6.71-.66-.72-1.39-.92-2.98-1.24-4.49Z" fill="#f9e7da" stroke="#f9e7da" stroke-width=".094"/><path d="M240 284.78c2.08-.93 2.86 1.45 3.29 3.01-.72.57-1.44 1.13-2.17 1.69-.79-.48-1.59-.93-2.39-1.37.37-1.13.8-2.24 1.27-3.33Z" fill="#f3e1cd" stroke="#f3e1cd" stroke-width=".094"/><path d="m245.93 283.42.25.81c.18 3.3-.78 6.5-3.2 8.81-2.04.11-4.08.06-6.11-.05-.18-1.05-.36-2.09-.53-3.13l-.11-.57-.36-1.86c.95.2 1.91.43 2.86.68.8.44 1.6.89 2.39 1.37.73-.56 1.45-1.12 2.17-1.69.92-1.43 1.75-2.92 2.64-4.37Z" fill="#000049" stroke="#000049" stroke-width=".094"/><path d="M246.18 284.23c.62 1.83.53 3.77.56 5.68 11.97-.61 23.97-.43 35.95-.45.22-1.01.43-2.01.65-3.02.88.69 1.75 1.36 2.65 2.03 2.71 1.61 5.97.85 8.96.98 7.91-.29 15.87.31 23.75-.51.64.17 1.91.5 2.54.67.59-1.74 1.24-3.46 1.89-5.17a73.57 73.57 0 0 0-.32 4.94c.67 1.17 1.41 2.32 2.14 3.47-27.32.04-54.66-.14-81.97.19 2.42-2.31 3.38-5.51 3.2-8.81Z" fill="#000060" stroke="#000060" stroke-width=".094"/><path d="M227.4 285.2c2.58.79 5.19 1.44 7.81 2.07l.66.16.36 1.86c-4.25-.03-8.5-.05-12.74-.36 2.56-.18 5.1-.44 7.65-.69-1.23-1.03-2.46-2.06-3.74-3.04Z" fill="#f79273" stroke="#f79273" stroke-width=".094"/><path d="M56.1 287.69c2.94.96 4.5 4.18 3.15 7.04-2.81-1.1-4.27-4.23-3.15-7.04Z" fill="#000164" stroke="#000164" stroke-width=".094"/><path d="M209.74 287.26c4.39 1.69 9.13 1.62 13.75 1.67 4.24.31 8.49.33 12.74.36l.11.57c-5.1-.29-10.2-.38-15.3-.18-.29.75-.58 1.5-.87 2.26-3.74-.88-7.81-1.61-10.43-4.68Z" fill="#00003f" stroke="#00003f" stroke-width=".094"/><path d="M389.47 289.66c.41-.99.9-1.95 1.48-2.85 1.52.7 1.42 2.44 1.73 3.84.69 1.07 1.39 2.13 2.1 3.2-1.62 3.08-2.1 6.5-.74 9.78.64-.42 1.29-.83 1.94-1.24-.05 3.19.03 6.38.22 9.58.53-2.11 1.11-4.2 1.65-6.3-.01.43-.01 1.29-.01 1.71-2.11 14.44-2.47 29.04-3.11 43.59-.47.59-.94 1.19-1.4 1.79-.22-.66-.66-1.98-.88-2.65-.22 1.53-.44 3.05-.65 4.58-.44-.35-.88-.7-1.3-1.05-1.49 3.3-4.05 6.61-8.07 6.03-.01 2.51-.36 4.99-.88 7.43-.41-2.48-.86-4.96-1.26-7.44-.05-17.74-.19-35.5.16-53.24 3.18-1.24 9.33.37 9.46-4.4.6-4.11-.05-8.26-.44-12.36Z" fill="#faa386" stroke="#faa386" stroke-width=".094"/><path d="M322.81 289.38c6.57-.05 13.14.08 19.71.01 15.65.35 31.3.04 46.95.27-1.04 1-2.07 2.01-3.08 3.04-20.47.3-40.96.15-61.44.15-.73-1.15-1.47-2.3-2.14-3.47Z" fill="#000050" stroke="#000050" stroke-width=".094"/><path d="M389.47 289.66c.39 4.1 1.04 8.25.44 12.36-.13 4.77-6.28 3.16-9.46 4.4-.35 17.74-.21 35.5-.16 53.24l-.2 1.85c-2.51 7.58-.92 15.67-1.15 23.48-.29 6.93.85 13.83.62 20.74-2.62 1.7-6.28.81-9.31 1.16l-3.47-3.32c0-1.3.02-2.59.08-3.88 2.47-6.84 1.25-14.32 1.32-21.44.73 1.07 1.45 2.12 2.19 3.2.29 7.72-.37 15.44-.07 23.15 2.1.06 4.21.1 6.32.12-.17-33.09-.04-66.17-.03-99.26-2.15.05-4.3.05-6.44.13-1.38 1.48-1.16 3.54-1.21 5.4.03 3.69-.05 7.38-.4 11.05-.59-5.37-.26-10.78-.51-16.16l-1.34-.15c-13.05-.11-26.1.13-39.14-.18 2.44-.58 4.93-.94 7.44-1.02-7.22-1.74-14.67-.92-22.01-1.08-7.66-.1-15.32.08-22.99-.07-3.53 0-7.46-.53-10.35 1.98-15.1.51-30.2.07-45.29.15-9.79.27-19.58.14-29.37.15-1.39.09-3.07-.16-4 1.11l-.68-.17c-.65-.97-.87-2.72-2.37-2.65-3.31-.49-6.67-.34-10.01-.44 3.83-.48 7.64-1.01 11.47-1.41 15.2-.52 30.39.27 45.59-.1 12.02.58 24.04-.67 36.05.13 13.31-.37 26.64-.53 39.95.02 18.36-.01 36.72-.02 55.08.08 3.53-.12 7.2.49 10.64-.48.39-3.01.15-6.06-.31-9.05 1.01-1.03 2.04-2.04 3.08-3.04Z" fill="#010086" stroke="#010086" stroke-width=".094"/><path d="M139.68 292.56c7.85.32 15.7.17 23.55.1 15.6.39 31.22.05 46.83.24 8.93.56 17.87-.65 26.81.09 2.03.11 4.07.16 6.11.05 27.31-.33 54.65-.15 81.97-.19 20.48 0 40.97.15 61.44-.15.46 2.99.7 6.04.31 9.05-3.44.97-7.11.36-10.64.48-18.36-.1-36.72-.09-55.08-.08-13.31-.55-26.64-.39-39.95-.02-12.01-.8-24.03.45-36.05-.13-15.2.37-30.39-.42-45.59.1-15.77-.75-31.61-.04-47.41-.33-3.93-.25-7.98.97-11.82-.02-1.1-2.89-.39-6.16-.48-9.19Z" fill="#fefffd" stroke="#fefffd" stroke-width=".094"/><path d="M83.51 294.66c8.87 1.37 17.93 1.36 26.88 1.06 1.87 8.64.1 17.51.46 26.25.34 6.24-.63 12.42-1.47 18.59-.88.39-1.77.78-2.65 1.18-.01 2.65-.49 5.29-1.95 7.55-3.52-1.74-5.46-5.3-8.44-7.7-.7.17-1.38.37-2.06.62-.69-.99-1.38-1.96-2.04-2.96-2.48-4.35-2.64-9.42-3.35-14.25-1.37-10.19-4.16-20.13-5.38-30.34Z" fill="#00008d" stroke="#00008d" stroke-width=".094"/><path d="M59.73 296.35c.89.57 1.77 1.14 2.63 1.76.04 1.41.04 2.84-.01 4.26-.54-.03-1.61-.1-2.15-.13-.54-1.1-1.07-2.2-1.58-3.3.28-.65.83-1.94 1.11-2.59Z" fill="#010068" stroke="#010068" stroke-width=".094"/><path d="m110.39 295.72 1.65 1.37c.69 4.93.19 9.93.25 14.89-.23 7.26.41 14.54-.58 21.76-.59 4.55-.47 9.15-.56 13.73-1.93 4.83-4.7 9.27-7.19 13.82-1.37 1.11-2.75 2.2-4.11 3.32-.61-.51-1.22-1.03-1.83-1.53-1.21 1.31-2.43 2.62-3.65 3.92-.55-3-.89-6.02-1.32-9.04-.13-2.33-2.01-3.96-2.8-6.05-.78-2.03-1.33-4.15-2.02-6.21l-.04-.13c.71-1.02 1.01-2.16.9-3.41.41-.47 1.23-1.4 1.65-1.86.37-.27 1.13-.79 1.5-1.05.66 1 1.35 1.97 2.04 2.96.68-.25 1.36-.45 2.06-.62 2.98 2.4 4.92 5.96 8.44 7.7 1.46-2.26 1.94-4.9 1.95-7.55.88-.4 1.77-.79 2.65-1.18.84-6.17 1.81-12.35 1.47-18.59-.36-8.74 1.41-17.61-.46-26.25Z" fill="#00006c" stroke="#00006c" stroke-width=".094"/><path d="M438.33 299.16c1.5-.99 3-1.99 4.44-3.07-3.6 22.13-2.8 44.79-.15 66.99 1.73 14.82 5.08 29.39 7.22 44.15-7.27 1.85-14.91.56-22.34.96 5.34-4.11 12.12-.12 18.17-1.33.01-.54.05-1.64.06-2.18.01-2.4-.03-4.8-.1-7.19-.03-3.38-1.27-6.55-2.45-9.66-2.06-7.78-3.13-15.77-4.19-23.73-2.28-21.56-3.34-43.37-.66-64.94Z" fill="#04005a" stroke="#04005a" stroke-width=".094"/><path d="M62.36 298.11c.55 1.95.96 3.95 1.23 5.97-.34-.17-1.02-.5-1.36-.67-.69-.36-1.37-.75-2.03-1.17.54.03 1.61.1 2.15.13.05-1.42.05-2.85.01-4.26Z" fill="#fddcdf" stroke="#fddcdf" stroke-width=".094"/><path d="M279.64 305.36c2.89-2.51 6.82-1.98 10.35-1.98 7.67.15 15.33-.03 22.99.07 7.34.16 14.79-.66 22.01 1.08-2.51.08-5 .44-7.44 1.02-2.64.06-5.28.03-7.92.01-1.72 6.48-2.16 13.2-3.7 19.72-.12-6.61 1.81-13.03 2.08-19.61-1.27.16-2.53.32-3.78.57-.55.1-1.64.32-2.18.42-.17.38-.52 1.14-.69 1.52l-.24-2.45c-8.42-.13-16.87-.29-25.26.35-.05 1.7-.09 3.41-.06 5.13-.43-1.62-.93-3.22-1.49-4.8-.17-.19-.51-.57-.69-.76-1.32-.15-2.65-.25-3.98-.29Z" fill="#030054" stroke="#030054" stroke-width=".094"/><path d="M62.23 303.41c.34.17 1.02.5 1.36.67 2.05 1.23 2.73 3.87 3.91 5.85-1.62-.2-3.23-.42-4.83-.64-.24-1.96-.39-3.92-.44-5.88Z" fill="#04006e" stroke="#04006e" stroke-width=".094"/><path d="M150.41 305.36c2.09.01 4.19.01 6.29 0-.12 11.13-.55 22.27-.23 33.39.4 21.13-.42 42.25-.09 63.38l-.72.23c-1.71-.64-3.39-1.37-5.07-2.1-.49-31.63.13-63.27-.18-94.9Z" fill="#fefefc" stroke="#fefefc" stroke-width=".094"/><path d="M234.35 305.51c15.09-.08 30.19.36 45.29-.15 1.33.04 2.66.14 3.98.29.91 10.44 1.42 20.93 2.58 31.35 1.25 20.4 4.58 40.61 6.14 60.98a53.72 53.72 0 0 0-9.25 4c.04 1.43.12 2.86.22 4.3-18.45.5-36.91.05-55.37.16-1.5.15-2.91-.32-3.89-1.47-2.23-2.47-5.36-3.7-8.4-4.82-2.59-7.89-3.05-16.25-4.24-24.42 5.43-9.81 10.16-20.01 15.39-29.94 2.97-5.17 6.11-10.32 8.03-16-10.47-8.8-22.42-15.58-33.85-23.02.93-1.27 2.61-1.02 4-1.11 9.79-.01 19.58.12 29.37-.15Z" fill="#fbaa8a" stroke="#fbaa8a" stroke-width=".094"/><path d="M158.61 306.71c13.88-.53 27.8-.52 41.69-.11l.68.17c11.43 7.44 23.38 14.22 33.85 23.02-1.92 5.68-5.06 10.83-8.03 16-1.14.88-2.29 1.74-3.44 2.61-.29-.85-.57-1.68-.84-2.52-.88 1.29-1.75 2.58-2.62 3.87.6.74 1.2 1.48 1.8 2.23-.63.47-1.26.95-1.89 1.44-.08 3.74-2.2 6.88-4.09 9.94-.6-.34-1.19-.69-1.77-1.02-.2 1.22-.4 2.45-.59 3.69-1.3 2-2.68 3.95-4.12 5.85-.77-.56-1.53-1.11-2.29-1.66-2.85 5.89-3.5 12.61-6.73 18.33-2.12-1.67-4.63-2.69-7.15-3.59.14-.41.43-1.22.58-1.63 3.61-10.98 8.57-21.44 12.41-32.33 1.33-3.34 2.74-6.66 4.34-9.89.18-.27.55-.82.73-1.1 1.15-1.45 2.69-4.23.48-5.47-6.74-3.19-12.83-7.62-19.74-10.45-8.01-3.54-16.72-5.84-23.72-11.33-1.77-1.47-3.55-2.94-5.4-4.3-.85 1.76-2.13 3.48-2 5.54 1.92 2.11 4.51 3.48 6.51 5.53-3.02.41-6.05.72-9.08 1.01.06-4.61.14-9.23.43-13.83Z" fill="#000098" stroke="#000098" stroke-width=".094"/><path d="M283.62 305.65c.18.19.52.57.69.76.56 1.58 1.06 3.18 1.49 4.8 1.34 8.78 2.85 17.56 3.46 26.43-.35 5.24.06 10.6 1.52 15.66 3.23 10.58 2 21.81 4.06 32.59-.13 4.23-.2 8.47-.19 12.71-1.28.74-2.55 1.5-3.85 2.19-1.09.32-2.17.65-3.24 1.02-1.15.61-2.25 1.3-3.35 2 6.57 2.84 13.93.5 20.83 1.63-5.97.64-11.99-.12-17.95.44-.3.38-.88 1.16-1.17 1.55l-.4.64-.66 1.07-.54-.96c-.25-.48-.76-1.43-1.01-1.9-.1-1.44-.18-2.87-.22-4.3a53.72 53.72 0 0 1 9.25-4c-1.56-20.37-4.89-40.58-6.14-60.98-1.16-10.42-1.67-20.91-2.58-31.35Z" fill="#000037" stroke="#000037" stroke-width=".094"/><path d="M285.86 306.08c8.39-.64 16.84-.48 25.26-.35l.24 2.45c-1.07 7.23-.39 14.6-1.73 21.81.27 4.26-1.9 8.94.24 12.88 2.75 4.85 4.22 10.34 7.31 15 5.63 8.01 10.61 16.47 16.68 24.18 1.71 2.08 2.86 4.53 3.95 6.97-.32-.1-.96-.32-1.28-.42-3.3-1.75-6.47.57-9.44 1.85-2.92-3.95-5.43-8.2-8.57-11.99l1.96-1.56c-3.01-3.5-7.38-5.77-9.42-10.06-1.41-2.75-3.67-4.88-5.85-7-3.61-3.46-6.38-7.71-10.18-10.98-1.48-1.44-3.26-2.66-4.29-4.48-.76-2.18-1.08-4.48-1.48-6.74-.61-8.87-2.12-17.65-3.46-26.43-.03-1.72.01-3.43.06-5.13Z" fill="#0003aa" stroke="#0003aa" stroke-width=".094"/><path d="M312.05 306.66c.54-.1 1.63-.32 2.18-.42.3 6.47-.46 12.91-.91 19.36-.67 5.83-2.98 11.68-1.44 17.57-.5-.07-1.5-.23-2.01-.3-2.14-3.94.03-8.62-.24-12.88 1.34-7.21.66-14.58 1.73-21.81.17-.38.52-1.14.69-1.52Z" fill="#02021f" stroke="#02021f" stroke-width=".094"/><path d="M314.23 306.24c1.25-.25 2.51-.41 3.78-.57-.27 6.58-2.2 13-2.08 19.61l-2.61.32c.45-6.45 1.21-12.89.91-19.36Z" fill="#0d17d2" stroke="#0d17d2" stroke-width=".094"/><path d="M315.93 325.28c1.54-6.52 1.98-13.24 3.7-19.72 2.64.02 5.28.05 7.92-.01 13.04.31 26.09.07 39.14.18.22 31.32-.1 62.64.17 93.96-.06 1.29-.08 2.58-.08 3.88.01.65.02 1.97.03 2.62l-.74.05c-11.7-.28-23.41.2-35.11-.31-1.79.04-3.54.32-5.26.84 2.19-2.14 4.27-4.39 6.42-6.58 2.86-2.73 5.8-5.41 9.04-7.68a97.26 97.26 0 0 1 3.09-1.86c-10.91-15.37-20.3-31.82-31.64-46.89 1.01-6.18 2.42-12.29 3.32-18.48Z" fill="#fca98b" stroke="#fca98b" stroke-width=".094"/><path d="m366.69 305.73 1.34.15c.25 5.38-.08 10.79.51 16.16.35-3.67.43-7.36.4-11.05.05-1.86-.17-3.92 1.21-5.4.35 25.28.05 50.57.22 75.86-.74-1.08-1.46-2.13-2.19-3.2-.07 7.12 1.15 14.6-1.32 21.44-.27-31.32.05-62.64-.17-93.96Z" fill="#020269" stroke="#020269" stroke-width=".094"/><path d="M370.15 305.59c2.14-.08 4.29-.08 6.44-.13-.01 33.09-.14 66.17.03 99.26-2.11-.02-4.22-.06-6.32-.12-.3-7.71.36-15.43.07-23.15-.17-25.29.13-50.58-.22-75.86Z" fill="#fdfdfc" stroke="#fdfdfc" stroke-width=".094"/><path d="M397.84 307.38c1.5 2.55 1.28 5.47.86 8.27-1.03 8.86 1.25 17.75-.11 26.58-1.13 8.95.4 18.04-1.17 26.95-.98 6.25.62 12.54-.02 18.82.07 3.51-.83 7.4.94 10.63 4.13 1.07 8.31-3.28 12.33-.73-1.6.7-3.2 1.4-4.84 1.98-3.88.58-7.74 1.27-11.51 2.32-1.54.44-3.04 1.01-4.52 1.6 6.5 2.17 13.53 1.18 20.26 1.25 1.42-1.68 1.74-3.98 2.52-5.99.27.49.83 1.46 1.11 1.95 1.27 2.17.91 4.81.9 7.21-9.38-1.05-18.84-.36-28.26-.52l-.36-1.93c.27-1.46.33-3.2 1.63-4.16 2.59-.96 5.37-1.13 8.08-1.54-.45-16.36-1.34-32.72-.95-49.1.64-14.55 1-29.15 3.11-43.59Z" fill="#00003c" stroke="#00003c" stroke-width=".094"/><path d="M65.93 312.97c3.2-.26 5.86 2.86 4.63 5.98-2.3-1.24-3.99-3.45-4.63-5.98Z" fill="#00006e" stroke="#00006e" stroke-width=".094"/><path d="m163.98 313.36 4.17-.6c7 5.49 15.71 7.79 23.72 11.33 6.91 2.83 13 7.26 19.74 10.45 2.21 1.24.67 4.02-.48 5.47.2-1.43.52-2.89.23-4.33-1.35-.62-2.77-1.06-4.16-1.54-.86.63-1.71 1.26-2.56 1.9-.14-.79-.29-1.57-.43-2.36-.77-.53-1.54-1.06-2.31-1.58.61 2.94 3.54 6.22 1.14 8.99.11-3.04-1.34-5.82-4.13-7.16-2.98-1.18-5.94-2.42-8.63-4.17-6.97-4.36-14.67-7.31-21.74-11.47-2.01-1.13-3.25-3.11-4.56-4.93Z" fill="#00004b" stroke="#00004b" stroke-width=".094"/><path d="M71.24 321.27c3.2-1.12 4.74 2.85 3.98 5.37-2.06-.88-4.68-2.83-3.98-5.37Z" fill="#02005f" stroke="#02005f" stroke-width=".094"/><path d="m313.32 325.6 2.61-.32c-.9 6.19-2.31 12.3-3.32 18.48-.18-.15-.55-.44-.73-.59-1.54-5.89.77-11.74 1.44-17.57Z" fill="#01009c" stroke="#01009c" stroke-width=".094"/><path d="M75.36 328.43c3.1.64 6.6 2.96 6.57 6.45-3.44-.61-5.36-3.44-6.57-6.45Z" fill="#000047" stroke="#000047" stroke-width=".094"/><path d="M201.9 332.1c.77.52 1.54 1.05 2.31 1.58.14.79.29 1.57.43 2.36.85-.64 1.7-1.27 2.56-1.9 1.39.48 2.81.92 4.16 1.54.29 1.44-.03 2.9-.23 4.33-.18.28-.55.83-.73 1.1-1.42.86-2.85 1.71-4.25 2.58.77-2.08 1.46-4.2 2.03-6.34-1.8 1.44-2.93 3.45-3.74 5.57-.52 1.12-1.04 2.25-1.57 3.37-2.44.32-4.89.55-7.34.64 1.85-1.59 3.78-3.08 5.74-4.52.44-.33 1.33-.99 1.77-1.32 2.4-2.77-.53-6.05-1.14-8.99Z" fill="#000236" stroke="#000236" stroke-width=".094"/><path d="M160.19 333c4.08-.41 8.18-.49 12.27-.19 2.05.79 4.17 1.38 6.36 1.64-5.49.17-6.55 6.41-10.92 8.59-1.68-.74-3.32-1.56-4.93-2.43-3.31-1.21-2.93-4.72-2.78-7.61Z" fill="#00cdeb" stroke="#00cdeb" stroke-width=".094"/><path d="M172.46 332.81c8.81-.14 17.72-.24 26.45 1.12 2.79 1.34 4.24 4.12 4.13 7.16-.44.33-1.33.99-1.77 1.32-4.95 1.47-10.18.94-15.27 1.06-6.03-.11-12.09.14-18.1-.43 4.37-2.18 5.43-8.42 10.92-8.59-2.19-.26-4.31-.85-6.36-1.64Z" fill="#00bbe6" stroke="#00bbe6" stroke-width=".094"/><path d="M82.12 338.32c2.95-.79 4.36 2.36 6.38 3.82-.31.66-.93 1.99-1.25 2.65-2.02-1.88-3.99-3.91-5.13-6.47Z" fill="#000037" stroke="#000037" stroke-width=".094"/><path d="M204.44 342.92c.81-2.12 1.94-4.13 3.74-5.57-.57 2.14-1.26 4.26-2.03 6.34 1.4-.87 2.83-1.72 4.25-2.58-1.6 3.23-3.01 6.55-4.34 9.89-3.84 10.89-8.8 21.35-12.41 32.33-1.07-.36-2.13-.74-3.19-1.12.93-6.13 4.74-11.91 3.5-18.25-.84-5.24-.15-10.66-1.69-15.8l-.31-.85c-2.97-.65-6.15-.97-8.94.51-1.73.42-3.51.43-5.18-.24-5.42-1.64-11.36.05-16.58-2.69.56-1.43 1.13-2.86 1.71-4.28 1.61.87 3.25 1.69 4.93 2.43 6.01.57 12.07.32 18.1.43 5.09-.12 10.32.41 15.27-1.06-1.96 1.44-3.89 2.93-5.74 4.52.91 4.69 1.36 9.46 1.97 14.2 2.16-6.13 4.39-12.23 6.94-18.21Z" fill="#00004f" stroke="#00004f" stroke-width=".094"/><path d="M289.26 337.64c.4 2.26.72 4.56 1.48 6.74 1.03 1.82 2.81 3.04 4.29 4.48 3.8 3.27 6.57 7.52 10.18 10.98 2.18 2.12 4.44 4.25 5.85 7 2.04 4.29 6.41 6.56 9.42 10.06l-1.96 1.56c3.14 3.79 5.65 8.04 8.57 11.99.99 1.98 3.04 2.23 5.04 2.09-1.41 1.13-2.71 2.39-3.84 3.8.48-.22 1.46-.65 1.95-.86.62 1.56 1.25 3.14 1.88 4.71-2.15 2.19-4.23 4.44-6.42 6.58 2.29.43 4.63.52 6.95.78-2.56.11-5.15-.34-7.69.15-.46-.88-.88-1.76-1.26-2.66 1.38-2.57 4.02-4.52 4.23-7.63-5.02-6.84-11.06-12.97-15.02-20.55-.18-3.8-2.37-7.01-3.59-10.5-.32-1.45-1.86-1.84-2.94-2.55.6 3.63 1.01 7.4-.67 10.83-1.01-2.56-1.08-5.3-1.38-7.99-1.16-2.65-3.7-4.34-5.65-6.37-2.74-2.48-4.76-5.59-6.7-8.7l-1.2 1.72c-1.46-5.06-1.87-10.42-1.52-15.66Z" fill="#00015c" stroke="#00015c" stroke-width=".094"/><path d="M156.47 338.75c3.01.19 2.57 3.49 3.26 5.61 1 14.79.23 29.66.43 44.47-.06 4.43.02 8.87-.03 13.3 0 .75.01 2.24.01 2.99-.69-1.22-1.43-2.4-2.16-3.57-.4.14-1.2.43-1.6.58-.33-21.13.49-42.25.09-63.38Z" fill="#000083" stroke="#000083" stroke-width=".094"/><path d="M112.72 339.53c2.84 11.4 5.38 22.89 8.83 34.14 2.01 6.13 2.72 12.6 4.89 18.68 1.45 4.31 1.64 8.94 3.19 13.22-11.45 1.37-23.03.38-34.54.59-.16-.49-.5-1.47-.67-1.95-3.06-3.06-7.33-4.25-11.05-6.26 1.82-2.4 3.57-4.86 4.98-7.52 5.17-9.73 10.78-19.23 15.61-29.14 2.49-4.55 5.26-8.99 7.19-13.82.85-2.57 1.18-5.27 1.57-7.94Z" fill="#feab8e" stroke="#feab8e" stroke-width=".094"/><path d="m88.5 342.14.59.02c.11 1.25-.19 2.39-.9 3.41l-.64-.08-.3-.7c.32-.66.94-1.99 1.25-2.65Z" fill="#fefffd" stroke="#fefffd" stroke-width=".094"/><path d="M204.44 342.92c-2.55 5.98-4.78 12.08-6.94 18.21-.61-4.74-1.06-9.51-1.97-14.2 2.45-.09 4.9-.32 7.34-.64.53-1.12 1.05-2.25 1.57-3.37Z" fill="#f9cfb1" stroke="#f9cfb1" stroke-width=".094"/><path d="M309.87 342.87c.51.07 1.51.23 2.01.3.18.15.55.44.73.59 11.34 15.07 20.73 31.52 31.64 46.89-1.04.6-2.07 1.22-3.09 1.86-.93-.86-1.87-1.69-2.73-2.6l-.62-.89c-1.09-2.44-2.24-4.89-3.95-6.97-6.07-7.71-11.05-16.17-16.68-24.18-3.09-4.66-4.56-10.15-7.31-15Z" fill="#010068" stroke="#010068" stroke-width=".094"/><path d="M159.73 344.36c.38.14 1.15.4 1.53.53 5.22 2.74 11.16 1.05 16.58 2.69-1.43 1.44-2.86 2.89-4.26 4.35.96 1.9 2.55 3.69 2.28 5.98-.08 6.08.79 12.16.5 18.24l-1.24 1.48a44.224 44.224 0 0 0-10.66 9.53c-.74.83-1.5 1.63-2.25 2.45-.51-.2-1.54-.58-2.05-.78-.2-14.81.57-29.68-.43-44.47Z" fill="#ffae93" stroke="#ffae93" stroke-width=".094"/><path d="M88.23 345.7c.69 2.06 1.24 4.18 2.02 6.21.79 2.09 2.67 3.72 2.8 6.05.43 3.02.77 6.04 1.32 9.04 1.22-1.3 2.44-2.61 3.65-3.92.61.5 1.22 1.02 1.83 1.53 1.36-1.12 2.74-2.21 4.11-3.32-4.83 9.91-10.44 19.41-15.61 29.14-1.41 2.66-3.16 5.12-4.98 7.52-.62-.33-1.24-.65-1.85-.97.89-.97 1.77-1.93 2.66-2.89-.2-.94-.41-1.87-.62-2.8 0-3.79-4.37-4.13-6.19-6.63-.35-3.34.52-6.72.57-10.07.18-1.21.62-2.39 1.42-3.33 2.05-2.32 3.74-4.98 6.13-6.99-.11-4.65 2.05-9.09 1.19-13.75.06-1.7 1.01-3.24 1.55-4.82Z" fill="#00004d" stroke="#00004d" stroke-width=".094"/><path d="M219.9 349.75c.87-1.29 1.74-2.58 2.62-3.87.27.84.55 1.67.84 2.52 1.15-.87 2.3-1.73 3.44-2.61-5.23 9.93-9.96 20.13-15.39 29.94-5.18 3.27-5.11 10.05-8.45 14.6-.94-.56-1.84-1.17-2.74-1.78 3.23-5.72 3.88-12.44 6.73-18.33.76.55 1.52 1.1 2.29 1.66 1.44-1.9 2.82-3.85 4.12-5.85.19-1.24.39-2.47.59-3.69.58.33 1.17.68 1.77 1.02 1.89-3.06 4.01-6.2 4.09-9.94.63-.49 1.26-.97 1.89-1.44-.6-.75-1.2-1.49-1.8-2.23Z" fill="#000082" stroke="#000082" stroke-width=".094"/><path d="M183.02 347.82c2.79-1.48 5.97-1.16 8.94-.51l.31.85c-.23.54-.69 1.61-.93 2.15-1.54.83-3.08 1.66-4.58 2.57-.01-.47-.03-1.4-.03-1.86-.69-.99-1.41-1.94-2.16-2.87l-1.55-.33Z" fill="#ed959f" stroke="#ed959f" stroke-width=".094"/><path d="M177.84 347.58c1.67.67 3.45.66 5.18.24l1.55.33c.75.93 1.47 1.88 2.16 2.87 0 .46.02 1.39.03 1.86-2.67 3.89-1.89 8.7-1.78 13.13.23 4.02-.01 8.1.82 12.08-2.01 1.72-4.12 3.33-6.14 5.05a60.487 60.487 0 0 1-10.53 7.81c3.53 3.74 7.37 7.16 11.12 10.67.9.84 1.79 1.68 2.68 2.53-.28 1.27-.56 2.55-.84 3.83-1.26-.08-2.52-.14-3.78-.2-.39-.25-1.18-.73-1.57-.97-1.28-.98-2.53-1.99-3.78-2.99-1.5-1.23-3-2.45-4.56-3.59-3.17-2.73-6.28-6.15-6.19-10.62.75-.82 1.51-1.62 2.25-2.45 4.42 1.65 7-3.37 10.15-5.52l.51-4.01 1.24-1.48c.29-6.08-.58-12.16-.5-18.24.27-2.29-1.32-4.08-2.28-5.98 1.4-1.46 2.83-2.91 4.26-4.35Z" fill="#004" stroke="#004" stroke-width=".094"/><path d="M192.27 348.16c1.54 5.14.85 10.56 1.69 15.8 1.24 6.34-2.57 12.12-3.5 18.25-1.66-1.24-3.2-2.65-4.66-4.12-.83-3.98-.59-8.06-.82-12.08-.11-4.43-.89-9.24 1.78-13.13 1.5-.91 3.04-1.74 4.58-2.57.24-.54.7-1.61.93-2.15Z" fill="#fcb499" stroke="#fcb499" stroke-width=".094"/><path d="M415 349.51c.68-.03 2.04-.08 2.72-.11 3.6 13.12 8.31 25.9 13.22 38.57 1.16 3.02 2.9 5.9 3.09 9.21-.26.96-.51 1.92-.76 2.89-2.33 1.07-4.69 2.05-7.13 2.82-1.3.45-2.78.51-3.9 1.35-.77 1.37-1.26 2.87-1.85 4.33-1.46-1.56-1.44-4.49.36-5.78 3.04-2.17 6.73-3.15 10.18-4.47-4.61-12.78-10.65-25.14-13.57-38.48-.87 4.14-.75 8.43-1.74 12.57-1.12-5.43-.4-10.97-.85-16.44-.17-2.16.01-4.32.23-6.46Z" fill="#000053" stroke="#000053" stroke-width=".094"/><path d="M178.32 350.2c.97-1.51 3.6.06 2.37 1.56-.96 1.45-3.58-.09-2.37-1.56Z" fill="#101f90" stroke="#101f90" stroke-width=".094"/><path d="M391.8 354.69c.21-1.53.43-3.05.65-4.58.22.67.66 1.99.88 2.65.46-.6.93-1.2 1.4-1.79-.39 16.38.5 32.74.95 49.1-2.71.41-5.49.58-8.08 1.54-1.3.96-1.36 2.7-1.63 4.16-1.71.32-3.41.64-5.11.96-1.45-15.03-.33-30.15-.77-45.22l.2-1.85c.4 2.48.85 4.96 1.26 7.44.52-2.44.87-4.92.88-7.43 4.02.58 6.58-2.73 8.07-6.03.42.35.86.7 1.3 1.05Z" fill="#f79273" stroke="#f79273" stroke-width=".094"/><path d="M79.36 371.26c2.04-7.03 4.4-14.02 7.32-20.74.86 4.66-1.3 9.1-1.19 13.75-2.39 2.01-4.08 4.67-6.13 6.99Z" fill="#000037" stroke="#000037" stroke-width=".094"/><path d="m290.78 353.3 1.2-1.72c1.94 3.11 3.96 6.22 6.7 8.7 1.95 2.03 4.49 3.72 5.65 6.37.3 2.69.37 5.43 1.38 7.99.47 5.03.5 10.08.89 15.11.55 6.17-6.02 7.92-10.81 8.63-.15-4.17.08-8.41-.95-12.49-2.06-10.78-.83-22.01-4.06-32.59Z" fill="#00079d" stroke="#00079d" stroke-width=".094"/><path d="M178.35 372.05c.37-5.28-1.47-12.48 3.47-16.08 3.39 6.46 1.54 14.01 1.96 20.99-2.82.11-5.91-1.71-5.43-4.91Z" fill="#000063" stroke="#000063" stroke-width=".094"/><path d="M378.94 384.99c.23-7.81-1.36-15.9 1.15-23.48.44 15.07-.68 30.19.77 45.22l.09 1.05c-4.28.52-8.59.27-12.88.47h-1.22l-.04-2.06c-.01-.65-.02-1.97-.03-2.62l3.47 3.32c3.03-.35 6.69.54 9.31-1.16.23-6.91-.91-13.81-.62-20.74Z" fill="#04005a" stroke="#04005a" stroke-width=".094"/><path d="M306.38 363.81c1.08.71 2.62 1.1 2.94 2.55 1.22 3.49 3.41 6.7 3.59 10.5-.89-1.4-1.81-2.78-2.73-4.15.06 11.21.35 22.42.17 33.64-.35.23-1.07.68-1.43.9.34-5.93.07-11.97-2.32-17.5-.39-5.03-.42-10.08-.89-15.11 1.68-3.43 1.27-7.2.67-10.83Z" fill="#000047" stroke="#000047" stroke-width=".094"/><path d="M148.51 371.2c.14 9.22.14 18.45.02 27.68-.41-9.22-.05-18.46-.02-27.68Z" fill="#0241ff" stroke="#0241ff" stroke-width=".094"/><path d="M137.73 371.35c.51 3.02 1.11 6.02 1.62 9.04.77 4.77 1.3 9.57 1.81 14.37-.1.81-.31 2.43-.41 3.23-.58-.73-1.14-1.47-1.7-2.22-.27-1.79-.4-3.6-.55-5.4-3.23.06-6.44.5-9.57 1.28.77 1.33 1.55 2.66 2.32 4-.02 2.3.57 4.51 2.18 6.25l-.08.73c-.2 1.49-.36 3-.46 4.51l-.05.63c-.52.17-1.56.51-2.09.68l-1.12-2.88c-1.55-4.28-1.74-8.91-3.19-13.22-2.17-6.08-2.88-12.55-4.89-18.68.33-.03 1.01-.07 1.34-.09 1.93 3.72 2.24 8 3.86 11.84 2.09 3.5 6.74 1.86 9.86 1.06 2.08-.47 1.17-2.96 1.19-4.45-.57-3.54-1.13-7.16-.07-10.68Z" fill="#000038" stroke="#000038" stroke-width=".094"/><path d="M310.18 372.71c.92 1.37 1.84 2.75 2.73 4.15 3.96 7.58 10 13.71 15.02 20.55-2.71 2.64-5.09 5.57-7.39 8.56-3.4-.2-6.84-.34-10.19.38.18-11.22-.11-22.43-.17-33.64Z" fill="#fdaa90" stroke="#fdaa90" stroke-width=".094"/><path d="M73.37 390.18c.86-5.36 2.68-10.52 4.57-15.59-.05 3.35-.92 6.73-.57 10.07 1.82 2.5 6.19 2.84 6.19 6.63-2.82-1.29-5.86-2.79-9.02-1.7l-1.17.59Z" fill="#00002b" stroke="#00002b" stroke-width=".094"/><path d="M202.96 390.33c3.34-4.55 3.27-11.33 8.45-14.6 1.19 8.17 1.65 16.53 4.24 24.42 3.04 1.12 6.17 2.35 8.4 4.82l-.71 2.34c-2.4-.07-4.8-.1-7.19.05-1.79.06-3.58.03-5.35-.17 2.12.01 4.23-.1 6.35-.22-5.71-2.54-11.72-4.34-17.3-7.17-.69-1.15-1.32-2.34-2.01-3.49.84-1.36 1.63-2.76 2.37-4.17-1.31-.69-2.63-1.36-3.95-2.01.11 1.57.24 3.15.46 4.72-3.35-2.06-4.64-5.85-6.29-9.19.66-.18 1.98-.52 2.64-.7 2.52.9 5.03 1.92 7.15 3.59.9.61 1.8 1.22 2.74 1.78Z" fill="#00003f" stroke="#00003f" stroke-width=".094"/><path d="M164.46 387.16c3.01-3.74 6.62-6.95 10.66-9.53l-.51 4.01c-3.15 2.15-5.73 7.17-10.15 5.52Z" fill="#00006c" stroke="#00006c" stroke-width=".094"/><path d="M185.8 378.09c1.46 1.47 3 2.88 4.66 4.12 1.06.38 2.12.76 3.19 1.12-.15.41-.44 1.22-.58 1.63-.66.18-1.98.52-2.64.7 1.65 3.34 2.94 7.13 6.29 9.19.28.37.84 1.1 1.12 1.46.69 1.15 1.32 2.34 2.01 3.49l-1.43-.68c.16 1.59.31 3.18.46 4.78-.09.64-.28 1.94-.37 2.59-1.74-.58-3.78-.65-5.2-1.92-1.6-1.73-2.58-3.92-4.12-5.69-1.38-.58-2.91-.55-4.36-.74-.98-1.44-1.97-2.86-2.91-4.31-1.58-3.35-1.78-7.09-2.26-10.69 2.02-1.72 4.13-3.33 6.14-5.05Z" fill="#00007b" stroke="#00007b" stroke-width=".094"/><path d="M139.35 380.39c.33-.31.98-.95 1.31-1.26.31 1.42.62 2.84.93 4.28 1.02.08 2.03.17 3.05.26.6.83 1.2 1.66 1.8 2.5.05 4.3.15 8.6.25 12.91-1.62-.29-3.25-.58-4.87-.86-.24-1.16-.46-2.31-.66-3.46-.51-4.8-1.04-9.6-1.81-14.37Z" fill="#fbb487" stroke="#fbb487" stroke-width=".094"/><path d="M202.5 395.13c2.97-3.92 4.06-8.77 6.02-13.19-.65 5.56.77 11.07 2.68 16.25-3.04-.59-5.92-1.75-8.7-3.06Z" fill="#f8e2cb" stroke="#f8e2cb" stroke-width=".094"/><path d="M169.13 390.95c3.78-2.22 7.32-4.83 10.53-7.81.48 3.6.68 7.34 2.26 10.69.13 2.7-.32 5.42-1.67 7.79-3.75-3.51-7.59-6.93-11.12-10.67Z" fill="#f7b087" stroke="#f7b087" stroke-width=".094"/><path d="M183.54 383.08c2.28 1.88 4.82 3.56 6.7 5.88 1.5 3.39 2.72 6.88 4.25 10.26l-2.43.84c-2.94-5.59-7.96-10.41-8.52-16.98Z" fill="#02f3fa" stroke="#02f3fa" stroke-width=".094"/><path d="M294.84 385.89c1.03 4.08.8 8.32.95 12.49 4.79-.71 11.36-2.46 10.81-8.63 2.39 5.53 2.66 11.57 2.32 17.5-7.64.67-15.34.36-23 .18.29-.39.87-1.17 1.17-1.55 5.96-.56 11.98.2 17.95-.44-6.9-1.13-14.26 1.21-20.83-1.63 1.1-.7 2.2-1.39 3.35-2-.07.57-.22 1.71-.29 2.28 6.89.26 13.77-.39 20.67-.4-.19-2.35-.67-4.67-1.4-6.9-4.86 2.61-10.35 3.35-15.74 4 1.3-.69 2.57-1.45 3.85-2.19-.01-4.24.06-8.48.19-12.71Z" fill="#000067" stroke="#000067" stroke-width=".094"/><path d="M327.09 390.45c2.97-1.28 6.14-3.6 9.44-1.85-1.46 1.32-2.89 2.68-4.4 3.94-2 .14-4.05-.11-5.04-2.09Z" fill="#008" stroke="#008" stroke-width=".094"/><path d="M443.18 387.83c1.18 3.11 2.42 6.28 2.45 9.66-4.21.27-8.5.78-12.36 2.58.25-.97.5-1.93.76-2.89.44-4.68 6.02-4.28 9.48-5.04-.1-1.44-.21-2.88-.33-4.31Z" fill="#020085" stroke="#020085" stroke-width=".094"/><path d="M74.54 389.59c3.16-1.09 6.2.41 9.02 1.7.21.93.42 1.86.62 2.8-.89.96-1.77 1.92-2.66 2.89-.38.41-1.13 1.22-1.51 1.62-1.75-1.07-3.93-1.78-5.04-3.64-.32-1.78-.32-3.59-.43-5.37Z" fill="#710065" stroke="#710065" stroke-width=".094"/><path d="M160.16 388.83c.51.2 1.54.58 2.05.78-.09 4.47 3.02 7.89 6.19 10.62-2.38-.72-4.49-2.02-6.18-3.84-.45 1.93-.9 3.85-1.36 5.78l-.73-.04c.05-4.43-.03-8.87.03-13.3Z" fill="#f6d5be" stroke="#f6d5be" stroke-width=".094"/><path d="M336.53 388.6c.32.1.96.32 1.28.42l.62.89c-2.79 1.78-5.42 3.77-8.19 5.57-.49.21-1.47.64-1.95.86 1.13-1.41 2.43-2.67 3.84-3.8 1.51-1.26 2.94-2.62 4.4-3.94Z" fill="#5679cb" stroke="#5679cb" stroke-width=".094"/><path d="M68.1 403.7c1.25-4.69 3.46-9.03 5.27-13.52l1.17-.59c.11 1.78.11 3.59.43 5.37 1.11 1.86 3.29 2.57 5.04 3.64.38-.4 1.13-1.21 1.51-1.62.61.32 1.23.64 1.85.97 3.72 2.01 7.99 3.2 11.05 6.26-3.35 1.18-6.83-2.02-9.89.06a58.132 58.132 0 0 0-9.17-2.33c-.45-1.1-.91-2.19-1.37-3.27-.74 1.8-1.42 3.62-2.05 5.46 4.58.13 9.26.11 13.69 1.48-4.84 2.9-10.65.55-15.94.98-.53-.97-1.06-1.93-1.59-2.89Z" fill="#000072" stroke="#000072" stroke-width=".094"/><path d="M128.93 391.65c3.13-.78 6.34-1.22 9.57-1.28.15 1.8.28 3.61.55 5.4-2.6.17-5.21.1-7.8-.12-.77-1.34-1.55-2.67-2.32-4Z" fill="#c90080" stroke="#c90080" stroke-width=".094"/><path d="M196.26 390.13c1.32.65 2.64 1.32 3.95 2.01-.74 1.41-1.53 2.81-2.37 4.17-.28-.36-.84-1.09-1.12-1.46-.22-1.57-.35-3.15-.46-4.72Z" fill="#fef7d8" stroke="#fef7d8" stroke-width=".094"/><path d="M338.43 389.91c.86.91 1.8 1.74 2.73 2.6-3.24 2.27-6.18 4.95-9.04 7.68-.63-1.57-1.26-3.15-1.88-4.71 2.77-1.8 5.4-3.79 8.19-5.57Z" fill="#00029a" stroke="#00029a" stroke-width=".094"/><path d="M181.92 393.83c.94 1.45 1.93 2.87 2.91 4.31.35.5 1.06 1.51 1.41 2.02-1.27 2.31-2.68 4.81-1.99 7.55 2.86.66 5.85.11 8.77.25l1.46.42-1.17.21c-4.04.88-8.17.04-12.26.13-6.46-.29-13 .75-19.39-.54.58-.02 1.75-.04 2.33-.05 4.77.11 9.58.44 14.32-.35 1.26.06 2.52.12 3.78.2.28-1.28.56-2.56.84-3.83-.89-.85-1.78-1.69-2.68-2.53 1.35-2.37 1.8-5.09 1.67-7.79Z" fill="#eb847f" stroke="#eb847f" stroke-width=".094"/><path d="M160.86 402.17c.46-1.93.91-3.85 1.36-5.78 1.69 1.82 3.8 3.12 6.18 3.84 1.56 1.14 3.06 2.36 4.56 3.59-4.03-.57-8.01-1.58-12.1-1.65Z" fill="#fcb391" stroke="#fcb391" stroke-width=".094"/><path d="M290.8 400.79c5.39-.65 10.88-1.39 15.74-4 .73 2.23 1.21 4.55 1.4 6.9-6.9.01-13.78.66-20.67.4.07-.57.22-1.71.29-2.28 1.07-.37 2.15-.7 3.24-1.02Z" fill="#000bba" stroke="#000bba" stroke-width=".094"/><path d="M433.27 400.07c3.86-1.8 8.15-2.31 12.36-2.58.07 2.39.11 4.79.1 7.19-7.36-.36-14.72.14-22.08.38.81-.74 1.64-1.46 2.49-2.17 2.44-.77 4.8-1.75 7.13-2.82Z" fill="#0241ff" stroke="#0241ff" stroke-width=".094"/><path d="M184.83 398.14c1.45.19 2.98.16 4.36.74 1.54 1.77 2.52 3.96 4.12 5.69 1.42 1.27 3.46 1.34 5.2 1.92-.08.39-.25 1.17-.33 1.55-1.24.12-2.47.23-3.7.34l-1.46-.42a50.863 50.863 0 0 1-6.78-7.8c-.35-.51-1.06-1.52-1.41-2.02Z" fill="#08025b" stroke="#08025b" stroke-width=".094"/><path d="M320.54 405.97c2.3-2.99 4.68-5.92 7.39-8.56-.21 3.11-2.85 5.06-4.23 7.63.38.9.8 1.78 1.26 2.66-.3.19-.9.57-1.2.77-.43.03-1.28.08-1.71.11-.52-.86-1.03-1.73-1.51-2.61Z" fill="#000037" stroke="#000037" stroke-width=".094"/><path d="M71.94 404.13c.63-1.84 1.31-3.66 2.05-5.46.46 1.08.92 2.17 1.37 3.27 3.11.52 6.18 1.31 9.17 2.33 1.09.12 1.74 1.02 2.32 1.81l-1.22-.47c-4.43-1.37-9.11-1.35-13.69-1.48Z" fill="#ddf4fc" stroke="#ddf4fc" stroke-width=".094"/><path d="m194.49 399.22.25-.09a93.11 93.11 0 0 1 1.44 5.52c-1.75-1.17-3.05-2.81-4.12-4.59l2.43-.84Z" fill="#1b96e8" stroke="#1b96e8" stroke-width=".094"/><path d="M133.43 401.9c.03-.29.1-.87.14-1.16 1.64.72 3.31 1.37 5 1.98.51.27 1.53.8 2.04 1.06-2.43-.35-4.86-.64-7.26-1.15l.08-.73Z" fill="#fefffd" stroke="#fefffd" stroke-width=".094"/><path d="M186.24 400.16c1.99 2.82 4.26 5.44 6.78 7.8-2.92-.14-5.91.41-8.77-.25-.69-2.74.72-5.24 1.99-7.55Z" fill="#d54871" stroke="#d54871" stroke-width=".094"/><path d="m198.42 399.12 1.43.68c5.58 2.83 11.59 4.63 17.3 7.17-2.12.12-4.23.23-6.35.22-3.85-.57-7.74-.7-11.62-.46-.08-.71-.23-2.13-.3-2.83-.15-1.6-.3-3.19-.46-4.78Z" fill="#f5816e" stroke="#f5816e" stroke-width=".094"/><path d="M394.32 402.2c3.77-1.05 7.63-1.74 11.51-2.32 1.37.09 2.76.2 4.14.33.03 1.2.05 2.41.08 3.62-3.03.09-6.06.21-9.09.17-2.31-.13-5.01.22-6.64-1.8Z" fill="#00007e" stroke="#00007e" stroke-width=".094"/><path d="M138.57 402.72c4.8-.85 10.88-2.73 14.44 1.84-3.1.16-6.2.39-9.3.54l-.77-.17c-.78-.38-1.56-.77-2.33-1.15-.51-.26-1.53-.79-2.04-1.06Z" fill="#0000a7" stroke="#0000a7" stroke-width=".094"/><path d="M156.38 402.13c.4-.15 1.2-.44 1.6-.58.73 1.17 1.47 2.35 2.16 3.57.01.27.04.82.05 1.09l.02 1.56 3.78.36c-.58.01-1.75.03-2.33.05-3.23.07-6.47.08-9.7.1l-.84-.55c-6.09-.02-12.19-.24-18.28.04l.05-.63c3.52.45 6.6-1.85 10.05-2.21l.77.17c3.34.89 6.85 1.4 10.29.8 1.81-.22 1.35-2.27 1.66-3.54l.72-.23Z" fill="#00004e" stroke="#00004e" stroke-width=".094"/><path d="m160.13 402.13.73.04c4.09.07 8.07 1.08 12.1 1.65 1.25 1 2.5 2.01 3.78 2.99-5.46-.81-11.07-1.82-16.55-.6-.01-.27-.04-.82-.05-1.09 0-.75-.01-2.24-.01-2.99Z" fill="#fb8280" stroke="#fb8280" stroke-width=".094"/><path d="M84.53 404.27c3.06-2.08 6.54 1.12 9.89-.06.17.48.51 1.46.67 1.95l.56 2.24c-9.07.03-18.14-.22-27.21-.02l-.34-1.11c0-.23-.01-.68-.01-.91 0-.66.01-1.99.01-2.66.53.96 1.06 1.92 1.59 2.89 5.29-.43 11.1 1.92 15.94-.98l1.22.47c-.58-.79-1.23-1.69-2.32-1.81Z" fill="#000053" stroke="#000053" stroke-width=".094"/><path d="M133.35 402.63c2.4.51 4.83.8 7.26 1.15.77.38 1.55.77 2.33 1.15-3.45.36-6.53 2.66-10.05 2.21.1-1.51.26-3.02.46-4.51Z" fill="#000083" stroke="#000083" stroke-width=".094"/><path d="M422.24 404.24c1.12-.84 2.6-.9 3.9-1.35-.85.71-1.68 1.43-2.49 2.17 7.36-.24 14.72-.74 22.08-.38-.01.54-.05 1.64-.06 2.18-6.05 1.21-12.83-2.78-18.17 1.33l-.75.05c-2.12.09-4.25.13-6.36.33.59-1.46 1.08-2.96 1.85-4.33Z" fill="#000086" stroke="#000086" stroke-width=".094"/><path d="M198.51 406.49c.09-.65.28-1.95.37-2.59.07.7.22 2.12.3 2.83 3.88-.24 7.77-.11 11.62.46 1.77.2 3.56.23 5.35.17l-.52 1.19c-7.44-.21-14.89.35-22.32.04l1.17-.21c1.23-.11 2.46-.22 3.7-.34.08-.38.25-1.16.33-1.55Z" fill="#b95879" stroke="#b95879" stroke-width=".094"/><path d="M224.05 404.97c.98 1.15 2.39 1.62 3.89 1.47 18.46-.11 36.92.34 55.37-.16.25.47.76 1.42 1.01 1.9-22.87.91-45.8.61-68.69.37l.52-1.19c2.39-.15 4.79-.12 7.19-.05l.71-2.34Z" fill="#c14753" stroke="#c14753" stroke-width=".094"/><path d="M30.03 408.66c.32-1.12.45-2.62 2.01-2.3 12.01-.01 24.03.26 36.05 0 0 .23.01.68.01.91l.01 1.29c-12.7-.06-25.39.32-38.08.1Z" fill="#c24253" stroke="#c24253" stroke-width=".094"/><path d="M95.09 406.16c11.51-.21 23.09.78 34.54-.59l1.12 2.88c-11.69-.1-23.42.47-35.1-.05l-.56-2.24Z" fill="#d5535c" stroke="#d5535c" stroke-width=".094"/><path d="M160.19 406.21c5.48-1.22 11.09-.21 16.55.6.39.24 1.18.72 1.57.97-4.74.79-9.55.46-14.32.35l-3.78-.36-.02-1.56Z" fill="#cd4a6b" stroke="#cd4a6b" stroke-width=".094"/><path d="M310.35 406.35c3.35-.72 6.79-.58 10.19-.38.48.88.99 1.75 1.51 2.61-12.17-.29-24.39.63-36.53-.51l.4-.64c7.66.18 15.36.49 23-.18.36-.22 1.08-.67 1.43-.9Z" fill="#b04b4b" stroke="#b04b4b" stroke-width=".094"/><path d="M325.7 406.77c1.72-.52 3.47-.8 5.26-.84 11.7.51 23.41.03 35.11.31-8.98 1.3-18.09.05-27.08 1.22 9.26.88 18.57.3 27.86.79h1.22c-5.01.78-10.09.25-15.13.41-9.73-.09-19.47.23-29.18-.19.3-.2.9-.58 1.2-.77 2.54-.49 5.13-.04 7.69-.15-2.32-.26-4.66-.35-6.95-.78Z" fill="#d24867" stroke="#d24867" stroke-width=".094"/><path d="m366.07 406.24.74-.05.04 2.06c-9.29-.49-18.6.09-27.86-.79 8.99-1.17 18.1.08 27.08-1.22Z" fill="#c13b52" stroke="#c13b52" stroke-width=".094"/><path d="m449.84 407.23 1.25-.74c10.14-.03 20.32-.25 30.44.3-.83 2.32-3.58 1.99-5.52 2.14-14.66.03-29.32-.37-43.98-.18-1.78.02-3.54-.16-5.28-.51l.75-.05c7.43-.4 15.07.89 22.34-.96Z" fill="#ca5e63" stroke="#ca5e63" stroke-width=".094"/></svg>