<svg xmlns="http://www.w3.org/2000/svg" height="512pt" viewBox="0 0 512 512" width="512pt"><path d="M0 0h512v512H0V0Z" fill="transparent" stroke="transparent" stroke-width=".25"/><path d="M93.38 67.83c-2.04-1.72-2.68-5.22-.38-7 2.66-.27 5.34-.08 8.01-.11 105.74.02 211.47.02 317.21 0 1.01 1.72 1.13 3.68 1.17 5.62-1.19.46-2.4.69-3.65.71.21-.49.62-1.46.83-1.94.19-.47.56-1.42.74-1.89-107.83-.06-215.65.02-323.48-.02-.01.49-.02 1.46-.03 1.95-.04.38-.11 1.13-.14 1.5l-.28 1.18Z" fill="#292936" stroke="#292936" stroke-width=".25"/><path d="M93.83 63.2c107.83.04 215.65-.04 323.48.02-.18.47-.55 1.42-.74 1.89-107.59.12-215.18.03-322.77.04.01-.49.02-1.46.03-1.95Z" fill="#fefeff" stroke="#fefeff" stroke-width=".25"/><path d="M93.8 65.15c107.59-.01 215.18.08 322.77-.04-.21.48-.62 1.45-.83 1.94l-.59.49-.7.58c-.27 3.12-.48 6.25-1.27 9.29-27.7-.39-55.41-.05-83.11-.16-77.53.03-155.06-.04-232.59.02 0-.64-.01-1.9-.01-2.54 9.61 1.09 19.26-.25 28.9.1 6.19.26 12.4.42 18.6.31 85.69 0 171.37 0 257.05-.01 3.58-.03 7.16-.24 10.75-.38 0-2.51.01-5.02.01-7.52-57.58.12-115.17 0-172.76.06-36.2-.16-72.4.25-108.59-.23.13 2.13.17 4.26.14 6.4-1.83.3-3.65.61-5.48.9-.57-1.08-1.13-2.16-1.68-3.24.16-1.4.32-2.8.47-4.2-1.57 0-3.15-.01-4.72-.01.49 1.47.98 2.93 1.48 4.39-.89.95-1.74 1.95-2.75 2.78-1.5.3-2.99-.26-4.48-.43-.54-2.34-.52-4.72.13-7.03-1.68.18-3.35.36-5.03.53-4.54-1.6-9.49-.93-14.19-.66l-1.66.16c.03-.37.1-1.12.14-1.5Z" fill="#101f34" stroke="#101f34" stroke-width=".25"/><path d="M95.32 66.49c4.7-.27 9.65-.94 14.19.66.65 1.72 1.82 4 .53 5.73-1.31 1.59-4.12 2.5-5.61.66-1.78-1.8-.7-4.55-.7-6.76-2.09.2-4.17.4-6.25.58 0 2.46-.01 4.92-.01 7.37 0 .64.01 1.9.01 2.54.09 61.37.02 122.75 0 184.13h6.24c-.44-1.21-.88-2.41-1.33-3.6-2.25-1.49-4.53-3.87-3.68-6.83.55-3.11 4.14-3.38 6.13-5.17 5.17-5.52 9.82-11.52 15.21-16.83-.38-2.25-1.2-4.79.21-6.86 1.58-3.07 5.78-3.57 8.5-1.76 8.87 5.11 17.87 10.04 26.62 15.36 8.04 5.76 8.72 17.71 3.76 25.72 7.76-.07 15.53-.1 23.29.03-.13-29.16-.04-58.31-.05-87.47-.13-2.16.61-4.19 1.44-6.13-.07 1.72-.15 3.45-.16 5.18.13.12.39.35.52.46 2.76.2 5.52.23 8.28.39 1.01.06 2.03.08 3.04.07 5.96-.45 11.95-.51 17.91-.17 1.82.57 3.68 1.18 5.62 1.18 23.65-.16 47.3.36 70.94-.3 9.92-.21 19.84.55 29.74.04l.12-.97c.28-2.43-1.17-4.3-2.89-5.81.39-.17 1.17-.5 1.56-.67l1.63.6c.77 1.96 1.47 3.98 1.37 6.12l-.03 87.43.03.54c14.47-.6 28.96-.11 43.44-.27 3.6.05 7.52-.32 10.68 1.78-18.05.17-36.11-.14-54.16.17-.11 4.8.45 9.67-.36 14.42-.91 2.98-4.03 4.76-7.06 4.34-15.43-.03-30.86-.01-46.28-.03l-.08-2.01c13.11-.01 26.22.01 39.33.01 3.83-.02 7.74.36 11.46-.74 1.97-5.39.84-11.2 1.08-16.79-45.07.07-90.14.02-135.21.01-.62 5.41 1.45 11.46-1.33 16.39-1.06-5.15-.5-10.42-.6-15.62-7.81-.16-15.63-.13-23.44-.06-2.23-.03-3.9 1.67-5.82 2.54-3.36 1.93-7.42 1.83-11.15 1.44-3.41-.32-5.82-3.27-9.06-3.97-7.24-.18-14.49 0-21.74-.09 3.6 9.32 7.26 18.62 10.84 27.96-.33.45-1 1.37-1.34 1.82-4.69-12.53-9.68-24.96-14.6-37.41-.96.92-2.23 1.94-1.35 3.39 4.53 11.45 8.99 22.94 13.45 34.43l-1.23-.11-.84-.27c-3.92-9.95-7.68-19.95-11.74-29.85-2.98.07-5.97.09-8.95.17-.14-65.7.17-131.41-.12-197.11Z" fill="#14121c" stroke="#14121c" stroke-width=".25"/><path d="M97.48 67.36c2.08-.18 4.16-.38 6.25-.58 0 2.21-1.08 4.96.7 6.76 1.49 1.84 4.3.93 5.61-.66 1.29-1.73.12-4.01-.53-5.73 1.68-.17 3.35-.35 5.03-.53-.65 2.31-.67 4.69-.13 7.03 1.49.17 2.98.73 4.48.43 1.01-.83 1.86-1.83 2.75-2.78-.5-1.46-.99-2.92-1.48-4.39 1.57 0 3.15.01 4.72.01-.15 1.4-.31 2.8-.47 4.2.55 1.08 1.11 2.16 1.68 3.24l.28.47c-9.64-.35-19.29.99-28.9-.1 0-2.45.01-4.91.01-7.37Z" fill="#729ec5" stroke="#729ec5" stroke-width=".25"/><path d="M131.43 67.06c36.19.48 72.39.07 108.59.23 57.59-.06 115.18.06 172.76-.06 0 2.5-.01 5.01-.01 7.52-3.59.14-7.17.35-10.75.38-85.68.01-171.36.01-257.05.01-6.2.11-12.41-.05-18.6-.31l-.28-.47c1.83-.29 3.65-.6 5.48-.9.03-2.14-.01-4.27-.14-6.4Z" fill="#69a0cb" stroke="#69a0cb" stroke-width=".25"/><path d="m414.45 68.12.7-.58c-.06 61.15-.07 122.3-.04 183.46-.04 4.2.25 8.42-.2 12.62-2.3-.03-4.6-.01-6.9.11-1.47 3.08-2.82 6.43-5.4 8.77-.47.17-1.41.53-1.89.7 2-4.52 4.94-8.53 6.91-13.06-5.73 2.09-7.39 8.46-9.29 13.59-.3.05-.88.16-1.17.21.64-2.17.98-4.42 1.25-6.66-2.16 1.78-3.4 4.26-3.99 6.95-3.67.33-7.33-.09-10.95-.61-1.51-4.08-3.7-8.27-7.86-10.16-3.16-2.1-7.08-1.73-10.68-1.78-14.48.16-28.97-.33-43.44.27l-.03-.54c17.15-.15 34.31-.11 51.47-.01-.71-1.13-1.4-2.26-2.07-3.4 2.3.3 4.55.85 6.76 1.54-.43-1.15-1.28-3.45-1.71-4.6 3.71 1.55 6.56 4.43 9.51 7.06.1-5-.25-9.99.05-14.98 4.43 3.83 5.97 9.69 7.61 15.07 1.25-3.13 2.47-6.27 3.69-9.42.43-.11 1.3-.32 1.74-.43.39 1.9.77 3.81 1.12 5.73 2.01-3.08 3.78-7.2 7.83-7.9-.82 2.99-1.75 5.94-2.53 8.94 1.99-.91 3.98-1.82 6.03-2.62-.3 1.71-.89 3.33-1.57 4.92l3.22.09c.28-57.14.04-114.29.13-171.43.1-4.18-.37-8.42.43-12.56.79-3.04 1-6.17 1.27-9.29Z" fill="#1a2a2f" stroke="#1a2a2f" stroke-width=".25"/><path d="m105.45 68.33 3.2.12c-.16 1.43.82 4.39-1.66 4.09-2.94.67-2.36-2.57-1.54-4.21Z" fill="#db615e" stroke="#db615e" stroke-width=".25"/><path d="M115.8 68.97c1.02-.44 2.1-.74 3.23-.88.19 1.38.37 2.76.55 4.15-1.01.04-3.02.12-4.03.15.06-.85.19-2.56.25-3.42Z" fill="#539281" stroke="#539281" stroke-width=".25"/><path d="m126.45 68.62 3.3-.18c.06 1.17.07 2.34.06 3.51-1.01.48-2.15.42-3.23.56-.06-1.3-.1-2.59-.13-3.89Z" fill="#f8ffff" stroke="#f8ffff" stroke-width=".25"/><path d="M97.48 77.27c77.53-.06 155.06.01 232.59-.02 27.7.11 55.41-.23 83.11.16-.8 4.14-.33 8.38-.43 12.56-.09 57.14.15 114.29-.13 171.43l-3.22-.09c.68-1.59 1.27-3.21 1.57-4.92-2.05.8-4.04 1.71-6.03 2.62.78-3 1.71-5.95 2.53-8.94-4.05.7-5.82 4.82-7.83 7.9-.35-1.92-.73-3.83-1.12-5.73-.44.11-1.31.32-1.74.43-1.22 3.15-2.44 6.29-3.69 9.42-1.64-5.38-3.18-11.24-7.61-15.07-.3 4.99.05 9.98-.05 14.98-2.95-2.63-5.8-5.51-9.51-7.06.43 1.15 1.28 3.45 1.71 4.6-2.21-.69-4.46-1.24-6.76-1.54.67 1.14 1.36 2.27 2.07 3.4-17.16-.1-34.32-.14-51.47.01l.03-87.43c.1-2.14-.6-4.16-1.37-6.12l-1.63-.6-1.4-.54c-2.7-.37-5.42-.29-8.13-.28-39.67.03-79.34.04-119-.02-2.16-.14-4.19.63-6.15 1.44-.83 1.94-1.57 3.97-1.44 6.13.01 29.16-.08 58.31.05 87.47-7.76-.13-15.53-.1-23.29-.03 4.96-8.01 4.28-19.96-3.76-25.72-8.75-5.32-17.75-10.25-26.62-15.36-2.72-1.81-6.92-1.31-8.5 1.76-1.41 2.07-.59 4.61-.21 6.86-5.39 5.31-10.04 11.31-15.21 16.83-1.99 1.79-5.58 2.06-6.13 5.17-.85 2.96 1.43 5.34 3.68 6.83.45 1.19.89 2.39 1.33 3.6h-6.24c.02-61.38.09-122.76 0-184.13Z" fill="#fff" stroke="#fff" stroke-width=".25"/><path d="M30.16 156.17c5.05-4.7 11.92-7.37 18.83-7.19 9.87.33 18.98 6.6 23.61 15.2 5.97 10.1 6.34 23.17 1.2 33.69-4.1 8.56-12.21 15.59-21.79 16.95-8.61 1.54-17.47-2.34-23.35-8.59-13.26-13.3-12.4-37.52 1.5-50.06Z" fill="#091730" stroke="#091730" stroke-width=".25"/><path d="M43.26 151.38c8.79-2.06 18.04 1.86 23.91 8.43 10.1 11.01 10.98 28.85 2.72 41.15-4.52 6.09-11.11 11.26-18.89 11.96-7.76 1.02-15.52-2.48-20.88-7.98-12.87-12.67-11.83-36.35 1.93-47.99 3.1-2.88 7.07-4.74 11.21-5.57Z" fill="#789fc3" stroke="#789fc3" stroke-width=".25"/><path d="M43.45 154.65c5.97-1.15 12.49-.21 17.4 3.54 14.32 10.12 15.63 33.61 2.75 45.4-8.46 8.89-24.37 8.17-31.92-1.54-11.22-11.84-9.77-33.09 3.1-43.16 2.6-1.91 5.51-3.48 8.67-4.24Z" fill="#172538" stroke="#172538" stroke-width=".25"/><path d="M430.21 156.27c17.82-.06 35.64-.06 53.46.02-.05 26.07.06 52.13-.06 78.2-17.79.04-35.57.05-53.36 0-.36-26.07-.01-52.14-.04-78.22Z" fill="#0d162d" stroke="#0d162d" stroke-width=".25"/><path d="M43.03 156.95c6.67-1.83 14.2.07 19.14 4.93 10.6 9.86 11.05 28.13 1.53 38.86-3.66 3.68-8.26 7.04-13.67 7.09-13.02 1.26-23.68-11.55-23.81-23.88-.85-11.2 5.4-23.86 16.81-27Z" fill="#fff" stroke="#fff" stroke-width=".25"/><path d="M432 158.22c16.54.04 33.09-.01 49.63.06.12 24.74.08 49.48.01 74.22-16.51.08-33.02-.11-49.53.08-.67-21.17-.08-42.38-.26-63.57-.08-3.6-.01-7.19.15-10.79Z" fill="#67a2cd" stroke="#67a2cd" stroke-width=".25"/><path d="M183.82 167.86c1.96-.81 3.99-1.58 6.15-1.44 39.66.06 79.33.05 119 .02 2.71-.01 5.43-.09 8.13.28l1.4.54c-.39.17-1.17.5-1.56.67-10.62 1.01-21.37.06-32.04.47-23.59.15-47.18.04-70.78.03-6.27-.05-12.55.03-18.83-.17.08 1.9.15 3.8.21 5.7-1.01.01-2.03-.01-3.04-.07l-.31-.75c.71.01 2.13.03 2.83.03-.06-.75-.19-2.27-.26-3.03-.58-.35-1.76-1.04-2.35-1.38-1.78-.32-3.64-.59-5.43-.14-2.06.75-2.28 3.06-2.76 4.88-.13-.11-.39-.34-.52-.46.01-1.73.09-3.46.16-5.18Z" fill="#21111b" stroke="#21111b" stroke-width=".25"/><path d="M195.29 168.26c6.28.2 12.56.12 18.83.17.13 1.46.25 2.91.38 4.37 9.13.83 18.31.11 27.47.4 14.2-.2 28.44.42 42.63-.29.09-1.51.19-3.01.3-4.51 10.67-.41 21.42.54 32.04-.47 1.72 1.51 3.17 3.38 2.89 5.81-35.46.28-70.94-.24-106.42.05-5.96-.34-11.95-.28-17.91.17-.06-1.9-.13-3.8-.21-5.7Z" fill="#ca5e63" stroke="#ca5e63" stroke-width=".25"/><path d="M214.12 168.43c23.6.01 47.19.12 70.78-.03-.11 1.5-.21 3-.3 4.51-14.19.71-28.43.09-42.63.29-9.16-.29-18.34.43-27.47-.4-.13-1.46-.25-2.91-.38-4.37Z" fill="#f24c41" stroke="#f24c41" stroke-width=".25"/><path d="M184.18 173.5c.48-1.82.7-4.13 2.76-4.88 1.79-.45 3.65-.18 5.43.14l-.62 2.17.4 2.21.31.75c-2.76-.16-5.52-.19-8.28-.39Z" fill="#f14f4e" stroke="#f14f4e" stroke-width=".25"/><path d="M203.61 172.92c-.19-1.76-.22-4.13 2.21-3.76 2.34-.09 1.61 2.25 1.57 3.76h-3.78Z" fill="#42111d" stroke="#42111d" stroke-width=".25"/><path d="M192.37 168.76c.59.34 1.77 1.03 2.35 1.38.07.76.2 2.28.26 3.03-.7 0-2.12-.02-2.83-.03l-.4-2.21.62-2.17Z" fill="#3a1018" stroke="#3a1018" stroke-width=".25"/><path d="M197.68 169.59c.99-.05 2.97-.16 3.95-.22-.05.9-.16 2.71-.22 3.61-.87-.04-2.62-.11-3.5-.14-.05-.81-.17-2.43-.23-3.25Z" fill="#3f0c15" stroke="#3f0c15" stroke-width=".25"/><path d="M209.64 169.51c2.17-.57 4.89-.2 3.87 2.75-1.26.49-2.56.78-3.92.87.01-.91.04-2.72.05-3.62Z" fill="#370c14" stroke="#370c14" stroke-width=".25"/><path d="M285.47 169.65c3.29-.12 6.6-.32 9.89.06 1.59 3.06-2.09 3.83-4.36 3.81-2.52.17-6.64-.32-5.53-3.87Z" fill="#231028" stroke="#231028" stroke-width=".25"/><path d="M297.21 170.97c2.87-3.12 7.76-.96 11.52-1.32.01 1.8-.2 4.28-2.67 3.91-2.97-.04-7.29.58-8.85-2.59Z" fill="#2d1f35" stroke="#2d1f35" stroke-width=".25"/><path d="M310.11 171.01c2.1-1.87 6.79-2.45 7.75.87-2.33 1.65-5.79 1.15-7.75-.87Z" fill="#ff443f" stroke="#ff443f" stroke-width=".25"/><path d="M453.24 171.31c6.13-1.12 12.92.53 17.39 5.02 6.27 5.48 8.43 14.96 5.64 22.73-3.21 9.75-14.33 16.54-24.42 13.47-9.7-2.42-16.37-12.58-15.33-22.41.77-8.94 7.67-17.38 16.72-18.81Z" fill="#091730" stroke="#091730" stroke-width=".25"/><path d="M452.41 173.52c4.38-.68 9.24-.73 13.18 1.59 7.28 3.89 11.34 12.88 9.47 20.91-1.82 10.06-12.98 17.68-22.94 14.43-8.81-2.17-14.74-11.56-13.53-20.45.61-7.65 6.21-14.78 13.82-16.48Z" fill="#fefefe" stroke="#fefefe" stroke-width=".25"/><path d="M213.41 173.79c35.48-.29 70.96.23 106.42-.05l-.12.97c-9.9.51-19.82-.25-29.74-.04-23.64.66-47.29.14-70.94.3-1.94 0-3.8-.61-5.62-1.18Z" fill="#330c17" stroke="#330c17" stroke-width=".25"/><path d="M184.26 260.8c.2-28.37-.02-56.74.13-85.11 45.05.01 90.1-.02 135.15 0 .08 28.39-.08 56.77.07 85.16-24.2-.01-48.4-.09-72.6.01-20.91-.04-41.83-.06-62.75-.06Z" fill="#fff" stroke="#fff" stroke-width=".25"/><path d="M193.52 215.36c-.49-11.56-.38-23.17-.03-34.74 11.66.05 23.32 0 34.98.01.16 11.55.28 23.13-.07 34.68-11.63.11-23.25.12-34.88.05Z" fill="#14121c" stroke="#14121c" stroke-width=".25"/><path d="M279.56 181.67c9.63.58 19.25-.27 28.89-.27.1 1.81.18 3.61.2 5.42l.03 3.9c-.62.63-1.24 1.26-1.86 1.9.07-3.13.02-6.25-.03-9.37-8.73.2-17.46.62-26.19.52.88 8.77.58 17.58.09 26.36 8.7-.7 17.43-.43 26.15-.43.3.25.91.75 1.22.99-1.26 1.43-3.37.61-5.02.83-7.9-.34-15.78.29-23.67.17-.5-6.56.43-13.13.01-19.7-.01-3.43-1.1-6.99.18-10.32Z" fill="#32323a" stroke="#32323a" stroke-width=".25"/><path d="M195.17 213.39c.22-10.3-.16-20.61.21-30.9 10.4.18 20.81.13 31.21 0 .08 10.34.04 20.67-.05 31.01-10.46-.18-20.92-.03-31.37-.11Z" fill="#fff" stroke="#fff" stroke-width=".25"/><path d="M236.4 182.52c11.39.02 22.79.05 34.18.05l-.08 1.65c-11.36.02-22.72.04-34.09-.02l-.01-1.68Z" fill="#2c2b35" stroke="#2c2b35" stroke-width=".25"/><path d="M280.6 183.77c8.73.1 17.46-.32 26.19-.52.05 3.12.1 6.24.03 9.37.62-.64 1.24-1.27 1.86-1.9l-.03-3.9c.21 1.89.52 3.77 1.14 5.57.36 6.29-1.15 12.89.69 18.96-.6-.17-1.81-.49-2.42-.66a58.5 58.5 0 0 1-1.22-.99c-8.72 0-17.45-.27-26.15.43.49-8.78.79-17.59-.09-26.36Z" fill="#aeb5bf" stroke="#aeb5bf" stroke-width=".25"/><path d="M235.94 186.21c8.68-.61 17.39-.28 26.08-.11 3.1.09 6.35-.47 9.28.86-2.61 1.23-5.51.81-8.29.86-8.79-.13-17.6.21-26.38-.17-.17-.36-.52-1.08-.69-1.44Z" fill="#3a3941" stroke="#3a3941" stroke-width=".25"/><path d="M236.31 189.59c8.64-.21 17.29.05 25.93-.11.4.35 1.2 1.03 1.6 1.38-9.1.96-18.32.15-27.47.42l-.06-1.69Z" fill="#35353e" stroke="#35353e" stroke-width=".25"/><path d="M291.68 192.72c1.77-1.19 4.12-1.89 5.46.29.54 3.81.4 7.68.39 11.52l-1.27.01c-.2-3.68-.44-7.36-.75-11.04-.54-.04-1.61-.13-2.15-.17-.29 3.4-.45 6.8-.55 10.21-1.5-3.41-1.02-7.21-1.13-10.82Z" fill="#141b2b" stroke="#141b2b" stroke-width=".25"/><path d="M302.24 200.33c1.45-2.83 1.11-7.09 4.29-8.68-.41 4.26-2.45 8.09-3.82 12.08-.46-.13-1.37-.4-1.83-.54-.82-2.58-1.65-5.17-2.38-7.78 2.93-.62 2.24 3.36 3.74 4.92ZM236.21 194.53a467 467 0 0 0 .44-1.78c9.96.14 19.93.17 29.89-.02.07.46.22 1.37.29 1.83-10.2 0-20.41.07-30.62-.03Z" fill="#222534" stroke="#222534" stroke-width=".25"/><path d="M290.18 197.43c.6-1.54 1.08-3.12 1.5-4.71.11 3.61-.37 7.41 1.13 10.82l.33.9c-2.81 1.33-2.09-2.78-2.31-4.36-.43.01-1.29.04-1.72.05l.26-.63c.2-.52.61-1.55.81-2.07Z" fill="#525865" stroke="#525865" stroke-width=".25"/><path d="M307.67 192c.82.8 1.27 1.77 1.34 2.91.39 4.89.59 9.82.14 14.71-.57-.61-1.13-1.24-1.68-1.87.69-5.24-.31-10.5.2-15.75Z" fill="#2f323b" stroke="#2f323b" stroke-width=".25"/><path d="M284.63 195.56c2.03-.18 5.14-1.06 5.55 1.87-.2.52-.61 1.55-.81 2.07-.61-2.05-1.77-2.68-3.48-1.88-.3 2.35-.29 4.72-.31 7.09-.48-.05-1.45-.15-1.93-.19-.1-3.02-.05-6.08.98-8.96ZM236.24 196.39c11.61.19 23.26-.48 34.83.34-.46.36-1.39 1.07-1.86 1.43-10.84.07-21.69-.08-32.53.05-.11-.46-.33-1.37-.44-1.82Z" fill="#2d333f" stroke="#2d333f" stroke-width=".25"/><path d="M236.43 201.45c.06-.42.18-1.24.24-1.65 9.77.09 19.53.07 29.3.02 1.79-.07 3.56.3 5.28.8-.64.53-1.36.8-2.17.81-10.88.09-21.76.06-32.65.02Z" fill="#1f1d29" stroke="#1f1d29" stroke-width=".25"/><path d="M235.99 203.34c3.52-.18 7.06-.17 10.57.21-.11.4-.34 1.19-.45 1.58-3.16-.21-6.55.4-9.57-.49-.14-.32-.41-.98-.55-1.3Z" fill="#3a393e" stroke="#3a393e" stroke-width=".25"/><path d="M236.65 211.49c4.89.43 10.27-1.17 14.82 1.08-.08.91-.16 1.82-.23 2.73-4.67.91-9.48.58-14.19.41-.43-.36-1.29-1.07-1.72-1.43.33-.69.99-2.09 1.32-2.79Z" fill="#1f1d29" stroke="#1f1d29" stroke-width=".25"/><path d="M254.57 211.64c4.79-.23 9.61-.28 14.41-.11 2.05.22 2.07 4.09-.1 4.15-4.82.26-9.67.21-14.48-.15.03-1.3.09-2.59.17-3.89Z" fill="#1e1c27" stroke="#1e1c27" stroke-width=".25"/><path d="M237.82 213.26c3.87.45 8.07-.81 11.72.81-3.94.45-7.91.24-11.86.28l.14-1.09ZM255.63 213.46c4.23-.16 8.47-.23 12.7.1-4.09.76-8.84 1.73-12.7-.1Z" fill="#b1b7c2" stroke="#b1b7c2" stroke-width=".25"/><path d="M121.78 228.05c-1.26-2.6-.28-5.4 2.05-6.94 2.21.1 4.32.72 6.16 1.96 7.57 4.68 15.54 8.69 23.13 13.34-1.39-.01-2.59.5-3.59 1.52l-.72.46-.44-.5c-.21-.43-.63-1.29-.84-1.71-10.1.65-15.86 12.61-12.31 21.48.89 2.37 2.4 4.43 3.77 6.54-4.11-.98-6.05-5.01-7.39-8.61-3.38-9.15-6.29-18.46-9.82-27.54Z" fill="#fda8ad" stroke="#fda8ad" stroke-width=".25"/><path d="M279.55 222.51c4.18.09 8.33.58 12.49.96 5.55.5 11.09-.49 16.64-.17.3 9.77 1.34 19.64-.3 29.35-7.47.53-14.94-.68-22.4.03-2.32-.07-4.96.66-7.04-.64-.72-3.91-.18-7.99-.04-11.95.81-5.84-.03-11.74.65-17.58Z" fill="#34343c" stroke="#34343c" stroke-width=".25"/><path d="M195.24 222.62c10.12-.17 20.24.06 30.37-.06l.01 1.73c-9.89-.19-19.8.21-29.68-.22l-.7-1.45Z" fill="#2d2b38" stroke="#2d2b38" stroke-width=".25"/><path d="M235.6 224.94c1.43-.54 2.91-.79 4.44-.74 9.33.04 18.66 0 27.99 0 1.23-.13 2.45.16 3.05 1.34-8.65.86-17.37.11-26.05.35-3.14-.2-6.55.68-9.43-.95Z" fill="#3a3941" stroke="#3a3941" stroke-width=".25"/><path d="M280.74 224.43c8.72 1 17.51.99 26.28.73.07 2.95.15 5.89.25 8.84-.58-.15-1.72-.45-2.3-.59-.88 2.83-1.84 5.65-2.93 8.41-.92-1.73-.82-4.38-2.97-5.15.15 3.31.65 6.83 3 9.38 2.19-3.55 2.77-7.84 5.19-11.27.25 5.38.34 10.8-.4 16.14-8.83-.17-17.66-.36-26.49.06-.25-8.86 1.13-17.69.37-26.55Z" fill="#b1b7c2" stroke="#b1b7c2" stroke-width=".25"/><path d="M195.78 226c9.74-.14 19.48.01 29.23-.03 1.2.04 3.26-.17 3.62 1.37-1.72.89-3.69.77-5.55.77-9.27-.2-18.53-.05-27.79-.12.12-.5.37-1.49.49-1.99Z" fill="#575862" stroke="#575862" stroke-width=".25"/><path d="M240.05 229.49c-1.47-.16-4.7.72-3.68-1.84 8.27.23 16.56-.12 24.83.14.49.27 1.47.83 1.95 1.11-7.59 1.3-15.41.16-23.1.59Z" fill="#313239" stroke="#313239" stroke-width=".25"/><path d="M195.53 231.43c.01-.44.05-1.33.07-1.77 7.43.25 14.97-.48 22.34.34-.1.37-.32 1.1-.42 1.47-7.33-.13-14.66-.01-21.99-.04Z" fill="#383942" stroke="#383942" stroke-width=".25"/><path d="M120.54 230.91c.9.82 1.16 1.96 1.15 3.14-4.78 4.49-8.84 9.69-13.5 14.31-.43.07-1.3.23-1.74.31-.79-1.57.73-2.57 1.61-3.63 4.2-4.68 8.43-9.33 12.48-14.13Z" fill="#fefeff" stroke="#fefeff" stroke-width=".25"/><path d="M194.73 233.71c9.99-.78 20.11-.38 30.14-.18l-.88 1.49c-9.33.2-18.7.23-28.02-.04l-1.24-1.27ZM236.21 233.36c11.55.17 23.1-.01 34.65.1-.18.41-.56 1.24-.75 1.66-11.17.25-22.35.06-33.53.13-.09-.48-.28-1.42-.37-1.89Z" fill="#34343c" stroke="#34343c" stroke-width=".25"/><path d="M291.86 235.05c.97-2.34 3.55-1.97 5.52-1.36.2 4 .3 8.01.2 12.01l-1.45-.09c.11-3.5.2-7.02-.23-10.5-.61.04-1.82.1-2.43.13-.18 3.46-.26 6.93-.21 10.4h-1.7c-.07-3.52-.63-7.12.3-10.59Z" fill="#141b2b" stroke="#141b2b" stroke-width=".25"/><path d="M118.55 239.9c1.33-1.4 2.36-3.33 4.35-3.87 1.28 3.2 1.97 6.62 3.3 9.82 1.81 5.24 3.76 10.44 5.7 15.63-7.27-.25-14.54-.02-21.81-.13-1.45-3.45-2.24-7.04-1.43-10.77 3.24-3.61 6.85-6.89 9.89-10.68Z" fill="#fffeff" stroke="#fffeff" stroke-width=".25"/><path d="M195.92 236.97c9.72-.3 19.46.05 29.19-.17 1.35-.22 1.98.39 1.9 1.85-10.67-.12-21.35.35-31.99-.26l.9-1.42Z" fill="#36343f" stroke="#36343f" stroke-width=".25"/><path d="M235.94 237.2c8.02-.73 16.08.13 24.12-.27 2.44-.02 5.09-.44 7.16 1.18-3.62 1.17-7.45.49-11.18.64-6.45-.13-12.94.3-19.37-.22l-.73-1.33Z" fill="#3a3941" stroke="#3a3941" stroke-width=".25"/><path d="M282.63 245.48c.33-3.01-1.21-7.28 2.3-8.91 2.13-.21 4.32.12 6.23 1.14-2.8 1.8-1.9 5.09-1.93 7.87l-1.62.04c-.05-2.35.02-4.71-.41-7.02l-2.32.24c-.34 2.62-.36 5.27-.84 7.87-.35-.31-1.05-.92-1.41-1.23Z" fill="#222534" stroke="#222534" stroke-width=".25"/><path d="m55.05 237.88 2.21-.36c1.06 6.1.66 12.5-1.6 18.29-2.08 5.81-6.51 10.55-7.74 16.7 2.04.1 4.09.23 6.12.48l-.92.41c-5.05 2.15-11.22 2.1-16.29.08l-.9-.44c1.6-.2 3.22-.37 4.83-.52-.46-1.28-.95-2.55-1.42-3.82.91.1 1.81.21 2.72.31.52 1.11 1.1 2.19 1.68 3.27l.28-.98c.6-1.83 1.27-3.62 1.84-5.46.11 1.44.24 2.88.39 4.33 4.45-9.67 12.12-19.5 9.1-30.78-4.29 3.81-7.1 8.88-9.03 14.22-1.24.44-2.15 1.22-2.74 2.35-1.02-5.34-2.87-11-7.39-14.4-.28 2.35-.54 4.71-.65 7.08-.29.45-.86 1.35-1.15 1.8-1.36-3.61-.14-7.4.34-11.04 1.33.01 2.85-.07 3.79 1.09 3.28 3.51 5.17 8.05 6.31 12.66 1.97-5.78 4.53-12.24 10.22-15.27Z" fill="#1e2e3b" stroke="#1e2e3b" stroke-width=".25"/><path d="M136.14 255.08c-2.17-7.81 4.19-17.18 12.23-17.19l.44.5.72-.46c3.12.31 6.13 2.75 8.29 5.15 5.38 7.39 1.83 18.91-6.8 21.91-6.81 2.68-13.61-3.44-14.88-9.91Z" fill="#fff" stroke="#fff" stroke-width=".25"/><path d="M46.32 253.61c1.93-5.34 4.74-10.41 9.03-14.22 3.02 11.28-4.65 21.11-9.1 30.78-.15-1.45-.28-2.89-.39-4.33.23-4.07.26-8.16.46-12.23Z" fill="#289872" stroke="#289872" stroke-width=".25"/><path d="M194.94 240.65c9.52-.5 19.11-.37 28.64-.12.23.35.69 1.05.93 1.39-9.51.33-19.04.25-28.55.09l-1.02-1.36Z" fill="#36343f" stroke="#36343f" stroke-width=".25"/><path d="M236.31 240.44c11.19.1 22.38.11 33.57.01-.08.46-.23 1.37-.31 1.83-10.99-.17-21.99-.06-32.99-.01-.06-.46-.2-1.38-.27-1.83Z" fill="#222033" stroke="#222033" stroke-width=".25"/><path d="M36.19 241.56c4.52 3.4 6.37 9.06 7.39 14.4.21 2.96.31 5.93.38 8.91-.61.31-1.83.94-2.45 1.26-.98-6.18-5.53-11.15-5.97-17.49.11-2.37.37-4.73.65-7.08Z" fill="#28946f" stroke="#28946f" stroke-width=".25"/><path d="M195.89 243.96c9.33-.1 18.73-.31 28.04.17l1.15 1.21c-4.65.66-9.36.2-14.03.3-5.33-.09-10.68.29-15.99-.26l.83-1.42Z" fill="#34343c" stroke="#34343c" stroke-width=".25"/><path d="M236.04 245.65c-.1-2.26 2.45-1.55 3.93-1.72 6.03.26 12.13-.42 18.12.56-1.23 1.52-3.32 1.2-5.05 1.28-5.66-.08-11.33-.01-17-.12Z" fill="#3a3941" stroke="#3a3941" stroke-width=".25"/><path d="M195.44 247.49c10.69-.02 21.38.02 32.07 0-.05.45-.13 1.35-.17 1.8-10.54-.11-21.07-.1-31.61-.01-.07-.45-.22-1.34-.29-1.79Z" fill="#34343c" stroke="#34343c" stroke-width=".25"/><path d="M236.24 247.57c7.17.12 14.35-.16 21.51.11-.43.54-.86 1.08-1.29 1.63-6.63-.17-13.26-.1-19.89-.01-.08-.43-.25-1.3-.33-1.73Z" fill="#1e1c27" stroke="#1e1c27" stroke-width=".25"/><path d="M25.33 249.14c3.54-.49 6.43 1.61 8.94 3.8l.12-2.5c.29-.45.86-1.35 1.15-1.8.44 6.34 4.99 11.31 5.97 17.49.14.72.41 2.16.55 2.88-.91-.1-1.81-.21-2.72-.31l-.35-.04c-4.33-6.67-13.56-10.57-13.66-19.52Z" fill="#082a2b" stroke="#082a2b" stroke-width=".25"/><path d="M101.74 249.28c1.58-.08 3.17.04 4.73.29.09 1.58.15 3.17.16 4.76-1.47.68-3 1.75-4.7 1.05-.78-1.03-1.35-2.17-1.71-3.41.38-.67 1.14-2.01 1.52-2.69Z" fill="#fefeff" stroke="#fefeff" stroke-width=".25"/><path d="M28.04 251.12c2.83 1.29 5.41 3.14 7.58 5.37 2.17 2.9 3.46 6.37 4.42 9.84-4.43-4.57-10.19-8.36-12.52-14.52l.52-.69Z" fill="#369379" stroke="#369379" stroke-width=".25"/><path d="M387.4 252.92c3.51 6.1 5.67 13.34 4.77 20.41-1.8.95-2.91.53-3.35-1.27-1.41-6.28-1.65-12.73-1.42-19.14Z" fill="#2d9676" stroke="#2d9676" stroke-width=".25"/><path d="M43.58 255.96c.59-1.13 1.5-1.91 2.74-2.35-.2 4.07-.23 8.16-.46 12.23-.57 1.84-1.24 3.63-1.84 5.46.04-2.15-.01-4.29-.06-6.43-.07-2.98-.17-5.95-.38-8.91Z" fill="#04382f" stroke="#04382f" stroke-width=".25"/><path d="M399.03 264.03c.31-3.61 2.44-6.66 4.95-9.12-.34 3.58-1.96 7.01-4.95 9.12Z" fill="#395f61" stroke="#395f61" stroke-width=".25"/><path d="M104.75 259.23c-.88-1.45.39-2.47 1.35-3.39 4.92 12.45 9.91 24.88 14.6 37.41-.82.18-1.66.31-2.5.41-4.46-11.49-8.92-22.98-13.45-34.43Z" fill="#fffeff" stroke="#fffeff" stroke-width=".25"/><path d="M394.2 269.08c.49-4.07.68-8.72 3.54-11.91.19 2.2.97 4.5.37 6.7-.95 1.97-2.49 3.57-3.91 5.21Z" fill="#2f7266" stroke="#2f7266" stroke-width=".25"/><path d="M380.08 260.75c5.16 1.8 6.66 7.62 6.88 12.52-2.6-.89-3.25-3.69-4.32-5.89-.97-2.17-1.85-4.37-2.56-6.63Z" fill="#347a6c" stroke="#347a6c" stroke-width=".25"/><path d="M398.34 273.73c1.9-5.13 3.56-11.5 9.29-13.59-1.97 4.53-4.91 8.54-6.91 13.06-.59.13-1.79.39-2.38.53Z" fill="#418076" stroke="#418076" stroke-width=".25"/><path d="M111.2 263.47c7.25.09 14.5-.09 21.74.09 3.24.7 5.65 3.65 9.06 3.97 3.73.39 7.79.49 11.15-1.44 1.92-.87 3.59-2.57 5.82-2.54 7.81-.07 15.63-.1 23.44.06.1 5.2-.46 10.47.6 15.62 2.78-4.93.71-10.98 1.33-16.39 45.07.01 90.14.06 135.21-.01-.24 5.59.89 11.4-1.08 16.79-3.72 1.1-7.63.72-11.46.74-13.11 0-26.22-.02-39.33-.01-26.18-.05-52.36-.05-78.54.01-1.74.12-2.97-1.37-4.35-2.13-.44.67-.88 1.34-1.31 2.03 1.76.88 3.45 2.25 5.54 2.13 16.17-.02 32.35-.02 48.53-.01-.28 4.97-.86 9.93-2.03 14.77-1.94-.72-3.87-1.46-5.82-2.16-5.35-2.13-11.22-1.98-16.8-3.06-7.94-1.01-15.96-1.4-23.96-1.66-22.08-1.46-44.33-.9-66.24 2.41-.16-.31-.5-.94-.66-1.25-3.58-9.34-7.24-18.64-10.84-27.96Z" fill="#fff" stroke="#fff" stroke-width=".25"/><path d="M321.46 263.63c18.05-.31 36.11 0 54.16-.17 4.16 1.89 6.35 6.08 7.86 10.16l-2.91.04c-1 8.34.97 16.7 1.32 25.03-14.63-.19-29.27.07-43.89-.1-10.58-1.54-21.31-.56-31.95-.81-7.54 1.04-15.14.92-22.72.84-4.46-.01-8.92.04-13.37-.22-1.03-5.3-1.86-10.65-2.2-16.04 15.42.02 30.85 0 46.28.03 3.03.42 6.15-1.36 7.06-4.34.81-4.75.25-9.62.36-14.42Z" fill="#fff" stroke="#fff" stroke-width=".25"/><path d="M41.51 266.13c.62-.32 1.84-.95 2.45-1.26.05 2.14.1 4.28.06 6.43l-.28.98c-.58-1.08-1.16-2.16-1.68-3.27-.14-.72-.41-2.16-.55-2.88Z" fill="#3b716a" stroke="#3b716a" stroke-width=".25"/><path d="M250.73 267.51c1.94-.17 4.44-.89 5.82.96 1.57 1.24.81 3.41.97 5.12-1.71 1.84-4.86 2.88-6.89.95-2.23-1.78-.94-4.95.1-7.03Z" fill="#14121c" stroke="#14121c" stroke-width=".25"/><path d="M394.43 274.23c.59-2.69 1.83-5.17 3.99-6.95-.27 2.24-.61 4.49-1.25 6.66-.69.07-2.05.22-2.74.29Z" fill="#387169" stroke="#387169" stroke-width=".25"/><path d="M251.52 273.47c-.09-1.66-.74-4.18 1.56-4.58l2.59.56c0 1.38-.03 2.75-.09 4.13-1.36-.02-2.71-.06-4.06-.11Z" fill="#fffeff" stroke="#fffeff" stroke-width=".25"/><path d="M71.85 270.42c3.52 1.97 1 6.75 2.38 9.96.68-2.95.95-5.97 1.38-8.96l3.04-.04c.43 2.98-.09 5.98-.2 8.98 1.05-2.51 1.1-5.25 1.24-7.92 1.08-.13 2.16-.25 3.25-.35-.3 2.65-1.17 5.2-1.4 7.86-.11 6.91-1.67 13.69-2.13 20.58 5.17-1.58 10.52-2.2 15.91-2.06-.11-5.9-.14-11.8-.02-17.7-.13-1.41 1.5-2 2.31-2.81.09-1.51.14-3.02.16-4.53 2.48-.85 5.12-.63 7.7-.69.16 1.51.29 3.03.4 4.55 1.3.98 3 1.88 3.14 3.73.33 5.83-.51 11.75.18 17.55.47.06 1.41.17 1.89.22-.05.32-.14.95-.19 1.27-4.14 3.77-11.76 5.09-15.87.73-3.41-.09-6.86-.18-10.19.68-9.13 2.29-18.39 4.01-27.57 6.08 2.24.17 4.49.32 6.74.34 16.54-.16 33.07.04 49.61-.11.04.59.11 1.77.15 2.36-16.9.08-33.8-.05-50.69.04-6.19.11-12.38-.71-18.56.05-.03-.38-.09-1.14-.13-1.52l-.07-.83c7.9-.82 15.47-3.55 23.35-4.49-.35-3.49-.85-6.95-1.27-10.42l1.87.57c3.38.39 6.79.27 10.18.23.16-1.96.29-3.92.51-5.87.07-.43.2-1.27.27-1.7.2-1.26.4-2.52.61-3.78-4.43.02-8.86.01-13.29.23-.84-2.57-1.64-5.15-2.48-7.72-.2-.59-.6-1.78-.81-2.38.79-.23 2.36-.71 3.15-.95.27 2.88.56 5.76 1.19 8.58.02-3.02-.14-6.04-.03-9.05l3.36.4-.4 2.42c.44-1.18.88-2.36 1.33-3.53Z" fill="#222033" stroke="#222033" stroke-width=".25"/><path d="M400.72 273.2c.48-.17 1.42-.53 1.89-.7l.05.87c1.65.18 3.32.44 4.91.96-.75 7.61-.79 15.33-2.23 22.86-.31-.81-.93-2.42-1.23-3.22.33-6.12 1.09-12.2 1.42-18.31-7.88-.27-15.76.02-23.64-.02.45 7.76 1.32 15.48 1.87 23.23l-1.87-.18c-.35-8.33-2.32-16.69-1.32-25.03l2.91-.04c3.62.52 7.28.94 10.95.61.69-.07 2.05-.22 2.74-.29.29-.05.87-.16 1.17-.21.59-.14 1.79-.4 2.38-.53Z" fill="#342a19" stroke="#342a19" stroke-width=".25"/><path d="M34.53 294.18c-1.01-6.85-2.95-13.62-2.96-20.57 1.46-.18 2.92-.36 4.39-.52l.87.39c5.07 2.02 11.24 2.07 16.29-.08 1.76-.56 3.63.11 5.42.15.08 6.24-1.87 12.29-2.55 18.48-.78 3.81-1 7.78-2.55 11.4-5.55.48-11.14.47-16.7.09-1.59-2.84-1.46-6.24-2.21-9.34Z" fill="#371824" stroke="#371824" stroke-width=".25"/><path d="M99.66 274.73c1.32-.04 2.65-.09 3.97-.15l.84 2.95c-1.64.19-3.29.23-4.94.23.04-1.01.08-2.02.13-3.03Z" fill="#fefeff" stroke="#fefeff" stroke-width=".25"/><path d="M64.06 274.93c.84 2.57 1.64 5.15 2.48 7.72.38 1.2.77 2.4 1.16 3.6 3.84-.07 7.68-.05 11.52-.05-.07.43-.2 1.27-.27 1.7-3.76.32-7.54.22-11.3.15.2 1.83.42 3.66.61 5.49l-1.87-.57c-1.27-5.94-1.38-12.05-2.33-18.04Z" fill="#36343f" stroke="#36343f" stroke-width=".25"/><path d="M33.43 276.03c7.73 1 15.57.77 23.32.09-1.52 8.43-2.87 16.9-4.44 25.32-4.84.56-9.74.52-14.59.02-1.19-8.52-3.11-16.91-4.29-25.43Z" fill="#fe8280" stroke="#fe8280" stroke-width=".25"/><path d="M381.89 275.64c7.88.04 15.76-.25 23.64.02-.33 6.11-1.09 12.19-1.42 18.31-.3 3.04-.42 6.1-.91 9.13-6.06 1.37-12.53.38-18.74.47-.26-1.57-.52-3.13-.7-4.7-.55-7.75-1.42-15.47-1.87-23.23Z" fill="#fcd776" stroke="#fcd776" stroke-width=".25"/><path d="M183.48 280.26c.43-.69.87-1.36 1.31-2.03 1.38.76 2.61 2.25 4.35 2.13 26.18-.06 52.36-.06 78.54-.01l.08 2.01c.34 5.39 1.17 10.74 2.2 16.04 4.45.26 8.91.21 13.37.22.74 1.39 1.42 2.8 1.99 4.27-14.71-.44-29.43-.08-44.14-.23l.81.95c-1.27-.49-2.53-1.04-3.77-1.56-2.29-2.15-5.04-3.69-7.81-5.11-.17-.48-.53-1.46-.71-1.95 1.95.7 3.88 1.44 5.82 2.16 1.17-4.84 1.75-9.8 2.03-14.77-16.18-.01-32.36-.01-48.53.01-2.09.12-3.78-1.25-5.54-2.13Z" fill="#19182c" stroke="#19182c" stroke-width=".25"/><path d="M97.23 279.96c3.38-.49 6.94-.79 10.19.54.03.93.06 1.86.1 2.8-.48.13-1.42.39-1.9.52-.57 4.75-.23 9.61-.19 14.4.63.17 1.88.51 2.5.68-2.17 3.78-7.05 2.35-10.57 2.12-.89-6.97-.6-14.06-.13-21.06Z" fill="#fefeff" stroke="#fefeff" stroke-width=".25"/><path d="M390.57 281.85c6.73-3.19 14.13 4.67 11.27 11.25-1.47 5.65-9.54 7.99-13.49 3.53-4.68-3.96-3.22-12.23 2.22-14.78Z" fill="#21111b" stroke="#21111b" stroke-width=".25"/><path d="M66.54 282.65c4.43-.22 8.86-.21 13.29-.23-.21 1.26-.41 2.52-.61 3.78-3.84 0-7.68-.02-11.52.05-.39-1.2-.78-2.4-1.16-3.6Z" fill="#fefeff" stroke="#fefeff" stroke-width=".25"/><path d="M99.63 283.56c1.01-.09 2.03-.18 3.05-.26.89 4.52.51 9.17.42 13.75-.25 1.82-2.67 1.96-3.47.55-.39-4.67-.13-9.37 0-14.04Z" fill="#3a3941" stroke="#3a3941" stroke-width=".25"/><path d="M239.48 282.42c8.71 0 17.43-.03 26.14-.09.21 1.64.43 3.3.63 4.95-8.97-.09-17.96.35-26.93-.25.05-1.54.1-3.08.16-4.61Z" fill="#73c3d8" stroke="#73c3d8" stroke-width=".25"/><path d="M392.27 283.42c4.51-1.35 9.24 2.89 8.23 7.54-.02 4.97-6.68 8.38-10.45 4.96-4.39-3.22-3.2-11.16 2.22-12.5Z" fill="#fa5049" stroke="#fa5049" stroke-width=".25"/><path d="M237.15 298.63c1.26-3.75 1.68-7.7 2.17-11.6 8.97.6 17.96.16 26.93.25.12 3.88 1.01 7.66 1.67 11.47-10.26-.03-20.52.13-30.77-.12ZM67.65 288.05c3.76.07 7.54.17 11.3-.15-.22 1.95-.35 3.91-.51 5.87-3.39.04-6.8.16-10.18-.23-.19-1.83-.41-3.66-.61-5.49Z" fill="#fff" stroke="#fff" stroke-width=".25"/><path d="M122.7 292.68c21.91-3.31 44.16-3.87 66.24-2.41 8 .26 16.02.65 23.96 1.66 5.58 1.08 11.45.93 16.8 3.06.18.49.54 1.47.71 1.95-17.12-4.14-34.85-4.42-52.36-5.29-17.93-.32-35.97-.12-53.69 2.87-2.55.51-5.04 1.31-7.47 2.21-.43.2-1.27.6-1.7.8.68-1.29 1.35-2.58 1.78-3.98l1.23.11c.84-.1 1.68-.23 2.5-.41.34-.45 1.01-1.37 1.34-1.82.16.31.5.94.66 1.25Z" fill="#101f34" stroke="#101f34" stroke-width=".25"/><path d="M124.36 294.52c17.72-2.99 35.76-3.19 53.69-2.87 17.51.87 35.24 1.15 52.36 5.29 2.77 1.42 5.52 2.96 7.81 5.11 5.42 5.61 5.59 13.8 6.32 21.09 1.65 15.97 3.92 31.88 5.31 47.88.83 7.33 1.17 14.72.73 22.08-.1 2.66-1.3 5.07-2.2 7.51l1.46 1.22-1.5-.85c-2.91 2.51-6.18 4.71-10.07 5.26-16.14 2.85-32.61 2.64-48.93 2.39-8.3-.09-16.57-.88-24.85-1.45-8.42-1.14-17.04-1.79-25.07-4.75-7.09-2.53-13.11-8.8-13.99-16.47-2.33-15.88-4.39-31.8-6.56-47.71-.74-8.03-1.86-16.03-2.72-24.05-.67-5.79-1.84-11.96.74-17.47 2.43-.9 4.92-1.7 7.47-2.21Z" fill="#63cde3" stroke="#63cde3" stroke-width=".25"/><path d="M403.2 303.1c.49-3.03.61-6.09.91-9.13.3.8.92 2.41 1.23 3.22.13.36.38 1.1.5 1.46 7.07.3 14.41-1.05 21.2 1.49 9.08 2.92 18.41 4.94 27.51 7.74-2.99.71-6.07.68-9.1.3l1.4-.12c-8.28-2.16-16.47-4.66-24.73-6.92-5.46-.8-11.01-.16-16.51-.38-.45 1.5-.92 3-1.39 4.51-7.23-.06-14.62 1-21.74-.52-.07-1.33-.15-2.66-.21-3.99-14.42.14-28.84-.2-43.25.18.82.28 1.65.57 2.48.86-.01 1.53-.03 3.06-.06 4.6-11.15.07-22.31-.05-33.45.09-3.72.4-6.59-2.56-8.16-5.59-4.59-.2-9.19-.14-13.78-.16l1.8 2.52c-.02.73-.06 2.19-.07 2.93-14.66.43-29.34.14-44 .11.18.44.53 1.31.71 1.75.14.45.41 1.36.54 1.82.54 2.83.56 5.73.73 8.61.04.31.13.94.17 1.25.05.25.14.74.19.98 2.48 18.26 4.24 36.62 6.26 54.93 6.23.37 12.61.38 18.65 2.07 4.14 1.01 6.12 5.38 5.68 9.35-8.33 3.32-16.62 6.77-24.77 10.54-.66 1.42-1.35 2.84-2.1 4.23l-1.46-1.22c.9-2.44 2.1-4.85 2.2-7.51.44-7.36.1-14.75-.73-22.08-1.39-16-3.66-31.91-5.31-47.88-.73-7.29-.9-15.48-6.32-21.09 1.24.52 2.5 1.07 3.77 1.56 2.51 1.14 5.33.67 8 .76 11.97-.07 23.94.03 35.92-.04l-.59-1.44c-.57-1.47-1.25-2.88-1.99-4.27 7.58.08 15.18.2 22.72-.84 10.64.25 21.37-.73 31.95.81 14.62.17 29.26-.09 43.89.1l1.87.18c.18 1.57.44 3.13.7 4.7 6.21-.09 12.68.9 18.74-.47Z" fill="#152537" stroke="#152537" stroke-width=".25"/><path d="M68.5 295.74c3.23.01 6.46.03 9.7.08-.31 1.83-.57 3.68-.82 5.53-2.63.23-5.27.38-7.92.43-.33-2.01-.66-4.02-.96-6.04Z" fill="#fffeff" stroke="#fffeff" stroke-width=".25"/><path d="M115.19 297.53c.43-.2 1.27-.6 1.7-.8-2.58 5.51-1.41 11.68-.74 17.47.86 8.02 1.98 16.02 2.72 24.05-.62-1.97-1.34-3.9-2.21-5.77-.29-.24-.85-.72-1.14-.96-3.12-.22-6.3.13-9.38-.49l-1-1.55c3.74-.17 7.5-.04 11.23-.41-3.94-1.08-8.07-.75-12.11-.9-.07 1.49-.13 2.98-.25 4.47-.37.46-1.09 1.38-1.46 1.84-.19-2.32-.3-4.65-.37-6.98-2.27-.04-4.53-.07-6.79-.19l-.34-.22c-4.45-2.34-9.96.31-14.69-1.6 8.99-.55 18-.15 27-.09.04-1.59.07-3.18.1-4.76 2.25-.24 4.48-.67 6.7-1.12-11.71-.61-23.44.05-35.16-.37-11.49-.4-23.05.75-34.5-.48 23.4-.22 46.8-.02 70.21-.08-.33-2.82-.71-5.63-.95-8.45-.04-.59-.11-1.77-.15-2.36-.04-.56-.11-1.68-.15-2.24-.94-.54-1.9-1.05-2.86-1.54.07-.99.22-2.96.29-3.94.05-.32.14-.95.19-1.27l2.89-.42c.3-.21.92-.63 1.22-.84Z" fill="#171a34" stroke="#171a34" stroke-width=".25"/><path d="M303.77 299.9c9.08-.49 18.19.01 27.29-.24 2.15-.26 4.07.84 5.97 1.66-3.26.98-6.68.64-10.03.61-7.05-.15-14.11.23-21.16-.13-.72-.61-1.41-1.24-2.07-1.9Z" fill="#fefeff" stroke="#fefeff" stroke-width=".25"/><path d="M339.02 300.94c14.41-.38 28.83-.04 43.25-.18.06 1.33.14 2.66.21 3.99 7.12 1.52 14.51.46 21.74.52.47-1.51.94-3.01 1.39-4.51 5.5.22 11.05-.42 16.51.38 8.26 2.26 16.45 4.76 24.73 6.92l-1.4.12c-16.12-.64-32.27-.16-48.41-.34-19.68.46-39.37-.44-59.05.24-11.64-.65-23.3.53-34.93-.19-19.52.23-39.05.25-58.57.16-.18-.44-.53-1.31-.71-1.75 14.66.03 29.34.32 44-.11.01-.74.05-2.2.07-2.93l-1.8-2.52c4.59.02 9.19-.04 13.78.16 1.57 3.03 4.44 5.99 8.16 5.59 11.14-.14 22.3-.02 33.45-.09.03-1.54.05-3.07.06-4.6-.83-.29-1.66-.58-2.48-.86ZM84.83 301.47c3.33-.86 6.78-.77 10.19-.68 4.11 4.36 11.73 3.04 15.87-.73-.07.98-.22 2.95-.29 3.94.96.49 1.92 1 2.86 1.54.04.56.11 1.68.15 2.24-16.54.15-33.07-.05-49.61.11-2.25-.02-4.5-.17-6.74-.34 9.18-2.07 18.44-3.79 27.57-6.08Z" fill="#feffff" stroke="#feffff" stroke-width=".25"/><path d="M337.03 301.32c.2-.05.59-.14.78-.19-.18.42-.53 1.28-.71 1.7 1.41.24 3.14.19 3.39 1.99l-.6-.13c-1.6-.4-3.23-.71-4.88-.7-9.24.01-18.51.45-27.73-.36-.36-.46-1.08-1.37-1.44-1.83 7.05.36 14.11-.02 21.16.13 3.35.03 6.77.37 10.03-.61Z" fill="#535460" stroke="#535460" stroke-width=".25"/><path d="M241.18 302.66c14.71.15 29.43-.21 44.14.23l.59 1.44c-11.98.07-23.95-.03-35.92.04-2.67-.09-5.49.38-8-.76l-.81-.95Z" fill="#edeffb" stroke="#edeffb" stroke-width=".25"/><path d="M307.28 303.63c9.22.81 18.49.37 27.73.36 1.65-.01 3.28.3 4.88.7-11.34.57-22.74.37-34.09.12.37-.29 1.11-.88 1.48-1.18Z" fill="#7b7e8d" stroke="#7b7e8d" stroke-width=".25"/><path d="M244.49 308.05c19.52.09 39.05.07 58.57-.16 11.63.72 23.29-.46 34.93.19 19.68-.68 39.37.22 59.05-.24 16.14.18 32.29-.3 48.41.34 3.03.38 6.11.41 9.1-.3 1.02.05 2.02.29 3.01.72 0 3.94.02 7.89.02 11.84-6.91.44-13.85.15-20.77.15-.14 33.02.03 66.03-.1 99.05 20.57.39 41.18.25 61.76.07.03.88.06 1.77.1 2.66-20.61-.07-41.24-.28-61.85.11.14 8.41.08 16.83-.01 25.25-28.93-.75-57.92-.26-86.88-.38-2.69-4.71-4.99-9.63-7.41-14.47l.27-.65.76-1.64c1.67 3.35 3.44 6.65 5.22 9.95.25-38.07.13-76.15.09-114.22-1.75-1.8-3.48-3.64-5.48-5.16-.48-.14-1.42-.41-1.9-.55-31.75.2-63.51-.05-95.26.1-.05-.24-.14-.73-.19-.98-.04-.31-.13-.94-.17-1.25 69.94.3 139.89-.01 209.84.12.02-2.82.05-5.62.11-8.43-5.22-.52-10.46.08-15.69-.02-62.33.02-124.66-.02-186.98.02-2.68 0-5.34-.14-8.01-.3-.13-.46-.4-1.37-.54-1.82Z" fill="#251321" stroke="#251321" stroke-width=".25"/><path d="m42.7 308.14 1.68.57c.04.38.1 1.14.13 1.52.09 2.81-.03 5.63-.01 8.44 11.45 1.23 23.01.08 34.5.48 11.72.42 23.45-.24 35.16.37-2.22.45-4.45.88-6.7 1.12-8.94.05-17.89.01-26.84-.01-.08 1.62-.17 3.24-.26 4.86 4.73 1.91 10.24-.74 14.69 1.6l-2.24.12c-4.14.27-8.3.16-12.44.18-.59 30.81-1.6 61.61-2.02 92.43-.01.61-.03 1.83-.03 2.44.02 8.48-.56 16.94-.77 25.42-2.58.1-5.16.1-7.74.07-.42-8.49-.1-16.99-.2-25.48v-2.43c-.05-33.09.04-66.18-.09-99.28-8.99.08-18 .35-26.98-.19-.12-4.08-.17-8.16.16-12.23Z" fill="#21111b" stroke="#21111b" stroke-width=".25"/><path d="M44.51 310.23c6.18-.76 12.37.06 18.56-.05 16.89-.09 33.79.04 50.69-.04.24 2.82.62 5.63.95 8.45-23.41.06-46.81-.14-70.21.08-.02-2.81.1-5.63.01-8.44Z" fill="#fca5ab" stroke="#fca5ab" stroke-width=".25"/><path d="M245.03 309.87c2.67.16 5.33.3 8.01.3 62.32-.04 124.65 0 186.98-.02 5.23.1 10.47-.5 15.69.02-.06 2.81-.09 5.61-.11 8.43-69.95-.13-139.9.18-209.84-.12-.17-2.88-.19-5.78-.73-8.61Z" fill="#fca6ab" stroke="#fca6ab" stroke-width=".25"/><path d="M78.43 320.54c-.23 18.83-1.1 37.65-1.18 56.49-.99 22.89-.64 45.82-1.62 68.72l-4.04-.27c.12-41.6-.07-83.2.03-124.79 2.27-.04 4.54-.09 6.81-.15Z" fill="#fba5ad" stroke="#fba5ad" stroke-width=".25"/><path d="M377.67 320.55c6.76-.77 13.58-.4 20.37-.5 1.18.22 2.81-.26 3.76.57 0 1.54-.01 3.09-.05 4.64l-.01.46c-8.07-.03-16.16.43-24.2-.29.04-1.63.08-3.26.13-4.88Z" fill="#181a31" stroke="#181a31" stroke-width=".25"/><path d="M423.07 320.59c3.89.02 7.78.03 11.68-.06-.05 41.68-.07 83.37.01 125.05-1.15.03-2.29.07-3.42.12.2-39.96-.09-79.93.12-119.89-2.7-1.89-5.58-3.51-8.39-5.22Z" fill="#f6b1b7" stroke="#f6b1b7" stroke-width=".25"/><path d="M80.62 320.63c8.95.02 17.9.06 26.84.01-.03 1.58-.06 3.17-.1 4.76-9-.06-18.01-.46-27 .09.09-1.62.18-3.24.26-4.86Z" fill="#b8c2cc" stroke="#b8c2cc" stroke-width=".25"/><path d="M246.12 320.71c31.75-.15 63.51.1 95.26-.1-.1 33.04-.11 66.08.01 99.11-45.08.24-90.18.13-135.27.06l-1.34-.16c-.07-3.04-.07-6.07-.04-9.11 10.43.57 20.88-.54 31.21-1.87 5.22-.6 10.73-2.32 13.89-6.81.75-1.39 1.44-2.81 2.1-4.23 8.15-3.77 16.44-7.22 24.77-10.54.44-3.97-1.54-8.34-5.68-9.35-6.04-1.69-12.42-1.7-18.65-2.07-2.02-18.31-3.78-36.67-6.26-54.93Z" fill="#fff" stroke="#fff" stroke-width=".25"/><path d="M341.38 320.61c.48.14 1.42.41 1.9.55.22 36.47-.12 72.96.17 109.43l-.76 1.64-1.23-.44c-.33-3.12-.13-6.26-.12-9.38-45.32-.39-90.67.17-135.99-.28.19-.59.58-1.76.77-2.35 45.09.07 90.19.18 135.27-.06-.12-33.03-.11-66.07-.01-99.11Z" fill="#19182c" stroke="#19182c" stroke-width=".25"/><path d="M343.28 321.16c2 1.52 3.73 3.36 5.48 5.16.04 38.07.16 76.15-.09 114.22-1.78-3.3-3.55-6.6-5.22-9.95-.29-36.47.05-72.96-.17-109.43Z" fill="#ae94b5" stroke="#ae94b5" stroke-width=".25"/><path d="M346.4 320.68c10.42-.18 20.84.08 31.27-.13-.05 1.62-.09 3.25-.13 4.88-8.89-.24-17.78-.18-26.67-.08a63.56 63.56 0 0 1-4.47-4.67Z" fill="#b7c2cb" stroke="#b7c2cb" stroke-width=".25"/><path d="M401.8 320.62c5.75.11 11.52-.18 17.27.08 2.44 1.21 4.61 2.88 6.81 4.49-8.05.18-16.09.08-24.13.07.04-1.55.05-3.1.05-4.64Z" fill="#b4c0c9" stroke="#b4c0c9" stroke-width=".25"/><path d="M80.37 327.39c4.14-.02 8.3.09 12.44-.18.59 4.58.01 9.18.09 13.77.77 14.34-.63 28.68.2 43.02.32 4.34-.18 8.66-.78 12.95-.23 7.6-.07 15.21-.06 22.81-4.64.1-9.27.09-13.91.06.42-30.82 1.43-61.62 2.02-92.43Z" fill="#feffff" stroke="#feffff" stroke-width=".25"/><path d="m92.81 327.21 2.24-.12.34.22c-.3 22.37-.17 44.76-.07 67.13 7.67.03 15.35-.21 23.02.14.03 8.4.02 16.81.01 25.21 20.56.21 41.13-.15 61.68.21 4.4-.19 8.81-.23 13.19.18 0 .54-.01 1.61-.01 2.14-24.97.01-49.95-.19-74.91.1-.53 4.55 2.01 10.96-2.88 13.81-5.78.63-11.67.08-17.5.28-2.1.27-4.04-.85-5.31-2.45-.77-3.85-.28-7.81-.31-11.7-4.66-.13-9.32-.04-13.98-.1 0-.61.02-1.83.03-2.44 4.64.03 9.27.04 13.91-.06-.01-7.6-.17-15.21.06-22.81.6-4.29 1.1-8.61.78-12.95-.83-14.34.57-28.68-.2-43.02-.08-4.59.5-9.19-.09-13.77Z" fill="#1e1c27" stroke="#1e1c27" stroke-width=".25"/><path d="M351.15 327.36c26.09.15 52.18-.16 78.27.1-.11 11.7-.13 23.4.02 35.09-26.23.2-52.48.32-78.71-.06.37-11.71-.14-23.44.42-35.13Z" fill="#f1b4ba" stroke="#f1b4ba" stroke-width=".25"/><path d="M95.39 327.31c2.26.12 4.52.15 6.79.19.07 2.33.18 4.66.37 6.98 4.62.32 9.26.23 13.89.2 2.58 17.76 4.68 35.6 7.43 53.34 1.33 7.06 6.84 12.76 13.28 15.6 8.48 3.86 17.94 4.18 27.02 5.5 9.71.72 19.42 1.52 29.17 1.54-.06 3.17-.09 6.35-.12 9.52-4.38-.41-8.79-.37-13.19-.18-20.55-.36-41.12 0-61.68-.21.01-8.4.02-16.81-.01-25.21-7.67-.35-15.35-.11-23.02-.14-.1-22.37-.23-44.76.07-67.13Z" fill="#feffff" stroke="#feffff" stroke-width=".25"/><path d="M104.26 328.17c4.04.15 8.17-.18 12.11.9-3.73.37-7.49.24-11.23.41l1 1.55c3.08.62 6.26.27 9.38.49.29.24.85.72 1.14.96-4.22.2-8.44.12-12.65.16.12-1.49.18-2.98.25-4.47Z" fill="#aeb5bf" stroke="#aeb5bf" stroke-width=".25"/><path d="M353.03 329.18c7.31-.22 14.64-.14 21.95-.13 1.59-.31 2.51.9 2.73 2.35.36 1.37.67 2.75.99 4.14 8.32-.13 16.64.04 24.96-.05.52-.01 1.55-.02 2.06-.03.07-2.06-.18-4.11-.37-6.15 7.13-.51 14.38-.39 21.55-.22.35 10.57.55 21.2.02 31.77-23.31.47-46.62-.04-69.92.23-1.5-.07-4.43.31-4.14-2.06-.2-8.65.22-17.32-.27-25.96-.1-1.32.17-2.61.44-3.89Z" fill="#ffa9af" stroke="#ffa9af" stroke-width=".25"/><path d="M377.71 331.4c.56-.2 1.7-.6 2.26-.8 7.85-.22 15.71.05 23.56-.11.09 1.67.12 3.33.13 5-8.32.09-16.64-.08-24.96.05-.32-1.39-.63-2.77-.99-4.14Z" fill="#331420" stroke="#331420" stroke-width=".25"/><path d="M380.42 332.16c7.01-.08 14.08-.39 21.08.14.16.37.49 1.12.66 1.5-7.42.35-14.86.22-22.28.09.13-.43.4-1.3.54-1.73Z" fill="#6a515f" stroke="#6a515f" stroke-width=".25"/><path d="M104.01 332.64c4.21-.04 8.43.04 12.65-.16.87 1.87 1.59 3.8 2.21 5.77 2.17 15.91 4.23 31.83 6.56 47.71.88 7.67 6.9 13.94 13.99 16.47 8.03 2.96 16.65 3.61 25.07 4.75 8.28.57 16.55 1.36 24.85 1.45 16.32.25 32.79.46 48.93-2.39 3.89-.55 7.16-2.75 10.07-5.26l1.5.85c-3.16 4.49-8.67 6.21-13.89 6.81-10.33 1.33-20.78 2.44-31.21 1.87-3.57-.51-7.17-.72-10.77-.44.32 1.88.67 3.75.93 5.65.77 9.64.03 19.34.43 29.01 2.46.05 4.92.09 7.38.11.07-9.68.03-19.36.09-29.03.68 1.25 1.29 2.55 1.98 3.81l1.34.16c-.19.59-.58 1.76-.77 2.35-.12.24-.37.71-.5.94-.22 4.7-.07 9.41-.11 14.12l2.31.4c5.54 2.33 11.09 4.78 16.94 6.26 3.74 1.18 7.49 2.37 11.04 4.05.78 2.87 3.44 4.48 5.36 6.53 1.69 1.68 3.45 3.29 5.01 5.09l-1.01 1.28c-3.52-2.86-6.78-6.01-9.87-9.32-1.39-1.56-3.51-2.03-5.36-2.81-8.23-2.98-16.09-6.96-24.48-9.53-.03 1.07-.11 3.22-.14 4.3 9.56 3.65 19.17 7.18 28.7 10.93-2.33 2.32-5.18-.22-7.66-.8-6.16-2.31-12.2-4.95-18.45-6.99-2.7-.94-5.42.54-8.14.63-2.31.35-4.39-.82-6.28-1.97l.38-2.01c.13-1.4.15-2.81.22-4.21-9.51 1.86-18.5 5.63-27.8 8.27-4.35 1.65-9.5 1.78-12.95 5.24-2.83 2.74-6.83 4.2-8.98 7.62 5.26-2.48 10.27-5.6 15.99-6.97 1.22.29 2.43.61 3.64.95-4.52 1.26-9.04 2.66-13.12 5.01-2.69 1.13-5.16 3.16-8.17 3.23-.9-.89-1.34-1.99-1.31-3.31 4.99-3.32 9.37-7.55 14.49-10.66 12.72-4.06 25.57-7.74 38.21-12.04-.16-4.68-.11-9.36-.1-14.04 0-.53.01-1.6.01-2.14.03-3.17.06-6.35.12-9.52-9.75-.02-19.46-.82-29.17-1.54-9.08-1.32-18.54-1.64-27.02-5.5-6.44-2.84-11.95-8.54-13.28-15.6-2.75-17.74-4.85-35.58-7.43-53.34-4.63.03-9.27.12-13.89-.2.37-.46 1.09-1.38 1.46-1.84Z" fill="#141b2b" stroke="#141b2b" stroke-width=".25"/><path d="M350.9 367.99c.15-1.12.34-2.22.59-3.32 24.84.19 49.69.03 74.52.1 1.17.09 2.33.28 3.47.57-.22 26.44-.18 52.89-.02 79.32-3.43.86-6.99.47-10.48.52-21.31.04-42.61-.02-63.92.02-1.53.06-3.01-.29-4.45-.71.55-25.49 0-51 .29-76.5Z" fill="#ffa9af" stroke="#ffa9af" stroke-width=".25"/><path d="M378.28 372.42c8.53-.04 17.07-.17 25.6.13-.08 1.61-.2 3.22-.38 4.82-8.3-.06-16.6-.03-24.89-.02-.17-1.64-.27-3.29-.33-4.93Z" fill="#21111b" stroke="#21111b" stroke-width=".25"/><path d="M380.17 374.34c7.21.14 14.42.09 21.63.04 0 .29.01.88.02 1.17-7.18-.15-14.37-.13-21.55 0-.02-.3-.07-.91-.1-1.21Z" fill="#ae94b5" stroke="#ae94b5" stroke-width=".25"/><path d="M252.45 377.4c5.86.69 11.85.64 17.58 2.1 2.86.62 4.37 3.36 4.84 6.03-7.56 2.87-14.81 6.49-22.38 9.32.48-5.81.18-11.64-.04-17.45Z" fill="#63c9e1" stroke="#63c9e1" stroke-width=".25"/><path d="M94.19 396.41c7.43.11 14.85-.11 22.28.07l-.04 4.02c-7.43-.06-14.85.01-22.27-.07l.03-4.02Z" fill="#fefeff" stroke="#fefeff" stroke-width=".25"/><path d="M13.03 401.03c11.95-1.72 24.12-1.74 36.07-.13 2.36.38 4.66 1.02 6.88 1.89.39 1.84-1.14 2.86-2.13 4.03l-.21-1.25c-7.97 2.5-16.46 1.95-24.7 2.12-6.91-.04-13.95-.12-20.62-2.17.27 2.32.1 4.74.7 7 1.28.98 2.38 2.12 3.31 3.42-.68-.15-2.03-.46-2.71-.62 2.5 9.81 2.89 20.05 4.82 29.98 1.86.47 3.72.96 5.6 1.35 9.35 1.59 19.09 1.17 28.26-1.28 1.36-9.89 2.89-19.78 3.59-29.74-10.15 2.21-20.61 2.2-30.93 1.68l-2.87-.28c.76-.56 1.53-1.11 2.3-1.65 1.32.06 2.65.12 3.98.17 9.72.32 19.59.22 29.04-2.34.19-2.68-.11-5.72 2.12-7.7.28 2.58.11 5.2.06 7.79l-1.92 2.49c0 1.35 0 2.7-.01 4.06 5.32-.02 10.63 0 15.95-.01v2.43c-5.41.04-10.82 0-16.23.07-1.02 8.07-2.01 16.14-3.09 24.2-7.97 3.29-16.79 3.14-25.25 2.85-4.23-.49-8.58-.95-12.46-2.83-1.43-10.27-3.26-20.49-4.11-30.82-.56-.85-1.13-1.68-1.7-2.51-.1-3.47-.29-6.92-.22-10.39 2.12-.74 4.26-1.45 6.48-1.81Z" fill="#1f1d29" stroke="#1f1d29" stroke-width=".25"/><path d="M10.66 403.59c13.72-2.55 28.07-2.73 41.77.06-8.73 3.06-18.31 1.81-27.42 2.07-4.74-.42-10.21.61-14.35-2.13Z" fill="#babec8" stroke="#babec8" stroke-width=".25"/><path d="M94.15 402.42c7.44-.02 14.87-.05 22.31-.01-.11 9.51.05 19.02-.07 28.54.38 1.96-1.41 3.82-3.39 3.54-5.34.03-10.68.06-16.02-.03-1.34.05-2.88-.97-2.7-2.44-.29-9.86-.03-19.74-.13-29.6Z" fill="#fefeff" stroke="#fefeff" stroke-width=".25"/><path d="M193.97 410.07c3.6-.28 7.2-.07 10.77.44-.03 3.04-.03 6.07.04 9.11-.69-1.26-1.3-2.56-1.98-3.81-2.63-.17-5.27-.13-7.9-.09-.26-1.9-.61-3.77-.93-5.65Z" fill="#141833" stroke="#141833" stroke-width=".25"/><path d="M9.02 412.52c2.66.61 5.37 1.05 7.89 2.15l-.77.17c-1.35.04-2.86-.24-4.1.42 1.71.67 3.54 1.24 5.4 1 .11-.22.33-.67.45-.89 1.99-1.32 4.35.02 6.48.18-1.33-.05-2.66-.11-3.98-.17-.77.54-1.54 1.09-2.3 1.65l2.87.28c-1.25.19-2.49.43-3.72.68.86 9.55 2.84 19.03 2.8 28.66-1.88-.39-3.74-.88-5.6-1.35-1.93-9.93-2.32-20.17-4.82-29.98.68.16 2.03.47 2.71.62-.93-1.3-2.03-2.44-3.31-3.42Z" fill="#dad9dd" stroke="#dad9dd" stroke-width=".25"/><path d="M12.04 415.26c1.24-.66 2.75-.38 4.1-.42l1.06.2.69.33c-.12.22-.34.67-.45.89-1.86.24-3.69-.33-5.4-1Z" fill="#262631" stroke="#262631" stroke-width=".25"/><path d="M20.96 417.31c10.32.52 20.78.53 30.93-1.68-.7 9.96-2.23 19.85-3.59 29.74-9.17 2.45-18.91 2.87-28.26 1.28.04-9.63-1.94-19.11-2.8-28.66 1.23-.25 2.47-.49 3.72-.68Z" fill="#fff" stroke="#fff" stroke-width=".25"/><path d="M194.9 415.72c2.63-.04 5.27-.08 7.9.09-.06 9.67-.02 19.35-.09 29.03-2.46-.02-4.92-.06-7.38-.11-.4-9.67.34-19.37-.43-29.01Z" fill="#67cae2" stroke="#67cae2" stroke-width=".25"/><path d="M165.51 447.29c9.3-2.64 18.29-6.41 27.8-8.27-.07 1.4-.09 2.81-.22 4.21-11.27 2.97-22.37 6.55-33.52 9.95-5.72 1.37-10.73 4.49-15.99 6.97 2.15-3.42 6.15-4.88 8.98-7.62 3.45-3.46 8.6-3.59 12.95-5.24ZM204.68 439.14c8.39 2.57 16.25 6.55 24.48 9.53 1.85.78 3.97 1.25 5.36 2.81 3.09 3.31 6.35 6.46 9.87 9.32-.22.28-.68.84-.91 1.12-3.57-2.31-6.57-5.41-10.24-7.55-9.53-3.75-19.14-7.28-28.7-10.93.03-1.08.11-3.23.14-4.3Z" fill="#fffeff" stroke="#fffeff" stroke-width=".25"/><path d="M159.57 453.18c11.15-3.4 22.25-6.98 33.52-9.95l-.38 2.01c-5.13 1.56-10.26 3.11-15.45 4.45.31 2.29.75 4.67-.15 6.9-2.46 1.54-5.3 1.24-7.69-.26-.21-1.32-.45-2.63-.71-3.93-1.83.61-3.66 1.18-5.5 1.73a92.68 92.68 0 0 0-3.64-.95Z" fill="#171a30" stroke="#171a30" stroke-width=".25"/><path d="M177.26 449.69c5.19-1.34 10.32-2.89 15.45-4.45 1.89 1.15 3.97 2.32 6.28 1.97 2.72-.09 5.44-1.57 8.14-.63 6.25 2.04 12.29 4.68 18.45 6.99-3.65 1.61-7.76.77-11.62.99-12.3.34-24.56 1.46-36.85 2.03.9-2.23.46-4.61.15-6.9Z" fill="#feffff" stroke="#feffff" stroke-width=".25"/><path d="M335.65 455.9c5.49-.95 10.72-4.79 16.45-3.04 6.23 2.08 12.46 4.23 18.66 6.4 2.1.66 1.31 3.33 1.51 4.91 1.17.03 2.33.13 3.5.28-1.56.35-3.17.19-4.73.09-4.56 1.63-9.16 3.57-14.06 3.76-3.14-.32-5.98-1.81-8.92-2.83-3.72-1.47-7.66-2.32-11.31-3.98-1.76-.48-1.32-2.57-1.5-3.93.1-.42.3-1.25.4-1.66Z" fill="#0d162d" stroke="#0d162d" stroke-width=".25"/><path d="M163.21 454.13c1.84-.55 3.67-1.12 5.5-1.73.26 1.3.5 2.61.71 3.93l-.28.9c-6.4.19-12.65 2.05-19.05 1.91 4.08-2.35 8.6-3.75 13.12-5.01Z" fill="#fcffff" stroke="#fcffff" stroke-width=".25"/><path d="M225.58 453.57c2.48.58 5.33 3.12 7.66.8l-1.65 1.14c3.95 2.92 7.72 6.13 12.04 8.54-1.37 2.02-2.94 4.25-2.32 6.85.27 3.47 4.95 4.73 7.53 2.81 2.14-.97 2-3.68 1.76-5.62-.25-2.14-2.64-2.81-4.14-3.89 0-1.14-.01-2.26-.02-3.38-.26-.33-.78-.97-1.04-1.3-1.56-1.8-3.32-3.41-5.01-5.09 8.11-1.49 16.4-.34 24.59-.68 10.68.72 21.39.73 32.09.98 12.7 1.23 25.53.92 38.18 2.83.18 1.36-.26 3.45 1.5 3.93 3.65 1.66 7.59 2.51 11.31 3.98 2.94 1.02 5.78 2.51 8.92 2.83 4.9-.19 9.5-2.13 14.06-3.76 1.56.1 3.17.26 4.73-.09l.31-.05c2.92.57 5.66 1.78 8.24 3.27.29.55.88 1.64 1.18 2.19-2.17 3.77-6.63 4.84-10.47 6.08-11.1 2.91-22.54 4.24-33.94 5.38-7.7.69-15.4 1.51-23.13 1.57-6.13-2.04-12.6-.77-18.9-.76-16.65 1.3-33.37.74-50.05 1.07-15.01-.25-30.05.2-45.02-1.07-5.67-.05-11.48-.96-17.01.76-14.18-.34-28.32-1.78-42.36-3.72-9.01-1.62-18.56-2.7-26.33-7.97.08.63.22 1.89.29 2.52-1.47-3.39 1.05-6.66 4.22-7.74 5.66-1.98 11.54-3.55 17.55-3.86.1-1.03.18-2.05.26-3.06-.03 1.32.41 2.42 1.31 3.31 3.01-.07 5.48-2.1 8.17-3.23 6.4.14 12.65-1.72 19.05-1.91l.28-.9c2.39 1.5 5.23 1.8 7.69.26 12.29-.57 24.55-1.69 36.85-2.03 3.86-.22 7.97.62 11.62-.99Z" fill="#62cce2" stroke="#62cce2" stroke-width=".25"/><path d="M337.25 457.27c5.3-1.51 11.07-4.6 16.56-2.05 5.23 1.98 10.62 3.55 15.82 5.58.09.4.28 1.2.37 1.6-3.6 1.12-7.13 2.64-10.9 3.12-6.51-1.8-12.75-4.5-19.16-6.64-.96-.42-2.18-.58-2.69-1.61Z" fill="#feffff" stroke="#feffff" stroke-width=".25"/><path d="M233.24 454.37c3.67 2.14 6.67 5.24 10.24 7.55.23-.28.69-.84.91-1.12l1.01-1.28c.26.33.78.97 1.04 1.3.01 1.12.02 2.24.02 3.38 1.5 1.08 3.89 1.75 4.14 3.89.24 1.94.38 4.65-1.76 5.62-2.58 1.92-7.26.66-7.53-2.81-.62-2.6.95-4.83 2.32-6.85-4.32-2.41-8.09-5.62-12.04-8.54l1.65-1.14Z" fill="#191a33" stroke="#191a33" stroke-width=".25"/><path d="M135.92 466.11c.91-2.48 3.68-3.01 6.01-3.06 4.02 1.83 4.78 8.52.11 9.98-4.13 2.05-8.15-3.16-6.12-6.92Z" fill="#131935" stroke="#131935" stroke-width=".25"/><path d="M375.03 475.94c3.84-1.24 8.3-2.31 10.47-6.08 1.24 5.25-5.19 6.65-8.88 7.9-18.52 4.64-37.65 6.04-56.63 7.41-36.29 1.79-72.64 2-108.96 1.12-24.48-.93-49.06-1.9-73.24-6.13-6.6-1.32-13.63-2.37-19.21-6.44-.07-.63-.21-1.89-.29-2.52 7.77 5.27 17.32 6.35 26.33 7.97 14.04 1.94 28.18 3.38 42.36 3.72 15.27 1.31 30.63 1.42 45.95 1.72 28.34.16 56.74.26 85.03-1.72 7.73-.06 15.43-.88 23.13-1.57 11.4-1.14 22.84-2.47 33.94-5.38Z" fill="#102e41" stroke="#102e41" stroke-width=".25"/><path d="M186.98 482.89c5.53-1.72 11.34-.81 17.01-.76 14.97 1.27 30.01.82 45.02 1.07 16.68-.33 33.4.23 50.05-1.07 6.3-.01 12.77-1.28 18.9.76-28.29 1.98-56.69 1.88-85.03 1.72-15.32-.3-30.68-.41-45.95-1.72Z" fill="#73c3d8" stroke="#73c3d8" stroke-width=".25"/></svg>